<?xml version="1.0" standalone="no"?>
<!DOCTYPE svg PUBLIC "-//W3C//DTD SVG 1.1//EN" "http://www.w3.org/Graphics/SVG/1.1/DTD/svg11.dtd" >
<svg xmlns="http://www.w3.org/2000/svg" xmlns:xlink="http://www.w3.org/1999/xlink" version="1.1">
<metadata>
Created by FontForge 20170731 at Thu May 20 14:48:22 2021
 By Aleksey,,,
Copyright 2020 The Georama Project Authors (http://github.com/productiontype/georama)
</metadata>
<defs>
<font id="Georama-Bold" horiz-adv-x="580" >
  <font-face 
    font-family="Georama"
    font-weight="700"
    font-stretch="normal"
    units-per-em="1000"
    panose-1="2 11 0 0 3 2 0 2 0 4"
    ascent="800"
    descent="-200"
    x-height="544"
    cap-height="700"
    bbox="-614 -325 1351 1181"
    underline-thickness="50"
    underline-position="-150"
    unicode-range="U+000D-FB02"
  />
<missing-glyph horiz-adv-x="500" 
d="M0 0v700h500v-700h-500zM250 395l170 255h-340zM450 95v510l-170 -255zM50 95l170 255l-170 255v-510zM80 50h340l-170 255z" />
    <glyph glyph-name="uniFB01" unicode="fi" horiz-adv-x="623" 
d="M88 0v392h-75v109l75 10v13q0 72 33 122.5t95.5 77t151.5 26.5q34 0 72 -4t76.5 -11.5t73.5 -18.5l-38 -118q-19 6 -40.5 10.5t-44 7.5t-44 5t-41.5 2q-66 0 -99.5 -26t-33.5 -80v-6h323v-511h-163v392h-160v-392h-161z" />
    <glyph glyph-name="uniFB02" unicode="fl" horiz-adv-x="684" 
d="M575 -10q-52 0 -88 17.5t-53.5 58.5t-17.5 111v444q-10 3 -25 4.5t-27 1.5q-38 0 -63.5 -11t-38.5 -35t-13 -64v-14h115v-119h-115v-384h-161v384h-75v109l75 10v18q0 74 33 125t97 77.5t157 26.5q51 0 103 -6.5t101 -19.5v-532q0 -25 6 -38.5t16 -18t23 -4.5
q10 0 21.5 2t24.5 6l15 -125q-21 -10 -49 -17t-61 -7z" />
    <glyph glyph-name="T_h.liga" unicode="Th" horiz-adv-x="1106" 
d="M573 0v551h-182v-551h-169v551h-206v149h713v-199q32 18 60.5 29.5t55.5 17.5t57 6q52 0 87.5 -19t53.5 -56t18 -92v-387h-164v338q0 38 -17 55t-48 17q-16 0 -31.5 -3t-31 -9t-32.5 -15v-383h-164z" />
    <glyph glyph-name="f_b.liga" unicode="fb" horiz-adv-x="961" 
d="M654 -10q-49 0 -108 7.5t-123 20.5v603q-14 3 -28 4.5t-27 1.5q-39 0 -65.5 -11t-40 -35t-13.5 -64v-14h115v-119h-115v-384h-161v384h-75v109l75 10v18q0 74 33 125t97 77.5t157 26.5q53 0 107 -6.5t104 -19.5v-220q40 26 80 38t80 12q92 0 140 -68t48 -201
q0 -105 -28.5 -170t-90.5 -95t-161 -30zM661 107q36 0 59 15.5t34 52t11 98.5q0 52 -9 83.5t-27 46.5t-45 15q-15 0 -30.5 -3t-32 -10t-35.5 -17v-270q21 -5 39.5 -8t35.5 -3z" />
    <glyph glyph-name="f_f.liga" unicode="ff" horiz-adv-x="722" 
d="M88 0v384h-75v109l75 10v13q0 61 18.5 105t51.5 72t78 41.5t97 13.5q43 0 83 -8t79 -23q26 17 57 25t68 8t73 -6t72 -21l-22 -115q-22 7 -44.5 10.5t-42.5 3.5q-41 0 -62.5 -24t-21.5 -79v-19h130v-116h-130v-384h-161v384h-162v-384h-161zM249 497h162v24q0 31 4.5 54.5
t12.5 39.5q-20 6 -40 8.5t-39 2.5q-32 0 -54.5 -11t-34 -35.5t-11.5 -64.5v-18z" />
    <glyph glyph-name="f_f_b.liga" unicode="ffb" horiz-adv-x="1283" 
d="M977 -10q-49 0 -108 7.5t-124 20.5v603q-13 3 -27 4.5t-27 1.5q-29 0 -51 -5.5t-37 -18.5t-23 -35.5t-8 -55.5v-9h114v-119h-114v-384h-161v384h-162v-384h-161v384h-75v109l75 10v13q0 61 19 105t53 72t80 41.5t101 13.5q46 0 91.5 -9t88.5 -24q33 17 77 26t100 9
q52 0 106.5 -6.5t104.5 -19.5v-220q40 26 80 38t80 12q92 0 140 -68t48 -201q0 -105 -28.5 -170t-90.5 -95t-161 -30zM249 497h162v19q0 31 4.5 56t15.5 43q-21 6 -41.5 8.5t-39.5 2.5q-32 0 -55 -11t-34.5 -35.5t-11.5 -64.5v-18zM984 107q36 0 58.5 15.5t34 52t11.5 98.5
q0 52 -9.5 83.5t-27.5 46.5t-44 15q-15 0 -30.5 -3t-32 -10t-35.5 -17v-270q21 -5 39.5 -8t35.5 -3z" />
    <glyph glyph-name="f_f_h.liga" unicode="ffh" horiz-adv-x="1278" 
d="M88 0v384h-75v109l75 10v13q0 61 19 105t53 72t80 41.5t101 13.5q46 0 91.5 -9t88.5 -24q33 17 77 26t100 9q52 0 106.5 -6.5t104.5 -19.5v-223q28 18 55 29.5t54 17.5t56 6q52 0 87.5 -18.5t53.5 -53.5t18 -86v-396h-164v344q0 38 -17 55.5t-48 17.5q-16 0 -31.5 -3.5
t-31 -9.5t-32.5 -14v-390h-164v621q-13 3 -27 4.5t-27 1.5q-29 0 -51 -5.5t-37 -18.5t-23 -35.5t-8 -55.5v-9h114v-119h-114v-384h-161v384h-162v-384h-161zM249 497h162v19q0 31 4.5 56t15.5 43q-21 6 -41.5 8.5t-39.5 2.5q-32 0 -55 -11t-34.5 -35.5t-11.5 -64.5v-18z" />
    <glyph glyph-name="f_f_i.liga" unicode="ffi" horiz-adv-x="946" 
d="M88 0v392h-75v109l75 10v13q0 58 19 100t53 69.5t80 41t101 13.5q46 0 91 -9t87 -24q33 17 75.5 26t96.5 9q33 0 71 -4t76.5 -11.5t73.5 -18.5l-37 -118q-19 6 -40.5 10.5t-44.5 7.5t-44.5 5t-40.5 2q-43 0 -72.5 -11t-45 -34t-15.5 -61v-6h323v-511h-163v392h-160v-392
h-161v392h-162v-392h-161zM249 506h162v18q0 27 4.5 50.5t14.5 40.5q-20 6 -40.5 8.5t-39.5 2.5q-32 0 -55 -11t-34.5 -33.5t-11.5 -57.5v-18z" />
    <glyph glyph-name="f_f_j.liga" unicode="ffj" horiz-adv-x="941" 
d="M875 598q-21 6 -44 11t-46 8t-43 4.5t-37 1.5q-44 0 -73.5 -11t-44.5 -34t-15 -61v-6h316v-481q0 -79 -20.5 -132.5t-64 -81.5t-111.5 -31q-13 -1 -28 0t-30 3t-29 5l12 137q9 -2 17 -2.5t16 -0.5q24 3 41 15t25.5 35.5t8.5 61.5v353h-153v-392h-161v392h-162v-392h-161
v392h-75v109l75 10v13q0 58 19 100t53 69.5t80 41t101 13.5q46 0 91 -9t87 -24q33 17 75.5 26t94.5 9q37 0 76 -4.5t76.5 -12t70.5 -17.5zM411 524q0 28 4.5 51t14.5 40q-20 6 -40.5 8.5t-39.5 2.5q-32 0 -55 -11t-34.5 -33.5t-11.5 -57.5v-18h162v18z" />
    <glyph glyph-name="f_f_k.liga" unicode="ffk" horiz-adv-x="1255" 
d="M1201 -9q-18 0 -35 3.5t-36 14t-43.5 29.5t-57.5 50l-126 118v-206h-156v621q-14 2 -28 3.5t-27 1.5q-29 0 -51 -6t-37 -19t-23 -33.5t-8 -50.5v-14h115v-120h-115v-383h-161v383h-162v-383h-161v383h-75v110l75 10v13q0 62 19 106t53.5 72t80 41t98.5 13q47 0 93.5 -9
t87.5 -25q34 18 78.5 27t99.5 9q52 0 104.5 -6.5t99.5 -19.5v-314l159 -151q46 -44 75.5 -67t49 -30.5t36.5 -7.5q4 0 8 0.5t8 0.5l1 -161q-8 -1 -17.5 -2t-21.5 -1zM251 499h161v22q0 27 4.5 50.5t13.5 43.5q-20 6 -40.5 8.5t-39.5 2.5q-32 0 -54 -11.5t-33.5 -36
t-11.5 -63.5v-16zM1018 236l-132 63q37 32 66.5 62.5t52 60.5t38 62.5t23.5 68.5l166 -9q-11 -43 -34 -85t-53.5 -82t-63 -75.5t-63.5 -65.5z" />
    <glyph glyph-name="f_f_l.liga" unicode="ffl" horiz-adv-x="1007" 
d="M898 -10q-52 0 -88 17.5t-54 60t-18 114.5v439q-12 3 -25.5 4.5t-26.5 1.5q-27 0 -48.5 -5.5t-36 -18.5t-22 -35.5t-7.5 -55.5v-9h114v-119h-114v-384h-161v384h-162v-384h-161v384h-75v109l75 10v13q0 61 19 105t53 72t80 41.5t101 13.5q46 0 91.5 -9t88.5 -24
q33 17 77 26t100 9q50 0 102.5 -6.5t101.5 -19.5v-527q0 -28 5.5 -42t16 -19t23.5 -5q10 0 21 2t25 6l15 -125q-22 -10 -49.5 -17t-60.5 -7zM249 497h162v19q0 31 4.5 56t15.5 43q-21 6 -41.5 8.5t-39.5 2.5q-32 0 -55 -11t-34.5 -35.5t-11.5 -64.5v-18z" />
    <glyph glyph-name="f_f_t.liga" unicode="fft" horiz-adv-x="1046" 
d="M88 0v400h-75v103l75 10v11q0 58 19 100t53 69.5t80 41t101 13.5q45 0 90.5 -8.5t86.5 -24.5q33 18 74 26.5t83 8.5q62 0 117.5 -8.5t95.5 -23.5v-200h129v-119h-129v-201q0 -17 2.5 -30.5t9 -22t17.5 -13t27 -4.5q14 0 32 3.5t40 9.5l23 -125q-38 -13 -76.5 -19.5
t-75.5 -6.5q-42 0 -72.5 12t-50 36.5t-29.5 61t-11 85.5v214h-152v-399h-161v400h-162v-400h-161zM572 513h152l5 107q-15 4 -30 5.5t-31 1.5q-29 0 -50.5 -10.5t-33.5 -34t-12 -62.5v-7zM249 513h162v11q0 28 4.5 52t15.5 42q-21 6 -41.5 8.5t-39.5 2.5q-32 0 -55 -11.5
t-34.5 -34.5t-11.5 -59v-11z" />
    <glyph glyph-name="f_h.liga" unicode="fh" horiz-adv-x="955" 
d="M88 0v384h-75v109l75 10v18q0 74 33 125t97 77.5t157 26.5q53 0 107 -6.5t104 -19.5v-223q28 18 55 29.5t54 17.5t56 6q52 0 87.5 -18.5t53.5 -53.5t18 -86v-396h-164v344q0 38 -17 55.5t-47 17.5q-16 0 -31.5 -3.5t-31.5 -9.5t-33 -14v-390h-163v621q-14 3 -28 4.5
t-27 1.5q-39 0 -65.5 -11t-40 -35t-13.5 -64v-14h115v-119h-115v-384h-161z" />
    <glyph glyph-name="f_j.liga" unicode="fj" horiz-adv-x="619" 
d="M370 -215q-14 -1 -29 0t-30 3t-29 5l12 137q10 -2 17.5 -2.5t15.5 -0.5q24 3 41 15t25.5 35.5t8.5 61.5v353h-153v-392h-161v392h-75v109l75 10v13q0 76 34.5 126t97 75t146.5 25q38 0 77 -4.5t76.5 -12t70.5 -17.5l-38 -118q-21 6 -44 11t-45.5 8t-43 4.5t-37.5 1.5
q-66 0 -99.5 -26.5t-33.5 -79.5v-6h316v-481q0 -79 -20.5 -132.5t-64 -81.5t-110.5 -31z" />
    <glyph glyph-name="f_k.liga" unicode="fk" horiz-adv-x="932" 
d="M878 -9q-18 0 -35 3.5t-36.5 14t-43.5 29.5t-57 50l-126 118v-206h-156v621q-14 2 -28 3.5t-27 1.5q-29 0 -51 -6t-37 -19t-22.5 -33.5t-7.5 -50.5v-14h114v-120h-115v-383h-161v383h-75v110l75 10v18q0 74 33 125t97.5 77.5t156.5 26.5q52 0 104.5 -6.5t99.5 -19.5v-314
l159 -151q46 -44 75.5 -67t48.5 -30.5t37 -7.5q3 0 7.5 0.5t8.5 0.5l1 -161q-8 -1 -17.5 -2t-21.5 -1zM695 236l-132 63q36 32 65.5 63t52 61t38 62t24.5 68l166 -9q-11 -43 -34 -85t-53.5 -82t-63.5 -75.5t-63 -65.5z" />
    <glyph glyph-name="f_t.liga" unicode="ft" horiz-adv-x="723" 
d="M564 -10q-41 0 -71.5 12t-50.5 36.5t-30 61t-11 85.5v214h-152v-399h-161v400h-75v103l75 10v11q0 57 20 99.5t55.5 70.5t84 42t104.5 14q62 0 117.5 -8.5t95.5 -23.5v-200h129v-119h-129v-201q0 -17 2.5 -30.5t9 -22t17.5 -13t27 -4.5q15 0 32.5 3.5t39.5 9.5l23 -125
q-38 -13 -76 -19.5t-76 -6.5zM249 513h152l5 107q-15 4 -30 5.5t-31 1.5q-45 0 -70.5 -26.5t-25.5 -80.5v-7z" />
    <glyph glyph-name=".notdef" horiz-adv-x="500" 
d="M0 0v700h500v-700h-500zM250 395l170 255h-340zM450 95v510l-170 -255zM50 95l170 255l-170 255v-510zM80 50h340l-170 255z" />
    <glyph glyph-name="uni0000" horiz-adv-x="0" 
 />
    <glyph glyph-name="uni0000" horiz-adv-x="0" 
 />
    <glyph glyph-name="uni000D" unicode="&#xd;" horiz-adv-x="266" 
 />
    <glyph glyph-name="uni0020" unicode=" " horiz-adv-x="266" 
 />
    <glyph glyph-name="uni0021" unicode="!" horiz-adv-x="254" 
d="M58 260l-12 480h164l-12 -480h-140zM38 79q0 44 20.5 65.5t68.5 21.5q49 0 69 -21.5t20 -65.5t-20 -65t-69 -21q-48 0 -68.5 21t-20.5 65z" />
    <glyph glyph-name="uni0022" unicode="&#x22;" horiz-adv-x="409" 
d="M40 427l-7 273h146l-8 -273h-131zM236 427l-7 273h146l-8 -273h-131z" />
    <glyph glyph-name="uni0023" unicode="#" horiz-adv-x="639" 
d="M72 424v119h86l23 157h145l-23 -157h89l22 157h145l-22 -157h55v-119h-70l-24 -153h70v-118h-85l-22 -153h-145l21 153h-88l-22 -153h-145l22 153h-56v118h71l24 153h-71zM289 424l-25 -153h88l25 153h-88z" />
    <glyph glyph-name="uni0024" unicode="$" horiz-adv-x="640" 
d="M289 -10q-32 0 -64.5 3.5t-64.5 9.5t-62 14t-56 18l31 127q29 -10 60 -18t62 -13.5t60.5 -8t56.5 -2.5q59 0 86.5 16t27.5 48q0 19 -11.5 33.5t-35.5 26.5t-60 24t-84 27q-53 19 -92 47t-60 68.5t-21 95.5q0 68 33.5 113.5t95 68t146.5 22.5q42 0 83 -4.5t78.5 -12.5
t66.5 -18l-29 -128q-27 10 -60 16t-67.5 9.5t-66.5 3.5q-57 0 -83.5 -15t-26.5 -47q0 -19 9.5 -33.5t29 -26t50 -22t72.5 -22.5q64 -18 110 -45t70 -68t24 -101q0 -57 -23 -97t-64.5 -64.5t-98 -35t-122.5 -9.5zM263 -105v111l129 7v-118h-129zM263 687v117h129v-109z" />
    <glyph glyph-name="uni0025" unicode="%" horiz-adv-x="976" 
d="M34 506q0 60 13.5 99.5t38 63t59.5 33.5t79 10q45 0 80 -10t59 -33.5t36.5 -63.5t12.5 -99q0 -58 -13 -97.5t-37.5 -63.5t-59.5 -34t-78 -10q-44 0 -79 10t-59.5 33.5t-38 63t-13.5 98.5zM157 503q0 -52 8 -79t23 -36.5t36 -9.5t36 9.5t23 36.5t8 79q0 58 -8.5 86
t-23 36.5t-35.5 8.5q-20 0 -35 -9t-23.5 -37t-8.5 -85zM355 -6l-105 2l373 727l104 -2zM563 197q0 60 13.5 99.5t38 63t59.5 33.5t79 10q45 0 80 -10t59 -33.5t36.5 -63.5t12.5 -99q0 -58 -13 -97.5t-37.5 -63.5t-59.5 -34t-78 -10q-44 0 -79 10t-59.5 33.5t-38 63
t-13.5 98.5zM686 194q0 -52 8 -79t23 -36.5t36 -9.5t36 9.5t23 36.5t8 79q0 58 -8.5 86t-23 36.5t-35.5 8.5q-20 0 -35 -9t-23.5 -37t-8.5 -85z" />
    <glyph glyph-name="uni0026" unicode="&#x26;" horiz-adv-x="718" 
d="M526 -4l-348 365q-24 27 -39 53t-21.5 53t-6.5 55q0 57 24.5 99t76 65.5t133.5 23.5q107 0 162.5 -41t55.5 -122q0 -37 -12 -68.5t-37.5 -56.5t-68.5 -42l-63 74q18 13 26.5 29t8.5 39q0 20 -7.5 33.5t-22 20.5t-37.5 7q-36 0 -54 -15.5t-18 -45.5q0 -14 4.5 -28t16 -30
t30.5 -37l386 -427zM289 -10q-123 0 -192 56t-69 151q0 68 35 119t109 84l75 -89q-32 -18 -47.5 -40.5t-15.5 -57.5q0 -30 15.5 -53t44.5 -36t67 -13q39 0 64 11.5t41 30.5l77 -92q-25 -23 -56 -39t-67.5 -24t-80.5 -8zM587 119l-95 112q15 19 22.5 41t8.5 49q2 11 1.5 21
t-2.5 21l131 1q2 -13 3 -25.5t1 -28.5q0 -54 -18.5 -102t-51.5 -89z" />
    <glyph glyph-name="uni0027" unicode="'" horiz-adv-x="212" 
d="M40 427l-7 273h146l-8 -273h-131z" />
    <glyph glyph-name="uni0028" unicode="(" horiz-adv-x="327" 
d="M45 265q0 99 15 183t46.5 148.5t81.5 104t120 49.5v-120q-35 -14 -60 -40.5t-40.5 -70t-22.5 -106.5t-7 -148t7 -148t22.5 -106.5t40.5 -70t60 -40.5v-120q-70 10 -120 49.5t-81.5 104t-46.5 148.5t-15 183z" />
    <glyph glyph-name="uni0029" unicode=")" horiz-adv-x="327" 
d="M19 -100q35 14 60 40.5t40.5 70t23 106.5t7.5 148t-7.5 148t-23 106.5t-40.5 70t-60 40.5v120q70 -10 120 -49.5t81.5 -104t46.5 -148.5t15 -183t-15 -183t-46.5 -148.5t-81.5 -104t-120 -49.5v120z" />
    <glyph glyph-name="uni002A" unicode="*" horiz-adv-x="371" 
d="M111 368l-58 40l59 103l-104 47l22 67l110 -27l9 118h73l9 -118l110 27l22 -67l-104 -47l60 -103l-59 -40l-74 90z" />
    <glyph glyph-name="uni002B" unicode="+" horiz-adv-x="529" 
d="M194 114v136h-145v130h145v135h141v-135h145v-130h-145v-136h-141z" />
    <glyph glyph-name="uni002C" unicode="," horiz-adv-x="236" 
d="M42 87l149 3q5 -16 8.5 -35t3.5 -42q0 -36 -9.5 -70.5t-30 -68t-52.5 -65.5l-123 26q32 40 46.5 87t14.5 91q0 13 -1.5 32.5t-5.5 41.5z" />
    <glyph glyph-name="uni002D" unicode="-" horiz-adv-x="353" 
d="M38 240v138h278v-138h-278z" />
    <glyph glyph-name="uni002E" unicode="." horiz-adv-x="240" 
d="M31 80q0 44 20.5 65.5t68.5 21.5q49 0 69.5 -21.5t20.5 -65.5q0 -43 -20.5 -64.5t-69.5 -21.5q-48 0 -68.5 21.5t-20.5 64.5z" />
    <glyph glyph-name="uni002F" unicode="/" horiz-adv-x="432" 
d="M0 -210l299 950h132l-299 -950h-132z" />
    <glyph glyph-name="uni0030" unicode="0" horiz-adv-x="640" 
d="M27 350q0 104 20.5 173.5t59 110.5t92.5 58.5t121 17.5q68 0 122 -18t92.5 -59.5t58.5 -110.5t20 -172q0 -102 -21 -171.5t-60 -111t-93 -59.5t-119 -18q-66 0 -120 18t-92.5 59.5t-59.5 110.5t-21 172zM196 344q0 -71 9 -116t25.5 -69t39.5 -33t50 -9q26 0 49 9t40 33
t26 69t9 116q0 77 -9.5 124.5t-26.5 72t-39.5 33.5t-48.5 9q-27 0 -49.5 -9t-39.5 -33.5t-26 -72t-9 -124.5z" />
    <glyph glyph-name="uni0031" unicode="1" horiz-adv-x="639" 
d="M87 0v132h185v387l-167 -69l-35 140l284 111h84v-569h156v-132h-507z" />
    <glyph glyph-name="uni0032" unicode="2" horiz-adv-x="640" 
d="M56 111q72 56 124 99t88 77.5t57.5 63t30.5 53t9 48.5q0 31 -12.5 52t-36.5 32.5t-60 11.5q-35 0 -74 -11t-80 -33l-51 138q34 22 74 37t83.5 23t86.5 8q79 0 133.5 -27t83.5 -76t29 -114q0 -33 -6 -62t-21 -59t-42 -64t-70.5 -77t-105.5 -98h295v-133h-533z" />
    <glyph glyph-name="uni0033" unicode="3" horiz-adv-x="640" 
d="M32 44l44 120q28 -12 59 -20t65.5 -12.5t71.5 -4.5q50 0 81.5 9.5t47 30t15.5 50.5q0 40 -35 59t-106 19h-105v120h107q42 0 69 9t39.5 26t12.5 41q0 36 -33.5 55.5t-100.5 19.5q-44 0 -89.5 -7.5t-87.5 -25.5l-39 125q30 16 68.5 28t84 18t96.5 6q85 0 144 -22t90 -62.5
t31 -98.5q0 -53 -28 -94t-79 -63q63 -19 95.5 -61.5t32.5 -102.5q0 -69 -34.5 -117t-100.5 -73.5t-162 -25.5q-51 0 -95 5.5t-82 17.5t-77 31z" />
    <glyph glyph-name="uni0034" unicode="4" horiz-adv-x="640" 
d="M20 115l-1 120l348 467l147 -2v-459h98v-126h-98v-115h-170v115h-324zM153 241h195v258z" />
    <glyph glyph-name="uni0035" unicode="5" horiz-adv-x="640" 
d="M38 38l37 127q25 -10 54.5 -17.5t64 -12t74.5 -4.5q56 0 90.5 10.5t50.5 31t16 48.5q0 21 -7.5 36.5t-26.5 26t-50.5 16t-79.5 5.5h-172l-10 11l46 384h429v-139h-306l-14 -135h100q84 -1 141 -21t87 -63.5t30 -114.5q0 -80 -39.5 -132.5t-109.5 -78.5t-162 -26
q-47 0 -88.5 5t-79.5 16t-75 27z" />
    <glyph glyph-name="uni0036" unicode="6" horiz-adv-x="640" 
d="M326 -10q-96 0 -161.5 36t-99.5 111.5t-34 191.5q0 126 37.5 210.5t111.5 127.5t183 43q45 0 86.5 -4.5t77.5 -13t64 -20.5l-38 -129q-30 9 -56.5 15t-53.5 9.5t-56 3.5q-72 0 -113 -24t-58 -74t-17 -125q0 -68 9.5 -112.5t27.5 -70.5t43 -36t56 -10q52 0 81.5 26.5
t29.5 80.5q0 32 -14.5 54t-41 33.5t-63.5 11.5q-25 0 -49.5 -7t-48 -20t-45.5 -31l-2 116q25 21 56.5 35.5t68 21.5t77.5 7q72 0 121.5 -24.5t75 -73t25.5 -116.5q0 -120 -70.5 -181.5t-209.5 -61.5z" />
    <glyph glyph-name="uni0037" unicode="7" horiz-adv-x="640" 
d="M176 0q0 50 6 94.5t19 88.5t33.5 88.5t50.5 94.5l115 191h-345v143h537v-108l-139 -250q-36 -65 -59 -120.5t-34.5 -108.5t-12.5 -113h-171z" />
    <glyph glyph-name="uni0038" unicode="8" horiz-adv-x="640" 
d="M363 400q28 17 43.5 33t22.5 34.5t7 40.5q0 37 -29 57t-87 20q-37 0 -60.5 -8.5t-34.5 -23t-11 -35.5q0 -23 13.5 -38.5t37 -27t54 -21t63.5 -19.5t66.5 -22t64 -28t54 -38.5t37 -53.5t13.5 -74q0 -68 -33 -114t-99 -69t-167 -23q-144 0 -219.5 51.5t-75.5 147.5
q0 39 15.5 73t46 62.5t76.5 48.5l101 -58q-38 -24 -55.5 -50t-17.5 -65q0 -43 35.5 -65.5t103.5 -22.5q58 0 87 18.5t29 54.5q0 24 -13 41t-36 29.5t-52 23t-61 20.5t-64.5 22t-61.5 28t-52 38.5t-36 53.5t-13 73q0 95 70 145.5t199 50.5q127 0 196 -47t69 -131
q0 -32 -12 -64t-38.5 -60.5t-68.5 -52.5z" />
    <glyph glyph-name="uni0039" unicode="9" horiz-adv-x="640" 
d="M274 -10q-44 0 -86 4.5t-78.5 14t-63.5 20.5l37 127q30 -9 57 -15.5t54 -10t55 -3.5q72 0 113 25t58 75t17 126q0 64 -7.5 108t-23.5 70.5t-41 38t-60 11.5t-61 -12t-40 -35.5t-14 -59.5q0 -32 14.5 -54t41 -33.5t60.5 -11.5q27 0 53.5 7t51 20.5t44.5 31.5v-120
q-24 -20 -56 -33.5t-68 -21t-75 -7.5q-73 0 -123.5 25t-76.5 72.5t-26 117.5q0 80 32 134t96 81.5t157 27.5q98 0 162 -37t96 -113t32 -193q0 -126 -37.5 -209.5t-110.5 -125.5t-183 -42z" />
    <glyph glyph-name="uni003A" unicode=":" horiz-adv-x="240" 
d="M31 80q0 44 20.5 65.5t68.5 21.5q49 0 69.5 -21.5t20.5 -65.5q0 -43 -20.5 -64.5t-69.5 -21.5q-48 0 -68.5 21.5t-20.5 64.5zM31 464q0 44 20.5 65.5t68.5 21.5q49 0 69.5 -21.5t20.5 -65.5q0 -43 -20.5 -64.5t-69.5 -21.5q-48 0 -68.5 21.5t-20.5 64.5z" />
    <glyph glyph-name="uni003B" unicode=";" horiz-adv-x="240" 
d="M44 87l149 3q5 -16 8.5 -35t3.5 -42q0 -36 -9.5 -70.5t-30 -68t-52.5 -65.5l-123 26q32 40 46.5 87t14.5 91q0 13 -1.5 32.5t-5.5 41.5zM31 464q0 44 20.5 65.5t68.5 21.5q49 0 69.5 -21.5t20.5 -65.5q0 -43 -20.5 -64.5t-69.5 -21.5q-48 0 -68.5 21.5t-20.5 64.5z" />
    <glyph glyph-name="uni003C" unicode="&#x3c;" horiz-adv-x="529" 
d="M489 76l-449 166v129l449 168v-126l-305 -106l305 -105v-126z" />
    <glyph glyph-name="uni003D" unicode="=" horiz-adv-x="521" 
d="M472 260v-131h-423v131h423zM472 486v-131h-423v131h423z" />
    <glyph glyph-name="uni003E" unicode="&#x3e;" horiz-adv-x="529" 
d="M489 241l-449 -165v125l305 106l-305 105v127l449 -168v-130z" />
    <glyph glyph-name="uni003F" unicode="?" horiz-adv-x="485" 
d="M156 260l-4 138q47 16 76 32t44.5 31t21 31.5t5.5 32.5q0 19 -7 33t-19.5 24t-29.5 14.5t-37 4.5q-33 0 -69.5 -10.5t-76.5 -34.5l-48 129q28 20 65 34.5t77.5 22.5t77.5 8q49 0 92 -12t75.5 -37.5t51 -64t18.5 -92.5q0 -51 -17 -91.5t-55 -72t-100 -55.5l-1 -65h-140z
M137 79q0 44 20.5 65.5t68.5 21.5q49 0 69.5 -21.5t20.5 -65.5t-20.5 -65t-69.5 -21q-48 0 -68.5 21t-20.5 65z" />
    <glyph glyph-name="uni0040" unicode="@" horiz-adv-x="861" 
d="M418 -124q-86 0 -157 22.5t-122.5 70t-79.5 122t-28 178.5q0 95 27.5 175.5t81.5 140t133.5 92.5t185.5 33q115 0 198 -41t128 -123t45 -204q0 -61 -11.5 -114.5t-35 -94.5t-58.5 -63.5t-82 -21.5q-30 0 -52 8.5t-37 24.5t-24.5 39t-14.5 51q-18 -37 -41 -63t-51.5 -39.5
t-62.5 -13.5q-42 0 -74.5 21t-50.5 66t-18 115q0 59 15 110t44.5 89.5t74.5 59.5t104 21q31 0 61.5 -3.5t61 -11.5t59.5 -19l-20 -260q-2 -41 3.5 -64.5t18 -33.5t28.5 -10q24 0 43.5 25t31 70t11.5 104q0 101 -32 169.5t-100 103.5t-174 35q-83 0 -145 -28.5t-104 -79.5
t-63.5 -120t-21.5 -151q0 -87 23.5 -147.5t65 -97.5t98.5 -53.5t124 -16.5q49 0 97 9.5t88 25.5l20 -63q-27 -12 -63 -22.5t-74 -16t-74 -5.5zM408 171q15 0 28 6t24 19.5t20.5 37t15.5 59.5l13 141q-15 6 -30 8.5t-29 2.5q-23 0 -40.5 -15.5t-30.5 -42t-19.5 -59.5
t-6.5 -68q0 -31 7.5 -51t20 -29t27.5 -9z" />
    <glyph glyph-name="uni0041" unicode="A" horiz-adv-x="664" 
d="M7 0l222 703h204l225 -703h-186l-37 130h-214l-37 -130h-177zM252 269h152l-76 303z" />
    <glyph glyph-name="uni0042" unicode="B" horiz-adv-x="659" 
d="M55 3v693q59 5 107.5 8t90 4.5t76.5 1.5q98 0 157.5 -17.5t86.5 -55t27 -97.5q0 -55 -25 -94.5t-76 -61.5v-1q65 -18 101.5 -65t36.5 -114q0 -58 -16 -98.5t-51.5 -66t-94 -37.5t-143.5 -12q-32 0 -55.5 0.5t-43.5 1t-44 2t-56 4t-78 5.5zM225 412h136q25 0 43 10
t27.5 28t9.5 42q0 30 -11.5 48t-36.5 26.5t-69 8.5h-21t-16.5 -0.5t-16 -1t-19.5 -1.5t-26 -2v-158zM225 129q17 -1 31 -2t25.5 -1.5t22 -0.5h20.5q54 0 84.5 8.5t42.5 27.5t12 50q0 42 -24.5 62t-78.5 20h-135v-164z" />
    <glyph glyph-name="uni0043" unicode="C" horiz-adv-x="624" 
d="M30 339q0 133 38 214.5t113.5 119t189.5 37.5q35 0 63.5 -1.5t54 -5.5t49.5 -9.5t49 -13.5l-34 -134q-30 7 -58 11.5t-54.5 7t-53.5 2.5q-49 0 -84 -12t-57 -38t-33 -69.5t-11 -107.5q0 -58 10.5 -98t32.5 -64t56.5 -35t81.5 -11q44 0 93.5 7t91.5 18l30 -133
q-24 -7 -50 -13.5t-55.5 -11t-63.5 -7t-74 -2.5q-81 0 -142 19t-101.5 60t-61 108t-20.5 162z" />
    <glyph glyph-name="uni0044" unicode="D" horiz-adv-x="692" 
d="M326 -10q-52 0 -98 1t-88.5 3t-84.5 5v701q47 4 89.5 6t84.5 3t89 1q123 0 199 -37.5t110.5 -117t34.5 -206.5q0 -124 -37 -203.5t-111.5 -117.5t-187.5 -38zM339 123q49 0 81.5 22.5t49.5 72t17 130.5q0 87 -16.5 136t-50 70.5t-86.5 21.5q-18 0 -37.5 -0.5t-38 -1.5
t-33.5 -2v-445q14 0 28 -1t28 -1.5l28 -1t30 -0.5z" />
    <glyph glyph-name="uni0045" unicode="E" horiz-adv-x="600" 
d="M55 0v700h502v-144h-333v-132h308v-136h-308v-145h351v-143h-520z" />
    <glyph glyph-name="uni0046" unicode="F" horiz-adv-x="570" 
d="M55 0v700h498v-148h-328v-174h285v-143h-284v-235h-171z" />
    <glyph glyph-name="uni0047" unicode="G" horiz-adv-x="662" 
d="M30 340q0 126 37 207.5t112 122t189 40.5q33 0 62.5 -2t57.5 -6t54.5 -10t51.5 -14l-31 -134q-46 11 -93 17.5t-88 6.5q-62 0 -102 -24.5t-59 -75t-19 -130.5q0 -78 17.5 -125t53 -68.5t87.5 -21.5q32 0 59.5 3.5t48.5 10.5v126h-120v131h272v-351q-58 -27 -127.5 -40
t-152.5 -13q-104 0 -173 38t-103 115.5t-34 196.5z" />
    <glyph glyph-name="uni0048" unicode="H" horiz-adv-x="704" 
d="M55 0v700h169v-307h256v307h169v-700h-169v242h-256v-242h-169z" />
    <glyph glyph-name="uni0049" unicode="I" horiz-adv-x="279" 
d="M55 0v700h169v-700h-169z" />
    <glyph glyph-name="uni004A" unicode="J" horiz-adv-x="516" 
d="M8 26l31 130q29 -7 55 -12.5t49.5 -8.5t42.5 -3q39 0 64 12t37 40t12 77v291h-241v148h410v-479q0 -76 -24.5 -128t-76 -77.5t-132.5 -25.5q-37 0 -75.5 4.5t-77 12t-74.5 19.5z" />
    <glyph glyph-name="uni004B" unicode="K" horiz-adv-x="672" 
d="M624 -10q-30 0 -61 8t-62 25t-65 46l-211 183v-252h-170v700h170v-242l250 -212q29 -25 52 -40.5t41.5 -24.5t34.5 -13t31 -4h8.5t7.5 1v-173q-7 -1 -13.5 -1.5t-12.5 -0.5zM352 291l-109 94q27 19 56.5 44t59 55t58 65t53.5 74.5t45 83.5l134 -65q-21 -57 -51.5 -106.5
t-68.5 -93.5t-82.5 -82t-94.5 -69z" />
    <glyph glyph-name="uni004C" unicode="L" horiz-adv-x="557" 
d="M55 0v700h170v-552h314v-148h-484z" />
    <glyph glyph-name="uni004D" unicode="M" horiz-adv-x="793" 
d="M55 0v700h176l169 -329l171 329h167v-700h-154v452l-149 -287h-80l-146 284v-449h-154z" />
    <glyph glyph-name="uni004E" unicode="N" horiz-adv-x="685" 
d="M55 0v701h160l265 -440v439h150v-701h-160l-264 431v-430h-151z" />
    <glyph glyph-name="uni004F" unicode="O" horiz-adv-x="703" 
d="M351 123q27 0 50.5 7t41.5 22.5t30.5 41t19 65t6.5 92.5t-6.5 92t-19 64.5t-31 41t-41.5 22t-50 6.5t-49.5 -6.5t-40.5 -21.5t-31 -41t-20 -65.5t-7 -92.5q0 -54 7 -92.5t20 -64.5t31 -41.5t41 -22t49 -6.5zM352 -10q-61 0 -111 12t-89.5 38t-66 68t-41 102t-14.5 140
t13.5 139.5t40 101.5t65.5 68.5t89.5 38.5t112.5 12q63 0 113.5 -12t89 -38t65 -67.5t40 -101t13.5 -138.5q0 -82 -13.5 -142.5t-40.5 -102.5t-66 -68t-89 -38t-111 -12z" />
    <glyph glyph-name="uni0050" unicode="P" horiz-adv-x="669" 
d="M55 0v702q72 3 126 5t91.5 2.5t56.5 0.5q94 0 156 -14.5t97 -44.5t50 -78t15 -116q0 -70 -14.5 -120t-47 -82t-84.5 -47.5t-128 -15.5h-36.5h-25.5t-22 0.5t-26 1.5t-38 2v-196h-170zM225 572v-243q16 -1 28 -1.5t22.5 -1t21 -0.5h23.5q49 0 79.5 7t47 23t22.5 42t6 63
q0 31 -6 52.5t-20.5 35.5t-40.5 20.5t-66 6.5h-24t-23.5 -0.5t-29 -1.5t-40.5 -2z" />
    <glyph glyph-name="uni0051" unicode="Q" horiz-adv-x="702" 
d="M508 37q11 -26 23 -44.5t27 -27.5t33 -9q12 0 24 3t25 8l19 -138q-25 -8 -50 -13t-49 -5q-50 0 -86 21.5t-62 65t-46 108.5zM351 123q27 0 50 6.5t41 22.5t31 41.5t19.5 64.5t6.5 93q0 53 -6.5 91.5t-19 64.5t-31 41.5t-41.5 22t-50 6.5q-26 0 -49 -6.5t-41 -21.5
t-31.5 -41t-20 -65.5t-6.5 -92.5q0 -54 6.5 -93t20 -65t31.5 -41t41 -21.5t49 -6.5zM351 -10q-62 0 -113 12t-90 38t-65 68t-39.5 102t-13.5 140t13 139.5t38.5 102t64 68.5t90 38t115.5 12t115 -12t89.5 -38t64.5 -67.5t38.5 -101t12.5 -139.5t-13 -141t-39.5 -103t-65 -68
t-89.5 -38t-113 -12z" />
    <glyph glyph-name="uni0052" unicode="R" horiz-adv-x="697" 
d="M639 -10q-31 0 -62 8.5t-61.5 26.5t-62.5 46.5t-65.5 68.5t-69.5 93q-6 -1 -16.5 -1h-17.5h-29t-30 1v-233h-170v700q59 4 108.5 6t91 3t76.5 1q83 0 141.5 -12.5t96 -38.5t54.5 -67.5t17 -99.5q0 -59 -18 -101.5t-51.5 -69.5t-78.5 -42q26 -32 49.5 -55t44 -39t39 -23.5
t35.5 -7.5q3 0 8 0.5t8 0.5l1 -162q-7 -1 -16 -2t-22 -1zM329 356q35 0 61 6t42.5 19.5t25 35t8.5 53.5q0 39 -12 62.5t-40.5 34.5t-78.5 11h-27.5t-23 -0.5t-25.5 -1.5t-34 -2v-215q15 -1 27 -1.5l24 -1t24.5 -0.5h28.5z" />
    <glyph glyph-name="uni0053" unicode="S" horiz-adv-x="621" 
d="M570 675l-32 -130q-20 7 -46 13t-54 10t-56 6t-54 2q-59 0 -90 -16t-31 -50q0 -18 10 -31.5t32 -24.5t57 -22t84 -24q53 -13 92.5 -31.5t66 -43t40 -57t13.5 -75.5q0 -68 -36 -115t-106 -71.5t-172 -24.5q-34 0 -70 3t-72.5 8.5t-70.5 14t-64 19.5l32 129q30 -10 62 -18
t65 -13.5t65.5 -8.5t61.5 -3q45 0 73.5 7.5t42 22.5t13.5 37q0 19 -13.5 32t-40.5 24.5t-67.5 23.5t-93.5 28q-45 15 -78.5 34t-56.5 43.5t-34.5 56.5t-11.5 72q0 45 17.5 83t53 66t92.5 43.5t135 15.5q46 0 91.5 -5t84.5 -13t66 -17z" />
    <glyph glyph-name="uni0054" unicode="T" horiz-adv-x="612" 
d="M597 551h-206v-551h-169v551h-206v149h581v-149z" />
    <glyph glyph-name="uni0055" unicode="U" horiz-adv-x="686" 
d="M48 227v473h167v-475q0 -22 6 -39t18 -28t28 -18t35.5 -10.5t40.5 -3.5q23 0 42.5 3.5t35 10.5t27 18.5t17.5 28.5t6 38v475h167v-473q0 -52 -12.5 -91t-37 -67t-60.5 -45t-82.5 -25.5t-102.5 -8.5t-102 8.5t-82 25.5t-60.5 45t-37.5 67t-13 91z" />
    <glyph glyph-name="uni0056" unicode="V" horiz-adv-x="654" 
d="M228 0l-227 699l186 2l142 -553l139 553l186 -2l-225 -699h-201z" />
    <glyph glyph-name="uni0057" unicode="W" horiz-adv-x="828" 
d="M681 0h-176l-93 439l-98 -439h-170l-142 699l180 2l57 -537l102 497h150l97 -496l57 536l182 -2z" />
    <glyph glyph-name="uni0058" unicode="X" horiz-adv-x="641" 
d="M2 1l210 358l-193 340l202 2l107 -233l105 233l193 -2l-191 -339l202 -359l-200 -3l-115 249l-117 -249z" />
    <glyph glyph-name="uni0059" unicode="Y" horiz-adv-x="650" 
d="M241 0v245l-241 454l190 2l136 -351l134 351l189 -2l-239 -454v-245h-169z" />
    <glyph glyph-name="uni005A" unicode="Z" horiz-adv-x="616" 
d="M23 0v134l349 427v2h-332v137h535v-134l-344 -427v-2h363v-137h-571z" />
    <glyph glyph-name="uni005B" unicode="[" horiz-adv-x="327" 
d="M170 -98h136v-112h-263v950h263v-112h-136v-726z" />
    <glyph glyph-name="uni005C" unicode="\" horiz-adv-x="432" 
d="M132 740l299 -950h-131l-300 950h132z" />
    <glyph glyph-name="uni005D" unicode="]" horiz-adv-x="327" 
d="M21 -98h136v726h-136v112h263v-950h-263v112z" />
    <glyph glyph-name="uni005E" unicode="^" horiz-adv-x="529" 
d="M46 242l145 461h148l144 -461h-124l-94 295l-94 -295h-125z" />
    <glyph glyph-name="uni005F" unicode="_" horiz-adv-x="784" 
d="M14 -187v123h756v-123h-756z" />
    <glyph glyph-name="uni0060" unicode="`" horiz-adv-x="449" 
d="M223 596l-127 194h166l92 -194h-131z" />
    <glyph glyph-name="uni0061" unicode="a" horiz-adv-x="559" 
d="M21 149q0 49 18.5 81t57 51t97.5 29.5t140 16.5v33q0 30 -25 44t-72 14q-21 0 -48 -2t-55.5 -7t-58.5 -14l-26 128q45 14 99 22.5t100 8.5q88 0 142.5 -21.5t80 -64.5t25.5 -106v-190q0 -25 7.5 -33t17.5 -8q5 0 11.5 0.5t11.5 2.5l13 -117q-20 -12 -44.5 -19.5
t-54.5 -7.5q-42 0 -68.5 15.5t-39.5 47.5q-26 -19 -52.5 -33.5t-57 -22t-68.5 -7.5q-34 0 -61.5 11t-48 31.5t-31 49.5t-10.5 67zM186 159q0 -32 14 -47t37 -15q16 0 33.5 5t34.5 14.5t29 21.5v102q-37 -3 -64.5 -7.5t-46.5 -13.5t-28 -23.5t-9 -36.5z" />
    <glyph glyph-name="uni0062" unicode="b" horiz-adv-x="584" 
d="M46 18v722h163v-236q41 26 80.5 38t79.5 12q93 0 140.5 -68t47.5 -201q0 -105 -28.5 -170t-90 -95t-160.5 -30q-49 0 -108.5 7.5t-123.5 20.5zM209 118q21 -5 40 -8t35 -3q36 0 59 15.5t34 52t11 98.5q0 52 -9 83.5t-27 46.5t-45 15q-15 0 -30 -3t-31.5 -10t-36.5 -17
v-270z" />
    <glyph glyph-name="uni0063" unicode="c" horiz-adv-x="518" 
d="M26 264q0 97 32.5 161t95.5 96.5t155 32.5q32 0 64.5 -2.5t62.5 -7t54 -11.5l-23 -136q-24 5 -48 8t-47 5t-45 2q-43 0 -72.5 -15.5t-44 -47t-14.5 -80.5q0 -47 15.5 -77.5t46 -46t72.5 -15.5q24 0 47.5 2t47.5 6t50 9l25 -130q-43 -12 -98 -19.5t-108 -7.5
q-134 0 -201 67.5t-67 206.5z" />
    <glyph glyph-name="uni0064" unicode="d" horiz-adv-x="585" 
d="M395 -1l-19 41q-40 -25 -80 -37.5t-84 -12.5q-89 0 -137.5 70t-48.5 202q0 99 28.5 163.5t86.5 96.5t147 32q20 0 42.5 -1.5t43.5 -5.5v193h165v-741h-144zM374 154v270q-20 6 -38.5 8.5t-36.5 2.5q-35 0 -58 -15t-34 -49t-11 -93q0 -54 9.5 -87.5t27.5 -49t44 -15.5
q15 0 30.5 3t32 9.5t34.5 15.5z" />
    <glyph glyph-name="uni0065" unicode="e" horiz-adv-x="560" 
d="M293 -10q-64 0 -113 15.5t-83.5 48t-52.5 84t-18 122.5q0 81 20.5 137t57 91t86.5 50.5t109 15.5q120 0 176.5 -59t56.5 -192q0 -10 -0.5 -25.5t-1.5 -30.5q-25 -2 -61 -5t-80 -6t-93 -5t-100 -3q-1 -3 -1 -6v-7q0 -33 13.5 -54.5t41.5 -32t73 -10.5q28 0 59 3t63 8.5
t64 12.5l19 -118q-35 -11 -72 -19t-77 -11.5t-86 -3.5zM197 325q26 0 52 1t49 2.5t41 2.5t30 1q-1 40 -10 63.5t-26 33.5t-43 10q-18 0 -33 -5t-27.5 -17.5t-21 -35t-11.5 -56.5z" />
    <glyph glyph-name="uni0066" unicode="f" horiz-adv-x="400" 
d="M88 0v384h-75v109l75 10v18q0 76 24 127t70 76.5t112 25.5q39 0 75 -6t73 -21l-22 -115q-21 7 -44 10.5t-43 3.5q-41 0 -62.5 -24t-21.5 -79v-16h131v-119h-131v-384h-161z" />
    <glyph glyph-name="uni0067" unicode="g" horiz-adv-x="578" 
d="M256 -220q-121 0 -182.5 34.5t-61.5 103.5q0 27 9.5 49.5t29 40.5t48.5 31l84 -31q-14 -7 -23 -14.5t-13.5 -17t-4.5 -22.5q0 -20 12 -33t39.5 -19.5t73.5 -6.5q45 0 76 7.5t47 20.5t16 32q0 15 -6.5 23t-22.5 12t-46 4h-109q-57 0 -99 13t-64.5 40t-22.5 68
q0 43 21.5 71.5t59.5 48.5l84 -24q-20 -10 -30.5 -21.5t-10.5 -29.5t14 -27.5t43 -9.5h168q84 0 129 -39t45 -109q0 -62 -34.5 -105.5t-102 -66.5t-166.5 -23zM272 183q-115 0 -173.5 47t-58.5 138q0 93 58.5 139.5t173.5 46.5t174 -46.5t59 -139.5q0 -91 -59 -138t-174 -47
zM272 287q39 0 58 18t19 63q0 47 -19 65t-58 18q-38 0 -57.5 -18t-19.5 -65q0 -45 19.5 -63t57.5 -18zM468 424l-62 84q15 37 43.5 55t71.5 18q15 0 28 -2t24 -6l-19 -124q-8 2 -17 3.5t-19 1.5q-16 0 -28.5 -7.5t-21.5 -22.5z" />
    <glyph glyph-name="uni0068" unicode="h" horiz-adv-x="579" 
d="M46 0v740h164v-239q28 18 54.5 29.5t54 17.5t56.5 6q52 0 87 -18.5t53.5 -54t18.5 -86.5v-395h-165v344q0 38 -16.5 55t-47.5 17q-16 0 -31.5 -3.5t-31 -9t-32.5 -13.5v-390h-164z" />
    <glyph glyph-name="uni0069" unicode="i" horiz-adv-x="255" 
d="M128 602q-50 0 -73.5 20t-23.5 62t23.5 62t73.5 20t73 -20t23 -62t-22.5 -62t-73.5 -20zM46 0v544h163v-544h-163z" />
    <glyph glyph-name="uni006A" unicode="j" horiz-adv-x="263" 
d="M217 544v-516q0 -111 -41.5 -171t-136.5 -68q-11 -1 -25 -1t-28.5 1.5t-27.5 3.5l11 137q8 -1 14 -1t12 2q31 7 45 31.5t14 74.5v507h163zM136 602q-50 0 -73.5 20t-23.5 62t23.5 62t73.5 20t73 -20t23 -62t-23 -62t-73 -20z" />
    <glyph glyph-name="uni006B" unicode="k" horiz-adv-x="554" 
d="M500 -9q-18 0 -35 3.5t-36.5 13.5t-44 29.5t-56.5 50.5l-126 118v-206h-156v740h156v-330l159 -151q46 -44 75.5 -67t48.5 -30.5t37 -7.5q3 0 7 0.5t9 0.5l1 -161q-8 -1 -17.5 -2t-21.5 -1zM317 236l-132 63q36 32 65.5 63t52 61t38 62t24.5 68l166 -9q-11 -43 -34 -85
t-53.5 -82t-63.5 -75.5t-63 -65.5z" />
    <glyph glyph-name="uni006C" unicode="l" horiz-adv-x="314" 
d="M209 740v-548q0 -25 6 -38.5t16.5 -18t23.5 -4.5q9 0 20.5 2t25.5 6l15 -125q-22 -10 -50 -17t-61 -7q-52 0 -87.5 17.5t-53.5 58.5t-18 111v563h163z" />
    <glyph glyph-name="uni006D" unicode="m" horiz-adv-x="863" 
d="M46 0v544h148v-47q30 20 58 32t55.5 18t55.5 6q32 0 55 -7t40 -20.5t28 -33.5q34 21 63.5 34.5t59 20.5t62.5 7q30 0 53.5 -7.5t41 -21.5t29.5 -33t17.5 -43t5.5 -51v-398h-164v344q0 15 -3 28.5t-9.5 23t-18 14.5t-28.5 5q-15 0 -29.5 -3.5t-28 -9t-26.5 -12.5
q2 -8 2.5 -16.5t0.5 -16.5v-357h-164v344q0 14 -3 27.5t-10 23t-18.5 15t-28.5 5.5q-13 0 -26.5 -3.5t-26.5 -9t-27 -12.5v-390h-164z" />
    <glyph glyph-name="uni006E" unicode="n" horiz-adv-x="579" 
d="M46 0v544h148v-47q33 20 62.5 32.5t58 18.5t60.5 6q53 0 88.5 -19.5t53 -54t17.5 -82.5v-398h-164v344q0 38 -17 55.5t-48 17.5q-16 0 -31.5 -3.5t-31 -9.5t-32.5 -14v-390h-164z" />
    <glyph glyph-name="uni006F" unicode="o" 
d="M26 273q0 66 13 118t43 88.5t81 55.5t127 19t127 -19t81 -55.5t43 -88.5t13 -118q0 -67 -14 -120t-45 -89t-81.5 -55t-123.5 -19t-123.5 19t-81.5 55t-45 89t-14 120zM195 273q0 -60 9.5 -95t30.5 -49.5t55 -14.5q35 0 55.5 14.5t30.5 49.5t10 95t-9 94t-30 48.5
t-57 14.5t-56.5 -14.5t-29.5 -48.5t-9 -94z" />
    <glyph glyph-name="uni0070" unicode="p" horiz-adv-x="584" 
d="M46 -210v756h148l5 -46q45 28 87 41t86 13q90 0 138 -70t48 -202q0 -98 -28.5 -163t-86.5 -97t-147 -32q-19 0 -41 2t-45 6v-208h-164zM285 109q35 0 58 15t34 49.5t11 92.5q0 56 -9 89t-27 48.5t-45 15.5q-15 0 -30.5 -3t-31.5 -9t-35 -16v-270q20 -6 39 -9t36 -3z" />
    <glyph glyph-name="uni0071" unicode="q" horiz-adv-x="585" 
d="M539 528v-738h-164v249q-39 -24 -79 -36.5t-81 -12.5q-92 0 -140.5 70.5t-48.5 209.5q0 99 30 161.5t92.5 92.5t158.5 30q52 0 111 -6.5t121 -19.5zM375 425q-20 6 -39 8.5t-36 2.5q-35 0 -58 -15.5t-34 -51.5t-11 -99q0 -50 9 -82.5t27 -47t44 -14.5q16 0 31 3t32 10
t35 17v269z" />
    <glyph glyph-name="uni0072" unicode="r" horiz-adv-x="419" 
d="M194 544v-63q28 26 51 42t47 23.5t53 7.5q16 0 34 -2.5t36 -8.5l-26 -148q-18 4 -36 6.5t-33 2.5q-26 0 -53 -8.5t-58 -30.5v-365h-163v544h148z" />
    <glyph glyph-name="uni0073" unicode="s" horiz-adv-x="475" 
d="M20 21l18 118q18 -6 41.5 -11.5t48.5 -9.5t49.5 -6t45.5 -2q39 0 57.5 11.5t18.5 32.5q0 14 -9.5 22.5t-27.5 15.5t-43 12.5t-55 13.5q-34 7 -59 20.5t-42.5 33t-26 45t-8.5 57.5q0 90 57 135t169 45q34 0 65 -3.5t59 -9.5t51 -15l-20 -120q-22 8 -45.5 13t-50 8t-59.5 3
q-36 0 -54 -10t-18 -31q0 -13 7 -20.5t21 -13t34.5 -10t47.5 -10.5q36 -7 66.5 -19t52.5 -30.5t34.5 -46.5t12.5 -69q0 -40 -12.5 -70t-34.5 -51t-51.5 -34t-65.5 -19t-74 -6q-36 0 -70 3.5t-66 10t-64 17.5z" />
    <glyph glyph-name="uni0074" unicode="t" horiz-adv-x="413" 
d="M249 -10q-54 0 -91 20.5t-55.5 64t-18.5 113.5v237h-78v109l78 10l19 116h144v-116h137v-119h-137v-224q0 -40 14.5 -56.5t45.5 -16.5q17 0 36 3.5t41 8.5l22 -124q-42 -14 -81 -20t-76 -6z" />
    <glyph glyph-name="uni0075" unicode="u" horiz-adv-x="591" 
d="M206 -10q-48 0 -84 17.5t-56.5 54.5t-20.5 92v390h164v-351q0 -34 17 -50.5t47 -16.5q16 0 30.5 3t29 9t31.5 14v392h164v-375q0 -15 3 -23.5t9 -12.5t14 -4q11 0 21 5l14 -118q-13 -7 -29 -13t-35.5 -9.5t-39.5 -3.5q-37 0 -61.5 14.5t-39.5 40.5q-29 -17 -57 -29.5
t-57.5 -19t-63.5 -6.5z" />
    <glyph glyph-name="uni0076" unicode="v" horiz-adv-x="583" 
d="M198 0l-192 543l175 2l115 -404l109 404l172 -2l-193 -543h-186z" />
    <glyph glyph-name="uni0077" unicode="w" horiz-adv-x="800" 
d="M132 0l-123 543l163 2l63 -398l78 397h174l79 -398l65 399l161 -2l-129 -543h-188l-77 360l-74 -360h-192z" />
    <glyph glyph-name="uni0078" unicode="x" horiz-adv-x="583" 
d="M5 0l184 276l-171 267l191 3l88 -179l90 179l182 -3l-171 -266l181 -277l-191 -2l-94 183l-94 -183z" />
    <glyph glyph-name="uni0079" unicode="y" horiz-adv-x="588" 
d="M162 -209l67 209h-22l-200 543l179 3l115 -414l109 414l171 -2l-247 -755z" />
    <glyph glyph-name="uni007A" unicode="z" horiz-adv-x="521" 
d="M25 0v113l260 305h-249v126h448v-111l-257 -306h271v-127h-473z" />
    <glyph glyph-name="uni007B" unicode="{" horiz-adv-x="331" 
d="M65 -45q0 44 9 76.5t18 60t9 54.5q0 17 -3.5 31t-12.5 22t-25 8h-18v116h18q16 0 25 8t12.5 22t3.5 31q0 26 -9 53.5t-18 60.5t-9 76q0 57 20 93.5t55.5 54.5t80.5 18h84v-112h-42q-21 0 -34 -9.5t-18.5 -25.5t-5.5 -38q0 -27 7.5 -54t15.5 -54.5t8 -57.5
q0 -23 -5.5 -45.5t-20.5 -42.5t-43 -36q28 -15 43 -35.5t20.5 -43.5t5.5 -45q0 -31 -8 -59t-15.5 -54t-7.5 -54q0 -20 5.5 -37t18.5 -26t34 -9h42v-112h-84q-45 0 -80.5 17.5t-55.5 54.5t-20 93z" />
    <glyph glyph-name="uni007C" unicode="|" horiz-adv-x="228" 
d="M181 790v-1000h-134v1000h134z" />
    <glyph glyph-name="uni007D" unicode="}" horiz-adv-x="331" 
d="M26 -98h35q22 0 34.5 9t18.5 26t6 37q0 28 -8 54t-15.5 54t-7.5 59q0 22 5.5 45t20 43.5t42.5 35.5q-28 16 -42.5 36t-20 42.5t-5.5 45.5q0 30 7.5 57.5t15.5 54.5t8 54q0 22 -6 38t-18.5 25.5t-34.5 9.5h-35v112h85q45 0 80 -18t55 -54.5t20 -93.5q0 -43 -8.5 -76
t-18 -60.5t-9.5 -53.5q0 -17 3.5 -31t12.5 -22t25 -8h18v-116h-18q-16 0 -24.5 -8t-12.5 -22t-4 -31q0 -27 9.5 -54.5t18 -60t8.5 -76.5q0 -56 -20 -93t-55 -54.5t-80 -17.5h-85v112z" />
    <glyph glyph-name="uni007E" unicode="~" horiz-adv-x="529" 
d="M472 238q-18 -18 -41.5 -28t-50.5 -10q-36 0 -64.5 13t-54.5 29.5t-52.5 29.5t-57.5 13q-33 0 -56 -12t-37 -24v130q6 7 18.5 15t32 14.5t45.5 6.5q31 0 57 -12.5t51 -29.5t53.5 -29.5t64.5 -12.5q27 0 49.5 9t42.5 28v-130z" />
    <glyph glyph-name="uni00A0" unicode="&#xa0;" horiz-adv-x="266" 
 />
    <glyph glyph-name="uni00A1" unicode="&#xa1;" horiz-adv-x="254" 
d="M198 283l12 -479h-164l12 479h140zM216 465q0 -45 -20 -66t-69 -21q-48 0 -68.5 21t-20.5 66q0 44 20.5 65t68.5 21q49 0 69 -21t20 -65z" />
    <glyph glyph-name="uni00A2" unicode="&#xa2;" horiz-adv-x="639" 
d="M343 -10q-124 0 -187 68.5t-63 203.5q0 62 14.5 115.5t45.5 93.5t81 62t122 22q37 0 68 -3t58.5 -8t52.5 -11l-22 -136q-23 5 -44.5 8.5t-43 5t-44.5 1.5q-40 0 -67 -15.5t-41 -48t-14 -82.5q0 -69 32 -102.5t92 -33.5q21 0 43.5 2t46 5.5t47.5 8.5l25 -130
q-28 -8 -62 -14t-69.5 -9t-70.5 -3zM270 -105v118l130 -6v-112h-130zM270 529v120h130v-110z" />
    <glyph glyph-name="uni00A3" unicode="&#xa3;" horiz-adv-x="640" 
d="M79 0v103q37 29 60 54t33 49t10 52q0 35 -10.5 64t-24.5 58t-24.5 62t-10.5 75q0 88 66 140.5t193 52.5q27 0 53 -2t50.5 -7t47.5 -11t44 -15l-23 -127q-16 5 -33.5 9t-36.5 6t-38.5 3.5t-39.5 1.5q-31 0 -57 -10t-41.5 -31.5t-15.5 -57.5q0 -26 9 -50t20.5 -49t20 -50.5
t8.5 -52.5q0 -29 -9.5 -52.5t-26 -44t-37.5 -40.5h307v-130h-494zM71 304v92h426v-92h-426z" />
    <glyph glyph-name="uni00A4" unicode="&#xa4;" horiz-adv-x="479" 
d="M39 415l84 84l64 -65q12 6 25 9t28 3t27.5 -3t23.5 -9l65 65l85 -84l-58 -57q7 -13 11 -28t4 -31t-4 -31.5t-11 -28.5l58 -58l-85 -84l-66 66q-11 -5 -23.5 -7.5t-26.5 -2.5t-27 2.5t-24 7.5l-66 -66l-84 84l58 58q-7 13 -11 28.5t-4 31.5t4 31t10 27zM240 243
q24 0 40 16t16 40q0 23 -16 39.5t-40 16.5q-25 0 -40.5 -16.5t-15.5 -39.5q0 -24 16 -40t40 -16z" />
    <glyph glyph-name="uni00A5" unicode="&#xa5;" horiz-adv-x="640" 
d="M83 310v78h153l-198 311l182 3l102 -215l101 215l179 -3l-194 -311h156v-78h-156v-48h156v-78h-156v-184h-172v184h-153v78h153v48h-153z" />
    <glyph glyph-name="uni00A6" unicode="&#xa6;" horiz-adv-x="228" 
d="M180 391h-133v399h133v-399zM47 190h133v-400h-133v400z" />
    <glyph glyph-name="uni00A7" unicode="&#xa7;" horiz-adv-x="569" 
d="M235 -221q-36 0 -69 5t-63.5 14.5t-60.5 24.5l29 136q15 -9 28 -15t25 -8.5t25 -2.5q20 0 34.5 6.5t22 19.5t7.5 31q0 20 -7.5 42.5t-23 54.5t-39.5 81q-36 71 -56.5 122.5t-28.5 94.5t-9 85q-1 87 34 149.5t103.5 96.5t165.5 34q38 0 75 -6t70 -19l-26 -140
q-14 7 -26.5 9t-23.5 2q-28 0 -44 -16t-16 -44q0 -12 3.5 -26t12 -33.5t21.5 -47t32 -66.5q26 -47 44 -87.5t28.5 -75.5t15 -67t4.5 -63q0 -87 -36.5 -152.5t-101 -102t-149.5 -36.5zM236 -129q43 0 74.5 14.5t52.5 39.5t31 57.5t10 68.5q0 25 -4 50t-14.5 55.5t-28 70
t-43.5 93.5q-29 60 -45.5 99t-23 67.5t-6.5 55.5q1 27 12 51.5t30.5 41t43.5 18.5l24 -27q-15 7 -27 9.5t-29 2.5q-35 0 -62.5 -17.5t-43 -50.5t-15.5 -80q0 -29 4 -57t14.5 -59t26.5 -68.5t40 -84.5q22 -44 37 -78t24 -61t13 -49t4 -42q0 -38 -17 -67.5t-47 -46t-70 -15.5
l-34 23q16 -8 33.5 -11t35.5 -3z" />
    <glyph glyph-name="uni00A8" unicode="&#xa8;" horiz-adv-x="449" 
d="M324 612q-34 0 -51.5 16.5t-17.5 56.5t17.5 57.5t51.5 17.5q35 0 52 -17.5t17 -57.5t-17 -56.5t-52 -16.5zM126 612q-35 0 -52 16.5t-17 56.5t17 57.5t52 17.5q34 0 51.5 -17.5t17.5 -57.5t-17.5 -56.5t-51.5 -16.5z" />
    <glyph glyph-name="uni00A9" unicode="&#xa9;" horiz-adv-x="746" 
d="M373 43q66 0 117 20t85.5 59t52 96t17.5 132t-17.5 132t-52.5 95.5t-85.5 58.5t-116.5 20q-65 0 -116 -20t-85.5 -58.5t-52.5 -95.5t-18 -132t17.5 -132t52.5 -96t86 -59t116 -20zM373 710q78 0 139 -24t104 -70.5t65.5 -113.5t22.5 -152t-22.5 -151.5t-65 -113.5
t-104 -71t-139.5 -24t-139 24t-104 71t-65.5 113.5t-22.5 151.5t22.5 152t65.5 113.5t104 70.5t139 24zM216 346q0 77 21.5 122.5t60 65t87.5 19.5q31 0 61.5 -5t54.5 -16l-17 -81q-18 5 -41 9t-43 4q-27 0 -45 -11t-27.5 -37t-9.5 -72q0 -57 18 -81.5t57 -24.5
q27 0 51.5 4.5t44.5 9.5l14 -80q-25 -11 -58 -17t-68 -6q-49 0 -85 20.5t-56 64t-20 112.5z" />
    <glyph glyph-name="uni00AA" unicode="&#xaa;" horiz-adv-x="398" 
d="M42 228v84h328v-84h-328zM29 453q0 37 19.5 57.5t61.5 30t111 12.5v17q0 16 -14 24.5t-46 8.5q-24 0 -48.5 -3.5t-49.5 -11.5l-18 79q29 8 64.5 13t66.5 5q60 0 95.5 -14.5t51 -40.5t15.5 -63v-95q0 -13 4.5 -18.5t9.5 -5.5q3 0 7 1t7 2l9 -70q-13 -8 -30 -13t-38 -5
q-27 0 -44 8.5t-27 25.5q-24 -16 -48 -25t-60 -9q-20 0 -38 5.5t-31.5 16.5t-21.5 28t-8 40zM138 459q0 -18 8.5 -25t23.5 -7q14 0 28 6t24 15v54q-24 -1 -40.5 -4.5t-26 -8.5t-13.5 -12.5t-4 -17.5z" />
    <glyph glyph-name="uni00AB" unicode="&#xab;" horiz-adv-x="550" 
d="M23 176v192l236 169l5 -170l-145 -96l145 -97l-5 -169zM286 176v192l236 169l5 -170l-145 -96l145 -97l-5 -169z" />
    <glyph glyph-name="uni00AC" unicode="&#xac;" horiz-adv-x="529" 
d="M50 314v131h430v-274h-131v143h-299z" />
    <glyph glyph-name="uni00AD" unicode="&#xad;" horiz-adv-x="353" 
d="M38 240v138h278v-138h-278z" />
    <glyph glyph-name="uni00AE" unicode="&#xae;" horiz-adv-x="709" 
d="M350 208q-74 0 -131.5 23.5t-97 68t-59.5 107.5t-20 143t20.5 143.5t60 108t96.5 68t131 23.5q77 0 135.5 -23.5t99 -68t61.5 -108t21 -143.5t-21 -144t-62 -108t-99.5 -67t-134.5 -23zM350 261q64 0 112 19t80.5 56t48.5 91t16 123q0 70 -16 123.5t-48 90.5t-80.5 55.5
t-112.5 18.5q-61 0 -107.5 -18.5t-78 -55.5t-47.5 -90.5t-16 -123.5q0 -69 16 -123t47.5 -91t78 -56t107.5 -19zM507 369q-22 0 -42 5.5t-40 19t-39.5 37.5t-38.5 60h-6.5h-7.5q-6 0 -12 0.5t-12 0.5v-119h-97v364q30 2 55.5 3.5t47.5 2t39 0.5q55 0 89 -12t50.5 -37.5
t16.5 -64.5q0 -44 -18.5 -71.5t-51.5 -36.5q11 -17 23 -30t25 -20.5t26 -8.5h3h2l1 -93h-6.5h-6.5zM345 554q27 0 40.5 6.5t19 19.5t5.5 35q0 18 -4 28.5t-16 16t-34 5.5h-15.5t-13 -0.5t-18.5 -1.5v-108q13 -1 20.5 -1h15.5z" />
    <glyph glyph-name="uni00AF" unicode="&#xaf;" horiz-adv-x="449" 
d="M74 627v115h301v-115h-301z" />
    <glyph glyph-name="uni00B0" unicode="&#xb0;" horiz-adv-x="346" 
d="M173 400q-49 0 -81 21.5t-48 57.5t-16 78q0 30 8 58.5t25.5 50.5t45.5 35.5t66 13.5t65.5 -13t45.5 -35.5t26 -51t8 -58.5q0 -42 -16 -78t-48 -57.5t-81 -21.5zM173 499q20 0 32 16.5t12 41.5q0 24 -11 40t-33 16t-33.5 -16t-11.5 -40q0 -25 12 -41.5t33 -16.5z" />
    <glyph glyph-name="uni00B1" unicode="&#xb1;" horiz-adv-x="535" 
d="M49 21v131h147v125h-147v131h147v131h142v-131h148v-131h-148v-125h148v-131h-437z" />
    <glyph glyph-name="uni00B2" unicode="&#xb2;" horiz-adv-x="401" 
d="M42 370v70q44 31 76.5 57t53 48.5t30 41t9.5 35.5q0 24 -14 39t-40 15q-21 0 -41 -5.5t-46 -19.5l-33 84q20 13 44.5 21.5t51 13t51.5 4.5q46 0 78.5 -15t50.5 -43.5t18 -69.5q0 -23 -6 -44.5t-20 -44t-39 -49t-64 -60.5h162v-78h-322z" />
    <glyph glyph-name="uni00B3" unicode="&#xb3;" horiz-adv-x="404" 
d="M26 394l28 73q15 -7 31 -12t36.5 -7t49.5 -2q44 0 65 13t21 36q0 13 -6.5 22t-22.5 14t-45 5h-74v71h83q28 0 42 10.5t14 27.5q0 13 -11 22.5t-31 14.5t-45 5q-30 0 -51 -2.5t-33.5 -6.5t-17.5 -6l-25 76q25 12 65.5 19.5t90.5 7.5q84 0 126.5 -28t42.5 -75
q0 -31 -17.5 -55t-46.5 -35q38 -12 57 -36t19 -59q0 -41 -23 -68.5t-64.5 -41.5t-98.5 -14q-44 0 -82.5 6.5t-76.5 24.5z" />
    <glyph glyph-name="uni00B4" unicode="&#xb4;" horiz-adv-x="449" 
d="M97 595l92 194h161l-128 -194h-125z" />
    <glyph glyph-name="uni00B5" unicode="&#xb5;" horiz-adv-x="592" 
d="M46 -210v754h164v-353q0 -34 17 -50.5t47 -16.5q15 0 29.5 3t29.5 9t32 14v394h163v-380q0 -14 3.5 -23t9.5 -12.5t13 -3.5q12 0 22 4l13 -113q-12 -7 -28 -13t-35.5 -9.5t-39.5 -3.5q-40 0 -61 13t-36 37q-19 -14 -39 -25.5t-42 -17.5t-46 -6q-19 0 -33 5t-23 14v-220
h-160z" />
    <glyph glyph-name="uni00B6" unicode="&#xb6;" horiz-adv-x="672" 
d="M483 -210v950h128v-950h-128zM268 313l-16 -96q-107 16 -158 84.5t-51 176.5q0 58 15.5 106t49.5 83t90.5 54t139.5 19h87v-950h-127v819q-39 -1 -64 -17.5t-37.5 -48t-12.5 -77.5q0 -66 23 -106t61 -47z" />
    <glyph glyph-name="uni00B7" unicode="&#xb7;" horiz-adv-x="236" 
d="M28 312q0 45 21 66.5t69 21.5q49 0 69.5 -21.5t20.5 -66.5q0 -44 -20.5 -65t-69.5 -21q-48 0 -69 21t-21 65z" />
    <glyph glyph-name="uni00B8" unicode="&#xb8;" horiz-adv-x="449" 
d="M136 -109q14 -4 25.5 -6t20.5 -2q23 0 36.5 11.5t13.5 33.5q0 11 -5 24.5t-13.5 27.5t-20.5 26h118q12 -14 21 -33t14 -39t5 -39q0 -31 -12.5 -57.5t-41 -42t-77.5 -15.5q-19 0 -41 3t-46 11z" />
    <glyph glyph-name="uni00B9" unicode="&#xb9;" horiz-adv-x="375" 
d="M42 370v80h103v202l-96 -36l-26 88l182 64h59v-318h91v-80h-313z" />
    <glyph glyph-name="uni00BA" unicode="&#xba;" horiz-adv-x="403" 
d="M39 228v85h328v-85h-328zM30 526q0 50 15.5 85.5t53 54.5t102.5 19t102 -19t52.5 -54.5t15.5 -85.5q0 -51 -16.5 -88t-53.5 -56t-100 -19t-101 19t-54 56t-16 88zM150 525q0 -33 5 -52t16 -26.5t29 -7.5q19 0 30 7.5t16 26.5t5 52t-4.5 51.5t-15.5 26t-31 7.5
q-19 0 -30 -7.5t-15.5 -26t-4.5 -51.5z" />
    <glyph glyph-name="uni00BB" unicode="&#xbb;" horiz-adv-x="550" 
d="M264 360v-176l-235 -179l-5 174l144 92l-144 95l5 171zM528 360v-176l-235 -179l-5 174l144 92l-144 95l5 171z" />
    <glyph glyph-name="uni00BC" unicode="&#xbc;" horiz-adv-x="908" 
d="M42 305v80h103v202l-96 -36l-26 88l182 64h59v-318h91v-80h-313zM346 -6l-105 2l373 727l104 -2zM498 60l-1 69l205 269l119 -1v-264h53v-73h-53v-60h-125v60h-198zM574 133h124v163z" />
    <glyph glyph-name="uni00BD" unicode="&#xbd;" horiz-adv-x="960" 
d="M42 305v80h103v202l-96 -36l-26 88l182 64h59v-318h91v-80h-313zM346 -6l-105 2l373 727l104 -2zM601 0v70q44 31 76.5 57t53 48.5t30 41t9.5 35.5q0 24 -14 39t-40 15q-21 0 -41 -5.5t-46 -19.5l-33 84q20 13 44.5 21.5t51 13t51.5 4.5q46 0 78.5 -15t50.5 -43.5
t18 -69.5q0 -23 -6 -44.5t-20 -44t-39 -49t-64 -60.5h162v-78h-322z" />
    <glyph glyph-name="uni00BE" unicode="&#xbe;" horiz-adv-x="913" 
d="M26 329l28 73q15 -7 31 -12t36.5 -7t49.5 -2q44 0 65 13t21 36q0 13 -6.5 22t-22.5 14t-45 5h-74v71h83q28 0 42 10.5t14 27.5q0 13 -11 22.5t-31 14.5t-45 5q-30 0 -51 -2.5t-33.5 -6.5t-17.5 -6l-25 76q25 12 65.5 19.5t90.5 7.5q84 0 126.5 -28t42.5 -75
q0 -31 -17.5 -55t-46.5 -35q38 -12 57 -36t19 -59q0 -41 -23 -68.5t-64.5 -41.5t-98.5 -14q-44 0 -82.5 6.5t-76.5 24.5zM351 -6l-105 2l373 727l104 -2zM503 60l-1 69l205 269l119 -1v-264h53v-73h-53v-60h-125v60h-198zM579 133h124v163z" />
    <glyph glyph-name="uni00BF" unicode="&#xbf;" horiz-adv-x="493" 
d="M345 279l4 -138q-47 -16 -76 -31.5t-44.5 -31t-21 -31.5t-5.5 -33q0 -19 7 -33t19 -24t29.5 -14.5t37.5 -4.5q34 0 70 10.5t76 34.5l48 -129q-28 -19 -65 -34t-77 -22.5t-78 -7.5q-49 0 -92 12t-75.5 37t-51 63.5t-18.5 92.5q0 51 17 91.5t55.5 72t99.5 55.5l1 65h140z
M364 460q0 -44 -20 -65.5t-69 -21.5t-69.5 21.5t-20.5 65.5t20.5 65t69.5 21q48 0 68.5 -21t20.5 -65z" />
    <glyph glyph-name="uni00C0" unicode="&#xc0;" horiz-adv-x="665" 
d="M7 0l222 703h204l225 -703h-186l-37 130h-214l-37 -130h-177zM252 269h152l-76 303zM270 745l-125 186h166l89 -186h-130z" />
    <glyph glyph-name="uni00C1" unicode="&#xc1;" horiz-adv-x="665" 
d="M7 0l222 703h204l225 -703h-186l-37 130h-214l-37 -130h-177zM252 269h152l-76 303zM270 745l88 186h160l-125 -186h-123z" />
    <glyph glyph-name="uni00C2" unicode="&#xc2;" horiz-adv-x="665" 
d="M7 0l222 703h204l225 -703h-186l-37 130h-214l-37 -130h-177zM252 269h152l-76 303zM143 745l96 186h189l94 -186h-131l-59 116l-59 -116h-130z" />
    <glyph glyph-name="uni00C3" unicode="&#xc3;" horiz-adv-x="665" 
d="M7 0l222 703h204l225 -703h-186l-37 130h-214l-37 -130h-177zM252 269h152l-76 303zM150 756q-2 12 -2.5 24t-0.5 22q0 52 26.5 85t80.5 33q23 0 43.5 -7.5t39 -17t33.5 -17.5t28 -8q10 0 16 4.5t9.5 13.5t3.5 21q0 3 -0.5 8t-1.5 8h88q2 -12 2.5 -24t0.5 -23
q0 -54 -26.5 -86t-80.5 -32q-23 0 -43.5 7.5t-38.5 17t-33 17t-29 7.5q-13 0 -20.5 -9.5t-7.5 -27.5q0 -3 0.5 -7.5t1.5 -8.5h-89z" />
    <glyph glyph-name="uni00C4" unicode="&#xc4;" horiz-adv-x="665" 
d="M7 0l222 703h204l225 -703h-186l-37 130h-214l-37 -130h-177zM252 269h152l-76 303zM432 751q-34 0 -51.5 16.5t-17.5 56.5t17.5 57.5t51.5 17.5q35 0 52 -17.5t17 -57.5t-17 -56.5t-52 -16.5zM234 751q-35 0 -52 16.5t-17 56.5t17 57.5t52 17.5q34 0 51.5 -17.5
t17.5 -57.5t-17.5 -56.5t-51.5 -16.5z" />
    <glyph glyph-name="uni00C5" unicode="&#xc5;" horiz-adv-x="665" 
d="M7 0l222 703h204l225 -703h-186l-37 130h-214l-37 -130h-177zM252 269h152l-76 303zM333 743q-57 0 -87 25.5t-30 72.5q0 48 30 73.5t87 25.5q56 0 86 -25.5t30 -73.5q0 -47 -30 -72.5t-86 -25.5zM332 808q34 0 34 33q0 34 -34 34q-33 0 -33 -34q0 -33 33 -33z" />
    <glyph glyph-name="uni00C6" unicode="&#xc6;" horiz-adv-x="998" 
d="M4 0l369 700h582v-144h-329v-144h304v-136h-304v-133h347v-143h-509v179h-173l-97 -180zM351 314h112v264z" />
    <glyph glyph-name="uni00C7" unicode="&#xc7;" horiz-adv-x="624" 
d="M30 339q0 133 38 214.5t113.5 119t189.5 37.5q35 0 63.5 -1.5t54 -5.5t49.5 -9.5t49 -13.5l-34 -134q-30 7 -58 11.5t-54.5 7t-53.5 2.5q-49 0 -84 -12t-57 -38t-33 -69.5t-11 -107.5q0 -58 10.5 -98t32.5 -64t56.5 -35t81.5 -11q44 0 93.5 7t91.5 18l30 -133
q-24 -7 -50 -13.5t-55.5 -11t-63.5 -7t-74 -2.5q-81 0 -142 19t-101.5 60t-61 108t-20.5 162zM230 -109q14 -4 25.5 -6t20.5 -2q23 0 36.5 11.5t13.5 33.5q0 11 -5 24.5t-13.5 27.5t-20.5 26h118q12 -14 21 -33t14 -39t5 -39q0 -31 -12.5 -57.5t-41 -42t-77.5 -15.5
q-19 0 -41 3t-46 11z" />
    <glyph glyph-name="uni00C8" unicode="&#xc8;" horiz-adv-x="599" 
d="M55 0v700h502v-144h-333v-132h308v-136h-308v-145h351v-143h-520zM254 745l-125 186h166l89 -186h-130z" />
    <glyph glyph-name="uni00C9" unicode="&#xc9;" horiz-adv-x="599" 
d="M55 0v700h502v-144h-333v-132h308v-136h-308v-145h351v-143h-520zM254 745l88 186h160l-125 -186h-123z" />
    <glyph glyph-name="uni00CA" unicode="&#xca;" horiz-adv-x="599" 
d="M55 0v700h502v-144h-333v-132h308v-136h-308v-145h351v-143h-520zM127 745l96 186h189l94 -186h-131l-59 116l-59 -116h-130z" />
    <glyph glyph-name="uni00CB" unicode="&#xcb;" horiz-adv-x="599" 
d="M55 0v700h502v-144h-333v-132h308v-136h-308v-145h351v-143h-520zM415 751q-34 0 -51.5 16.5t-17.5 56.5t17.5 57.5t51.5 17.5q35 0 52 -17.5t17 -57.5t-17 -56.5t-52 -16.5zM217 751q-35 0 -52 16.5t-17 56.5t17 57.5t52 17.5q34 0 51.5 -17.5t17.5 -57.5t-17.5 -56.5
t-51.5 -16.5z" />
    <glyph glyph-name="uni00CC" unicode="&#xcc;" horiz-adv-x="279" 
d="M55 0v700h169v-700h-169zM77 745l-125 186h166l89 -186h-130z" />
    <glyph glyph-name="uni00CD" unicode="&#xcd;" horiz-adv-x="279" 
d="M55 0v700h169v-700h-169zM77 745l88 186h160l-125 -186h-123z" />
    <glyph glyph-name="uni00CE" unicode="&#xce;" horiz-adv-x="279" 
d="M55 0v700h169v-700h-169zM-50 745l96 186h189l94 -186h-131l-59 116l-59 -116h-130z" />
    <glyph glyph-name="uni00CF" unicode="&#xcf;" horiz-adv-x="279" 
d="M55 0v700h169v-700h-169zM239 751q-34 0 -51.5 16.5t-17.5 56.5t17.5 57.5t51.5 17.5q35 0 52 -17.5t17 -57.5t-17 -56.5t-52 -16.5zM41 751q-35 0 -52 16.5t-17 56.5t17 57.5t52 17.5q34 0 51.5 -17.5t17.5 -57.5t-17.5 -56.5t-51.5 -16.5z" />
    <glyph glyph-name="uni00D0" unicode="&#xd0;" horiz-adv-x="695" 
d="M6 290v127h332v-127h-332zM329 -10q-52 0 -98 1t-88.5 3t-84.5 5v701q47 4 89.5 6t84.5 3t89 1q123 0 199 -37.5t110.5 -117t34.5 -206.5q0 -124 -37 -203.5t-111.5 -117.5t-187.5 -38zM342 123q49 0 81.5 22.5t49.5 72t17 130.5q0 87 -16.5 136t-50 70.5t-86.5 21.5
q-18 0 -37.5 -0.5t-38 -1.5t-33.5 -2v-445q14 0 28 -1t28 -1.5l28 -1t30 -0.5z" />
    <glyph glyph-name="uni00D1" unicode="&#xd1;" horiz-adv-x="685" 
d="M55 0v701h160l265 -440v439h150v-701h-160l-264 431v-430h-151zM160 756q-2 12 -2.5 24t-0.5 22q0 52 26.5 85t80.5 33q23 0 43.5 -7.5t39 -17t33.5 -17.5t28 -8q10 0 16 4.5t9.5 13.5t3.5 21q0 3 -0.5 8t-1.5 8h88q2 -12 2.5 -24t0.5 -23q0 -54 -26.5 -86t-80.5 -32
q-23 0 -43.5 7.5t-38.5 17t-33 17t-29 7.5q-13 0 -20.5 -9.5t-7.5 -27.5q0 -3 0.5 -7.5t1.5 -8.5h-89z" />
    <glyph glyph-name="uni00D2" unicode="&#xd2;" horiz-adv-x="702" 
d="M351 123q27 0 50.5 7t41.5 22.5t30.5 41t19 65t6.5 92.5t-6.5 92t-19 64.5t-31 41t-41.5 22t-50 6.5t-49.5 -6.5t-40.5 -21.5t-31 -41t-20 -65.5t-7 -92.5q0 -54 7 -92.5t20 -64.5t31 -41.5t41 -22t49 -6.5zM352 -10q-61 0 -111 12t-89.5 38t-66 68t-41 102t-14.5 140
t13.5 139.5t40 101.5t65.5 68.5t89.5 38.5t112.5 12q63 0 113.5 -12t89 -38t65 -67.5t40 -101t13.5 -138.5q0 -82 -13.5 -142.5t-40.5 -102.5t-66 -68t-89 -38t-111 -12zM288 745l-125 186h166l89 -186h-130z" />
    <glyph glyph-name="uni00D3" unicode="&#xd3;" horiz-adv-x="702" 
d="M351 123q27 0 50.5 7t41.5 22.5t30.5 41t19 65t6.5 92.5t-6.5 92t-19 64.5t-31 41t-41.5 22t-50 6.5t-49.5 -6.5t-40.5 -21.5t-31 -41t-20 -65.5t-7 -92.5q0 -54 7 -92.5t20 -64.5t31 -41.5t41 -22t49 -6.5zM352 -10q-61 0 -111 12t-89.5 38t-66 68t-41 102t-14.5 140
t13.5 139.5t40 101.5t65.5 68.5t89.5 38.5t112.5 12q63 0 113.5 -12t89 -38t65 -67.5t40 -101t13.5 -138.5q0 -82 -13.5 -142.5t-40.5 -102.5t-66 -68t-89 -38t-111 -12zM288 745l88 186h160l-125 -186h-123z" />
    <glyph glyph-name="uni00D4" unicode="&#xd4;" horiz-adv-x="702" 
d="M351 123q27 0 50.5 7t41.5 22.5t30.5 41t19 65t6.5 92.5t-6.5 92t-19 64.5t-31 41t-41.5 22t-50 6.5t-49.5 -6.5t-40.5 -21.5t-31 -41t-20 -65.5t-7 -92.5q0 -54 7 -92.5t20 -64.5t31 -41.5t41 -22t49 -6.5zM352 -10q-61 0 -111 12t-89.5 38t-66 68t-41 102t-14.5 140
t13.5 139.5t40 101.5t65.5 68.5t89.5 38.5t112.5 12q63 0 113.5 -12t89 -38t65 -67.5t40 -101t13.5 -138.5q0 -82 -13.5 -142.5t-40.5 -102.5t-66 -68t-89 -38t-111 -12zM161 745l96 186h189l94 -186h-131l-59 116l-59 -116h-130z" />
    <glyph glyph-name="uni00D5" unicode="&#xd5;" horiz-adv-x="702" 
d="M351 123q27 0 50.5 7t41.5 22.5t30.5 41t19 65t6.5 92.5t-6.5 92t-19 64.5t-31 41t-41.5 22t-50 6.5t-49.5 -6.5t-40.5 -21.5t-31 -41t-20 -65.5t-7 -92.5q0 -54 7 -92.5t20 -64.5t31 -41.5t41 -22t49 -6.5zM352 -10q-61 0 -111 12t-89.5 38t-66 68t-41 102t-14.5 140
t13.5 139.5t40 101.5t65.5 68.5t89.5 38.5t112.5 12q63 0 113.5 -12t89 -38t65 -67.5t40 -101t13.5 -138.5q0 -82 -13.5 -142.5t-40.5 -102.5t-66 -68t-89 -38t-111 -12zM168 756q-2 12 -2.5 24t-0.5 22q0 52 26.5 85t80.5 33q23 0 43.5 -7.5t39 -17t33.5 -17.5t28 -8
q10 0 16 4.5t9.5 13.5t3.5 21q0 3 -0.5 8t-1.5 8h88q2 -12 2.5 -24t0.5 -23q0 -54 -26.5 -86t-80.5 -32q-23 0 -43.5 7.5t-38.5 17t-33 17t-29 7.5q-13 0 -20.5 -9.5t-7.5 -27.5q0 -3 0.5 -7.5t1.5 -8.5h-89z" />
    <glyph glyph-name="uni00D6" unicode="&#xd6;" horiz-adv-x="702" 
d="M351 123q27 0 50.5 7t41.5 22.5t30.5 41t19 65t6.5 92.5t-6.5 92t-19 64.5t-31 41t-41.5 22t-50 6.5t-49.5 -6.5t-40.5 -21.5t-31 -41t-20 -65.5t-7 -92.5q0 -54 7 -92.5t20 -64.5t31 -41.5t41 -22t49 -6.5zM352 -10q-61 0 -111 12t-89.5 38t-66 68t-41 102t-14.5 140
t13.5 139.5t40 101.5t65.5 68.5t89.5 38.5t112.5 12q63 0 113.5 -12t89 -38t65 -67.5t40 -101t13.5 -138.5q0 -82 -13.5 -142.5t-40.5 -102.5t-66 -68t-89 -38t-111 -12zM450 751q-34 0 -51.5 16.5t-17.5 56.5t17.5 57.5t51.5 17.5q35 0 52 -17.5t17 -57.5t-17 -56.5
t-52 -16.5zM252 751q-35 0 -52 16.5t-17 56.5t17 57.5t52 17.5q34 0 51.5 -17.5t17.5 -57.5t-17.5 -56.5t-51.5 -16.5z" />
    <glyph glyph-name="uni00D7" unicode="&#xd7;" horiz-adv-x="498" 
d="M132 105l-89 96l109 118l-109 118l89 96l117 -124l117 123l88 -95l-108 -118l108 -118l-88 -95l-117 123z" />
    <glyph glyph-name="uni00D8" unicode="&#xd8;" horiz-adv-x="702" 
d="M150 -13h-116l112 159h4l332 479h4l65 92h117l-107 -149h-4l-332 -480h-3zM351 117q27 0 51 6.5t43 22.5t32 42.5t20.5 66.5t7.5 95q0 56 -7.5 96t-20.5 66.5t-32 42t-42.5 22t-51.5 6.5t-51.5 -6.5t-42.5 -22t-32.5 -42t-20.5 -66.5t-7 -96q0 -55 7 -95t20.5 -66.5
t32.5 -42.5t42.5 -22.5t51.5 -6.5zM351 -10q-63 0 -113.5 12t-89.5 38t-65 68t-39.5 102t-13.5 140t12.5 139.5t38.5 102t64.5 68.5t90 38t115.5 12t115.5 -12t90 -38t64 -67.5t38.5 -101t13 -139.5q0 -81 -13.5 -141.5t-40 -102.5t-65 -68t-89.5 -38t-113 -12z" />
    <glyph glyph-name="uni00D9" unicode="&#xd9;" horiz-adv-x="686" 
d="M48 227v473h167v-475q0 -22 6 -39t18 -28t28 -18t35.5 -10.5t40.5 -3.5q23 0 42.5 3.5t35 10.5t27 18.5t17.5 28.5t6 38v475h167v-473q0 -52 -12.5 -91t-37 -67t-60.5 -45t-82.5 -25.5t-102.5 -8.5t-102 8.5t-82 25.5t-60.5 45t-37.5 67t-13 91zM281 745l-125 186h166
l89 -186h-130z" />
    <glyph glyph-name="uni00DA" unicode="&#xda;" horiz-adv-x="686" 
d="M48 227v473h167v-475q0 -22 6 -39t18 -28t28 -18t35.5 -10.5t40.5 -3.5q23 0 42.5 3.5t35 10.5t27 18.5t17.5 28.5t6 38v475h167v-473q0 -52 -12.5 -91t-37 -67t-60.5 -45t-82.5 -25.5t-102.5 -8.5t-102 8.5t-82 25.5t-60.5 45t-37.5 67t-13 91zM281 745l88 186h160
l-125 -186h-123z" />
    <glyph glyph-name="uni00DB" unicode="&#xdb;" horiz-adv-x="686" 
d="M48 227v473h167v-475q0 -22 6 -39t18 -28t28 -18t35.5 -10.5t40.5 -3.5q23 0 42.5 3.5t35 10.5t27 18.5t17.5 28.5t6 38v475h167v-473q0 -52 -12.5 -91t-37 -67t-60.5 -45t-82.5 -25.5t-102.5 -8.5t-102 8.5t-82 25.5t-60.5 45t-37.5 67t-13 91zM154 745l96 186h189
l94 -186h-131l-59 116l-59 -116h-130z" />
    <glyph glyph-name="uni00DC" unicode="&#xdc;" horiz-adv-x="686" 
d="M48 227v473h167v-475q0 -22 6 -39t18 -28t28 -18t35.5 -10.5t40.5 -3.5q23 0 42.5 3.5t35 10.5t27 18.5t17.5 28.5t6 38v475h167v-473q0 -52 -12.5 -91t-37 -67t-60.5 -45t-82.5 -25.5t-102.5 -8.5t-102 8.5t-82 25.5t-60.5 45t-37.5 67t-13 91zM443 751
q-34 0 -51.5 16.5t-17.5 56.5t17.5 57.5t51.5 17.5q35 0 52 -17.5t17 -57.5t-17 -56.5t-52 -16.5zM245 751q-35 0 -52 16.5t-17 56.5t17 57.5t52 17.5q34 0 51.5 -17.5t17.5 -57.5t-17.5 -56.5t-51.5 -16.5z" />
    <glyph glyph-name="uni00DD" unicode="&#xdd;" horiz-adv-x="650" 
d="M241 0v245l-241 454l190 2l136 -351l134 351l189 -2l-239 -454v-245h-169zM263 745l88 186h160l-125 -186h-123z" />
    <glyph glyph-name="uni00DE" unicode="&#xde;" horiz-adv-x="675" 
d="M55 0v700h170v-67q24 1 43.5 1.5t34.5 0.5h26q94 0 156 -14t97 -44.5t50 -78.5t15 -116q0 -70 -14.5 -120t-47 -82t-84.5 -47t-128 -15h-36.5h-25.5h-22t-26 1t-38 2v-121h-170zM320 255q50 0 80.5 8.5t47 25.5t22 41.5t5.5 55.5t-6 52.5t-20.5 35.5t-40.5 21t-66 7h-24
t-23.5 -1t-29 -1.5t-40.5 -1.5v-240q16 0 29 -1t23 -1.5t20.5 -0.5h22.5z" />
    <glyph glyph-name="uni00DF" unicode="&#xdf;" horiz-adv-x="720" 
d="M88 0v384h-74v109l74 10v22q0 76 33.5 126t101 74.5t167.5 24.5q133 0 202 -41.5t69 -127.5q0 -60 -33.5 -93t-103.5 -52q-35 -11 -49.5 -22.5t-14.5 -28.5q0 -13 8.5 -22.5t30.5 -17.5t62 -18q55 -11 89.5 -32t50.5 -53.5t16 -80.5q0 -37 -12 -65t-33 -48.5t-50.5 -33
t-63.5 -18.5t-71 -6q-33 0 -67.5 3t-67.5 9.5t-64 16.5l17 116q27 -8 59.5 -14t65.5 -9.5t60 -3.5q24 0 40.5 5t26 15t9.5 23t-7 21.5t-27 17t-58 18.5q-61 14 -97 34t-51.5 53t-15.5 82q0 36 12.5 64.5t39.5 49t68 30.5q41 15 56.5 26t15.5 31q0 16 -9.5 26.5t-32 15.5
t-63.5 5q-47 0 -79.5 -14.5t-49.5 -43.5t-17 -73v-494h-163z" />
    <glyph glyph-name="uni00E0" unicode="&#xe0;" horiz-adv-x="559" 
d="M21 149q0 49 18.5 81t57 51t97.5 29.5t140 16.5v33q0 30 -25 44t-72 14q-21 0 -48 -2t-55.5 -7t-58.5 -14l-26 128q45 14 99 22.5t100 8.5q88 0 142.5 -21.5t80 -64.5t25.5 -106v-190q0 -25 7.5 -33t17.5 -8q5 0 11.5 0.5t11.5 2.5l13 -117q-20 -12 -44.5 -19.5
t-54.5 -7.5q-42 0 -68.5 15.5t-39.5 47.5q-26 -19 -52.5 -33.5t-57 -22t-68.5 -7.5q-34 0 -61.5 11t-48 31.5t-31 49.5t-10.5 67zM186 159q0 -32 14 -47t37 -15q16 0 33.5 5t34.5 14.5t29 21.5v102q-37 -3 -64.5 -7.5t-46.5 -13.5t-28 -23.5t-9 -36.5zM209 596l-127 194h166
l92 -194h-131z" />
    <glyph glyph-name="uni00E1" unicode="&#xe1;" horiz-adv-x="559" 
d="M21 149q0 49 18.5 81t57 51t97.5 29.5t140 16.5v33q0 30 -25 44t-72 14q-21 0 -48 -2t-55.5 -7t-58.5 -14l-26 128q45 14 99 22.5t100 8.5q88 0 142.5 -21.5t80 -64.5t25.5 -106v-190q0 -25 7.5 -33t17.5 -8q5 0 11.5 0.5t11.5 2.5l13 -117q-20 -12 -44.5 -19.5
t-54.5 -7.5q-42 0 -68.5 15.5t-39.5 47.5q-26 -19 -52.5 -33.5t-57 -22t-68.5 -7.5q-34 0 -61.5 11t-48 31.5t-31 49.5t-10.5 67zM186 159q0 -32 14 -47t37 -15q16 0 33.5 5t34.5 14.5t29 21.5v102q-37 -3 -64.5 -7.5t-46.5 -13.5t-28 -23.5t-9 -36.5zM207 595l92 194h161
l-128 -194h-125z" />
    <glyph glyph-name="uni00E2" unicode="&#xe2;" horiz-adv-x="559" 
d="M21 149q0 49 18.5 81t57 51t97.5 29.5t140 16.5v33q0 30 -25 44t-72 14q-21 0 -48 -2t-55.5 -7t-58.5 -14l-26 128q45 14 99 22.5t100 8.5q88 0 142.5 -21.5t80 -64.5t25.5 -106v-190q0 -25 7.5 -33t17.5 -8q5 0 11.5 0.5t11.5 2.5l13 -117q-20 -12 -44.5 -19.5
t-54.5 -7.5q-42 0 -68.5 15.5t-39.5 47.5q-26 -19 -52.5 -33.5t-57 -22t-68.5 -7.5q-34 0 -61.5 11t-48 31.5t-31 49.5t-10.5 67zM186 159q0 -32 14 -47t37 -15q16 0 33.5 5t34.5 14.5t29 21.5v102q-37 -3 -64.5 -7.5t-46.5 -13.5t-28 -23.5t-9 -36.5zM83 596l101 194h180
l98 -194h-132l-58 115l-58 -115h-131z" />
    <glyph glyph-name="uni00E3" unicode="&#xe3;" horiz-adv-x="559" 
d="M21 149q0 49 18.5 81t57 51t97.5 29.5t140 16.5v33q0 30 -25 44t-72 14q-21 0 -48 -2t-55.5 -7t-58.5 -14l-26 128q45 14 99 22.5t100 8.5q88 0 142.5 -21.5t80 -64.5t25.5 -106v-190q0 -25 7.5 -33t17.5 -8q5 0 11.5 0.5t11.5 2.5l13 -117q-20 -12 -44.5 -19.5
t-54.5 -7.5q-42 0 -68.5 15.5t-39.5 47.5q-26 -19 -52.5 -33.5t-57 -22t-68.5 -7.5q-34 0 -61.5 11t-48 31.5t-31 49.5t-10.5 67zM186 159q0 -32 14 -47t37 -15q16 0 33.5 5t34.5 14.5t29 21.5v102q-37 -3 -64.5 -7.5t-46.5 -13.5t-28 -23.5t-9 -36.5zM91 599q-2 12 -2.5 24
t-0.5 22q0 60 26 89t80 29q22 0 42.5 -7t39 -16.5t34.5 -16.5t30 -7q9 0 15.5 5t10 13t3.5 17q0 3 -0.5 8t-0.5 8h86q2 -12 2.5 -23.5t0.5 -22.5q0 -60 -26 -89.5t-80 -29.5q-20 0 -40.5 7t-39.5 16.5t-36.5 16.5t-29.5 7q-14 0 -21.5 -9t-7.5 -24q0 -4 0.5 -9t0.5 -8h-86z
" />
    <glyph glyph-name="uni00E4" unicode="&#xe4;" horiz-adv-x="559" 
d="M21 149q0 49 18.5 81t57 51t97.5 29.5t140 16.5v33q0 30 -25 44t-72 14q-21 0 -48 -2t-55.5 -7t-58.5 -14l-26 128q45 14 99 22.5t100 8.5q88 0 142.5 -21.5t80 -64.5t25.5 -106v-190q0 -25 7.5 -33t17.5 -8q5 0 11.5 0.5t11.5 2.5l13 -117q-20 -12 -44.5 -19.5
t-54.5 -7.5q-42 0 -68.5 15.5t-39.5 47.5q-26 -19 -52.5 -33.5t-57 -22t-68.5 -7.5q-34 0 -61.5 11t-48 31.5t-31 49.5t-10.5 67zM186 159q0 -32 14 -47t37 -15q16 0 33.5 5t34.5 14.5t29 21.5v102q-37 -3 -64.5 -7.5t-46.5 -13.5t-28 -23.5t-9 -36.5zM372 612
q-34 0 -51.5 16.5t-17.5 56.5t17.5 57.5t51.5 17.5q35 0 52 -17.5t17 -57.5t-17 -56.5t-52 -16.5zM174 612q-35 0 -52 16.5t-17 56.5t17 57.5t52 17.5q34 0 51.5 -17.5t17.5 -57.5t-17.5 -56.5t-51.5 -16.5z" />
    <glyph glyph-name="uni00E5" unicode="&#xe5;" horiz-adv-x="559" 
d="M21 149q0 49 18.5 81t57 51t97.5 29.5t140 16.5v33q0 30 -25 44t-72 14q-21 0 -48 -2t-55.5 -7t-58.5 -14l-26 128q45 14 99 22.5t100 8.5q88 0 142.5 -21.5t80 -64.5t25.5 -106v-190q0 -25 7.5 -33t17.5 -8q5 0 11.5 0.5t11.5 2.5l13 -117q-20 -12 -44.5 -19.5
t-54.5 -7.5q-42 0 -68.5 15.5t-39.5 47.5q-26 -19 -52.5 -33.5t-57 -22t-68.5 -7.5q-34 0 -61.5 11t-48 31.5t-31 49.5t-10.5 67zM186 159q0 -32 14 -47t37 -15q16 0 33.5 5t34.5 14.5t29 21.5v102q-37 -3 -64.5 -7.5t-46.5 -13.5t-28 -23.5t-9 -36.5zM273 595
q-57 0 -86.5 26t-29.5 72q0 48 29.5 73.5t86.5 25.5t86.5 -25.5t29.5 -73.5q0 -46 -29.5 -72t-86.5 -26zM273 660q33 0 33 34q0 33 -33 33q-34 0 -34 -33q0 -34 34 -34z" />
    <glyph glyph-name="uni00E6" unicode="&#xe6;" horiz-adv-x="854" 
d="M178 -10q-74 0 -115.5 41.5t-41.5 116.5q0 48 17 81t54.5 53.5t96.5 31.5t142 16v30q0 28 -23 43t-71 15q-19 0 -45 -2t-56 -7t-61 -14l-25 128q47 14 100.5 22.5t98.5 8.5q34 0 60 -4t47 -12.5t38 -21.5t32 -31h1q20 24 44 39.5t53.5 22.5t65.5 7q81 0 133 -26
t77.5 -81.5t25.5 -144.5q0 -12 -0.5 -26.5t-1.5 -26.5q-31 -2 -80.5 -6t-111.5 -8t-133 -7q-1 -1 -1 -4.5t1 -6.5q1 -36 13.5 -57t39 -29t69.5 -8q40 0 89 7t93 17l21 -124q-35 -11 -70.5 -18.5t-72.5 -11t-80 -3.5q-51 0 -90.5 8.5t-69 27t-53.5 46.5h-2q-23 -20 -47 -35
t-49.5 -25.5t-53 -16t-58.5 -5.5zM237 99q17 0 35.5 6.5t35 17t28.5 22.5q-3 15 -4 32t-1 36v15v14q-37 -2 -64.5 -7.5t-45.5 -14.5t-26.5 -24t-8.5 -37q0 -30 14 -45t37 -15zM498 320q33 0 63.5 1.5t56 3.5t41.5 3q-3 39 -12 63.5t-25.5 35.5t-40.5 11q-21 0 -39.5 -10
t-30 -35.5t-13.5 -72.5z" />
    <glyph glyph-name="uni00E7" unicode="&#xe7;" horiz-adv-x="518" 
d="M26 264q0 97 32.5 161t95.5 96.5t155 32.5q32 0 64.5 -2.5t62.5 -7t54 -11.5l-23 -136q-24 5 -48 8t-47 5t-45 2q-43 0 -72.5 -15.5t-44 -47t-14.5 -80.5q0 -47 15.5 -77.5t46 -46t72.5 -15.5q24 0 47.5 2t47.5 6t50 9l25 -130q-43 -12 -98 -19.5t-108 -7.5
q-134 0 -201 67.5t-67 206.5zM184 -109q14 -4 25.5 -6t20.5 -2q23 0 36.5 11.5t13.5 33.5q0 11 -5 24.5t-13.5 27.5t-20.5 26h118q12 -14 21 -33t14 -39t5 -39q0 -31 -12.5 -57.5t-41 -42t-77.5 -15.5q-19 0 -41 3t-46 11z" />
    <glyph glyph-name="uni00E8" unicode="&#xe8;" horiz-adv-x="559" 
d="M293 -10q-64 0 -113 15.5t-83.5 48t-52.5 84t-18 122.5q0 81 20.5 137t57 91t86.5 50.5t109 15.5q120 0 176.5 -59t56.5 -192q0 -10 -0.5 -25.5t-1.5 -30.5q-25 -2 -61 -5t-80 -6t-93 -5t-100 -3q-1 -3 -1 -6v-7q0 -33 13.5 -54.5t41.5 -32t73 -10.5q28 0 59 3t63 8.5
t64 12.5l19 -118q-35 -11 -72 -19t-77 -11.5t-86 -3.5zM197 325q26 0 52 1t49 2.5t41 2.5t30 1q-1 40 -10 63.5t-26 33.5t-43 10q-18 0 -33 -5t-27.5 -17.5t-21 -35t-11.5 -56.5zM227 596l-127 194h166l92 -194h-131z" />
    <glyph glyph-name="uni00E9" unicode="&#xe9;" horiz-adv-x="559" 
d="M293 -10q-64 0 -113 15.5t-83.5 48t-52.5 84t-18 122.5q0 81 20.5 137t57 91t86.5 50.5t109 15.5q120 0 176.5 -59t56.5 -192q0 -10 -0.5 -25.5t-1.5 -30.5q-25 -2 -61 -5t-80 -6t-93 -5t-100 -3q-1 -3 -1 -6v-7q0 -33 13.5 -54.5t41.5 -32t73 -10.5q28 0 59 3t63 8.5
t64 12.5l19 -118q-35 -11 -72 -19t-77 -11.5t-86 -3.5zM197 325q26 0 52 1t49 2.5t41 2.5t30 1q-1 40 -10 63.5t-26 33.5t-43 10q-18 0 -33 -5t-27.5 -17.5t-21 -35t-11.5 -56.5zM225 595l92 194h161l-128 -194h-125z" />
    <glyph glyph-name="uni00EA" unicode="&#xea;" horiz-adv-x="559" 
d="M293 -10q-64 0 -113 15.5t-83.5 48t-52.5 84t-18 122.5q0 81 20.5 137t57 91t86.5 50.5t109 15.5q120 0 176.5 -59t56.5 -192q0 -10 -0.5 -25.5t-1.5 -30.5q-25 -2 -61 -5t-80 -6t-93 -5t-100 -3q-1 -3 -1 -6v-7q0 -33 13.5 -54.5t41.5 -32t73 -10.5q28 0 59 3t63 8.5
t64 12.5l19 -118q-35 -11 -72 -19t-77 -11.5t-86 -3.5zM197 325q26 0 52 1t49 2.5t41 2.5t30 1q-1 40 -10 63.5t-26 33.5t-43 10q-18 0 -33 -5t-27.5 -17.5t-21 -35t-11.5 -56.5zM101 596l101 194h180l98 -194h-132l-58 115l-58 -115h-131z" />
    <glyph glyph-name="uni00EB" unicode="&#xeb;" horiz-adv-x="559" 
d="M293 -10q-64 0 -113 15.5t-83.5 48t-52.5 84t-18 122.5q0 81 20.5 137t57 91t86.5 50.5t109 15.5q120 0 176.5 -59t56.5 -192q0 -10 -0.5 -25.5t-1.5 -30.5q-25 -2 -61 -5t-80 -6t-93 -5t-100 -3q-1 -3 -1 -6v-7q0 -33 13.5 -54.5t41.5 -32t73 -10.5q28 0 59 3t63 8.5
t64 12.5l19 -118q-35 -11 -72 -19t-77 -11.5t-86 -3.5zM197 325q26 0 52 1t49 2.5t41 2.5t30 1q-1 40 -10 63.5t-26 33.5t-43 10q-18 0 -33 -5t-27.5 -17.5t-21 -35t-11.5 -56.5zM390 612q-34 0 -51.5 16.5t-17.5 56.5t17.5 57.5t51.5 17.5q35 0 52 -17.5t17 -57.5
t-17 -56.5t-52 -16.5zM192 612q-35 0 -52 16.5t-17 56.5t17 57.5t52 17.5q34 0 51.5 -17.5t17.5 -57.5t-17.5 -56.5t-51.5 -16.5z" />
    <glyph glyph-name="uni00EC" unicode="&#xec;" horiz-adv-x="257" 
d="M46 0v544h165v-544h-165zM65 596l-127 194h166l92 -194h-131z" />
    <glyph glyph-name="uni00ED" unicode="&#xed;" horiz-adv-x="257" 
d="M46 0v544h165v-544h-165zM63 595l92 194h161l-128 -194h-125z" />
    <glyph glyph-name="uni00EE" unicode="&#xee;" horiz-adv-x="257" 
d="M46 0v544h165v-544h-165zM-61 596l101 194h180l98 -194h-132l-58 115l-58 -115h-131z" />
    <glyph glyph-name="uni00EF" unicode="&#xef;" horiz-adv-x="257" 
d="M46 0v544h165v-544h-165zM228 612q-34 0 -51.5 16.5t-17.5 56.5t17.5 57.5t51.5 17.5q35 0 52 -17.5t17 -57.5t-17 -56.5t-52 -16.5zM30 612q-35 0 -52 16.5t-17 56.5t17 57.5t52 17.5q34 0 51.5 -17.5t17.5 -57.5t-17.5 -56.5t-51.5 -16.5z" />
    <glyph glyph-name="uni00F0" unicode="&#xf0;" horiz-adv-x="572" 
d="M408 398q-24 13 -52 18.5t-56 5.5q-38 0 -61.5 -14.5t-34 -51t-10.5 -101.5q0 -82 22 -115t70 -33q27 0 46 10.5t30.5 37.5t16.5 76.5t5 129.5q0 82 -9.5 135.5t-32.5 84t-63 43t-101 12.5q-20 0 -40 -2.5t-42 -6t-50 -10.5l-15 101q48 12 93 18.5t90 6.5q82 0 144 -22
t104 -69t63 -121t21 -176q0 -135 -27 -214.5t-88 -115t-161 -35.5q-82 0 -136.5 28.5t-81.5 87t-27 146.5q0 140 57.5 210.5t187.5 70.5q28 0 52 -2.5t46.5 -8.5t44.5 -17zM193 548h-134l238 131l1 7l105 60l134 -1l-172 -97l-5 -8z" />
    <glyph glyph-name="uni00F1" unicode="&#xf1;" horiz-adv-x="579" 
d="M46 0v544h148v-47q33 20 62.5 32.5t58 18.5t60.5 6q53 0 88.5 -19.5t53 -54t17.5 -82.5v-398h-164v344q0 38 -17 55.5t-48 17.5q-16 0 -31.5 -3.5t-31 -9.5t-32.5 -14v-390h-164zM107 599q-2 12 -2.5 24t-0.5 22q0 60 26 89t80 29q22 0 42.5 -7t39 -16.5t34.5 -16.5
t30 -7q9 0 15.5 5t10 13t3.5 17q0 3 -0.5 8t-0.5 8h86q2 -12 2.5 -23.5t0.5 -22.5q0 -60 -26 -89.5t-80 -29.5q-20 0 -40.5 7t-39.5 16.5t-36.5 16.5t-29.5 7q-14 0 -21.5 -9t-7.5 -24q0 -4 0.5 -9t0.5 -8h-86z" />
    <glyph glyph-name="uni00F2" unicode="&#xf2;" 
d="M26 273q0 66 13 118t43 88.5t81 55.5t127 19t127 -19t81 -55.5t43 -88.5t13 -118q0 -67 -14 -120t-45 -89t-81.5 -55t-123.5 -19t-123.5 19t-81.5 55t-45 89t-14 120zM195 273q0 -60 9.5 -95t30.5 -49.5t55 -14.5q35 0 55.5 14.5t30.5 49.5t10 95t-9 94t-30 48.5
t-57 14.5t-56.5 -14.5t-29.5 -48.5t-9 -94zM226 596l-127 194h166l92 -194h-131z" />
    <glyph glyph-name="uni00F3" unicode="&#xf3;" 
d="M26 273q0 66 13 118t43 88.5t81 55.5t127 19t127 -19t81 -55.5t43 -88.5t13 -118q0 -67 -14 -120t-45 -89t-81.5 -55t-123.5 -19t-123.5 19t-81.5 55t-45 89t-14 120zM195 273q0 -60 9.5 -95t30.5 -49.5t55 -14.5q35 0 55.5 14.5t30.5 49.5t10 95t-9 94t-30 48.5
t-57 14.5t-56.5 -14.5t-29.5 -48.5t-9 -94zM224 595l92 194h161l-128 -194h-125z" />
    <glyph glyph-name="uni00F4" unicode="&#xf4;" 
d="M26 273q0 66 13 118t43 88.5t81 55.5t127 19t127 -19t81 -55.5t43 -88.5t13 -118q0 -67 -14 -120t-45 -89t-81.5 -55t-123.5 -19t-123.5 19t-81.5 55t-45 89t-14 120zM195 273q0 -60 9.5 -95t30.5 -49.5t55 -14.5q35 0 55.5 14.5t30.5 49.5t10 95t-9 94t-30 48.5
t-57 14.5t-56.5 -14.5t-29.5 -48.5t-9 -94zM100 596l101 194h180l98 -194h-132l-58 115l-58 -115h-131z" />
    <glyph glyph-name="uni00F5" unicode="&#xf5;" 
d="M26 273q0 66 13 118t43 88.5t81 55.5t127 19t127 -19t81 -55.5t43 -88.5t13 -118q0 -67 -14 -120t-45 -89t-81.5 -55t-123.5 -19t-123.5 19t-81.5 55t-45 89t-14 120zM195 273q0 -60 9.5 -95t30.5 -49.5t55 -14.5q35 0 55.5 14.5t30.5 49.5t10 95t-9 94t-30 48.5
t-57 14.5t-56.5 -14.5t-29.5 -48.5t-9 -94zM108 599q-2 12 -2.5 24t-0.5 22q0 60 26 89t80 29q22 0 42.5 -7t39 -16.5t34.5 -16.5t30 -7q9 0 15.5 5t10 13t3.5 17q0 3 -0.5 8t-0.5 8h86q2 -12 2.5 -23.5t0.5 -22.5q0 -60 -26 -89.5t-80 -29.5q-20 0 -40.5 7t-39.5 16.5
t-36.5 16.5t-29.5 7q-14 0 -21.5 -9t-7.5 -24q0 -4 0.5 -9t0.5 -8h-86z" />
    <glyph glyph-name="uni00F6" unicode="&#xf6;" 
d="M26 273q0 66 13 118t43 88.5t81 55.5t127 19t127 -19t81 -55.5t43 -88.5t13 -118q0 -67 -14 -120t-45 -89t-81.5 -55t-123.5 -19t-123.5 19t-81.5 55t-45 89t-14 120zM195 273q0 -60 9.5 -95t30.5 -49.5t55 -14.5q35 0 55.5 14.5t30.5 49.5t10 95t-9 94t-30 48.5
t-57 14.5t-56.5 -14.5t-29.5 -48.5t-9 -94zM389 612q-34 0 -51.5 16.5t-17.5 56.5t17.5 57.5t51.5 17.5q35 0 52 -17.5t17 -57.5t-17 -56.5t-52 -16.5zM191 612q-35 0 -52 16.5t-17 56.5t17 57.5t52 17.5q34 0 51.5 -17.5t17.5 -57.5t-17.5 -56.5t-51.5 -16.5z" />
    <glyph glyph-name="uni00F7" unicode="&#xf7;" horiz-adv-x="530" 
d="M187 121q0 34 18 50.5t60 16.5q41 0 59 -16.5t18 -50.5t-17.5 -50.5t-59.5 -16.5q-41 0 -59.5 16.5t-18.5 50.5zM187 509q0 35 18 51.5t59 16.5q42 0 60 -16.5t18 -51.5q0 -34 -17.5 -50.5t-59.5 -16.5q-41 0 -59.5 16.5t-18.5 50.5zM49 250v131h432v-131h-432z" />
    <glyph glyph-name="uni00F8" unicode="&#xf8;" 
d="M290 -10q73 0 123 19t81 55.5t45 89t14 119.5q0 66 -13 118t-43 88.5t-80.5 55.5t-126.5 19q-77 0 -128 -19t-80.5 -55.5t-42.5 -88.5t-13 -118q0 -67 14 -119.5t44.5 -89t81 -55.5t124.5 -19zM289 107q-36 0 -58.5 14.5t-32.5 50.5t-10 101q0 63 9.5 99t31 51t60.5 15
t61 -15t31 -51t9 -99q0 -65 -9.5 -101t-32 -50.5t-59.5 -14.5zM25 -6h101l60 78l2 -1l265 354h1l100 129h-103l-59 -78l-1 1l-267 -357l-1 1z" />
    <glyph glyph-name="uni00F9" unicode="&#xf9;" horiz-adv-x="591" 
d="M206 -10q-48 0 -84 17.5t-56.5 54.5t-20.5 92v390h164v-351q0 -34 17 -50.5t47 -16.5q16 0 30.5 3t29 9t31.5 14v392h164v-375q0 -15 3 -23.5t9 -12.5t14 -4q11 0 21 5l14 -118q-13 -7 -29 -13t-35.5 -9.5t-39.5 -3.5q-37 0 -61.5 14.5t-39.5 40.5q-29 -17 -57 -29.5
t-57.5 -19t-63.5 -6.5zM226 596l-127 194h166l92 -194h-131z" />
    <glyph glyph-name="uni00FA" unicode="&#xfa;" horiz-adv-x="591" 
d="M206 -10q-48 0 -84 17.5t-56.5 54.5t-20.5 92v390h164v-351q0 -34 17 -50.5t47 -16.5q16 0 30.5 3t29 9t31.5 14v392h164v-375q0 -15 3 -23.5t9 -12.5t14 -4q11 0 21 5l14 -118q-13 -7 -29 -13t-35.5 -9.5t-39.5 -3.5q-37 0 -61.5 14.5t-39.5 40.5q-29 -17 -57 -29.5
t-57.5 -19t-63.5 -6.5zM224 595l92 194h161l-128 -194h-125z" />
    <glyph glyph-name="uni00FB" unicode="&#xfb;" horiz-adv-x="591" 
d="M206 -10q-48 0 -84 17.5t-56.5 54.5t-20.5 92v390h164v-351q0 -34 17 -50.5t47 -16.5q16 0 30.5 3t29 9t31.5 14v392h164v-375q0 -15 3 -23.5t9 -12.5t14 -4q11 0 21 5l14 -118q-13 -7 -29 -13t-35.5 -9.5t-39.5 -3.5q-37 0 -61.5 14.5t-39.5 40.5q-29 -17 -57 -29.5
t-57.5 -19t-63.5 -6.5zM100 596l101 194h180l98 -194h-132l-58 115l-58 -115h-131z" />
    <glyph glyph-name="uni00FC" unicode="&#xfc;" horiz-adv-x="591" 
d="M206 -10q-48 0 -84 17.5t-56.5 54.5t-20.5 92v390h164v-351q0 -34 17 -50.5t47 -16.5q16 0 30.5 3t29 9t31.5 14v392h164v-375q0 -15 3 -23.5t9 -12.5t14 -4q11 0 21 5l14 -118q-13 -7 -29 -13t-35.5 -9.5t-39.5 -3.5q-37 0 -61.5 14.5t-39.5 40.5q-29 -17 -57 -29.5
t-57.5 -19t-63.5 -6.5zM389 612q-34 0 -51.5 16.5t-17.5 56.5t17.5 57.5t51.5 17.5q35 0 52 -17.5t17 -57.5t-17 -56.5t-52 -16.5zM191 612q-35 0 -52 16.5t-17 56.5t17 57.5t52 17.5q34 0 51.5 -17.5t17.5 -57.5t-17.5 -56.5t-51.5 -16.5z" />
    <glyph glyph-name="uni00FD" unicode="&#xfd;" horiz-adv-x="560" 
d="M162 -209l67 209h-22l-200 543l179 3l115 -414l109 414l171 -2l-247 -755zM214 595l92 194h161l-128 -194h-125z" />
    <glyph glyph-name="uni00FE" unicode="&#xfe;" horiz-adv-x="584" 
d="M46 -210v950h164v-223q36 18 74.5 27.5t73.5 9.5q99 0 149 -68t50 -203q0 -105 -28 -169.5t-88.5 -94t-157.5 -29.5q-18 0 -36.5 1.5t-37.5 3.5v-205h-163zM284 107q37 0 59.5 15t33.5 51t11 97q0 54 -10 86t-30.5 47t-51.5 15q-20 0 -41 -4t-45 -14v-282q21 -5 39.5 -8
t34.5 -3z" />
    <glyph glyph-name="uni00FF" unicode="&#xff;" horiz-adv-x="560" 
d="M162 -209l67 209h-22l-200 543l179 3l115 -414l109 414l171 -2l-247 -755zM379 612q-34 0 -51.5 16.5t-17.5 56.5t17.5 57.5t51.5 17.5q35 0 52 -17.5t17 -57.5t-17 -56.5t-52 -16.5zM181 612q-35 0 -52 16.5t-17 56.5t17 57.5t52 17.5q34 0 51.5 -17.5t17.5 -57.5
t-17.5 -56.5t-51.5 -16.5z" />
    <glyph glyph-name="uni0100" unicode="&#x100;" horiz-adv-x="665" 
d="M7 0l222 703h204l225 -703h-186l-37 130h-214l-37 -130h-177zM252 269h152l-76 303zM182 770v115h301v-115h-301z" />
    <glyph glyph-name="uni0101" unicode="&#x101;" horiz-adv-x="559" 
d="M21 149q0 49 18.5 81t57 51t97.5 29.5t140 16.5v33q0 30 -25 44t-72 14q-21 0 -48 -2t-55.5 -7t-58.5 -14l-26 128q45 14 99 22.5t100 8.5q88 0 142.5 -21.5t80 -64.5t25.5 -106v-190q0 -25 7.5 -33t17.5 -8q5 0 11.5 0.5t11.5 2.5l13 -117q-20 -12 -44.5 -19.5
t-54.5 -7.5q-42 0 -68.5 15.5t-39.5 47.5q-26 -19 -52.5 -33.5t-57 -22t-68.5 -7.5q-34 0 -61.5 11t-48 31.5t-31 49.5t-10.5 67zM186 159q0 -32 14 -47t37 -15q16 0 33.5 5t34.5 14.5t29 21.5v102q-37 -3 -64.5 -7.5t-46.5 -13.5t-28 -23.5t-9 -36.5zM122 627v115h301v-115
h-301z" />
    <glyph glyph-name="uni0102" unicode="&#x102;" horiz-adv-x="665" 
d="M7 0l222 703h204l225 -703h-186l-37 130h-214l-37 -130h-177zM252 269h152l-76 303zM333 750q-58 0 -97.5 11t-59.5 41.5t-22 88.5q-1 6 -1 13t1 14l91 1q1 -3 1 -5v-5q0 -17 7 -30.5t26 -20.5t54 -7t52 7t24 20.5t10 30.5q1 3 1 5v5l91 -1q1 -7 1 -14t-1 -13
q-1 -53 -19.5 -84.5t-57.5 -44t-101 -12.5z" />
    <glyph glyph-name="uni0103" unicode="&#x103;" horiz-adv-x="559" 
d="M21 149q0 49 18.5 81t57 51t97.5 29.5t140 16.5v33q0 30 -25 44t-72 14q-21 0 -48 -2t-55.5 -7t-58.5 -14l-26 128q45 14 99 22.5t100 8.5q88 0 142.5 -21.5t80 -64.5t25.5 -106v-190q0 -25 7.5 -33t17.5 -8q5 0 11.5 0.5t11.5 2.5l13 -117q-20 -12 -44.5 -19.5
t-54.5 -7.5q-42 0 -68.5 15.5t-39.5 47.5q-26 -19 -52.5 -33.5t-57 -22t-68.5 -7.5q-34 0 -61.5 11t-48 31.5t-31 49.5t-10.5 67zM186 159q0 -32 14 -47t37 -15q16 0 33.5 5t34.5 14.5t29 21.5v102q-37 -3 -64.5 -7.5t-46.5 -13.5t-28 -23.5t-9 -36.5zM273 601
q-57 0 -96.5 11t-60 42t-22.5 89v12.5v13.5l92 1v-4.5v-4.5q1 -17 7.5 -30t25.5 -20t54 -7t53.5 7t25.5 20t8 30v4.5v4.5l92 -1q1 -7 0.5 -14t-0.5 -13q-1 -53 -19.5 -84t-57.5 -44t-102 -13z" />
    <glyph glyph-name="uni0104" unicode="&#x104;" horiz-adv-x="665" 
d="M7 0l222 703h204l225 -703h-186l-37 130h-214l-37 -130h-177zM252 269h152l-76 303zM590 -220q-35 0 -61 11.5t-40.5 33.5t-14.5 54q0 30 13 55t35 45t48 32l88 -11q-20 -12 -33 -24t-19.5 -25t-6.5 -28q0 -19 10.5 -26.5t25.5 -7.5q7 0 11.5 1t8.5 2l7 -101
q-13 -6 -31 -8.5t-41 -2.5z" />
    <glyph glyph-name="uni0105" unicode="&#x105;" horiz-adv-x="559" 
d="M21 149q0 49 18.5 81t57 51t97.5 29.5t140 16.5v33q0 30 -25 44t-72 14q-21 0 -48 -2t-55.5 -7t-58.5 -14l-26 128q45 14 99 22.5t100 8.5q88 0 142.5 -21.5t80 -64.5t25.5 -106v-190q0 -25 7.5 -33t17.5 -8q5 0 11.5 0.5t11.5 2.5l13 -117q-20 -12 -44.5 -19.5
t-54.5 -7.5q-42 0 -68.5 15.5t-39.5 47.5q-26 -19 -52.5 -33.5t-57 -22t-68.5 -7.5q-34 0 -61.5 11t-48 31.5t-31 49.5t-10.5 67zM186 159q0 -32 14 -47t37 -15q16 0 33.5 5t34.5 14.5t29 21.5v102q-37 -3 -64.5 -7.5t-46.5 -13.5t-28 -23.5t-9 -36.5zM472 -211
q-35 0 -61 11.5t-40.5 33.5t-14.5 54q0 30 13 55t35 45t48 32l88 -11q-20 -12 -33 -24t-19.5 -25t-6.5 -28q0 -19 10.5 -26.5t25.5 -7.5q7 0 11.5 1t8.5 2l7 -101q-13 -6 -31 -8.5t-41 -2.5z" />
    <glyph glyph-name="uni0106" unicode="&#x106;" horiz-adv-x="624" 
d="M30 339q0 133 38 214.5t113.5 119t189.5 37.5q35 0 63.5 -1.5t54 -5.5t49.5 -9.5t49 -13.5l-34 -134q-30 7 -58 11.5t-54.5 7t-53.5 2.5q-49 0 -84 -12t-57 -38t-33 -69.5t-11 -107.5q0 -58 10.5 -98t32.5 -64t56.5 -35t81.5 -11q44 0 93.5 7t91.5 18l30 -133
q-24 -7 -50 -13.5t-55.5 -11t-63.5 -7t-74 -2.5q-81 0 -142 19t-101.5 60t-61 108t-20.5 162zM286 745l88 186h160l-125 -186h-123z" />
    <glyph glyph-name="uni0107" unicode="&#x107;" horiz-adv-x="518" 
d="M26 264q0 97 32.5 161t95.5 96.5t155 32.5q32 0 64.5 -2.5t62.5 -7t54 -11.5l-23 -136q-24 5 -48 8t-47 5t-45 2q-43 0 -72.5 -15.5t-44 -47t-14.5 -80.5q0 -47 15.5 -77.5t46 -46t72.5 -15.5q24 0 47.5 2t47.5 6t50 9l25 -130q-43 -12 -98 -19.5t-108 -7.5
q-134 0 -201 67.5t-67 206.5zM233 595l92 194h161l-128 -194h-125z" />
    <glyph glyph-name="uni0108" unicode="&#x108;" horiz-adv-x="624" 
d="M30 339q0 133 38 214.5t113.5 119t189.5 37.5q35 0 63.5 -1.5t54 -5.5t49.5 -9.5t49 -13.5l-34 -134q-30 7 -58 11.5t-54.5 7t-53.5 2.5q-49 0 -84 -12t-57 -38t-33 -69.5t-11 -107.5q0 -58 10.5 -98t32.5 -64t56.5 -35t81.5 -11q44 0 93.5 7t91.5 18l30 -133
q-24 -7 -50 -13.5t-55.5 -11t-63.5 -7t-74 -2.5q-81 0 -142 19t-101.5 60t-61 108t-20.5 162zM159 745l96 186h189l94 -186h-131l-59 116l-59 -116h-130z" />
    <glyph glyph-name="uni0109" unicode="&#x109;" horiz-adv-x="518" 
d="M26 264q0 97 32.5 161t95.5 96.5t155 32.5q32 0 64.5 -2.5t62.5 -7t54 -11.5l-23 -136q-24 5 -48 8t-47 5t-45 2q-43 0 -72.5 -15.5t-44 -47t-14.5 -80.5q0 -47 15.5 -77.5t46 -46t72.5 -15.5q24 0 47.5 2t47.5 6t50 9l25 -130q-43 -12 -98 -19.5t-108 -7.5
q-134 0 -201 67.5t-67 206.5zM109 596l101 194h180l98 -194h-132l-58 115l-58 -115h-131z" />
    <glyph glyph-name="uni010A" unicode="&#x10a;" horiz-adv-x="624" 
d="M30 339q0 133 38 214.5t113.5 119t189.5 37.5q35 0 63.5 -1.5t54 -5.5t49.5 -9.5t49 -13.5l-34 -134q-30 7 -58 11.5t-54.5 7t-53.5 2.5q-49 0 -84 -12t-57 -38t-33 -69.5t-11 -107.5q0 -58 10.5 -98t32.5 -64t56.5 -35t81.5 -11q44 0 93.5 7t91.5 18l30 -133
q-24 -7 -50 -13.5t-55.5 -11t-63.5 -7t-74 -2.5q-81 0 -142 19t-101.5 60t-61 108t-20.5 162zM349 761q-34 0 -51 16.5t-17 54.5q0 40 17 56t51 16t50.5 -16t16.5 -56q0 -38 -16.5 -54.5t-50.5 -16.5z" />
    <glyph glyph-name="uni010B" unicode="&#x10b;" horiz-adv-x="518" 
d="M26 264q0 97 32.5 161t95.5 96.5t155 32.5q32 0 64.5 -2.5t62.5 -7t54 -11.5l-23 -136q-24 5 -48 8t-47 5t-45 2q-43 0 -72.5 -15.5t-44 -47t-14.5 -80.5q0 -47 15.5 -77.5t46 -46t72.5 -15.5q24 0 47.5 2t47.5 6t50 9l25 -130q-43 -12 -98 -19.5t-108 -7.5
q-134 0 -201 67.5t-67 206.5zM299 615q-34 0 -51 16.5t-17 54.5q0 40 17 56t51 16t50.5 -16t16.5 -56q0 -38 -16.5 -54.5t-50.5 -16.5z" />
    <glyph glyph-name="uni010C" unicode="&#x10c;" horiz-adv-x="624" 
d="M30 339q0 133 38 214.5t113.5 119t189.5 37.5q35 0 63.5 -1.5t54 -5.5t49.5 -9.5t49 -13.5l-34 -134q-30 7 -58 11.5t-54.5 7t-53.5 2.5q-49 0 -84 -12t-57 -38t-33 -69.5t-11 -107.5q0 -58 10.5 -98t32.5 -64t56.5 -35t81.5 -11q44 0 93.5 7t91.5 18l30 -133
q-24 -7 -50 -13.5t-55.5 -11t-63.5 -7t-74 -2.5q-81 0 -142 19t-101.5 60t-61 108t-20.5 162zM538 931l-96 -186h-189l-94 186h131l59 -116l59 116h130z" />
    <glyph glyph-name="uni010D" unicode="&#x10d;" horiz-adv-x="518" 
d="M26 264q0 97 32.5 161t95.5 96.5t155 32.5q32 0 64.5 -2.5t62.5 -7t54 -11.5l-23 -136q-24 5 -48 8t-47 5t-45 2q-43 0 -72.5 -15.5t-44 -47t-14.5 -80.5q0 -47 15.5 -77.5t46 -46t72.5 -15.5q24 0 47.5 2t47.5 6t50 9l25 -130q-43 -12 -98 -19.5t-108 -7.5
q-134 0 -201 67.5t-67 206.5zM488 789l-101 -194h-180l-98 194h132l58 -115l58 115h131z" />
    <glyph glyph-name="uni010E" unicode="&#x10e;" horiz-adv-x="692" 
d="M326 -10q-52 0 -98 1t-88.5 3t-84.5 5v701q47 4 89.5 6t84.5 3t89 1q123 0 199 -37.5t110.5 -117t34.5 -206.5q0 -124 -37 -203.5t-111.5 -117.5t-187.5 -38zM339 123q49 0 81.5 22.5t49.5 72t17 130.5q0 87 -16.5 136t-50 70.5t-86.5 21.5q-18 0 -37.5 -0.5t-38 -1.5
t-33.5 -2v-445q14 0 28 -1t28 -1.5l28 -1t30 -0.5zM530 931l-96 -186h-189l-94 186h131l59 -116l59 116h130z" />
    <glyph glyph-name="uni010F" unicode="&#x10f;" horiz-adv-x="750" 
d="M395 -1l-19 41q-40 -25 -80 -37.5t-84 -12.5q-89 0 -137.5 70t-48.5 202q0 99 28.5 163.5t86.5 96.5t147 32q20 0 42.5 -1.5t43.5 -5.5v193h165v-741h-144zM374 154v270q-20 6 -38.5 8.5t-36.5 2.5q-35 0 -58 -15t-34 -49t-11 -93q0 -54 9.5 -87.5t27.5 -49t44 -15.5
q15 0 30.5 3t32 9.5t34.5 15.5zM567 549q20 32 28 63.5t8 63.5q0 18 -3 35.5t-10 28.5h151q5 -13 7.5 -25.5t2.5 -25.5q0 -42 -16.5 -76.5t-45.5 -63.5h-122z" />
    <glyph glyph-name="uni0110" unicode="&#x110;" horiz-adv-x="695" 
d="M6 290v127h332v-127h-332zM329 -10q-52 0 -98 1t-88.5 3t-84.5 5v701q47 4 89.5 6t84.5 3t89 1q123 0 199 -37.5t110.5 -117t34.5 -206.5q0 -124 -37 -203.5t-111.5 -117.5t-187.5 -38zM342 123q49 0 81.5 22.5t49.5 72t17 130.5q0 87 -16.5 136t-50 70.5t-86.5 21.5
q-18 0 -37.5 -0.5t-38 -1.5t-33.5 -2v-445q14 0 28 -1t28 -1.5l28 -1t30 -0.5z" />
    <glyph glyph-name="uni0111" unicode="&#x111;" horiz-adv-x="591" 
d="M231 603v85h368v-85h-368zM395 -1l-19 41q-40 -25 -80 -37.5t-84 -12.5q-89 0 -137.5 70t-48.5 202q0 99 28.5 163.5t86.5 96.5t147 32q20 0 42.5 -1.5t43.5 -5.5v193h165v-741h-144zM374 154v270q-20 6 -38.5 8.5t-36.5 2.5q-35 0 -58 -15t-34 -49t-11 -93
q0 -54 9.5 -87.5t27.5 -49t44 -15.5q15 0 30.5 3t32 9.5t34.5 15.5z" />
    <glyph glyph-name="uni0112" unicode="&#x112;" horiz-adv-x="599" 
d="M55 0v700h502v-144h-333v-132h308v-136h-308v-145h351v-143h-520zM166 770v115h301v-115h-301z" />
    <glyph glyph-name="uni0113" unicode="&#x113;" horiz-adv-x="559" 
d="M293 -10q-64 0 -113 15.5t-83.5 48t-52.5 84t-18 122.5q0 81 20.5 137t57 91t86.5 50.5t109 15.5q120 0 176.5 -59t56.5 -192q0 -10 -0.5 -25.5t-1.5 -30.5q-25 -2 -61 -5t-80 -6t-93 -5t-100 -3q-1 -3 -1 -6v-7q0 -33 13.5 -54.5t41.5 -32t73 -10.5q28 0 59 3t63 8.5
t64 12.5l19 -118q-35 -11 -72 -19t-77 -11.5t-86 -3.5zM197 325q26 0 52 1t49 2.5t41 2.5t30 1q-1 40 -10 63.5t-26 33.5t-43 10q-18 0 -33 -5t-27.5 -17.5t-21 -35t-11.5 -56.5zM140 627v115h301v-115h-301z" />
    <glyph glyph-name="uni0114" unicode="&#x114;" horiz-adv-x="599" 
d="M55 0v700h502v-144h-333v-132h308v-136h-308v-145h351v-143h-520zM317 750q-58 0 -97.5 11t-59.5 41.5t-22 88.5q-1 6 -1 13t1 14l91 1q1 -3 1 -5v-5q0 -17 7 -30.5t26 -20.5t54 -7t52 7t24 20.5t10 30.5q1 3 1 5v5l91 -1q1 -7 1 -14t-1 -13q-1 -53 -19.5 -84.5
t-57.5 -44t-101 -12.5z" />
    <glyph glyph-name="uni0115" unicode="&#x115;" horiz-adv-x="559" 
d="M293 -10q-64 0 -113 15.5t-83.5 48t-52.5 84t-18 122.5q0 81 20.5 137t57 91t86.5 50.5t109 15.5q120 0 176.5 -59t56.5 -192q0 -10 -0.5 -25.5t-1.5 -30.5q-25 -2 -61 -5t-80 -6t-93 -5t-100 -3q-1 -3 -1 -6v-7q0 -33 13.5 -54.5t41.5 -32t73 -10.5q28 0 59 3t63 8.5
t64 12.5l19 -118q-35 -11 -72 -19t-77 -11.5t-86 -3.5zM197 325q26 0 52 1t49 2.5t41 2.5t30 1q-1 40 -10 63.5t-26 33.5t-43 10q-18 0 -33 -5t-27.5 -17.5t-21 -35t-11.5 -56.5zM291 601q-57 0 -96.5 11t-60 42t-22.5 89v12.5v13.5l92 1v-4.5v-4.5q1 -17 7.5 -30t25.5 -20
t54 -7t53.5 7t25.5 20t8 30v4.5v4.5l92 -1q1 -7 0.5 -14t-0.5 -13q-1 -53 -19.5 -84t-57.5 -44t-102 -13z" />
    <glyph glyph-name="uni0116" unicode="&#x116;" horiz-adv-x="599" 
d="M55 0v700h502v-144h-333v-132h308v-136h-308v-145h351v-143h-520zM316 761q-34 0 -51 16.5t-17 54.5q0 40 17 56t51 16t50.5 -16t16.5 -56q0 -38 -16.5 -54.5t-50.5 -16.5z" />
    <glyph glyph-name="uni0117" unicode="&#x117;" horiz-adv-x="559" 
d="M293 -10q-64 0 -113 15.5t-83.5 48t-52.5 84t-18 122.5q0 81 20.5 137t57 91t86.5 50.5t109 15.5q120 0 176.5 -59t56.5 -192q0 -10 -0.5 -25.5t-1.5 -30.5q-25 -2 -61 -5t-80 -6t-93 -5t-100 -3q-1 -3 -1 -6v-7q0 -33 13.5 -54.5t41.5 -32t73 -10.5q28 0 59 3t63 8.5
t64 12.5l19 -118q-35 -11 -72 -19t-77 -11.5t-86 -3.5zM197 325q26 0 52 1t49 2.5t41 2.5t30 1q-1 40 -10 63.5t-26 33.5t-43 10q-18 0 -33 -5t-27.5 -17.5t-21 -35t-11.5 -56.5zM291 615q-34 0 -51 16.5t-17 54.5q0 40 17 56t51 16t50.5 -16t16.5 -56q0 -38 -16.5 -54.5
t-50.5 -16.5z" />
    <glyph glyph-name="uni0118" unicode="&#x118;" horiz-adv-x="599" 
d="M55 0v700h502v-144h-333v-132h308v-136h-308v-145h351v-143h-520zM506 -220q-35 0 -61 11.5t-40.5 33.5t-14.5 54q0 30 13 55t35 45t48 32l88 -11q-20 -12 -33 -24t-19.5 -25t-6.5 -28q0 -19 10.5 -26.5t25.5 -7.5q7 0 11.5 1t8.5 2l7 -101q-13 -6 -31 -8.5t-41 -2.5z
" />
    <glyph glyph-name="uni0119" unicode="&#x119;" horiz-adv-x="559" 
d="M293 -10q-64 0 -113 15.5t-83.5 48t-52.5 84t-18 122.5q0 81 20.5 137t57 91t86.5 50.5t109 15.5q120 0 176.5 -59t56.5 -192q0 -10 -0.5 -25.5t-1.5 -30.5q-25 -2 -61 -5t-80 -6t-93 -5t-100 -3q-1 -3 -1 -6v-7q0 -33 13.5 -54.5t41.5 -32t73 -10.5q28 0 59 3t63 8.5
t64 12.5l19 -118q-35 -11 -72 -19t-77 -11.5t-86 -3.5zM197 325q26 0 52 1t49 2.5t41 2.5t30 1q-1 40 -10 63.5t-26 33.5t-43 10q-18 0 -33 -5t-27.5 -17.5t-21 -35t-11.5 -56.5zM410 -209q-35 0 -61 11.5t-40.5 33.5t-14.5 54q0 30 13 55t35 45t48 32l88 -11
q-20 -12 -33 -24t-19.5 -25t-6.5 -28q0 -19 10.5 -26.5t25.5 -7.5q7 0 11.5 1t8.5 2l7 -101q-13 -6 -31 -8.5t-41 -2.5z" />
    <glyph glyph-name="uni011A" unicode="&#x11a;" horiz-adv-x="599" 
d="M55 0v700h502v-144h-333v-132h308v-136h-308v-145h351v-143h-520zM505 931l-96 -186h-189l-94 186h131l59 -116l59 116h130z" />
    <glyph glyph-name="uni011B" unicode="&#x11b;" horiz-adv-x="559" 
d="M293 -10q-64 0 -113 15.5t-83.5 48t-52.5 84t-18 122.5q0 81 20.5 137t57 91t86.5 50.5t109 15.5q120 0 176.5 -59t56.5 -192q0 -10 -0.5 -25.5t-1.5 -30.5q-25 -2 -61 -5t-80 -6t-93 -5t-100 -3q-1 -3 -1 -6v-7q0 -33 13.5 -54.5t41.5 -32t73 -10.5q28 0 59 3t63 8.5
t64 12.5l19 -118q-35 -11 -72 -19t-77 -11.5t-86 -3.5zM197 325q26 0 52 1t49 2.5t41 2.5t30 1q-1 40 -10 63.5t-26 33.5t-43 10q-18 0 -33 -5t-27.5 -17.5t-21 -35t-11.5 -56.5zM480 789l-101 -194h-180l-98 194h132l58 -115l58 115h131z" />
    <glyph glyph-name="uni011C" unicode="&#x11c;" horiz-adv-x="662" 
d="M30 340q0 126 37 207.5t112 122t189 40.5q33 0 62.5 -2t57.5 -6t54.5 -10t51.5 -14l-31 -134q-46 11 -93 17.5t-88 6.5q-62 0 -102 -24.5t-59 -75t-19 -130.5q0 -78 17.5 -125t53 -68.5t87.5 -21.5q32 0 59.5 3.5t48.5 10.5v126h-120v131h272v-351q-58 -27 -127.5 -40
t-152.5 -13q-104 0 -173 38t-103 115.5t-34 196.5zM159 745l96 186h189l94 -186h-131l-59 116l-59 -116h-130z" />
    <glyph glyph-name="uni011D" unicode="&#x11d;" horiz-adv-x="578" 
d="M256 -220q-121 0 -182.5 34.5t-61.5 103.5q0 27 9.5 49.5t29 40.5t48.5 31l84 -31q-14 -7 -23 -14.5t-13.5 -17t-4.5 -22.5q0 -20 12 -33t39.5 -19.5t73.5 -6.5q45 0 76 7.5t47 20.5t16 32q0 15 -6.5 23t-22.5 12t-46 4h-109q-57 0 -99 13t-64.5 40t-22.5 68
q0 43 21.5 71.5t59.5 48.5l84 -24q-20 -10 -30.5 -21.5t-10.5 -29.5t14 -27.5t43 -9.5h168q84 0 129 -39t45 -109q0 -62 -34.5 -105.5t-102 -66.5t-166.5 -23zM272 183q-115 0 -173.5 47t-58.5 138q0 93 58.5 139.5t173.5 46.5t174 -46.5t59 -139.5q0 -91 -59 -138t-174 -47
zM272 287q39 0 58 18t19 63q0 47 -19 65t-58 18q-38 0 -57.5 -18t-19.5 -65q0 -45 19.5 -63t57.5 -18zM468 424l-62 84q15 37 43.5 55t71.5 18q15 0 28 -2t24 -6l-19 -124q-8 2 -17 3.5t-19 1.5q-16 0 -28.5 -7.5t-21.5 -22.5zM84 596l101 194h180l98 -194h-132l-58 115
l-58 -115h-131z" />
    <glyph glyph-name="uni011E" unicode="&#x11e;" horiz-adv-x="662" 
d="M30 340q0 126 37 207.5t112 122t189 40.5q33 0 62.5 -2t57.5 -6t54.5 -10t51.5 -14l-31 -134q-46 11 -93 17.5t-88 6.5q-62 0 -102 -24.5t-59 -75t-19 -130.5q0 -78 17.5 -125t53 -68.5t87.5 -21.5q32 0 59.5 3.5t48.5 10.5v126h-120v131h272v-351q-58 -27 -127.5 -40
t-152.5 -13q-104 0 -173 38t-103 115.5t-34 196.5zM349 750q-58 0 -97.5 11t-59.5 41.5t-22 88.5q-1 6 -1 13t1 14l91 1q1 -3 1 -5v-5q0 -17 7 -30.5t26 -20.5t54 -7t52 7t24 20.5t10 30.5q1 3 1 5v5l91 -1q1 -7 1 -14t-1 -13q-1 -53 -19.5 -84.5t-57.5 -44t-101 -12.5z" />
    <glyph glyph-name="uni011F" unicode="&#x11f;" horiz-adv-x="578" 
d="M256 -220q-121 0 -182.5 34.5t-61.5 103.5q0 27 9.5 49.5t29 40.5t48.5 31l84 -31q-14 -7 -23 -14.5t-13.5 -17t-4.5 -22.5q0 -20 12 -33t39.5 -19.5t73.5 -6.5q45 0 76 7.5t47 20.5t16 32q0 15 -6.5 23t-22.5 12t-46 4h-109q-57 0 -99 13t-64.5 40t-22.5 68
q0 43 21.5 71.5t59.5 48.5l84 -24q-20 -10 -30.5 -21.5t-10.5 -29.5t14 -27.5t43 -9.5h168q84 0 129 -39t45 -109q0 -62 -34.5 -105.5t-102 -66.5t-166.5 -23zM272 183q-115 0 -173.5 47t-58.5 138q0 93 58.5 139.5t173.5 46.5t174 -46.5t59 -139.5q0 -91 -59 -138t-174 -47
zM272 287q39 0 58 18t19 63q0 47 -19 65t-58 18q-38 0 -57.5 -18t-19.5 -65q0 -45 19.5 -63t57.5 -18zM468 424l-62 84q15 37 43.5 55t71.5 18q15 0 28 -2t24 -6l-19 -124q-8 2 -17 3.5t-19 1.5q-16 0 -28.5 -7.5t-21.5 -22.5zM274 601q-57 0 -96.5 11t-60 42t-22.5 89v12.5
v13.5l92 1v-4.5v-4.5q1 -17 7.5 -30t25.5 -20t54 -7t53.5 7t25.5 20t8 30v4.5v4.5l92 -1q1 -7 0.5 -14t-0.5 -13q-1 -53 -19.5 -84t-57.5 -44t-102 -13z" />
    <glyph glyph-name="uni0120" unicode="&#x120;" horiz-adv-x="662" 
d="M30 340q0 126 37 207.5t112 122t189 40.5q33 0 62.5 -2t57.5 -6t54.5 -10t51.5 -14l-31 -134q-46 11 -93 17.5t-88 6.5q-62 0 -102 -24.5t-59 -75t-19 -130.5q0 -78 17.5 -125t53 -68.5t87.5 -21.5q32 0 59.5 3.5t48.5 10.5v126h-120v131h272v-351q-58 -27 -127.5 -40
t-152.5 -13q-104 0 -173 38t-103 115.5t-34 196.5zM348 761q-34 0 -51 16.5t-17 54.5q0 40 17 56t51 16t50.5 -16t16.5 -56q0 -38 -16.5 -54.5t-50.5 -16.5z" />
    <glyph glyph-name="uni0121" unicode="&#x121;" horiz-adv-x="578" 
d="M256 -220q-121 0 -182.5 34.5t-61.5 103.5q0 27 9.5 49.5t29 40.5t48.5 31l84 -31q-14 -7 -23 -14.5t-13.5 -17t-4.5 -22.5q0 -20 12 -33t39.5 -19.5t73.5 -6.5q45 0 76 7.5t47 20.5t16 32q0 15 -6.5 23t-22.5 12t-46 4h-109q-57 0 -99 13t-64.5 40t-22.5 68
q0 43 21.5 71.5t59.5 48.5l84 -24q-20 -10 -30.5 -21.5t-10.5 -29.5t14 -27.5t43 -9.5h168q84 0 129 -39t45 -109q0 -62 -34.5 -105.5t-102 -66.5t-166.5 -23zM272 183q-115 0 -173.5 47t-58.5 138q0 93 58.5 139.5t173.5 46.5t174 -46.5t59 -139.5q0 -91 -59 -138t-174 -47
zM272 287q39 0 58 18t19 63q0 47 -19 65t-58 18q-38 0 -57.5 -18t-19.5 -65q0 -45 19.5 -63t57.5 -18zM468 424l-62 84q15 37 43.5 55t71.5 18q15 0 28 -2t24 -6l-19 -124q-8 2 -17 3.5t-19 1.5q-16 0 -28.5 -7.5t-21.5 -22.5zM274 615q-34 0 -51 16.5t-17 54.5q0 40 17 56
t51 16t50.5 -16t16.5 -56q0 -38 -16.5 -54.5t-50.5 -16.5z" />
    <glyph glyph-name="uni0122" unicode="&#x122;" horiz-adv-x="662" 
d="M30 340q0 126 37 207.5t112 122t189 40.5q33 0 62.5 -2t57.5 -6t54.5 -10t51.5 -14l-31 -134q-46 11 -93 17.5t-88 6.5q-62 0 -102 -24.5t-59 -75t-19 -130.5q0 -78 17.5 -125t53 -68.5t87.5 -21.5q32 0 59.5 3.5t48.5 10.5v126h-120v131h272v-351q-58 -27 -127.5 -40
t-152.5 -13q-104 0 -173 38t-103 115.5t-34 196.5zM241 -211q17 30 25.5 62t8.5 61q0 11 -1 20t-4 17h153q2 -6 3 -12t1 -13q0 -26 -8 -51t-21 -46t-30 -38h-127z" />
    <glyph glyph-name="uni0123" unicode="&#x123;" horiz-adv-x="578" 
d="M256 -220q-121 0 -182.5 34.5t-61.5 103.5q0 27 9.5 49.5t29 40.5t48.5 31l84 -31q-14 -7 -23 -14.5t-13.5 -17t-4.5 -22.5q0 -20 12 -33t39.5 -19.5t73.5 -6.5q45 0 76 7.5t47 20.5t16 32q0 15 -6.5 23t-22.5 12t-46 4h-109q-57 0 -99 13t-64.5 40t-22.5 68
q0 43 21.5 71.5t59.5 48.5l84 -24q-20 -10 -30.5 -21.5t-10.5 -29.5t14 -27.5t43 -9.5h168q84 0 129 -39t45 -109q0 -62 -34.5 -105.5t-102 -66.5t-166.5 -23zM272 183q-115 0 -173.5 47t-58.5 138q0 93 58.5 139.5t173.5 46.5t174 -46.5t59 -139.5q0 -91 -59 -138t-174 -47
zM272 287q39 0 58 18t19 63q0 47 -19 65t-58 18q-38 0 -57.5 -18t-19.5 -65q0 -45 19.5 -63t57.5 -18zM468 424l-62 84q15 37 43.5 55t71.5 18q15 0 28 -2t24 -6l-19 -124q-8 2 -17 3.5t-19 1.5q-16 0 -28.5 -7.5t-21.5 -22.5zM350 594h-156q-4 8 -7 20t-3 26q0 38 15.5 70
t43.5 59h129q-21 -31 -29 -59t-8 -56q0 -18 4 -34t11 -26z" />
    <glyph glyph-name="uni0124" unicode="&#x124;" horiz-adv-x="704" 
d="M55 0v700h169v-307h256v307h169v-700h-169v242h-256v-242h-169zM163 745l96 186h189l94 -186h-131l-59 116l-59 -116h-130z" />
    <glyph glyph-name="uni0125" unicode="&#x125;" horiz-adv-x="579" 
d="M46 0v740h164v-239q28 18 54.5 29.5t54 17.5t56.5 6q52 0 87 -18.5t53.5 -54t18.5 -86.5v-395h-165v344q0 38 -16.5 55t-47.5 17q-16 0 -31.5 -3.5t-31 -9t-32.5 -13.5v-390h-164zM103 785l96 186h189l94 -186h-131l-59 116l-59 -116h-130z" />
    <glyph glyph-name="uni0126" unicode="&#x126;" horiz-adv-x="703" 
d="M14 502v106h42v92h169v-92h256v92h166v-92h42v-106h-42v-502h-166v242h-256v-242h-169v502h-42zM225 393h256v109h-256v-109z" />
    <glyph glyph-name="uni0127" unicode="&#x127;" horiz-adv-x="579" 
d="M-6 603v85h366v-85h-366zM46 0v740h164v-239q28 18 54.5 29.5t54 17.5t56.5 6q52 0 87 -18.5t53.5 -54t18.5 -86.5v-395h-165v344q0 38 -16.5 55t-47.5 17q-16 0 -31.5 -3.5t-31 -9t-32.5 -13.5v-390h-164z" />
    <glyph glyph-name="uni0128" unicode="&#x128;" horiz-adv-x="279" 
d="M55 0v700h169v-700h-169zM-43 756q-2 12 -2.5 24t-0.5 22q0 52 26.5 85t80.5 33q23 0 43.5 -7.5t39 -17t33.5 -17.5t28 -8q10 0 16 4.5t9.5 13.5t3.5 21q0 3 -0.5 8t-1.5 8h88q2 -12 2.5 -24t0.5 -23q0 -54 -26.5 -86t-80.5 -32q-23 0 -43.5 7.5t-38.5 17t-33 17t-29 7.5
q-13 0 -20.5 -9.5t-7.5 -27.5q0 -3 0.5 -7.5t1.5 -8.5h-89z" />
    <glyph glyph-name="uni0129" unicode="&#x129;" horiz-adv-x="257" 
d="M46 0v544h165v-544h-165zM-53 599q-2 12 -2.5 24t-0.5 22q0 60 26 89t80 29q22 0 42.5 -7t39 -16.5t34.5 -16.5t30 -7q9 0 15.5 5t10 13t3.5 17q0 3 -0.5 8t-0.5 8h86q2 -12 2.5 -23.5t0.5 -22.5q0 -60 -26 -89.5t-80 -29.5q-20 0 -40.5 7t-39.5 16.5t-36.5 16.5t-29.5 7
q-14 0 -21.5 -9t-7.5 -24q0 -4 0.5 -9t0.5 -8h-86z" />
    <glyph glyph-name="uni012A" unicode="&#x12a;" horiz-adv-x="279" 
d="M55 0v700h169v-700h-169zM-11 770v115h301v-115h-301z" />
    <glyph glyph-name="uni012B" unicode="&#x12b;" horiz-adv-x="257" 
d="M46 0v544h165v-544h-165zM-22 627v115h301v-115h-301z" />
    <glyph glyph-name="uni012C" unicode="&#x12c;" horiz-adv-x="279" 
d="M55 0v700h169v-700h-169zM140 750q-58 0 -97.5 11t-59.5 41.5t-22 88.5q-1 6 -1 13t1 14l91 1q1 -3 1 -5v-5q0 -17 7 -30.5t26 -20.5t54 -7t52 7t24 20.5t10 30.5q1 3 1 5v5l91 -1q1 -7 1 -14t-1 -13q-1 -53 -19.5 -84.5t-57.5 -44t-101 -12.5z" />
    <glyph glyph-name="uni012D" unicode="&#x12d;" horiz-adv-x="257" 
d="M46 0v544h165v-544h-165zM129 601q-57 0 -96.5 11t-60 42t-22.5 89v12.5v13.5l92 1v-4.5v-4.5q1 -17 7.5 -30t25.5 -20t54 -7t53.5 7t25.5 20t8 30v4.5v4.5l92 -1q1 -7 0.5 -14t-0.5 -13q-1 -53 -19.5 -84t-57.5 -44t-102 -13z" />
    <glyph glyph-name="uni012E" unicode="&#x12e;" horiz-adv-x="279" 
d="M55 0v700h169v-700h-169zM156 -220q-35 0 -61 11.5t-40.5 33.5t-14.5 54q0 30 13 55t35 45t48 32l88 -11q-20 -12 -33 -24t-19.5 -25t-6.5 -28q0 -19 10.5 -26.5t25.5 -7.5q7 0 11.5 1t8.5 2l7 -101q-13 -6 -31 -8.5t-41 -2.5z" />
    <glyph glyph-name="uni012F" unicode="&#x12f;" horiz-adv-x="255" 
d="M128 602q-50 0 -73.5 20t-23.5 62t23.5 62t73.5 20t73 -20t23 -62t-22.5 -62t-73.5 -20zM46 0v544h163v-544h-163zM141 -220q-35 0 -61 11.5t-40.5 33.5t-14.5 54q0 30 13 55t35 45t48 32l88 -11q-20 -12 -33 -24t-19.5 -25t-6.5 -28q0 -19 10.5 -26.5t25.5 -7.5
q7 0 11.5 1t8.5 2l7 -101q-13 -6 -31 -8.5t-41 -2.5z" />
    <glyph glyph-name="uni0130" unicode="&#x130;" horiz-adv-x="279" 
d="M140 749q-50 0 -73 20.5t-23 61.5q0 43 23 63t73 20q51 0 73.5 -20t22.5 -63q0 -41 -22.5 -61.5t-73.5 -20.5zM55 0v700h169v-700h-169z" />
    <glyph glyph-name="uni0131" unicode="&#x131;" horiz-adv-x="257" 
d="M46 0v544h165v-544h-165z" />
    <glyph glyph-name="uni0132" unicode="&#x132;" horiz-adv-x="795" 
d="M55 0v700h169v-700h-169zM287 26l31 130q29 -7 55 -12.5t49.5 -8.5t42.5 -3q39 0 64 12t37 40t12 77v291h-241v148h410v-479q0 -76 -24.5 -128t-76 -77.5t-132.5 -25.5q-37 0 -75.5 4.5t-77 12t-74.5 19.5z" />
    <glyph glyph-name="uni0133" unicode="&#x133;" horiz-adv-x="535" 
d="M128 602q-50 0 -73.5 20t-23.5 62t23.5 62t73.5 20t73 -20t23 -62t-22.5 -62t-73.5 -20zM46 0v544h163v-544h-163zM489 544v-516q0 -111 -41.5 -171t-136.5 -68q-11 -1 -25 -1t-28.5 1.5t-27.5 3.5l11 137q8 -1 14 -1t12 2q31 7 45 31.5t14 74.5v507h163zM408 602
q-50 0 -73.5 20t-23.5 62t23.5 62t73.5 20t73 -20t23 -62t-23 -62t-73 -20z" />
    <glyph glyph-name="uni0134" unicode="&#x134;" horiz-adv-x="516" 
d="M8 26l31 130q29 -7 55 -12.5t49.5 -8.5t42.5 -3q39 0 64 12t37 40t12 77v291h-241v148h410v-479q0 -76 -24.5 -128t-76 -77.5t-132.5 -25.5q-37 0 -75.5 4.5t-77 12t-74.5 19.5zM75 745l96 186h189l94 -186h-131l-59 116l-59 -116h-130z" />
    <glyph glyph-name="uni0135" unicode="&#x135;" horiz-adv-x="263" 
d="M217 28q0 -111 -41.5 -171t-136.5 -68q-11 -1 -25 -1t-28.5 1.5t-27.5 3.5l11 137q8 -1 14 -1t12 2q31 7 45 31.5t14 74.5v507h163v-516zM-54 596l101 194h180l98 -194h-132l-58 115l-58 -115h-131z" />
    <glyph glyph-name="uni0136" unicode="&#x136;" horiz-adv-x="671" 
d="M624 -10q-30 0 -61 8t-62 25t-65 46l-211 183v-252h-170v700h170v-242l250 -212q29 -25 52 -40.5t41.5 -24.5t34.5 -13t31 -4h8.5t7.5 1v-173q-7 -1 -13.5 -1.5t-12.5 -0.5zM352 291l-109 94q27 19 56.5 44t59 55t58 65t53.5 74.5t45 83.5l134 -65q-21 -57 -51.5 -106.5
t-68.5 -93.5t-82.5 -82t-94.5 -69zM237 -211q17 30 25.5 62t8.5 61q0 11 -1 20t-4 17h153q2 -6 3 -12t1 -13q0 -26 -8 -51t-21 -46t-30 -38h-127z" />
    <glyph glyph-name="uni0137" unicode="&#x137;" horiz-adv-x="553" 
d="M500 -9q-18 0 -35 3.5t-36.5 13.5t-44 29.5t-56.5 50.5l-126 118v-206h-156v740h156v-330l159 -151q46 -44 75.5 -67t48.5 -30.5t37 -7.5q3 0 7 0.5t9 0.5l1 -161q-8 -1 -17.5 -2t-21.5 -1zM317 236l-132 63q36 32 65.5 63t52 61t38 62t24.5 68l166 -9q-11 -43 -34 -85
t-53.5 -82t-63.5 -75.5t-63 -65.5zM183 -211q17 30 25.5 62t8.5 61q0 11 -1 20t-4 17h153q2 -6 3 -12t1 -13q0 -26 -8 -51t-21 -46t-30 -38h-127z" />
    <glyph glyph-name="uni0138" unicode="&#x138;" horiz-adv-x="554" 
d="M500 -9q-18 0 -35 3.5t-36.5 13.5t-44 29.5t-56.5 50.5l-126 118v-206h-156v544h156v-134l159 -151q46 -44 75.5 -67t48.5 -30.5t37 -7.5q3 0 7 0.5t9 0.5l1 -161q-8 -1 -17.5 -2t-21.5 -1zM317 236l-132 63q36 32 65.5 62t52 59t38 60.5t24.5 67.5l166 -10
q-11 -42 -34 -83.5t-53.5 -80t-63.5 -73.5t-63 -65z" />
    <glyph glyph-name="uni0139" unicode="&#x139;" horiz-adv-x="557" 
d="M55 0v700h170v-552h314v-148h-484zM77 745l88 186h160l-125 -186h-123z" />
    <glyph glyph-name="uni013A" unicode="&#x13a;" horiz-adv-x="314" 
d="M209 740v-548q0 -25 6 -38.5t16.5 -18t23.5 -4.5q9 0 20.5 2t25.5 6l15 -125q-22 -10 -50 -17t-61 -7q-52 0 -87.5 17.5t-53.5 58.5t-18 111v563h163zM65 785l88 186h160l-125 -186h-123z" />
    <glyph glyph-name="uni013B" unicode="&#x13b;" horiz-adv-x="557" 
d="M55 0v700h170v-552h314v-148h-484zM193 -211q17 30 25.5 62t8.5 61q0 11 -1 20t-4 17h153q2 -6 3 -12t1 -13q0 -26 -8 -51t-21 -46t-30 -38h-127z" />
    <glyph glyph-name="uni013C" unicode="&#x13c;" horiz-adv-x="314" 
d="M209 740v-548q0 -25 6 -38.5t16.5 -18t23.5 -4.5q9 0 20.5 2t25.5 6l15 -125q-22 -10 -50 -17t-61 -7q-52 0 -87.5 17.5t-53.5 58.5t-18 111v563h163zM74 -211q17 30 25.5 62t8.5 61q0 11 -1 20t-4 17h153q2 -6 3 -12t1 -13q0 -26 -8 -51t-21 -46t-30 -38h-127z" />
    <glyph glyph-name="uni013D" unicode="&#x13d;" horiz-adv-x="557" 
d="M55 0v700h170v-552h314v-148h-484zM321 509q20 32 28 63.5t8 63.5q0 18 -3 35.5t-10 28.5h151q5 -13 7.5 -25.5t2.5 -25.5q0 -42 -16.5 -76.5t-45.5 -63.5h-122z" />
    <glyph glyph-name="uni013E" unicode="&#x13e;" horiz-adv-x="429" 
d="M209 740v-548q0 -25 6 -38.5t16.5 -18t23.5 -4.5q9 0 20.5 2t25.5 6l15 -125q-22 -10 -50 -17t-61 -7q-52 0 -87.5 17.5t-53.5 58.5t-18 111v563h163zM237 549q20 32 28 63.5t8 63.5q0 18 -3 35.5t-10 28.5h151q5 -13 7.5 -25.5t2.5 -25.5q0 -42 -16.5 -76.5t-45.5 -63.5
h-122z" />
    <glyph glyph-name="uni013F" unicode="&#x13f;" horiz-adv-x="557" 
d="M340 403q0 35 17 52t58 17q42 0 59 -17t17 -52t-17 -52t-59 -17q-40 0 -57.5 17t-17.5 52zM55 0v700h170v-552h314v-148h-484z" />
    <glyph glyph-name="uni0140" unicode="&#x140;" horiz-adv-x="376" 
d="M323 325q-27 0 -40 14t-13 45q0 32 13 46.5t40 14.5t40 -14.5t13 -46.5q0 -31 -13 -45t-40 -14zM209 740v-548q0 -25 6 -38.5t16.5 -18t23.5 -4.5q9 0 20.5 2t25.5 6l15 -125q-22 -10 -50 -17t-61 -7q-52 0 -87.5 17.5t-53.5 58.5t-18 111v563h163z" />
    <glyph glyph-name="uni0141" unicode="&#x141;" horiz-adv-x="569" 
d="M9 187v145l57 33v335h170v-254l183 101v-145l-183 -101v-153h314v-148h-484v220z" />
    <glyph glyph-name="uni0142" unicode="&#x142;" horiz-adv-x="335" 
d="M204 -10q-47 0 -79.5 16t-49.5 54t-20 102v55l-51 -37v126l50 37v397h164v-290l88 64v-127l-88 -64v-117q0 -27 5.5 -41t15.5 -19t22 -5t25.5 2t30.5 6l15 -135q-26 -10 -59.5 -17t-68.5 -7z" />
    <glyph glyph-name="uni0143" unicode="&#x143;" horiz-adv-x="685" 
d="M55 0v701h160l265 -440v439h150v-701h-160l-264 431v-430h-151zM280 745l88 186h160l-125 -186h-123z" />
    <glyph glyph-name="uni0144" unicode="&#x144;" horiz-adv-x="579" 
d="M46 0v544h148v-47q33 20 62.5 32.5t58 18.5t60.5 6q53 0 88.5 -19.5t53 -54t17.5 -82.5v-398h-164v344q0 38 -17 55.5t-48 17.5q-16 0 -31.5 -3.5t-31 -9.5t-32.5 -14v-390h-164zM223 595l92 194h161l-128 -194h-125z" />
    <glyph glyph-name="uni0145" unicode="&#x145;" horiz-adv-x="685" 
d="M55 0v701h160l265 -440v439h150v-701h-160l-264 431v-430h-151zM239 -211q17 30 25.5 62t8.5 61q0 11 -1 20t-4 17h153q2 -6 3 -12t1 -13q0 -26 -8 -51t-21 -46t-30 -38h-127z" />
    <glyph glyph-name="uni0146" unicode="&#x146;" horiz-adv-x="579" 
d="M46 0v544h148v-47q33 20 62.5 32.5t58 18.5t60.5 6q53 0 88.5 -19.5t53 -54t17.5 -82.5v-398h-164v344q0 38 -17 55.5t-48 17.5q-16 0 -31.5 -3.5t-31 -9.5t-32.5 -14v-390h-164zM186 -211q17 30 25.5 62t8.5 61q0 11 -1 20t-4 17h153q2 -6 3 -12t1 -13q0 -26 -8 -51
t-21 -46t-30 -38h-127z" />
    <glyph glyph-name="uni0147" unicode="&#x147;" horiz-adv-x="685" 
d="M55 0v701h160l265 -440v439h150v-701h-160l-264 431v-430h-151zM532 931l-96 -186h-189l-94 186h131l59 -116l59 116h130z" />
    <glyph glyph-name="uni0148" unicode="&#x148;" horiz-adv-x="579" 
d="M46 0v544h148v-47q33 20 62.5 32.5t58 18.5t60.5 6q53 0 88.5 -19.5t53 -54t17.5 -82.5v-398h-164v344q0 38 -17 55.5t-48 17.5q-16 0 -31.5 -3.5t-31 -9.5t-32.5 -14v-390h-164zM478 789l-101 -194h-180l-98 194h132l58 -115l58 115h131z" />
    <glyph glyph-name="uni014A" unicode="&#x14a;" horiz-adv-x="685" 
d="M55 0v701h160l266 -440v439h149v-713q0 -63 -26.5 -106t-74.5 -64t-115 -21q-39 0 -72 6.5t-62 16.5l27 129q23 -6 43.5 -8t36.5 -2q26 0 45 6t29 18.5t10 32.5v7l-265 429v-431h-151z" />
    <glyph glyph-name="uni014B" unicode="&#x14b;" horiz-adv-x="579" 
d="M534 28q0 -71 -20.5 -123t-58.5 -81.5t-91 -34.5q-17 -2 -32.5 -2t-31.5 2l6 146q6 0 12.5 0.5t11.5 1.5q20 7 30 28t10 61v318q0 37 -16.5 55t-48.5 18q-16 0 -31.5 -3.5t-31 -9.5t-32.5 -14v-390h-164v544h148v-47q31 18 59.5 31t58.5 19.5t63 6.5q54 0 89 -19.5
t52.5 -54t17.5 -80.5v-372z" />
    <glyph glyph-name="uni014C" unicode="&#x14c;" horiz-adv-x="702" 
d="M351 123q27 0 50.5 7t41.5 22.5t30.5 41t19 65t6.5 92.5t-6.5 92t-19 64.5t-31 41t-41.5 22t-50 6.5t-49.5 -6.5t-40.5 -21.5t-31 -41t-20 -65.5t-7 -92.5q0 -54 7 -92.5t20 -64.5t31 -41.5t41 -22t49 -6.5zM352 -10q-61 0 -111 12t-89.5 38t-66 68t-41 102t-14.5 140
t13.5 139.5t40 101.5t65.5 68.5t89.5 38.5t112.5 12q63 0 113.5 -12t89 -38t65 -67.5t40 -101t13.5 -138.5q0 -82 -13.5 -142.5t-40.5 -102.5t-66 -68t-89 -38t-111 -12zM200 770v115h301v-115h-301z" />
    <glyph glyph-name="uni014D" unicode="&#x14d;" 
d="M26 273q0 66 13 118t43 88.5t81 55.5t127 19t127 -19t81 -55.5t43 -88.5t13 -118q0 -67 -14 -120t-45 -89t-81.5 -55t-123.5 -19t-123.5 19t-81.5 55t-45 89t-14 120zM195 273q0 -60 9.5 -95t30.5 -49.5t55 -14.5q35 0 55.5 14.5t30.5 49.5t10 95t-9 94t-30 48.5
t-57 14.5t-56.5 -14.5t-29.5 -48.5t-9 -94zM139 627v115h301v-115h-301z" />
    <glyph glyph-name="uni014E" unicode="&#x14e;" horiz-adv-x="702" 
d="M351 123q27 0 50.5 7t41.5 22.5t30.5 41t19 65t6.5 92.5t-6.5 92t-19 64.5t-31 41t-41.5 22t-50 6.5t-49.5 -6.5t-40.5 -21.5t-31 -41t-20 -65.5t-7 -92.5q0 -54 7 -92.5t20 -64.5t31 -41.5t41 -22t49 -6.5zM352 -10q-61 0 -111 12t-89.5 38t-66 68t-41 102t-14.5 140
t13.5 139.5t40 101.5t65.5 68.5t89.5 38.5t112.5 12q63 0 113.5 -12t89 -38t65 -67.5t40 -101t13.5 -138.5q0 -82 -13.5 -142.5t-40.5 -102.5t-66 -68t-89 -38t-111 -12zM351 750q-58 0 -97.5 11t-59.5 41.5t-22 88.5q-1 6 -1 13t1 14l91 1q1 -3 1 -5v-5q0 -17 7 -30.5
t26 -20.5t54 -7t52 7t24 20.5t10 30.5q1 3 1 5v5l91 -1q1 -7 1 -14t-1 -13q-1 -53 -19.5 -84.5t-57.5 -44t-101 -12.5z" />
    <glyph glyph-name="uni014F" unicode="&#x14f;" 
d="M26 273q0 66 13 118t43 88.5t81 55.5t127 19t127 -19t81 -55.5t43 -88.5t13 -118q0 -67 -14 -120t-45 -89t-81.5 -55t-123.5 -19t-123.5 19t-81.5 55t-45 89t-14 120zM195 273q0 -60 9.5 -95t30.5 -49.5t55 -14.5q35 0 55.5 14.5t30.5 49.5t10 95t-9 94t-30 48.5
t-57 14.5t-56.5 -14.5t-29.5 -48.5t-9 -94zM290 601q-57 0 -96.5 11t-60 42t-22.5 89v12.5v13.5l92 1v-4.5v-4.5q1 -17 7.5 -30t25.5 -20t54 -7t53.5 7t25.5 20t8 30v4.5v4.5l92 -1q1 -7 0.5 -14t-0.5 -13q-1 -53 -19.5 -84t-57.5 -44t-102 -13z" />
    <glyph glyph-name="uni0150" unicode="&#x150;" horiz-adv-x="702" 
d="M351 123q27 0 50.5 7t41.5 22.5t30.5 41t19 65t6.5 92.5t-6.5 92t-19 64.5t-31 41t-41.5 22t-50 6.5t-49.5 -6.5t-40.5 -21.5t-31 -41t-20 -65.5t-7 -92.5q0 -54 7 -92.5t20 -64.5t31 -41.5t41 -22t49 -6.5zM352 -10q-61 0 -111 12t-89.5 38t-66 68t-41 102t-14.5 140
t13.5 139.5t40 101.5t65.5 68.5t89.5 38.5t112.5 12q63 0 113.5 -12t89 -38t65 -67.5t40 -101t13.5 -138.5q0 -82 -13.5 -142.5t-40.5 -102.5t-66 -68t-89 -38t-111 -12zM394 745l72 186h150l-105 -186h-117zM195 745l72 186h150l-105 -186h-117z" />
    <glyph glyph-name="uni0151" unicode="&#x151;" 
d="M26 273q0 66 13 118t43 88.5t81 55.5t127 19t127 -19t81 -55.5t43 -88.5t13 -118q0 -67 -14 -120t-45 -89t-81.5 -55t-123.5 -19t-123.5 19t-81.5 55t-45 89t-14 120zM195 273q0 -60 9.5 -95t30.5 -49.5t55 -14.5q35 0 55.5 14.5t30.5 49.5t10 95t-9 94t-30 48.5
t-57 14.5t-56.5 -14.5t-29.5 -48.5t-9 -94zM331 596l75 194h150l-109 -194h-116zM132 596l75 194h151l-109 -194h-117z" />
    <glyph glyph-name="uni0152" unicode="&#x152;" horiz-adv-x="1011" 
d="M986 0h-350q-44 -3 -87 -5t-86.5 -3t-89.5 -1q-67 0 -121.5 11t-96 37t-69 68t-42 103.5t-14.5 143.5q0 91 20 158t61.5 110.5t104.5 65t148 21.5q46 0 88.5 -1t83 -3t79.5 -5h353v-143h-332v-133h307v-136h-307v-145h350v-143zM468 129v441q-10 1 -21 1.5t-22.5 1
t-23.5 1l-24 1t-23 0.5q-25 0 -47.5 -6.5t-41 -21.5t-32 -41t-21 -64t-7.5 -90q0 -54 7.5 -92.5t21.5 -65t33 -41.5t42.5 -22t49.5 -7q22 0 42.5 1t37.5 2t29 2z" />
    <glyph glyph-name="uni0153" unicode="&#x153;" horiz-adv-x="919" 
d="M26 273q0 66 13 118t43 88.5t81 55.5t127 19q45 0 79.5 -9t61 -27t45.5 -43q21 26 47 43.5t59 26.5t69 9q85 0 137.5 -27.5t77 -83t24.5 -140.5v-26.5t-1 -26.5q-23 -2 -57.5 -4.5t-79 -6t-95 -6t-103.5 -3.5q0 -4 -0.5 -8t-0.5 -10q0 -32 14 -52t42 -29t69 -9q24 0 55 3
t65.5 9t69.5 13l19 -124q-32 -10 -68 -17.5t-74.5 -11.5t-82.5 -4t-80.5 8.5t-64 25t-49.5 39.5q-26 -35 -69.5 -54t-108.5 -19q-73 0 -123.5 19t-81.5 55t-45 89t-14 120zM194 273q0 -61 9.5 -96t30.5 -49.5t56 -14.5q34 0 55 14.5t31 49.5t10 96t-9 95t-30 48.5t-57 14.5
t-57 -14.5t-30 -48.5t-9 -95zM555 320q26 0 51.5 1t48.5 2.5t40.5 2.5t29.5 2q-3 62 -23 86.5t-57 24.5q-16 0 -30.5 -4.5t-27 -17t-21 -36t-11.5 -61.5z" />
    <glyph glyph-name="uni0154" unicode="&#x154;" horiz-adv-x="696" 
d="M639 -10q-31 0 -62 8.5t-61.5 26.5t-62.5 46.5t-65.5 68.5t-69.5 93q-6 -1 -16.5 -1h-17.5h-29t-30 1v-233h-170v700q59 4 108.5 6t91 3t76.5 1q83 0 141.5 -12.5t96 -38.5t54.5 -67.5t17 -99.5q0 -59 -18 -101.5t-51.5 -69.5t-78.5 -42q26 -32 49.5 -55t44 -39t39 -23.5
t35.5 -7.5q3 0 8 0.5t8 0.5l1 -162q-7 -1 -16 -2t-22 -1zM329 356q35 0 61 6t42.5 19.5t25 35t8.5 53.5q0 39 -12 62.5t-40.5 34.5t-78.5 11h-27.5t-23 -0.5t-25.5 -1.5t-34 -2v-215q15 -1 27 -1.5l24 -1t24.5 -0.5h28.5zM281 745l88 186h160l-125 -186h-123z" />
    <glyph glyph-name="uni0155" unicode="&#x155;" horiz-adv-x="419" 
d="M194 544v-63q28 26 51 42t47 23.5t53 7.5q16 0 34 -2.5t36 -8.5l-26 -148q-18 4 -36 6.5t-33 2.5q-26 0 -53 -8.5t-58 -30.5v-365h-163v544h148zM156 595l92 194h161l-128 -194h-125z" />
    <glyph glyph-name="uni0156" unicode="&#x156;" horiz-adv-x="696" 
d="M639 -10q-31 0 -62 8.5t-61.5 26.5t-62.5 46.5t-65.5 68.5t-69.5 93q-6 -1 -16.5 -1h-17.5h-29t-30 1v-233h-170v700q59 4 108.5 6t91 3t76.5 1q83 0 141.5 -12.5t96 -38.5t54.5 -67.5t17 -99.5q0 -59 -18 -101.5t-51.5 -69.5t-78.5 -42q26 -32 49.5 -55t44 -39t39 -23.5
t35.5 -7.5q3 0 8 0.5t8 0.5l1 -162q-7 -1 -16 -2t-22 -1zM329 356q35 0 61 6t42.5 19.5t25 35t8.5 53.5q0 39 -12 62.5t-40.5 34.5t-78.5 11h-27.5t-23 -0.5t-25.5 -1.5t-34 -2v-215q15 -1 27 -1.5l24 -1t24.5 -0.5h28.5zM244 -211q17 30 25.5 62t8.5 61q0 11 -1 20t-4 17
h153q2 -6 3 -12t1 -13q0 -26 -8 -51t-21 -46t-30 -38h-127z" />
    <glyph glyph-name="uni0157" unicode="&#x157;" horiz-adv-x="419" 
d="M194 544v-63q28 26 51 42t47 23.5t53 7.5q16 0 34 -2.5t36 -8.5l-26 -148q-18 4 -36 6.5t-33 2.5q-26 0 -53 -8.5t-58 -30.5v-365h-163v544h148zM23 -211q17 30 25.5 62t8.5 61q0 11 -1 20t-4 17h153q2 -6 3 -12t1 -13q0 -26 -8 -51t-21 -46t-30 -38h-127z" />
    <glyph glyph-name="uni0158" unicode="&#x158;" horiz-adv-x="696" 
d="M639 -10q-31 0 -62 8.5t-61.5 26.5t-62.5 46.5t-65.5 68.5t-69.5 93q-6 -1 -16.5 -1h-17.5h-29t-30 1v-233h-170v700q59 4 108.5 6t91 3t76.5 1q83 0 141.5 -12.5t96 -38.5t54.5 -67.5t17 -99.5q0 -59 -18 -101.5t-51.5 -69.5t-78.5 -42q26 -32 49.5 -55t44 -39t39 -23.5
t35.5 -7.5q3 0 8 0.5t8 0.5l1 -162q-7 -1 -16 -2t-22 -1zM329 356q35 0 61 6t42.5 19.5t25 35t8.5 53.5q0 39 -12 62.5t-40.5 34.5t-78.5 11h-27.5t-23 -0.5t-25.5 -1.5t-34 -2v-215q15 -1 27 -1.5l24 -1t24.5 -0.5h28.5zM532 931l-96 -186h-189l-94 186h131l59 -116l59 116
h130z" />
    <glyph glyph-name="uni0159" unicode="&#x159;" horiz-adv-x="419" 
d="M194 544v-63q28 26 51 42t47 23.5t53 7.5q16 0 34 -2.5t36 -8.5l-26 -148q-18 4 -36 6.5t-33 2.5q-26 0 -53 -8.5t-58 -30.5v-365h-163v544h148zM411 789l-101 -194h-180l-98 194h132l58 -115l58 115h131z" />
    <glyph glyph-name="uni015A" unicode="&#x15a;" horiz-adv-x="620" 
d="M570 675l-32 -130q-20 7 -46 13t-54 10t-56 6t-54 2q-59 0 -90 -16t-31 -50q0 -18 10 -31.5t32 -24.5t57 -22t84 -24q53 -13 92.5 -31.5t66 -43t40 -57t13.5 -75.5q0 -68 -36 -115t-106 -71.5t-172 -24.5q-34 0 -70 3t-72.5 8.5t-70.5 14t-64 19.5l32 129q30 -10 62 -18
t65 -13.5t65.5 -8.5t61.5 -3q45 0 73.5 7.5t42 22.5t13.5 37q0 19 -13.5 32t-40.5 24.5t-67.5 23.5t-93.5 28q-45 15 -78.5 34t-56.5 43.5t-34.5 56.5t-11.5 72q0 45 17.5 83t53 66t92.5 43.5t135 15.5q46 0 91.5 -5t84.5 -13t66 -17zM252 745l88 186h160l-125 -186h-123z
" />
    <glyph glyph-name="uni015B" unicode="&#x15b;" horiz-adv-x="480" 
d="M20 21l18 118q18 -6 41.5 -11.5t48.5 -9.5t49.5 -6t45.5 -2q39 0 57.5 11.5t18.5 32.5q0 14 -9.5 22.5t-27.5 15.5t-43 12.5t-55 13.5q-34 7 -59 20.5t-42.5 33t-26 45t-8.5 57.5q0 90 57 135t169 45q34 0 65 -3.5t59 -9.5t51 -15l-20 -120q-22 8 -45.5 13t-50 8t-59.5 3
q-36 0 -54 -10t-18 -31q0 -13 7 -20.5t21 -13t34.5 -10t47.5 -10.5q36 -7 66.5 -19t52.5 -30.5t34.5 -46.5t12.5 -69q0 -40 -12.5 -70t-34.5 -51t-51.5 -34t-65.5 -19t-74 -6q-36 0 -70 3.5t-66 10t-64 17.5zM173 595l92 194h161l-128 -194h-125z" />
    <glyph glyph-name="uni015C" unicode="&#x15c;" horiz-adv-x="620" 
d="M570 675l-32 -130q-20 7 -46 13t-54 10t-56 6t-54 2q-59 0 -90 -16t-31 -50q0 -18 10 -31.5t32 -24.5t57 -22t84 -24q53 -13 92.5 -31.5t66 -43t40 -57t13.5 -75.5q0 -68 -36 -115t-106 -71.5t-172 -24.5q-34 0 -70 3t-72.5 8.5t-70.5 14t-64 19.5l32 129q30 -10 62 -18
t65 -13.5t65.5 -8.5t61.5 -3q45 0 73.5 7.5t42 22.5t13.5 37q0 19 -13.5 32t-40.5 24.5t-67.5 23.5t-93.5 28q-45 15 -78.5 34t-56.5 43.5t-34.5 56.5t-11.5 72q0 45 17.5 83t53 66t92.5 43.5t135 15.5q46 0 91.5 -5t84.5 -13t66 -17zM125 745l96 186h189l94 -186h-131
l-59 116l-59 -116h-130z" />
    <glyph glyph-name="uni015D" unicode="&#x15d;" horiz-adv-x="480" 
d="M20 21l18 118q18 -6 41.5 -11.5t48.5 -9.5t49.5 -6t45.5 -2q39 0 57.5 11.5t18.5 32.5q0 14 -9.5 22.5t-27.5 15.5t-43 12.5t-55 13.5q-34 7 -59 20.5t-42.5 33t-26 45t-8.5 57.5q0 90 57 135t169 45q34 0 65 -3.5t59 -9.5t51 -15l-20 -120q-22 8 -45.5 13t-50 8t-59.5 3
q-36 0 -54 -10t-18 -31q0 -13 7 -20.5t21 -13t34.5 -10t47.5 -10.5q36 -7 66.5 -19t52.5 -30.5t34.5 -46.5t12.5 -69q0 -40 -12.5 -70t-34.5 -51t-51.5 -34t-65.5 -19t-74 -6q-36 0 -70 3.5t-66 10t-64 17.5zM49 596l101 194h180l98 -194h-132l-58 115l-58 -115h-131z" />
    <glyph glyph-name="uni015E" unicode="&#x15e;" horiz-adv-x="621" 
d="M570 675l-32 -130q-20 7 -46 13t-54 10t-56 6t-54 2q-59 0 -90 -16t-31 -50q0 -18 10 -31.5t32 -24.5t57 -22t84 -24q53 -13 92.5 -31.5t66 -43t40 -57t13.5 -75.5q0 -68 -36 -115t-106 -71.5t-172 -24.5q-34 0 -70 3t-72.5 8.5t-70.5 14t-64 19.5l32 129q30 -10 62 -18
t65 -13.5t65.5 -8.5t61.5 -3q45 0 73.5 7.5t42 22.5t13.5 37q0 19 -13.5 32t-40.5 24.5t-67.5 23.5t-93.5 28q-45 15 -78.5 34t-56.5 43.5t-34.5 56.5t-11.5 72q0 45 17.5 83t53 66t92.5 43.5t135 15.5q46 0 91.5 -5t84.5 -13t66 -17zM187 -109q14 -4 25.5 -6t20.5 -2
q23 0 36.5 11.5t13.5 33.5q0 11 -5 24.5t-13.5 27.5t-20.5 26h118q12 -14 21 -33t14 -39t5 -39q0 -31 -12.5 -57.5t-41 -42t-77.5 -15.5q-19 0 -41 3t-46 11z" />
    <glyph glyph-name="uni015F" unicode="&#x15f;" horiz-adv-x="480" 
d="M20 21l18 118q18 -6 41.5 -11.5t48.5 -9.5t49.5 -6t45.5 -2q39 0 57.5 11.5t18.5 32.5q0 14 -9.5 22.5t-27.5 15.5t-43 12.5t-55 13.5q-34 7 -59 20.5t-42.5 33t-26 45t-8.5 57.5q0 90 57 135t169 45q34 0 65 -3.5t59 -9.5t51 -15l-20 -120q-22 8 -45.5 13t-50 8t-59.5 3
q-36 0 -54 -10t-18 -31q0 -13 7 -20.5t21 -13t34.5 -10t47.5 -10.5q36 -7 66.5 -19t52.5 -30.5t34.5 -46.5t12.5 -69q0 -40 -12.5 -70t-34.5 -51t-51.5 -34t-65.5 -19t-74 -6q-36 0 -70 3.5t-66 10t-64 17.5zM123 -109q14 -4 25.5 -6t20.5 -2q23 0 36.5 11.5t13.5 33.5
q0 11 -5 24.5t-13.5 27.5t-20.5 26h118q12 -14 21 -33t14 -39t5 -39q0 -31 -12.5 -57.5t-41 -42t-77.5 -15.5q-19 0 -41 3t-46 11z" />
    <glyph glyph-name="uni0160" unicode="&#x160;" horiz-adv-x="620" 
d="M570 675l-32 -130q-20 7 -46 13t-54 10t-56 6t-54 2q-59 0 -90 -16t-31 -50q0 -18 10 -31.5t32 -24.5t57 -22t84 -24q53 -13 92.5 -31.5t66 -43t40 -57t13.5 -75.5q0 -68 -36 -115t-106 -71.5t-172 -24.5q-34 0 -70 3t-72.5 8.5t-70.5 14t-64 19.5l32 129q30 -10 62 -18
t65 -13.5t65.5 -8.5t61.5 -3q45 0 73.5 7.5t42 22.5t13.5 37q0 19 -13.5 32t-40.5 24.5t-67.5 23.5t-93.5 28q-45 15 -78.5 34t-56.5 43.5t-34.5 56.5t-11.5 72q0 45 17.5 83t53 66t92.5 43.5t135 15.5q46 0 91.5 -5t84.5 -13t66 -17zM504 931l-96 -186h-189l-94 186h131
l59 -116l59 116h130z" />
    <glyph glyph-name="uni0161" unicode="&#x161;" horiz-adv-x="480" 
d="M20 21l18 118q18 -6 41.5 -11.5t48.5 -9.5t49.5 -6t45.5 -2q39 0 57.5 11.5t18.5 32.5q0 14 -9.5 22.5t-27.5 15.5t-43 12.5t-55 13.5q-34 7 -59 20.5t-42.5 33t-26 45t-8.5 57.5q0 90 57 135t169 45q34 0 65 -3.5t59 -9.5t51 -15l-20 -120q-22 8 -45.5 13t-50 8t-59.5 3
q-36 0 -54 -10t-18 -31q0 -13 7 -20.5t21 -13t34.5 -10t47.5 -10.5q36 -7 66.5 -19t52.5 -30.5t34.5 -46.5t12.5 -69q0 -40 -12.5 -70t-34.5 -51t-51.5 -34t-65.5 -19t-74 -6q-36 0 -70 3.5t-66 10t-64 17.5zM428 789l-101 -194h-180l-98 194h132l58 -115l58 115h131z" />
    <glyph glyph-name="uni0162" unicode="&#x162;" horiz-adv-x="607" 
d="M187 -109q14 -5 25.5 -7t20.5 -2q24 0 37 12t13 34q0 12 -5 25t-13 27t-19 25l116 1q11 -14 20 -33t14.5 -39.5t5.5 -38.5q0 -31 -13 -57.5t-41.5 -42t-76.5 -15.5q-19 0 -41 3t-46 11zM597 551h-206v-551h-169v551h-206v149h581v-149z" />
    <glyph glyph-name="uni0163" unicode="&#x163;" horiz-adv-x="413" 
d="M249 -10q-54 0 -91 20.5t-55.5 64t-18.5 113.5v237h-78v109l78 10l19 116h144v-116h137v-119h-137v-224q0 -40 14.5 -56.5t45.5 -16.5q17 0 36 3.5t41 8.5l22 -124q-42 -14 -81 -20t-76 -6zM116 -109q14 -4 25.5 -6t20.5 -2q23 0 36.5 11.5t13.5 33.5q0 11 -5 24.5
t-13.5 27.5t-20.5 26h118q12 -14 21 -33t14 -39t5 -39q0 -31 -12.5 -57.5t-41 -42t-77.5 -15.5q-19 0 -41 3t-46 11z" />
    <glyph glyph-name="uni0164" unicode="&#x164;" horiz-adv-x="612" 
d="M597 551h-206v-551h-169v551h-206v149h581v-149zM496 931l-96 -186h-189l-94 186h131l59 -116l59 116h130z" />
    <glyph glyph-name="uni0165" unicode="&#x165;" horiz-adv-x="413" 
d="M249 -10q-54 0 -91 20.5t-55.5 64t-18.5 113.5v237h-78v109l78 10l19 116h144v-116h137v-119h-137v-224q0 -40 14.5 -56.5t45.5 -16.5q17 0 36 3.5t41 8.5l22 -124q-42 -14 -81 -20t-76 -6zM295 580q20 32 28 63.5t8 63.5q0 18 -3 35.5t-10 28.5h151q5 -13 7.5 -25.5
t2.5 -25.5q0 -42 -16.5 -76.5t-45.5 -63.5h-122z" />
    <glyph glyph-name="uni0166" unicode="&#x166;" horiz-adv-x="612" 
d="M88 263v134h134v154h-206v149h581v-149h-206v-154h133v-134h-133v-263h-169v263h-134z" />
    <glyph glyph-name="uni0167" unicode="&#x167;" horiz-adv-x="413" 
d="M247 262v-69q0 -35 15 -49.5t46 -14.5q15 0 33.5 3t42.5 9l22 -125q-43 -15 -81.5 -20.5t-75.5 -5.5q-54 0 -91 21t-56 63.5t-19 109.5v78h-64v98h64v70h-77v104l77 10l20 116h144v-116h137v-114h-137v-70h112v-98h-112z" />
    <glyph glyph-name="uni0168" unicode="&#x168;" horiz-adv-x="686" 
d="M48 227v473h167v-475q0 -22 6 -39t18 -28t28 -18t35.5 -10.5t40.5 -3.5q23 0 42.5 3.5t35 10.5t27 18.5t17.5 28.5t6 38v475h167v-473q0 -52 -12.5 -91t-37 -67t-60.5 -45t-82.5 -25.5t-102.5 -8.5t-102 8.5t-82 25.5t-60.5 45t-37.5 67t-13 91zM161 756q-2 12 -2.5 24
t-0.5 22q0 52 26.5 85t80.5 33q23 0 43.5 -7.5t39 -17t33.5 -17.5t28 -8q10 0 16 4.5t9.5 13.5t3.5 21q0 3 -0.5 8t-1.5 8h88q2 -12 2.5 -24t0.5 -23q0 -54 -26.5 -86t-80.5 -32q-23 0 -43.5 7.5t-38.5 17t-33 17t-29 7.5q-13 0 -20.5 -9.5t-7.5 -27.5q0 -3 0.5 -7.5
t1.5 -8.5h-89z" />
    <glyph glyph-name="uni0169" unicode="&#x169;" horiz-adv-x="591" 
d="M206 -10q-48 0 -84 17.5t-56.5 54.5t-20.5 92v390h164v-351q0 -34 17 -50.5t47 -16.5q16 0 30.5 3t29 9t31.5 14v392h164v-375q0 -15 3 -23.5t9 -12.5t14 -4q11 0 21 5l14 -118q-13 -7 -29 -13t-35.5 -9.5t-39.5 -3.5q-37 0 -61.5 14.5t-39.5 40.5q-29 -17 -57 -29.5
t-57.5 -19t-63.5 -6.5zM108 599q-2 12 -2.5 24t-0.5 22q0 60 26 89t80 29q22 0 42.5 -7t39 -16.5t34.5 -16.5t30 -7q9 0 15.5 5t10 13t3.5 17q0 3 -0.5 8t-0.5 8h86q2 -12 2.5 -23.5t0.5 -22.5q0 -60 -26 -89.5t-80 -29.5q-20 0 -40.5 7t-39.5 16.5t-36.5 16.5t-29.5 7
q-14 0 -21.5 -9t-7.5 -24q0 -4 0.5 -9t0.5 -8h-86z" />
    <glyph glyph-name="uni016A" unicode="&#x16a;" horiz-adv-x="686" 
d="M48 227v473h167v-475q0 -22 6 -39t18 -28t28 -18t35.5 -10.5t40.5 -3.5q23 0 42.5 3.5t35 10.5t27 18.5t17.5 28.5t6 38v475h167v-473q0 -52 -12.5 -91t-37 -67t-60.5 -45t-82.5 -25.5t-102.5 -8.5t-102 8.5t-82 25.5t-60.5 45t-37.5 67t-13 91zM193 770v115h301v-115
h-301z" />
    <glyph glyph-name="uni016B" unicode="&#x16b;" horiz-adv-x="591" 
d="M206 -10q-48 0 -84 17.5t-56.5 54.5t-20.5 92v390h164v-351q0 -34 17 -50.5t47 -16.5q16 0 30.5 3t29 9t31.5 14v392h164v-375q0 -15 3 -23.5t9 -12.5t14 -4q11 0 21 5l14 -118q-13 -7 -29 -13t-35.5 -9.5t-39.5 -3.5q-37 0 -61.5 14.5t-39.5 40.5q-29 -17 -57 -29.5
t-57.5 -19t-63.5 -6.5zM139 627v115h301v-115h-301z" />
    <glyph glyph-name="uni016C" unicode="&#x16c;" horiz-adv-x="686" 
d="M48 227v473h167v-475q0 -22 6 -39t18 -28t28 -18t35.5 -10.5t40.5 -3.5q23 0 42.5 3.5t35 10.5t27 18.5t17.5 28.5t6 38v475h167v-473q0 -52 -12.5 -91t-37 -67t-60.5 -45t-82.5 -25.5t-102.5 -8.5t-102 8.5t-82 25.5t-60.5 45t-37.5 67t-13 91zM344 750q-58 0 -97.5 11
t-59.5 41.5t-22 88.5q-1 6 -1 13t1 14l91 1q1 -3 1 -5v-5q0 -17 7 -30.5t26 -20.5t54 -7t52 7t24 20.5t10 30.5q1 3 1 5v5l91 -1q1 -7 1 -14t-1 -13q-1 -53 -19.5 -84.5t-57.5 -44t-101 -12.5z" />
    <glyph glyph-name="uni016D" unicode="&#x16d;" horiz-adv-x="591" 
d="M206 -10q-48 0 -84 17.5t-56.5 54.5t-20.5 92v390h164v-351q0 -34 17 -50.5t47 -16.5q16 0 30.5 3t29 9t31.5 14v392h164v-375q0 -15 3 -23.5t9 -12.5t14 -4q11 0 21 5l14 -118q-13 -7 -29 -13t-35.5 -9.5t-39.5 -3.5q-37 0 -61.5 14.5t-39.5 40.5q-29 -17 -57 -29.5
t-57.5 -19t-63.5 -6.5zM290 601q-57 0 -96.5 11t-60 42t-22.5 89v12.5v13.5l92 1v-4.5v-4.5q1 -17 7.5 -30t25.5 -20t54 -7t53.5 7t25.5 20t8 30v4.5v4.5l92 -1q1 -7 0.5 -14t-0.5 -13q-1 -53 -19.5 -84t-57.5 -44t-102 -13z" />
    <glyph glyph-name="uni016E" unicode="&#x16e;" horiz-adv-x="686" 
d="M48 227v473h167v-475q0 -22 6 -39t18 -28t28 -18t35.5 -10.5t40.5 -3.5q23 0 42.5 3.5t35 10.5t27 18.5t17.5 28.5t6 38v475h167v-473q0 -52 -12.5 -91t-37 -67t-60.5 -45t-82.5 -25.5t-102.5 -8.5t-102 8.5t-82 25.5t-60.5 45t-37.5 67t-13 91zM344 743q-57 0 -87 25.5
t-30 72.5q0 48 30 73.5t87 25.5q56 0 86 -25.5t30 -73.5q0 -47 -30 -72.5t-86 -25.5zM343 808q34 0 34 33q0 34 -34 34q-33 0 -33 -34q0 -33 33 -33z" />
    <glyph glyph-name="uni016F" unicode="&#x16f;" horiz-adv-x="591" 
d="M206 -10q-48 0 -84 17.5t-56.5 54.5t-20.5 92v390h164v-351q0 -34 17 -50.5t47 -16.5q16 0 30.5 3t29 9t31.5 14v392h164v-375q0 -15 3 -23.5t9 -12.5t14 -4q11 0 21 5l14 -118q-13 -7 -29 -13t-35.5 -9.5t-39.5 -3.5q-37 0 -61.5 14.5t-39.5 40.5q-29 -17 -57 -29.5
t-57.5 -19t-63.5 -6.5zM290 595q-57 0 -86.5 26t-29.5 72q0 48 29.5 73.5t86.5 25.5t86.5 -25.5t29.5 -73.5q0 -46 -29.5 -72t-86.5 -26zM290 660q33 0 33 34q0 33 -33 33q-34 0 -34 -33q0 -34 34 -34z" />
    <glyph glyph-name="uni0170" unicode="&#x170;" horiz-adv-x="686" 
d="M48 227v473h167v-475q0 -22 6 -39t18 -28t28 -18t35.5 -10.5t40.5 -3.5q23 0 42.5 3.5t35 10.5t27 18.5t17.5 28.5t6 38v475h167v-473q0 -52 -12.5 -91t-37 -67t-60.5 -45t-82.5 -25.5t-102.5 -8.5t-102 8.5t-82 25.5t-60.5 45t-37.5 67t-13 91zM387 745l72 186h150
l-105 -186h-117zM188 745l72 186h150l-105 -186h-117z" />
    <glyph glyph-name="uni0171" unicode="&#x171;" horiz-adv-x="591" 
d="M206 -10q-48 0 -84 17.5t-56.5 54.5t-20.5 92v390h164v-351q0 -34 17 -50.5t47 -16.5q16 0 30.5 3t29 9t31.5 14v392h164v-375q0 -15 3 -23.5t9 -12.5t14 -4q11 0 21 5l14 -118q-13 -7 -29 -13t-35.5 -9.5t-39.5 -3.5q-37 0 -61.5 14.5t-39.5 40.5q-29 -17 -57 -29.5
t-57.5 -19t-63.5 -6.5zM331 596l75 194h150l-109 -194h-116zM132 596l75 194h151l-109 -194h-117z" />
    <glyph glyph-name="uni0172" unicode="&#x172;" horiz-adv-x="686" 
d="M48 227v473h167v-475q0 -22 6 -39t18 -28t28 -18t35.5 -10.5t40.5 -3.5q23 0 42.5 3.5t35 10.5t27 18.5t17.5 28.5t6 38v475h167v-473q0 -52 -12.5 -91t-37 -67t-60.5 -45t-82.5 -25.5t-102.5 -8.5t-102 8.5t-82 25.5t-60.5 45t-37.5 67t-13 91zM359 -219q-35 0 -61 11.5
t-40.5 33.5t-14.5 54q0 30 13 55t35 45t48 32l88 -11q-20 -12 -33 -24t-19.5 -25t-6.5 -28q0 -19 10.5 -26.5t25.5 -7.5q7 0 11.5 1t8.5 2l7 -101q-13 -6 -31 -8.5t-41 -2.5z" />
    <glyph glyph-name="uni0173" unicode="&#x173;" horiz-adv-x="591" 
d="M520 -204q-34 0 -60.5 11t-41 32t-14.5 51q0 27 13 50t35 41.5t48 30.5l29 -17q-10 -2 -21 -3.5t-23 -1.5q-37 0 -61.5 14.5t-39.5 40.5q-29 -17 -57 -29.5t-57.5 -19t-63.5 -6.5q-48 0 -84 17.5t-56.5 54.5t-20.5 92v390h164v-351q0 -34 17 -50.5t47 -16.5q16 0 30.5 3
t29 9t31.5 14v392h164v-375q0 -15 3 -23.5t9 -12.5t14 -4q11 0 21 5l14 -118q-20 -11 -33.5 -23t-20 -25t-6.5 -29q0 -18 10.5 -26t26.5 -8q6 0 11 1t9 2l6 -101q-13 -5 -30.5 -8t-41.5 -3z" />
    <glyph glyph-name="uni0174" unicode="&#x174;" horiz-adv-x="828" 
d="M681 0h-176l-93 439l-98 -439h-170l-142 699l180 2l57 -537l102 497h150l97 -496l57 536l182 -2zM225 745l96 186h189l94 -186h-131l-59 116l-59 -116h-130z" />
    <glyph glyph-name="uni0175" unicode="&#x175;" horiz-adv-x="800" 
d="M132 0l-123 543l163 2l63 -398l78 397h174l79 -398l65 399l161 -2l-129 -543h-188l-77 360l-74 -360h-192zM211 596l101 194h180l98 -194h-132l-58 115l-58 -115h-131z" />
    <glyph glyph-name="uni0176" unicode="&#x176;" horiz-adv-x="650" 
d="M241 0v245l-241 454l190 2l136 -351l134 351l189 -2l-239 -454v-245h-169zM136 745l96 186h189l94 -186h-131l-59 116l-59 -116h-130z" />
    <glyph glyph-name="uni0177" unicode="&#x177;" horiz-adv-x="560" 
d="M162 -209l67 209h-22l-200 543l179 3l115 -414l109 414l171 -2l-247 -755zM90 596l101 194h180l98 -194h-132l-58 115l-58 -115h-131z" />
    <glyph glyph-name="uni0178" unicode="&#x178;" horiz-adv-x="650" 
d="M241 0v245l-241 454l190 2l136 -351l134 351l189 -2l-239 -454v-245h-169zM424 751q-34 0 -51.5 16.5t-17.5 56.5t17.5 57.5t51.5 17.5q35 0 52 -17.5t17 -57.5t-17 -56.5t-52 -16.5zM226 751q-35 0 -52 16.5t-17 56.5t17 57.5t52 17.5q34 0 51.5 -17.5t17.5 -57.5
t-17.5 -56.5t-51.5 -16.5z" />
    <glyph glyph-name="uni0179" unicode="&#x179;" horiz-adv-x="616" 
d="M23 0v134l349 427v2h-332v137h535v-134l-344 -427v-2h363v-137h-571zM249 745l88 186h160l-125 -186h-123z" />
    <glyph glyph-name="uni017A" unicode="&#x17a;" horiz-adv-x="524" 
d="M25 0v113l260 305h-249v126h448v-111l-257 -306h271v-127h-473zM199 595l92 194h161l-128 -194h-125z" />
    <glyph glyph-name="uni017B" unicode="&#x17b;" horiz-adv-x="616" 
d="M23 0v134l349 427v2h-332v137h535v-134l-344 -427v-2h363v-137h-571zM312 761q-34 0 -51 16.5t-17 54.5q0 40 17 56t51 16t50.5 -16t16.5 -56q0 -38 -16.5 -54.5t-50.5 -16.5z" />
    <glyph glyph-name="uni017C" unicode="&#x17c;" horiz-adv-x="524" 
d="M25 0v113l260 305h-249v126h448v-111l-257 -306h271v-127h-473zM265 615q-34 0 -51 16.5t-17 54.5q0 40 17 56t51 16t50.5 -16t16.5 -56q0 -38 -16.5 -54.5t-50.5 -16.5z" />
    <glyph glyph-name="uni017D" unicode="&#x17d;" horiz-adv-x="616" 
d="M23 0v134l349 427v2h-332v137h535v-134l-344 -427v-2h363v-137h-571zM501 931l-96 -186h-189l-94 186h131l59 -116l59 116h130z" />
    <glyph glyph-name="uni017E" unicode="&#x17e;" horiz-adv-x="524" 
d="M25 0v113l260 305h-249v126h448v-111l-257 -306h271v-127h-473zM454 789l-101 -194h-180l-98 194h132l58 -115l58 115h131z" />
    <glyph glyph-name="uni017F" unicode="&#x17f;" horiz-adv-x="358" 
d="M251 508v-508h-164v384h-74v109l74 10v13q0 59 14.5 102.5t41 73t64.5 44t85 14.5q44 0 82 -7.5t73 -19.5l-22 -120q-18 5 -43.5 9t-47.5 4q-17 0 -32 -4.5t-26.5 -16.5t-18 -33t-6.5 -54z" />
    <glyph glyph-name="uni018F" unicode="&#x18f;" horiz-adv-x="643" 
d="M61 538l-25 128q46 15 89 24.5t87 14t93 4.5q75 0 132.5 -21.5t96.5 -64t59 -106.5t20 -150q0 -95 -21.5 -166t-62 -118t-97.5 -70t-129 -23q-142 0 -210.5 78t-68.5 242q0 15 1 34t2 33q90 8 189.5 15t213.5 12v11v11q-1 36 -10.5 63t-29 44.5t-48.5 26t-66 8.5
q-33 0 -69 -3.5t-72.5 -10.5t-73.5 -16zM433 288q-21 0 -46 -1t-50.5 -1.5t-51 -2t-48 -2.5t-40.5 -3q3 -58 14 -92t34 -49t61 -15q37 0 64.5 18t44 54.5t18.5 93.5z" />
    <glyph glyph-name="uni0192" unicode="&#x192;" horiz-adv-x="639" 
d="M113 394l78 8l10 67q14 79 47 133t84 81t117 27q44 0 84 -8t72 -22l-43 -129q-28 9 -52.5 13t-47.5 4q-29 0 -50 -13t-35 -39.5t-21 -68.5l-8 -45h169l-18 -119h-170l-78 -493h-158l79 493h-77z" />
    <glyph glyph-name="uni01A0" unicode="&#x1a0;" horiz-adv-x="702" 
d="M351 123q27 0 50.5 7t41.5 22.5t30.5 41t19 65t6.5 92.5t-6.5 92t-19 64.5t-31 41t-41.5 22t-50 6.5t-49.5 -6.5t-40.5 -21.5t-31 -41t-20 -65.5t-7 -92.5q0 -54 7 -92.5t20 -64.5t31 -41.5t41 -22t49 -6.5zM352 -10q-61 0 -111 12t-89.5 38t-66 68t-41 102t-14.5 140
t13.5 139.5t40 101.5t65.5 68.5t89.5 38.5t112.5 12q63 0 113.5 -12t89 -38t65 -67.5t40 -101t13.5 -138.5q0 -82 -13.5 -142.5t-40.5 -102.5t-66 -68t-89 -38t-111 -12zM479 588v102h9q28 0 43.5 12t19 38t-5.5 68l138 2q11 -54 5 -95.5t-28.5 -69.5t-61.5 -42.5t-95 -14.5
h-24z" />
    <glyph glyph-name="uni01A1" unicode="&#x1a1;" 
d="M26 273q0 66 13 118t43 88.5t81 55.5t127 19t127 -19t81 -55.5t43 -88.5t13 -118q0 -67 -14 -120t-45 -89t-81.5 -55t-123.5 -19t-123.5 19t-81.5 55t-45 89t-14 120zM195 273q0 -60 9.5 -95t30.5 -49.5t55 -14.5q35 0 55.5 14.5t30.5 49.5t10 95t-9 94t-30 48.5
t-57 14.5t-56.5 -14.5t-29.5 -48.5t-9 -94zM364 433v102h9q28 0 43.5 12t19 38t-5.5 68l138 2q11 -54 5 -95.5t-28.5 -69.5t-61.5 -42.5t-95 -14.5h-24z" />
    <glyph glyph-name="uni01AF" unicode="&#x1af;" horiz-adv-x="686" 
d="M48 227v473h167v-475q0 -22 6 -39t18 -28t28 -18t35.5 -10.5t40.5 -3.5q23 0 42.5 3.5t35 10.5t27 18.5t17.5 28.5t6 38v475h167v-473q0 -52 -12.5 -91t-37 -67t-60.5 -45t-82.5 -25.5t-102.5 -8.5t-102 8.5t-82 25.5t-60.5 45t-37.5 67t-13 91zM569 598v102h9
q28 0 43.5 12t19 38t-5.5 68l138 2q11 -54 5 -95.5t-28.5 -69.5t-61.5 -42.5t-95 -14.5h-24z" />
    <glyph glyph-name="uni01B0" unicode="&#x1b0;" horiz-adv-x="591" 
d="M206 -10q-48 0 -84 17.5t-56.5 54.5t-20.5 92v390h164v-351q0 -34 17 -50.5t47 -16.5q16 0 30.5 3t29 9t31.5 14v392h164v-375q0 -15 3 -23.5t9 -12.5t14 -4q11 0 21 5l14 -118q-13 -7 -29 -13t-35.5 -9.5t-39.5 -3.5q-37 0 -61.5 14.5t-39.5 40.5q-29 -17 -57 -29.5
t-57.5 -19t-63.5 -6.5zM452 442v102h9q28 0 43.5 12t19 38t-5.5 68l138 2q11 -54 5 -95.5t-28.5 -69.5t-61.5 -42.5t-95 -14.5h-24z" />
    <glyph glyph-name="uni01C4" unicode="&#x1c4;" horiz-adv-x="1293" 
d="M326 -10q-52 0 -98 1t-88.5 3t-84.5 5v701q47 4 89.5 6t84.5 3t89 1q123 0 199 -37.5t110.5 -117t34.5 -206.5q0 -124 -37 -203.5t-111.5 -117.5t-187.5 -38zM339 123q49 0 81.5 22.5t49.5 72t17 130.5q0 87 -16.5 136t-50 70.5t-86.5 21.5q-18 0 -37.5 -0.5t-38 -1.5
t-33.5 -2v-445q14 0 28 -1t28 -1.5l28 -1t30 -0.5zM700 0v134l349 427v2h-332v137h535v-134l-344 -427v-2h363v-137h-571zM1178 931l-96 -186h-189l-94 186h131l59 -116l59 116h130z" />
    <glyph glyph-name="uni01C5" unicode="&#x1c5;" horiz-adv-x="1202" 
d="M326 -10q-52 0 -98 1t-88.5 3t-84.5 5v701q47 4 89.5 6t84.5 3t89 1q123 0 199 -37.5t110.5 -117t34.5 -206.5q0 -124 -37 -203.5t-111.5 -117.5t-187.5 -38zM339 123q49 0 81.5 22.5t49.5 72t17 130.5q0 87 -16.5 136t-50 70.5t-86.5 21.5q-18 0 -37.5 -0.5t-38 -1.5
t-33.5 -2v-445q14 0 28 -1t28 -1.5l28 -1t30 -0.5zM703 0v113l260 305h-249v126h448v-111l-257 -306h271v-127h-473zM1132 789l-101 -194h-180l-98 194h132l58 -115l58 115h131z" />
    <glyph glyph-name="uni01C6" unicode="&#x1c6;" horiz-adv-x="1108" 
d="M395 -1l-19 41q-40 -25 -80 -37.5t-84 -12.5q-89 0 -137.5 70t-48.5 202q0 99 28.5 163.5t86.5 96.5t147 32q20 0 42.5 -1.5t43.5 -5.5v193h165v-741h-144zM374 154v270q-20 6 -38.5 8.5t-36.5 2.5q-35 0 -58 -15t-34 -49t-11 -93q0 -54 9.5 -87.5t27.5 -49t44 -15.5
q15 0 30.5 3t32 9.5t34.5 15.5zM610 0v113l260 305h-249v126h448v-111l-257 -306h271v-127h-473zM1039 789l-101 -194h-180l-98 194h132l58 -115l58 115h131z" />
    <glyph glyph-name="uni01C7" unicode="&#x1c7;" horiz-adv-x="1081" 
d="M55 0v700h170v-552h314v-148h-484zM573 26l31 130q29 -7 55 -12.5t49.5 -8.5t42.5 -3q39 0 64 12t37 40t12 77v291h-241v148h410v-479q0 -76 -24.5 -128t-76 -77.5t-132.5 -25.5q-37 0 -75.5 4.5t-77 12t-74.5 19.5z" />
    <glyph glyph-name="uni01C8" unicode="&#x1c8;" horiz-adv-x="822" 
d="M55 0v700h170v-552h314v-148h-484zM776 544v-516q0 -111 -41.5 -171t-136.5 -68q-11 -1 -25 -1t-28.5 1.5t-27.5 3.5l11 137q8 -1 14 -1t12 2q31 7 45 31.5t14 74.5v507h163zM695 602q-50 0 -73.5 20t-23.5 62t23.5 62t73.5 20t73 -20t23 -62t-23 -62t-73 -20z" />
    <glyph glyph-name="uni01C9" unicode="&#x1c9;" horiz-adv-x="577" 
d="M209 740v-548q0 -25 6 -38.5t16.5 -18t23.5 -4.5q9 0 20.5 2t25.5 6l15 -125q-22 -10 -50 -17t-61 -7q-52 0 -87.5 17.5t-53.5 58.5t-18 111v563h163zM531 544v-516q0 -111 -41.5 -171t-136.5 -68q-11 -1 -25 -1t-28.5 1.5t-27.5 3.5l11 137q8 -1 14 -1t12 2
q31 7 45 31.5t14 74.5v507h163zM450 602q-50 0 -73.5 20t-23.5 62t23.5 62t73.5 20t73 -20t23 -62t-23 -62t-73 -20z" />
    <glyph glyph-name="uni01CA" unicode="&#x1ca;" horiz-adv-x="1201" 
d="M55 0v701h160l265 -440v439h150v-701h-160l-264 431v-430h-151zM693 26l31 130q29 -7 55 -12.5t49.5 -8.5t42.5 -3q39 0 64 12t37 40t12 77v291h-241v148h410v-479q0 -76 -24.5 -128t-76 -77.5t-132.5 -25.5q-37 0 -75.5 4.5t-77 12t-74.5 19.5z" />
    <glyph glyph-name="uni01CB" unicode="&#x1cb;" horiz-adv-x="944" 
d="M55 0v701h160l265 -440v439h150v-701h-160l-264 431v-430h-151zM898 544v-516q0 -111 -41.5 -171t-136.5 -68q-11 -1 -25 -1t-28.5 1.5t-27.5 3.5l11 137q8 -1 14 -1t12 2q31 7 45 31.5t14 74.5v507h163zM817 602q-50 0 -73.5 20t-23.5 62t23.5 62t73.5 20t73 -20t23 -62
t-23 -62t-73 -20z" />
    <glyph glyph-name="uni01CC" unicode="&#x1cc;" horiz-adv-x="842" 
d="M46 0v544h148v-47q33 20 62.5 32.5t58 18.5t60.5 6q53 0 88.5 -19.5t53 -54t17.5 -82.5v-398h-164v344q0 38 -17 55.5t-48 17.5q-16 0 -31.5 -3.5t-31 -9.5t-32.5 -14v-390h-164zM796 544v-516q0 -111 -41.5 -171t-136.5 -68q-11 -1 -25 -1t-28.5 1.5t-27.5 3.5l11 137
q8 -1 14 -1t12 2q31 7 45 31.5t14 74.5v507h163zM715 602q-50 0 -73.5 20t-23.5 62t23.5 62t73.5 20t73 -20t23 -62t-23 -62t-73 -20z" />
    <glyph glyph-name="uni01E6" unicode="&#x1e6;" horiz-adv-x="662" 
d="M30 340q0 126 37 207.5t112 122t189 40.5q33 0 62.5 -2t57.5 -6t54.5 -10t51.5 -14l-31 -134q-46 11 -93 17.5t-88 6.5q-62 0 -102 -24.5t-59 -75t-19 -130.5q0 -78 17.5 -125t53 -68.5t87.5 -21.5q32 0 59.5 3.5t48.5 10.5v126h-120v131h272v-351q-58 -27 -127.5 -40
t-152.5 -13q-104 0 -173 38t-103 115.5t-34 196.5zM537 931l-96 -186h-189l-94 186h131l59 -116l59 116h130z" />
    <glyph glyph-name="uni01E7" unicode="&#x1e7;" horiz-adv-x="578" 
d="M256 -220q-121 0 -182.5 34.5t-61.5 103.5q0 27 9.5 49.5t29 40.5t48.5 31l84 -31q-14 -7 -23 -14.5t-13.5 -17t-4.5 -22.5q0 -20 12 -33t39.5 -19.5t73.5 -6.5q45 0 76 7.5t47 20.5t16 32q0 15 -6.5 23t-22.5 12t-46 4h-109q-57 0 -99 13t-64.5 40t-22.5 68
q0 43 21.5 71.5t59.5 48.5l84 -24q-20 -10 -30.5 -21.5t-10.5 -29.5t14 -27.5t43 -9.5h168q84 0 129 -39t45 -109q0 -62 -34.5 -105.5t-102 -66.5t-166.5 -23zM272 183q-115 0 -173.5 47t-58.5 138q0 93 58.5 139.5t173.5 46.5t174 -46.5t59 -139.5q0 -91 -59 -138t-174 -47
zM272 287q39 0 58 18t19 63q0 47 -19 65t-58 18q-38 0 -57.5 -18t-19.5 -65q0 -45 19.5 -63t57.5 -18zM468 424l-62 84q15 37 43.5 55t71.5 18q15 0 28 -2t24 -6l-19 -124q-8 2 -17 3.5t-19 1.5q-16 0 -28.5 -7.5t-21.5 -22.5zM463 789l-101 -194h-180l-98 194h132l58 -115
l58 115h131z" />
    <glyph glyph-name="uni01EA" unicode="&#x1ea;" horiz-adv-x="702" 
d="M351 123q27 0 50.5 7t41.5 22.5t30.5 41t19 65t6.5 92.5t-6.5 92t-19 64.5t-31 41t-41.5 22t-50 6.5t-49.5 -6.5t-40.5 -21.5t-31 -41t-20 -65.5t-7 -92.5q0 -54 7 -92.5t20 -64.5t31 -41.5t41 -22t49 -6.5zM352 -10q-61 0 -111 12t-89.5 38t-66 68t-41 102t-14.5 140
t13.5 139.5t40 101.5t65.5 68.5t89.5 38.5t112.5 12q63 0 113.5 -12t89 -38t65 -67.5t40 -101t13.5 -138.5q0 -82 -13.5 -142.5t-40.5 -102.5t-66 -68t-89 -38t-111 -12zM372 -216q-35 0 -61 11.5t-40.5 33.5t-14.5 54q0 30 13 55t35 45t48 32l88 -11q-20 -12 -33 -24
t-19.5 -25t-6.5 -28q0 -19 10.5 -26.5t25.5 -7.5q7 0 11.5 1t8.5 2l7 -101q-13 -6 -31 -8.5t-41 -2.5z" />
    <glyph glyph-name="uni01EB" unicode="&#x1eb;" 
d="M26 273q0 66 13 118t43 88.5t81 55.5t127 19t127 -19t81 -55.5t43 -88.5t13 -118q0 -67 -14 -120t-45 -89t-81.5 -55t-123.5 -19t-123.5 19t-81.5 55t-45 89t-14 120zM195 273q0 -60 9.5 -95t30.5 -49.5t55 -14.5q35 0 55.5 14.5t30.5 49.5t10 95t-9 94t-30 48.5
t-57 14.5t-56.5 -14.5t-29.5 -48.5t-9 -94zM316 -216q-35 0 -61 11.5t-40.5 33.5t-14.5 54q0 30 13 55t35 45t48 32l88 -11q-20 -12 -33 -24t-19.5 -25t-6.5 -28q0 -19 10.5 -26.5t25.5 -7.5q7 0 11.5 1t8.5 2l7 -101q-13 -6 -31 -8.5t-41 -2.5z" />
    <glyph glyph-name="uni01FA" unicode="&#x1fa;" horiz-adv-x="665" 
d="M7 0l222 703h204l225 -703h-186l-37 130h-214l-37 -130h-177zM252 269h152l-76 303zM333 743q-57 0 -87 25.5t-30 72.5q0 48 30 73.5t87 25.5q56 0 86 -25.5t30 -73.5q0 -47 -30 -72.5t-86 -25.5zM332 808q34 0 34 33q0 34 -34 34q-33 0 -33 -34q0 -33 33 -33zM270 974
l88 186h160l-125 -186h-123z" />
    <glyph glyph-name="uni01FB" unicode="&#x1fb;" horiz-adv-x="559" 
d="M21 149q0 49 18.5 81t57 51t97.5 29.5t140 16.5v33q0 30 -25 44t-72 14q-21 0 -48 -2t-55.5 -7t-58.5 -14l-26 128q45 14 99 22.5t100 8.5q88 0 142.5 -21.5t80 -64.5t25.5 -106v-190q0 -25 7.5 -33t17.5 -8q5 0 11.5 0.5t11.5 2.5l13 -117q-20 -12 -44.5 -19.5
t-54.5 -7.5q-42 0 -68.5 15.5t-39.5 47.5q-26 -19 -52.5 -33.5t-57 -22t-68.5 -7.5q-34 0 -61.5 11t-48 31.5t-31 49.5t-10.5 67zM186 159q0 -32 14 -47t37 -15q16 0 33.5 5t34.5 14.5t29 21.5v102q-37 -3 -64.5 -7.5t-46.5 -13.5t-28 -23.5t-9 -36.5zM273 587
q-57 0 -87 25.5t-30 72.5q0 48 30 73.5t87 25.5q56 0 86 -25.5t30 -73.5q0 -47 -30 -72.5t-86 -25.5zM272 652q34 0 34 33q0 34 -34 34q-33 0 -33 -34q0 -33 33 -33zM210 818l88 186h160l-125 -186h-123z" />
    <glyph glyph-name="uni01FC" unicode="&#x1fc;" horiz-adv-x="997" 
d="M4 0l369 700h582v-144h-329v-144h304v-136h-304v-133h347v-143h-509v179h-173l-97 -180zM351 314h112v264zM479 745l88 186h160l-125 -186h-123z" />
    <glyph glyph-name="uni01FD" unicode="&#x1fd;" horiz-adv-x="852" 
d="M178 -10q-74 0 -115.5 41.5t-41.5 116.5q0 48 17 81t54.5 53.5t96.5 31.5t142 16v30q0 28 -23 43t-71 15q-19 0 -45 -2t-56 -7t-61 -14l-25 128q47 14 100.5 22.5t98.5 8.5q34 0 60 -4t47 -12.5t38 -21.5t32 -31h1q20 24 44 39.5t53.5 22.5t65.5 7q81 0 133 -26
t77.5 -81.5t25.5 -144.5q0 -12 -0.5 -26.5t-1.5 -26.5q-31 -2 -80.5 -6t-111.5 -8t-133 -7q-1 -1 -1 -4.5t1 -6.5q1 -36 13.5 -57t39 -29t69.5 -8q40 0 89 7t93 17l21 -124q-35 -11 -70.5 -18.5t-72.5 -11t-80 -3.5q-51 0 -90.5 8.5t-69 27t-53.5 46.5h-2q-23 -20 -47 -35
t-49.5 -25.5t-53 -16t-58.5 -5.5zM237 99q17 0 35.5 6.5t35 17t28.5 22.5q-3 15 -4 32t-1 36v15v14q-37 -2 -64.5 -7.5t-45.5 -14.5t-26.5 -24t-8.5 -37q0 -30 14 -45t37 -15zM498 320q33 0 63.5 1.5t56 3.5t41.5 3q-3 39 -12 63.5t-25.5 35.5t-40.5 11q-21 0 -39.5 -10
t-30 -35.5t-13.5 -72.5zM366 595l92 194h161l-128 -194h-125z" />
    <glyph glyph-name="uni01FE" unicode="&#x1fe;" horiz-adv-x="702" 
d="M150 -13h-116l112 159h4l332 479h4l65 92h117l-107 -149h-4l-332 -480h-3zM351 117q27 0 51 6.5t43 22.5t32 42.5t20.5 66.5t7.5 95q0 56 -7.5 96t-20.5 66.5t-32 42t-42.5 22t-51.5 6.5t-51.5 -6.5t-42.5 -22t-32.5 -42t-20.5 -66.5t-7 -96q0 -55 7 -95t20.5 -66.5
t32.5 -42.5t42.5 -22.5t51.5 -6.5zM351 -10q-63 0 -113.5 12t-89.5 38t-65 68t-39.5 102t-13.5 140t12.5 139.5t38.5 102t64.5 68.5t90 38t115.5 12t115.5 -12t90 -38t64 -67.5t38.5 -101t13 -139.5q0 -81 -13.5 -141.5t-40 -102.5t-65 -68t-89.5 -38t-113 -12zM289 745
l88 186h160l-125 -186h-123z" />
    <glyph glyph-name="uni01FF" unicode="&#x1ff;" 
d="M290 -10q73 0 123 19t81 55.5t45 89t14 119.5q0 66 -13 118t-43 88.5t-80.5 55.5t-126.5 19q-77 0 -128 -19t-80.5 -55.5t-42.5 -88.5t-13 -118q0 -67 14 -119.5t44.5 -89t81 -55.5t124.5 -19zM289 107q-36 0 -58.5 14.5t-32.5 50.5t-10 101q0 63 9.5 99t31 51t60.5 15
t61 -15t31 -51t9 -99q0 -65 -9.5 -101t-32 -50.5t-59.5 -14.5zM25 -6h101l60 78l2 -1l265 354h1l100 129h-103l-59 -78l-1 1l-267 -357l-1 1zM224 595l92 194h161l-128 -194h-125z" />
    <glyph glyph-name="uni0200" unicode="&#x200;" horiz-adv-x="665" 
d="M7 0l222 703h204l225 -703h-186l-37 130h-214l-37 -130h-177zM252 269h152l-76 303zM379 745l-106 186h151l72 -186h-117zM180 745l-105 186h150l72 -186h-117z" />
    <glyph glyph-name="uni0201" unicode="&#x201;" horiz-adv-x="559" 
d="M21 149q0 49 18.5 81t57 51t97.5 29.5t140 16.5v33q0 30 -25 44t-72 14q-21 0 -48 -2t-55.5 -7t-58.5 -14l-26 128q45 14 99 22.5t100 8.5q88 0 142.5 -21.5t80 -64.5t25.5 -106v-190q0 -25 7.5 -33t17.5 -8q5 0 11.5 0.5t11.5 2.5l13 -117q-20 -12 -44.5 -19.5
t-54.5 -7.5q-42 0 -68.5 15.5t-39.5 47.5q-26 -19 -52.5 -33.5t-57 -22t-68.5 -7.5q-34 0 -61.5 11t-48 31.5t-31 49.5t-10.5 67zM186 159q0 -32 14 -47t37 -15q16 0 33.5 5t34.5 14.5t29 21.5v102q-37 -3 -64.5 -7.5t-46.5 -13.5t-28 -23.5t-9 -36.5zM122 596l-108 194h150
l75 -194h-117zM321 596l-109 194h151l75 -194h-117z" />
    <glyph glyph-name="uni0202" unicode="&#x202;" horiz-adv-x="665" 
d="M7 0l222 703h204l225 -703h-186l-37 130h-214l-37 -130h-177zM252 269h152l-76 303zM332 921q57 0 96.5 -11t60 -42t22.5 -89v-12.5v-13.5l-92 -1v4.5v4.5q-1 17 -7.5 30t-25.5 20t-54 7t-53.5 -7t-25.5 -20t-8 -30v-4.5v-4.5l-92 1q-1 7 -0.5 14t0.5 13q1 53 19.5 84
t57.5 44t102 13z" />
    <glyph glyph-name="uni0203" unicode="&#x203;" horiz-adv-x="559" 
d="M21 149q0 49 18.5 81t57 51t97.5 29.5t140 16.5v33q0 30 -25 44t-72 14q-21 0 -48 -2t-55.5 -7t-58.5 -14l-26 128q45 14 99 22.5t100 8.5q88 0 142.5 -21.5t80 -64.5t25.5 -106v-190q0 -25 7.5 -33t17.5 -8q5 0 11.5 0.5t11.5 2.5l13 -117q-20 -12 -44.5 -19.5
t-54.5 -7.5q-42 0 -68.5 15.5t-39.5 47.5q-26 -19 -52.5 -33.5t-57 -22t-68.5 -7.5q-34 0 -61.5 11t-48 31.5t-31 49.5t-10.5 67zM186 159q0 -32 14 -47t37 -15q16 0 33.5 5t34.5 14.5t29 21.5v102q-37 -3 -64.5 -7.5t-46.5 -13.5t-28 -23.5t-9 -36.5zM272 765
q57 0 96.5 -11t60 -42t22.5 -89v-12.5v-13.5l-92 -1v4.5v4.5q-1 17 -7.5 30t-25.5 20t-54 7t-53.5 -7t-25.5 -20t-8 -30v-4.5v-4.5l-92 1q-1 7 -0.5 14t0.5 13q1 53 19.5 84t57.5 44t102 13z" />
    <glyph glyph-name="uni0204" unicode="&#x204;" horiz-adv-x="599" 
d="M55 0v700h502v-144h-333v-132h308v-136h-308v-145h351v-143h-520zM363 745l-106 186h151l72 -186h-117zM164 745l-105 186h150l72 -186h-117z" />
    <glyph glyph-name="uni0205" unicode="&#x205;" horiz-adv-x="559" 
d="M293 -10q-64 0 -113 15.5t-83.5 48t-52.5 84t-18 122.5q0 81 20.5 137t57 91t86.5 50.5t109 15.5q120 0 176.5 -59t56.5 -192q0 -10 -0.5 -25.5t-1.5 -30.5q-25 -2 -61 -5t-80 -6t-93 -5t-100 -3q-1 -3 -1 -6v-7q0 -33 13.5 -54.5t41.5 -32t73 -10.5q28 0 59 3t63 8.5
t64 12.5l19 -118q-35 -11 -72 -19t-77 -11.5t-86 -3.5zM197 325q26 0 52 1t49 2.5t41 2.5t30 1q-1 40 -10 63.5t-26 33.5t-43 10q-18 0 -33 -5t-27.5 -17.5t-21 -35t-11.5 -56.5zM140 596l-108 194h150l75 -194h-117zM339 596l-109 194h151l75 -194h-117z" />
    <glyph glyph-name="uni0206" unicode="&#x206;" horiz-adv-x="599" 
d="M55 0v700h502v-144h-333v-132h308v-136h-308v-145h351v-143h-520zM316 921q57 0 96.5 -11t60 -42t22.5 -89v-12.5v-13.5l-92 -1v4.5v4.5q-1 17 -7.5 30t-25.5 20t-54 7t-53.5 -7t-25.5 -20t-8 -30v-4.5v-4.5l-92 1q-1 7 -0.5 14t0.5 13q1 53 19.5 84t57.5 44t102 13z" />
    <glyph glyph-name="uni0207" unicode="&#x207;" horiz-adv-x="559" 
d="M293 -10q-64 0 -113 15.5t-83.5 48t-52.5 84t-18 122.5q0 81 20.5 137t57 91t86.5 50.5t109 15.5q120 0 176.5 -59t56.5 -192q0 -10 -0.5 -25.5t-1.5 -30.5q-25 -2 -61 -5t-80 -6t-93 -5t-100 -3q-1 -3 -1 -6v-7q0 -33 13.5 -54.5t41.5 -32t73 -10.5q28 0 59 3t63 8.5
t64 12.5l19 -118q-35 -11 -72 -19t-77 -11.5t-86 -3.5zM197 325q26 0 52 1t49 2.5t41 2.5t30 1q-1 40 -10 63.5t-26 33.5t-43 10q-18 0 -33 -5t-27.5 -17.5t-21 -35t-11.5 -56.5zM290 765q57 0 96.5 -11t60 -42t22.5 -89v-12.5v-13.5l-92 -1v4.5v4.5q-1 17 -7.5 30t-25.5 20
t-54 7t-53.5 -7t-25.5 -20t-8 -30v-4.5v-4.5l-92 1q-1 7 -0.5 14t0.5 13q1 53 19.5 84t57.5 44t102 13z" />
    <glyph glyph-name="uni0208" unicode="&#x208;" horiz-adv-x="279" 
d="M55 0v700h169v-700h-169zM186 745l-106 186h151l72 -186h-117zM-13 745l-105 186h150l72 -186h-117z" />
    <glyph glyph-name="uni0209" unicode="&#x209;" horiz-adv-x="257" 
d="M46 0v544h165v-544h-165zM-22 596l-108 194h150l75 -194h-117zM177 596l-109 194h151l75 -194h-117z" />
    <glyph glyph-name="uni020A" unicode="&#x20a;" horiz-adv-x="279" 
d="M55 0v700h169v-700h-169zM139 921q57 0 96.5 -11t60 -42t22.5 -89v-12.5v-13.5l-92 -1v4.5v4.5q-1 17 -7.5 30t-25.5 20t-54 7t-53.5 -7t-25.5 -20t-8 -30v-4.5v-4.5l-92 1q-1 7 -0.5 14t0.5 13q1 53 19.5 84t57.5 44t102 13z" />
    <glyph glyph-name="uni020B" unicode="&#x20b;" horiz-adv-x="257" 
d="M46 0v544h165v-544h-165zM128 765q57 0 96.5 -11t60 -42t22.5 -89v-12.5v-13.5l-92 -1v4.5v4.5q-1 17 -7.5 30t-25.5 20t-54 7t-53.5 -7t-25.5 -20t-8 -30v-4.5v-4.5l-92 1q-1 7 -0.5 14t0.5 13q1 53 19.5 84t57.5 44t102 13z" />
    <glyph glyph-name="uni020C" unicode="&#x20c;" horiz-adv-x="702" 
d="M351 123q27 0 50.5 7t41.5 22.5t30.5 41t19 65t6.5 92.5t-6.5 92t-19 64.5t-31 41t-41.5 22t-50 6.5t-49.5 -6.5t-40.5 -21.5t-31 -41t-20 -65.5t-7 -92.5q0 -54 7 -92.5t20 -64.5t31 -41.5t41 -22t49 -6.5zM352 -10q-61 0 -111 12t-89.5 38t-66 68t-41 102t-14.5 140
t13.5 139.5t40 101.5t65.5 68.5t89.5 38.5t112.5 12q63 0 113.5 -12t89 -38t65 -67.5t40 -101t13.5 -138.5q0 -82 -13.5 -142.5t-40.5 -102.5t-66 -68t-89 -38t-111 -12zM397 745l-106 186h151l72 -186h-117zM198 745l-105 186h150l72 -186h-117z" />
    <glyph glyph-name="uni020D" unicode="&#x20d;" 
d="M26 273q0 66 13 118t43 88.5t81 55.5t127 19t127 -19t81 -55.5t43 -88.5t13 -118q0 -67 -14 -120t-45 -89t-81.5 -55t-123.5 -19t-123.5 19t-81.5 55t-45 89t-14 120zM195 273q0 -60 9.5 -95t30.5 -49.5t55 -14.5q35 0 55.5 14.5t30.5 49.5t10 95t-9 94t-30 48.5
t-57 14.5t-56.5 -14.5t-29.5 -48.5t-9 -94zM139 596l-108 194h150l75 -194h-117zM338 596l-109 194h151l75 -194h-117z" />
    <glyph glyph-name="uni020E" unicode="&#x20e;" horiz-adv-x="702" 
d="M351 123q27 0 50.5 7t41.5 22.5t30.5 41t19 65t6.5 92.5t-6.5 92t-19 64.5t-31 41t-41.5 22t-50 6.5t-49.5 -6.5t-40.5 -21.5t-31 -41t-20 -65.5t-7 -92.5q0 -54 7 -92.5t20 -64.5t31 -41.5t41 -22t49 -6.5zM352 -10q-61 0 -111 12t-89.5 38t-66 68t-41 102t-14.5 140
t13.5 139.5t40 101.5t65.5 68.5t89.5 38.5t112.5 12q63 0 113.5 -12t89 -38t65 -67.5t40 -101t13.5 -138.5q0 -82 -13.5 -142.5t-40.5 -102.5t-66 -68t-89 -38t-111 -12zM351 921q57 0 96.5 -11t60 -42t22.5 -89v-12.5v-13.5l-92 -1v4.5v4.5q-1 17 -7.5 30t-25.5 20t-54 7
t-53.5 -7t-25.5 -20t-8 -30v-4.5v-4.5l-92 1q-1 7 -0.5 14t0.5 13q1 53 19.5 84t57.5 44t102 13z" />
    <glyph glyph-name="uni020F" unicode="&#x20f;" 
d="M26 273q0 66 13 118t43 88.5t81 55.5t127 19t127 -19t81 -55.5t43 -88.5t13 -118q0 -67 -14 -120t-45 -89t-81.5 -55t-123.5 -19t-123.5 19t-81.5 55t-45 89t-14 120zM195 273q0 -60 9.5 -95t30.5 -49.5t55 -14.5q35 0 55.5 14.5t30.5 49.5t10 95t-9 94t-30 48.5
t-57 14.5t-56.5 -14.5t-29.5 -48.5t-9 -94zM290 765q57 0 96.5 -11t60 -42t22.5 -89v-12.5v-13.5l-92 -1v4.5v4.5q-1 17 -7.5 30t-25.5 20t-54 7t-53.5 -7t-25.5 -20t-8 -30v-4.5v-4.5l-92 1q-1 7 -0.5 14t0.5 13q1 53 19.5 84t57.5 44t102 13z" />
    <glyph glyph-name="uni0210" unicode="&#x210;" horiz-adv-x="696" 
d="M639 -10q-31 0 -62 8.5t-61.5 26.5t-62.5 46.5t-65.5 68.5t-69.5 93q-6 -1 -16.5 -1h-17.5h-29t-30 1v-233h-170v700q59 4 108.5 6t91 3t76.5 1q83 0 141.5 -12.5t96 -38.5t54.5 -67.5t17 -99.5q0 -59 -18 -101.5t-51.5 -69.5t-78.5 -42q26 -32 49.5 -55t44 -39t39 -23.5
t35.5 -7.5q3 0 8 0.5t8 0.5l1 -162q-7 -1 -16 -2t-22 -1zM329 356q35 0 61 6t42.5 19.5t25 35t8.5 53.5q0 39 -12 62.5t-40.5 34.5t-78.5 11h-27.5t-23 -0.5t-25.5 -1.5t-34 -2v-215q15 -1 27 -1.5l24 -1t24.5 -0.5h28.5zM390 745l-106 186h151l72 -186h-117zM191 745
l-105 186h150l72 -186h-117z" />
    <glyph glyph-name="uni0211" unicode="&#x211;" horiz-adv-x="419" 
d="M194 544v-63q28 26 51 42t47 23.5t53 7.5q16 0 34 -2.5t36 -8.5l-26 -148q-18 4 -36 6.5t-33 2.5q-26 0 -53 -8.5t-58 -30.5v-365h-163v544h148zM71 596l-108 194h150l75 -194h-117zM270 596l-109 194h151l75 -194h-117z" />
    <glyph glyph-name="uni0212" unicode="&#x212;" horiz-adv-x="696" 
d="M639 -10q-31 0 -62 8.5t-61.5 26.5t-62.5 46.5t-65.5 68.5t-69.5 93q-6 -1 -16.5 -1h-17.5h-29t-30 1v-233h-170v700q59 4 108.5 6t91 3t76.5 1q83 0 141.5 -12.5t96 -38.5t54.5 -67.5t17 -99.5q0 -59 -18 -101.5t-51.5 -69.5t-78.5 -42q26 -32 49.5 -55t44 -39t39 -23.5
t35.5 -7.5q3 0 8 0.5t8 0.5l1 -162q-7 -1 -16 -2t-22 -1zM329 356q35 0 61 6t42.5 19.5t25 35t8.5 53.5q0 39 -12 62.5t-40.5 34.5t-78.5 11h-27.5t-23 -0.5t-25.5 -1.5t-34 -2v-215q15 -1 27 -1.5l24 -1t24.5 -0.5h28.5zM343 921q57 0 96.5 -11t60 -42t22.5 -89v-12.5
v-13.5l-92 -1v4.5v4.5q-1 17 -7.5 30t-25.5 20t-54 7t-53.5 -7t-25.5 -20t-8 -30v-4.5v-4.5l-92 1q-1 7 -0.5 14t0.5 13q1 53 19.5 84t57.5 44t102 13z" />
    <glyph glyph-name="uni0213" unicode="&#x213;" horiz-adv-x="419" 
d="M194 544v-63q28 26 51 42t47 23.5t53 7.5q16 0 34 -2.5t36 -8.5l-26 -148q-18 4 -36 6.5t-33 2.5q-26 0 -53 -8.5t-58 -30.5v-365h-163v544h148zM221 765q57 0 96.5 -11t60 -42t22.5 -89v-12.5v-13.5l-92 -1v4.5v4.5q-1 17 -7.5 30t-25.5 20t-54 7t-53.5 -7t-25.5 -20
t-8 -30v-4.5v-4.5l-92 1q-1 7 -0.5 14t0.5 13q1 53 19.5 84t57.5 44t102 13z" />
    <glyph glyph-name="uni0214" unicode="&#x214;" horiz-adv-x="686" 
d="M48 227v473h167v-475q0 -22 6 -39t18 -28t28 -18t35.5 -10.5t40.5 -3.5q23 0 42.5 3.5t35 10.5t27 18.5t17.5 28.5t6 38v475h167v-473q0 -52 -12.5 -91t-37 -67t-60.5 -45t-82.5 -25.5t-102.5 -8.5t-102 8.5t-82 25.5t-60.5 45t-37.5 67t-13 91zM390 745l-106 186h151
l72 -186h-117zM191 745l-105 186h150l72 -186h-117z" />
    <glyph glyph-name="uni0215" unicode="&#x215;" horiz-adv-x="591" 
d="M206 -10q-48 0 -84 17.5t-56.5 54.5t-20.5 92v390h164v-351q0 -34 17 -50.5t47 -16.5q16 0 30.5 3t29 9t31.5 14v392h164v-375q0 -15 3 -23.5t9 -12.5t14 -4q11 0 21 5l14 -118q-13 -7 -29 -13t-35.5 -9.5t-39.5 -3.5q-37 0 -61.5 14.5t-39.5 40.5q-29 -17 -57 -29.5
t-57.5 -19t-63.5 -6.5zM139 596l-108 194h150l75 -194h-117zM338 596l-109 194h151l75 -194h-117z" />
    <glyph glyph-name="uni0216" unicode="&#x216;" horiz-adv-x="686" 
d="M48 227v473h167v-475q0 -22 6 -39t18 -28t28 -18t35.5 -10.5t40.5 -3.5q23 0 42.5 3.5t35 10.5t27 18.5t17.5 28.5t6 38v475h167v-473q0 -52 -12.5 -91t-37 -67t-60.5 -45t-82.5 -25.5t-102.5 -8.5t-102 8.5t-82 25.5t-60.5 45t-37.5 67t-13 91zM343 921q57 0 96.5 -11
t60 -42t22.5 -89v-12.5v-13.5l-92 -1v4.5v4.5q-1 17 -7.5 30t-25.5 20t-54 7t-53.5 -7t-25.5 -20t-8 -30v-4.5v-4.5l-92 1q-1 7 -0.5 14t0.5 13q1 53 19.5 84t57.5 44t102 13z" />
    <glyph glyph-name="uni0217" unicode="&#x217;" horiz-adv-x="591" 
d="M206 -10q-48 0 -84 17.5t-56.5 54.5t-20.5 92v390h164v-351q0 -34 17 -50.5t47 -16.5q16 0 30.5 3t29 9t31.5 14v392h164v-375q0 -15 3 -23.5t9 -12.5t14 -4q11 0 21 5l14 -118q-13 -7 -29 -13t-35.5 -9.5t-39.5 -3.5q-37 0 -61.5 14.5t-39.5 40.5q-29 -17 -57 -29.5
t-57.5 -19t-63.5 -6.5zM290 765q57 0 96.5 -11t60 -42t22.5 -89v-12.5v-13.5l-92 -1v4.5v4.5q-1 17 -7.5 30t-25.5 20t-54 7t-53.5 -7t-25.5 -20t-8 -30v-4.5v-4.5l-92 1q-1 7 -0.5 14t0.5 13q1 53 19.5 84t57.5 44t102 13z" />
    <glyph glyph-name="uni0218" unicode="&#x218;" horiz-adv-x="620" 
d="M570 675l-32 -130q-20 7 -46 13t-54 10t-56 6t-54 2q-59 0 -90 -16t-31 -50q0 -18 10 -31.5t32 -24.5t57 -22t84 -24q53 -13 92.5 -31.5t66 -43t40 -57t13.5 -75.5q0 -68 -36 -115t-106 -71.5t-172 -24.5q-34 0 -70 3t-72.5 8.5t-70.5 14t-64 19.5l32 129q30 -10 62 -18
t65 -13.5t65.5 -8.5t61.5 -3q45 0 73.5 7.5t42 22.5t13.5 37q0 19 -13.5 32t-40.5 24.5t-67.5 23.5t-93.5 28q-45 15 -78.5 34t-56.5 43.5t-34.5 56.5t-11.5 72q0 45 17.5 83t53 66t92.5 43.5t135 15.5q46 0 91.5 -5t84.5 -13t66 -17zM200 -211q17 30 25.5 62t8.5 61
q0 11 -1 20t-4 17h153q2 -6 3 -12t1 -13q0 -26 -8 -51t-21 -46t-30 -38h-127z" />
    <glyph glyph-name="uni0219" unicode="&#x219;" horiz-adv-x="480" 
d="M20 21l18 118q18 -6 41.5 -11.5t48.5 -9.5t49.5 -6t45.5 -2q39 0 57.5 11.5t18.5 32.5q0 14 -9.5 22.5t-27.5 15.5t-43 12.5t-55 13.5q-34 7 -59 20.5t-42.5 33t-26 45t-8.5 57.5q0 90 57 135t169 45q34 0 65 -3.5t59 -9.5t51 -15l-20 -120q-22 8 -45.5 13t-50 8t-59.5 3
q-36 0 -54 -10t-18 -31q0 -13 7 -20.5t21 -13t34.5 -10t47.5 -10.5q36 -7 66.5 -19t52.5 -30.5t34.5 -46.5t12.5 -69q0 -40 -12.5 -70t-34.5 -51t-51.5 -34t-65.5 -19t-74 -6q-36 0 -70 3.5t-66 10t-64 17.5zM136 -211q17 30 25.5 62t8.5 61q0 11 -1 20t-4 17h153
q2 -6 3 -12t1 -13q0 -26 -8 -51t-21 -46t-30 -38h-127z" />
    <glyph glyph-name="uni021A" unicode="&#x21a;" horiz-adv-x="612" 
d="M597 551h-206v-551h-169v551h-206v149h581v-149zM202 -211q17 30 25.5 62t8.5 61q0 11 -1 20t-4 17h153q2 -6 3 -12t1 -13q0 -26 -8 -51t-21 -46t-30 -38h-127z" />
    <glyph glyph-name="uni021B" unicode="&#x21b;" horiz-adv-x="413" 
d="M249 -10q-54 0 -91 20.5t-55.5 64t-18.5 113.5v237h-78v109l78 10l19 116h144v-116h137v-119h-137v-224q0 -40 14.5 -56.5t45.5 -16.5q17 0 36 3.5t41 8.5l22 -124q-42 -14 -81 -20t-76 -6zM129 -211q17 30 25.5 62t8.5 61q0 11 -1 20t-4 17h153q2 -6 3 -12t1 -13
q0 -26 -8 -51t-21 -46t-30 -38h-127z" />
    <glyph glyph-name="uni022A" unicode="&#x22a;" horiz-adv-x="702" 
d="M351 123q27 0 50.5 7t41.5 22.5t30.5 41t19 65t6.5 92.5t-6.5 92t-19 64.5t-31 41t-41.5 22t-50 6.5t-49.5 -6.5t-40.5 -21.5t-31 -41t-20 -65.5t-7 -92.5q0 -54 7 -92.5t20 -64.5t31 -41.5t41 -22t49 -6.5zM352 -10q-61 0 -111 12t-89.5 38t-66 68t-41 102t-14.5 140
t13.5 139.5t40 101.5t65.5 68.5t89.5 38.5t112.5 12q63 0 113.5 -12t89 -38t65 -67.5t40 -101t13.5 -138.5q0 -82 -13.5 -142.5t-40.5 -102.5t-66 -68t-89 -38t-111 -12zM450 751q-34 0 -51.5 16.5t-17.5 56.5t17.5 57.5t51.5 17.5q35 0 52 -17.5t17 -57.5t-17 -56.5
t-52 -16.5zM252 751q-35 0 -52 16.5t-17 56.5t17 57.5t52 17.5q34 0 51.5 -17.5t17.5 -57.5t-17.5 -56.5t-51.5 -16.5zM200 947v115h301v-115h-301z" />
    <glyph glyph-name="uni022B" unicode="&#x22b;" 
d="M26 273q0 66 13 118t43 88.5t81 55.5t127 19t127 -19t81 -55.5t43 -88.5t13 -118q0 -67 -14 -120t-45 -89t-81.5 -55t-123.5 -19t-123.5 19t-81.5 55t-45 89t-14 120zM195 273q0 -60 9.5 -95t30.5 -49.5t55 -14.5q35 0 55.5 14.5t30.5 49.5t10 95t-9 94t-30 48.5
t-57 14.5t-56.5 -14.5t-29.5 -48.5t-9 -94zM389 612q-34 0 -51.5 16.5t-17.5 56.5t17.5 57.5t51.5 17.5q35 0 52 -17.5t17 -57.5t-17 -56.5t-52 -16.5zM191 612q-35 0 -52 16.5t-17 56.5t17 57.5t52 17.5q34 0 51.5 -17.5t17.5 -57.5t-17.5 -56.5t-51.5 -16.5zM139 806v115
h301v-115h-301z" />
    <glyph glyph-name="uni022C" unicode="&#x22c;" horiz-adv-x="702" 
d="M351 123q27 0 50.5 7t41.5 22.5t30.5 41t19 65t6.5 92.5t-6.5 92t-19 64.5t-31 41t-41.5 22t-50 6.5t-49.5 -6.5t-40.5 -21.5t-31 -41t-20 -65.5t-7 -92.5q0 -54 7 -92.5t20 -64.5t31 -41.5t41 -22t49 -6.5zM352 -10q-61 0 -111 12t-89.5 38t-66 68t-41 102t-14.5 140
t13.5 139.5t40 101.5t65.5 68.5t89.5 38.5t112.5 12q63 0 113.5 -12t89 -38t65 -67.5t40 -101t13.5 -138.5q0 -82 -13.5 -142.5t-40.5 -102.5t-66 -68t-89 -38t-111 -12zM168 756q-2 12 -2.5 24t-0.5 22q0 52 26.5 85t80.5 33q23 0 43.5 -7.5t39 -17t33.5 -17.5t28 -8
q10 0 16 4.5t9.5 13.5t3.5 21q0 3 -0.5 8t-1.5 8h88q2 -12 2.5 -24t0.5 -23q0 -54 -26.5 -86t-80.5 -32q-23 0 -43.5 7.5t-38.5 17t-33 17t-29 7.5q-13 0 -20.5 -9.5t-7.5 -27.5q0 -3 0.5 -7.5t1.5 -8.5h-89zM201 974v115h301v-115h-301z" />
    <glyph glyph-name="uni022D" unicode="&#x22d;" 
d="M26 273q0 66 13 118t43 88.5t81 55.5t127 19t127 -19t81 -55.5t43 -88.5t13 -118q0 -67 -14 -120t-45 -89t-81.5 -55t-123.5 -19t-123.5 19t-81.5 55t-45 89t-14 120zM195 273q0 -60 9.5 -95t30.5 -49.5t55 -14.5q35 0 55.5 14.5t30.5 49.5t10 95t-9 94t-30 48.5
t-57 14.5t-56.5 -14.5t-29.5 -48.5t-9 -94zM108 599q-2 12 -2.5 24t-0.5 22q0 60 26 89t80 29q22 0 42.5 -7t39 -16.5t34.5 -16.5t30 -7q9 0 15.5 5t10 13t3.5 17q0 3 -0.5 8t-0.5 8h86q2 -12 2.5 -23.5t0.5 -22.5q0 -60 -26 -89.5t-80 -29.5q-20 0 -40.5 7t-39.5 16.5
t-36.5 16.5t-29.5 7q-14 0 -21.5 -9t-7.5 -24q0 -4 0.5 -9t0.5 -8h-86zM139 819v115h301v-115h-301z" />
    <glyph glyph-name="uni0230" unicode="&#x230;" horiz-adv-x="702" 
d="M351 123q27 0 50.5 7t41.5 22.5t30.5 41t19 65t6.5 92.5t-6.5 92t-19 64.5t-31 41t-41.5 22t-50 6.5t-49.5 -6.5t-40.5 -21.5t-31 -41t-20 -65.5t-7 -92.5q0 -54 7 -92.5t20 -64.5t31 -41.5t41 -22t49 -6.5zM352 -10q-61 0 -111 12t-89.5 38t-66 68t-41 102t-14.5 140
t13.5 139.5t40 101.5t65.5 68.5t89.5 38.5t112.5 12q63 0 113.5 -12t89 -38t65 -67.5t40 -101t13.5 -138.5q0 -82 -13.5 -142.5t-40.5 -102.5t-66 -68t-89 -38t-111 -12zM351 761q-34 0 -51 16.5t-17 54.5q0 40 17 56t51 16t50.5 -16t16.5 -56q0 -38 -16.5 -54.5
t-50.5 -16.5zM200 947v115h301v-115h-301z" />
    <glyph glyph-name="uni0231" unicode="&#x231;" 
d="M26 273q0 66 13 118t43 88.5t81 55.5t127 19t127 -19t81 -55.5t43 -88.5t13 -118q0 -67 -14 -120t-45 -89t-81.5 -55t-123.5 -19t-123.5 19t-81.5 55t-45 89t-14 120zM195 273q0 -60 9.5 -95t30.5 -49.5t55 -14.5q35 0 55.5 14.5t30.5 49.5t10 95t-9 94t-30 48.5
t-57 14.5t-56.5 -14.5t-29.5 -48.5t-9 -94zM290 615q-34 0 -51 16.5t-17 54.5q0 40 17 56t51 16t50.5 -16t16.5 -56q0 -38 -16.5 -54.5t-50.5 -16.5zM139 806v115h301v-115h-301z" />
    <glyph glyph-name="uni0232" unicode="&#x232;" horiz-adv-x="650" 
d="M241 0v245l-241 454l190 2l136 -351l134 351l189 -2l-239 -454v-245h-169zM175 770v115h301v-115h-301z" />
    <glyph glyph-name="uni0233" unicode="&#x233;" horiz-adv-x="560" 
d="M162 -209l67 209h-22l-200 543l179 3l115 -414l109 414l171 -2l-247 -755zM129 627v115h301v-115h-301z" />
    <glyph glyph-name="uni0237" unicode="&#x237;" horiz-adv-x="263" 
d="M217 28q0 -111 -41.5 -171t-136.5 -68q-11 -1 -25 -1t-28.5 1.5t-27.5 3.5l11 137q8 -1 14 -1t12 2q31 7 45 31.5t14 74.5v507h163v-516z" />
    <glyph glyph-name="uni0259" unicode="&#x259;" horiz-adv-x="559" 
d="M30 294q22 1 56.5 4t78 6t94 5.5t104.5 4.5v6v6q0 37 -14.5 57.5t-42 29t-66.5 8.5q-23 0 -54 -3t-65.5 -8t-69.5 -13l-20 124q35 11 72 18t78 11t88 4q87 0 146 -29t88.5 -88.5t29.5 -150.5q0 -78 -19 -134t-55 -92t-84.5 -53t-106.5 -17q-85 0 -137.5 27.5t-77.5 83
t-25 140.5q0 10 0.5 25.5t1.5 27.5zM363 222q-26 0 -51.5 -0.5t-48 -1.5t-40 -2.5t-28.5 -1.5q3 -62 22.5 -86t55.5 -24q16 0 30.5 4.5t27 17t21 35t11.5 59.5z" />
    <glyph glyph-name="uni02B9" unicode="&#x2b9;" horiz-adv-x="219" 
d="M19 428l34 272h146l-51 -272h-129z" />
    <glyph glyph-name="uni02BA" unicode="&#x2ba;" horiz-adv-x="414" 
d="M19 428l34 272h146l-51 -272h-129zM214 428l34 272h146l-51 -272h-129z" />
    <glyph glyph-name="uni02BC" unicode="&#x2bc;" horiz-adv-x="223" 
d="M141 430l-121 15q17 53 25.5 98.5t8.5 93.5q0 16 -1 31.5t-2 31.5h146q1 -9 1 -18v-17q0 -75 -14 -130t-43 -105z" />
    <glyph glyph-name="uni02C6" unicode="&#x2c6;" horiz-adv-x="449" 
d="M35 596l101 194h180l98 -194h-132l-58 115l-58 -115h-131z" />
    <glyph glyph-name="uni02C7" unicode="&#x2c7;" horiz-adv-x="449" 
d="M414 789l-101 -194h-180l-98 194h132l58 -115l58 115h131z" />
    <glyph glyph-name="uni02D8" unicode="&#x2d8;" horiz-adv-x="449" 
d="M225 601q-57 0 -96.5 11t-60 42t-22.5 89v12.5v13.5l92 1v-4.5v-4.5q1 -17 7.5 -30t25.5 -20t54 -7t53.5 7t25.5 20t8 30v4.5v4.5l92 -1q1 -7 0.5 -14t-0.5 -13q-1 -53 -19.5 -84t-57.5 -44t-102 -13z" />
    <glyph glyph-name="uni02D9" unicode="&#x2d9;" horiz-adv-x="449" 
d="M225 615q-34 0 -51 16.5t-17 54.5q0 40 17 56t51 16t50.5 -16t16.5 -56q0 -38 -16.5 -54.5t-50.5 -16.5z" />
    <glyph glyph-name="uni02DA" unicode="&#x2da;" horiz-adv-x="449" 
d="M225 595q-57 0 -86.5 26t-29.5 72q0 48 29.5 73.5t86.5 25.5t86.5 -25.5t29.5 -73.5q0 -46 -29.5 -72t-86.5 -26zM225 660q33 0 33 34q0 33 -33 33q-34 0 -34 -33q0 -34 34 -34z" />
    <glyph glyph-name="uni02DB" unicode="&#x2db;" horiz-adv-x="449" 
d="M-233 -220q-35 0 -61 11.5t-40.5 33.5t-14.5 54q0 30 13 55t35 45t48 32l88 -11q-20 -12 -33 -24t-19.5 -25t-6.5 -28q0 -19 10.5 -26.5t25.5 -7.5q7 0 11.5 1t8.5 2l7 -101q-13 -6 -31 -8.5t-41 -2.5z" />
    <glyph glyph-name="uni02DC" unicode="&#x2dc;" horiz-adv-x="449" 
d="M43 599q-2 12 -2.5 24t-0.5 22q0 60 26 89t80 29q22 0 42.5 -7t39 -16.5t34.5 -16.5t30 -7q9 0 15.5 5t10 13t3.5 17q0 3 -0.5 8t-0.5 8h86q2 -12 2.5 -23.5t0.5 -22.5q0 -60 -26 -89.5t-80 -29.5q-20 0 -40.5 7t-39.5 16.5t-36.5 16.5t-29.5 7q-14 0 -21.5 -9t-7.5 -24
q0 -4 0.5 -9t0.5 -8h-86z" />
    <glyph glyph-name="uni02DD" unicode="&#x2dd;" horiz-adv-x="449" 
d="M212 596l75 194h150l-109 -194h-116zM13 596l75 194h151l-109 -194h-117z" />
    <glyph glyph-name="uni0300" unicode="&#x300;" horiz-adv-x="0" 
d="M-356 596l-127 194h166l92 -194h-131z" />
    <glyph glyph-name="uni0301" unicode="&#x301;" horiz-adv-x="0" 
d="M-358 595l92 194h161l-128 -194h-125z" />
    <glyph glyph-name="uni0302" unicode="&#x302;" horiz-adv-x="0" 
d="M-482 596l101 194h180l98 -194h-132l-58 115l-58 -115h-131z" />
    <glyph glyph-name="uni0303" unicode="&#x303;" horiz-adv-x="0" 
d="M-474 599q-2 12 -2.5 24t-0.5 22q0 60 26 89t80 29q22 0 42.5 -7t39 -16.5t34.5 -16.5t30 -7q9 0 15.5 5t10 13t3.5 17q0 3 -0.5 8t-0.5 8h86q2 -12 2.5 -23.5t0.5 -22.5q0 -60 -26 -89.5t-80 -29.5q-20 0 -40.5 7t-39.5 16.5t-36.5 16.5t-29.5 7q-14 0 -21.5 -9
t-7.5 -24q0 -4 0.5 -9t0.5 -8h-86z" />
    <glyph glyph-name="uni0304" unicode="&#x304;" horiz-adv-x="0" 
d="M-443 627v115h301v-115h-301z" />
    <glyph glyph-name="uni0306" unicode="&#x306;" horiz-adv-x="0" 
d="M-292 601q-57 0 -96.5 11t-60 42t-22.5 89v12.5v13.5l92 1v-4.5v-4.5q1 -17 7.5 -30t25.5 -20t54 -7t53.5 7t25.5 20t8 30v4.5v4.5l92 -1q1 -7 0.5 -14t-0.5 -13q-1 -53 -19.5 -84t-57.5 -44t-102 -13z" />
    <glyph glyph-name="uni0307" unicode="&#x307;" horiz-adv-x="0" 
d="M-292 615q-34 0 -51 16.5t-17 54.5q0 40 17 56t51 16t50.5 -16t16.5 -56q0 -38 -16.5 -54.5t-50.5 -16.5z" />
    <glyph glyph-name="uni0308" unicode="&#x308;" horiz-adv-x="0" 
d="M-193 612q-34 0 -51.5 16.5t-17.5 56.5t17.5 57.5t51.5 17.5q35 0 52 -17.5t17 -57.5t-17 -56.5t-52 -16.5zM-391 612q-35 0 -52 16.5t-17 56.5t17 57.5t52 17.5q34 0 51.5 -17.5t17.5 -57.5t-17.5 -56.5t-51.5 -16.5z" />
    <glyph glyph-name="uni0309" unicode="&#x309;" horiz-adv-x="0" 
d="M-332 593l-10 63q30 4 40 13t10 20q0 15 -11 21.5t-30 6.5q-15 0 -27.5 -2.5l-27.5 -5.5l-10 82q11 3 27 6.5t33.5 6t32.5 2.5q55 0 87.5 -23.5t32.5 -71.5q0 -43 -32.5 -75t-114.5 -43z" />
    <glyph glyph-name="uni030A" unicode="&#x30a;" horiz-adv-x="0" 
d="M-292 595q-57 0 -86.5 26t-29.5 72q0 48 29.5 73.5t86.5 25.5t86.5 -25.5t29.5 -73.5q0 -46 -29.5 -72t-86.5 -26zM-292 660q33 0 33 34q0 33 -33 33q-34 0 -34 -33q0 -34 34 -34z" />
    <glyph glyph-name="uni030B" unicode="&#x30b;" horiz-adv-x="0" 
d="M-251 596l75 194h150l-109 -194h-116zM-450 596l75 194h151l-109 -194h-117z" />
    <glyph glyph-name="uni030C" unicode="&#x30c;" horiz-adv-x="0" 
d="M-103 789l-101 -194h-180l-98 194h132l58 -115l58 115h131z" />
    <glyph glyph-name="uni030F" unicode="&#x30f;" horiz-adv-x="0" 
d="M-443 596l-108 194h150l75 -194h-117zM-244 596l-109 194h151l75 -194h-117z" />
    <glyph glyph-name="uni0311" unicode="&#x311;" horiz-adv-x="0" 
d="M-293 765q57 0 96.5 -11t60 -42t22.5 -89v-12.5v-13.5l-92 -1v4.5v4.5q-1 17 -7.5 30t-25.5 20t-54 7t-53.5 -7t-25.5 -20t-8 -30v-4.5v-4.5l-92 1q-1 7 -0.5 14t0.5 13q1 53 19.5 84t57.5 44t102 13z" />
    <glyph glyph-name="uni0312" unicode="&#x312;" horiz-adv-x="0" 
d="M-216 594h-156q-4 8 -7 20t-3 26q0 38 15.5 70t43.5 59h129q-21 -31 -29 -59t-8 -56q0 -18 4 -34t11 -26z" />
    <glyph glyph-name="uni031B" unicode="&#x31b;" horiz-adv-x="0" 
d="M-237 442v102h9q28 0 43.5 12t19 38t-5.5 68l138 2q11 -54 5 -95.5t-28.5 -69.5t-61.5 -42.5t-95 -14.5h-24z" />
    <glyph glyph-name="uni0323" unicode="&#x323;" horiz-adv-x="0" 
d="M-292 -204q-34 0 -51 16.5t-17 54.5q0 40 17 56t51 16t50.5 -16t16.5 -56q0 -38 -16.5 -54.5t-50.5 -16.5z" />
    <glyph glyph-name="uni0324" unicode="&#x324;" horiz-adv-x="0" 
d="M-193 -210q-34 0 -51.5 16.5t-17.5 56.5t17.5 57.5t51.5 17.5q35 0 52 -17.5t17 -57.5t-17 -56.5t-52 -16.5zM-391 -210q-35 0 -52 16.5t-17 56.5t17 57.5t52 17.5q34 0 51.5 -17.5t17.5 -57.5t-17.5 -56.5t-51.5 -16.5z" />
    <glyph glyph-name="uni0326" unicode="&#x326;" horiz-adv-x="0" 
d="M-396 -211q17 30 25.5 62t8.5 61q0 11 -1 20t-4 17h153q2 -6 3 -12t1 -13q0 -26 -8 -51t-21 -46t-30 -38h-127z" />
    <glyph glyph-name="uni0327" unicode="&#x327;" horiz-adv-x="0" 
d="M-409 -109q14 -4 25.5 -6t20.5 -2q23 0 36.5 11.5t13.5 33.5q0 11 -5 24.5t-13.5 27.5t-20.5 26h118q12 -14 21 -33t14 -39t5 -39q0 -31 -12.5 -57.5t-41 -42t-77.5 -15.5q-19 0 -41 3t-46 11z" />
    <glyph glyph-name="uni0328" unicode="&#x328;" horiz-adv-x="0" 
d="M-282 -220q-35 0 -61 11.5t-40.5 33.5t-14.5 54q0 30 13 55t35 45t48 32l88 -11q-20 -12 -33 -24t-19.5 -25t-6.5 -28q0 -19 10.5 -26.5t25.5 -7.5q7 0 11.5 1t8.5 2l7 -101q-13 -6 -31 -8.5t-41 -2.5z" />
    <glyph glyph-name="uni032E" unicode="&#x32e;" horiz-adv-x="0" 
d="M-292 -223q-57 0 -96.5 11t-60 42t-22.5 89v12.5v13.5l92 1v-4.5v-4.5q1 -17 7.5 -30t25.5 -20t54 -7t53.5 7t25.5 20t8 30v4.5v4.5l92 -1q1 -7 0.5 -14t-0.5 -13q-1 -53 -19.5 -84t-57.5 -44t-102 -13z" />
    <glyph glyph-name="uni0331" unicode="&#x331;" horiz-adv-x="0" 
d="M-443 -196v115h301v-115h-301z" />
    <glyph glyph-name="uni0335" unicode="&#x335;" horiz-adv-x="0" 
d="M-327 288v124h378v-124h-378z" />
    <glyph glyph-name="uni03C0" unicode="&#x3c0;" horiz-adv-x="590" 
d="M467 -10q-63 0 -90 34.5t-27 106.5v263h-83q-4 -38 -9.5 -78t-11 -82t-11.5 -82.5t-12 -78.5t-11 -73h-158q6 33 12.5 71t13.5 79.5t13.5 83t12.5 81.5t11 75q-19 -2 -42 -7.5t-41 -16.5l1 138q21 15 44 23.5t51 12.5t62 4h369v-150h-57v-211q0 -13 2.5 -24.5t8 -17.5
t14.5 -6q5 0 12 0.5t12 3.5l13 -123q-19 -12 -44 -19t-55 -7z" />
    <glyph glyph-name="uni1E80" unicode="&#x1e80;" horiz-adv-x="828" 
d="M681 0h-176l-93 439l-98 -439h-170l-142 699l180 2l57 -537l102 497h150l97 -496l57 536l182 -2zM352 745l-125 186h166l89 -186h-130z" />
    <glyph glyph-name="uni1E81" unicode="&#x1e81;" horiz-adv-x="800" 
d="M132 0l-123 543l163 2l63 -398l78 397h174l79 -398l65 399l161 -2l-129 -543h-188l-77 360l-74 -360h-192zM337 596l-127 194h166l92 -194h-131z" />
    <glyph glyph-name="uni1E82" unicode="&#x1e82;" horiz-adv-x="828" 
d="M681 0h-176l-93 439l-98 -439h-170l-142 699l180 2l57 -537l102 497h150l97 -496l57 536l182 -2zM352 745l88 186h160l-125 -186h-123z" />
    <glyph glyph-name="uni1E83" unicode="&#x1e83;" horiz-adv-x="800" 
d="M132 0l-123 543l163 2l63 -398l78 397h174l79 -398l65 399l161 -2l-129 -543h-188l-77 360l-74 -360h-192zM335 595l92 194h161l-128 -194h-125z" />
    <glyph glyph-name="uni1E84" unicode="&#x1e84;" horiz-adv-x="828" 
d="M681 0h-176l-93 439l-98 -439h-170l-142 699l180 2l57 -537l102 497h150l97 -496l57 536l182 -2zM514 751q-34 0 -51.5 16.5t-17.5 56.5t17.5 57.5t51.5 17.5q35 0 52 -17.5t17 -57.5t-17 -56.5t-52 -16.5zM316 751q-35 0 -52 16.5t-17 56.5t17 57.5t52 17.5
q34 0 51.5 -17.5t17.5 -57.5t-17.5 -56.5t-51.5 -16.5z" />
    <glyph glyph-name="uni1E85" unicode="&#x1e85;" horiz-adv-x="800" 
d="M132 0l-123 543l163 2l63 -398l78 397h174l79 -398l65 399l161 -2l-129 -543h-188l-77 360l-74 -360h-192zM500 612q-34 0 -51.5 16.5t-17.5 56.5t17.5 57.5t51.5 17.5q35 0 52 -17.5t17 -57.5t-17 -56.5t-52 -16.5zM302 612q-35 0 -52 16.5t-17 56.5t17 57.5t52 17.5
q34 0 51.5 -17.5t17.5 -57.5t-17.5 -56.5t-51.5 -16.5z" />
    <glyph glyph-name="uni1E9E" unicode="&#x1e9e;" horiz-adv-x="1228" 
d="M570 675l-32 -130q-20 7 -46 13t-54 10t-56 6t-54 2q-59 0 -90 -16t-31 -50q0 -18 10 -31.5t32 -24.5t57 -22t84 -24q53 -13 92.5 -31.5t66 -43t40 -57t13.5 -75.5q0 -68 -36 -115t-106 -71.5t-172 -24.5q-34 0 -70 3t-72.5 8.5t-70.5 14t-64 19.5l32 129q30 -10 62 -18
t65 -13.5t65.5 -8.5t61.5 -3q45 0 73.5 7.5t42 22.5t13.5 37q0 19 -13.5 32t-40.5 24.5t-67.5 23.5t-93.5 28q-45 15 -78.5 34t-56.5 43.5t-34.5 56.5t-11.5 72q0 45 17.5 83t53 66t92.5 43.5t135 15.5q46 0 91.5 -5t84.5 -13t66 -17zM1178 675l-32 -130q-20 7 -46 13
t-54 10t-56 6t-54 2q-59 0 -90 -16t-31 -50q0 -18 10 -31.5t32 -24.5t57 -22t84 -24q53 -13 92.5 -31.5t66 -43t40 -57t13.5 -75.5q0 -68 -36 -115t-106 -71.5t-172 -24.5q-34 0 -70 3t-72.5 8.5t-70.5 14t-64 19.5l32 129q30 -10 62 -18t65 -13.5t65.5 -8.5t61.5 -3
q45 0 73.5 7.5t42 22.5t13.5 37q0 19 -13.5 32t-40.5 24.5t-67.5 23.5t-93.5 28q-45 15 -78.5 34t-56.5 43.5t-34.5 56.5t-11.5 72q0 45 17.5 83t53 66t92.5 43.5t135 15.5q46 0 91.5 -5t84.5 -13t66 -17z" />
    <glyph glyph-name="uni1EA0" unicode="&#x1ea0;" horiz-adv-x="665" 
d="M7 0l222 703h204l225 -703h-186l-37 130h-214l-37 -130h-177zM252 269h152l-76 303zM328 -188q-34 0 -51 16.5t-17 54.5q0 40 17 56t51 16t50.5 -16t16.5 -56q0 -38 -16.5 -54.5t-50.5 -16.5z" />
    <glyph glyph-name="uni1EA1" unicode="&#x1ea1;" horiz-adv-x="559" 
d="M21 149q0 49 18.5 81t57 51t97.5 29.5t140 16.5v33q0 30 -25 44t-72 14q-21 0 -48 -2t-55.5 -7t-58.5 -14l-26 128q45 14 99 22.5t100 8.5q88 0 142.5 -21.5t80 -64.5t25.5 -106v-190q0 -25 7.5 -33t17.5 -8q5 0 11.5 0.5t11.5 2.5l13 -117q-20 -12 -44.5 -19.5
t-54.5 -7.5q-42 0 -68.5 15.5t-39.5 47.5q-26 -19 -52.5 -33.5t-57 -22t-68.5 -7.5q-34 0 -61.5 11t-48 31.5t-31 49.5t-10.5 67zM186 159q0 -32 14 -47t37 -15q16 0 33.5 5t34.5 14.5t29 21.5v102q-37 -3 -64.5 -7.5t-46.5 -13.5t-28 -23.5t-9 -36.5zM276 -204
q-34 0 -51 16.5t-17 54.5q0 40 17 56t51 16t50.5 -16t16.5 -56q0 -38 -16.5 -54.5t-50.5 -16.5z" />
    <glyph glyph-name="uni1EA2" unicode="&#x1ea2;" horiz-adv-x="665" 
d="M7 0l222 703h204l225 -703h-186l-37 130h-214l-37 -130h-177zM252 269h152l-76 303zM292 747l-10 63q30 4 40 13t10 20q0 15 -11 21.5t-30 6.5q-15 0 -27.5 -2.5l-27.5 -5.5l-10 82q11 3 27 6.5t33.5 6t32.5 2.5q55 0 87.5 -23.5t32.5 -71.5q0 -43 -32.5 -75t-114.5 -43z
" />
    <glyph glyph-name="uni1EA3" unicode="&#x1ea3;" horiz-adv-x="559" 
d="M21 149q0 49 18.5 81t57 51t97.5 29.5t140 16.5v33q0 30 -25 44t-72 14q-21 0 -48 -2t-55.5 -7t-58.5 -14l-26 128q45 14 99 22.5t100 8.5q88 0 142.5 -21.5t80 -64.5t25.5 -106v-190q0 -25 7.5 -33t17.5 -8q5 0 11.5 0.5t11.5 2.5l13 -117q-20 -12 -44.5 -19.5
t-54.5 -7.5q-42 0 -68.5 15.5t-39.5 47.5q-26 -19 -52.5 -33.5t-57 -22t-68.5 -7.5q-34 0 -61.5 11t-48 31.5t-31 49.5t-10.5 67zM186 159q0 -32 14 -47t37 -15q16 0 33.5 5t34.5 14.5t29 21.5v102q-37 -3 -64.5 -7.5t-46.5 -13.5t-28 -23.5t-9 -36.5zM233 593l-10 63
q30 4 40 13t10 20q0 15 -11 21.5t-30 6.5q-15 0 -27.5 -2.5l-27.5 -5.5l-10 82q11 3 27 6.5t33.5 6t32.5 2.5q55 0 87.5 -23.5t32.5 -71.5q0 -43 -32.5 -75t-114.5 -43z" />
    <glyph glyph-name="uni1EA4" unicode="&#x1ea4;" horiz-adv-x="665" 
d="M7 0l222 703h204l225 -703h-186l-37 130h-214l-37 -130h-177zM252 269h152l-76 303zM143 745l96 186h189l94 -186h-131l-59 116l-59 -116h-130zM467 898l88 186h160l-125 -186h-123z" />
    <glyph glyph-name="uni1EA5" unicode="&#x1ea5;" horiz-adv-x="559" 
d="M21 149q0 49 18.5 81t57 51t97.5 29.5t140 16.5v33q0 30 -25 44t-72 14q-21 0 -48 -2t-55.5 -7t-58.5 -14l-26 128q45 14 99 22.5t100 8.5q88 0 142.5 -21.5t80 -64.5t25.5 -106v-190q0 -25 7.5 -33t17.5 -8q5 0 11.5 0.5t11.5 2.5l13 -117q-20 -12 -44.5 -19.5
t-54.5 -7.5q-42 0 -68.5 15.5t-39.5 47.5q-26 -19 -52.5 -33.5t-57 -22t-68.5 -7.5q-34 0 -61.5 11t-48 31.5t-31 49.5t-10.5 67zM186 159q0 -32 14 -47t37 -15q16 0 33.5 5t34.5 14.5t29 21.5v102q-37 -3 -64.5 -7.5t-46.5 -13.5t-28 -23.5t-9 -36.5zM83 596l101 194h180
l98 -194h-132l-58 115l-58 -115h-131zM409 753l88 186h160l-125 -186h-123z" />
    <glyph glyph-name="uni1EA6" unicode="&#x1ea6;" horiz-adv-x="665" 
d="M7 0l222 703h204l225 -703h-186l-37 130h-214l-37 -130h-177zM252 269h152l-76 303zM143 745l96 186h189l94 -186h-131l-59 116l-59 -116h-130zM500 900l-125 186h166l89 -186h-130z" />
    <glyph glyph-name="uni1EA7" unicode="&#x1ea7;" horiz-adv-x="559" 
d="M21 149q0 49 18.5 81t57 51t97.5 29.5t140 16.5v33q0 30 -25 44t-72 14q-21 0 -48 -2t-55.5 -7t-58.5 -14l-26 128q45 14 99 22.5t100 8.5q88 0 142.5 -21.5t80 -64.5t25.5 -106v-190q0 -25 7.5 -33t17.5 -8q5 0 11.5 0.5t11.5 2.5l13 -117q-20 -12 -44.5 -19.5
t-54.5 -7.5q-42 0 -68.5 15.5t-39.5 47.5q-26 -19 -52.5 -33.5t-57 -22t-68.5 -7.5q-34 0 -61.5 11t-48 31.5t-31 49.5t-10.5 67zM186 159q0 -32 14 -47t37 -15q16 0 33.5 5t34.5 14.5t29 21.5v102q-37 -3 -64.5 -7.5t-46.5 -13.5t-28 -23.5t-9 -36.5zM83 596l101 194h180
l98 -194h-132l-58 115l-58 -115h-131zM437 753l-125 186h166l89 -186h-130z" />
    <glyph glyph-name="uni1EA8" unicode="&#x1ea8;" horiz-adv-x="665" 
d="M7 0l222 703h204l225 -703h-186l-37 130h-214l-37 -130h-177zM252 269h152l-76 303zM143 745l96 186h189l94 -186h-131l-59 116l-59 -116h-130zM500 873l-10 63q30 4 40 13t10 20q0 15 -11 21.5t-30 6.5q-15 0 -27.5 -2.5l-27.5 -5.5l-10 82q11 3 27 6.5t33.5 6t32.5 2.5
q55 0 87.5 -23.5t32.5 -71.5q0 -43 -32.5 -75t-114.5 -43z" />
    <glyph glyph-name="uni1EA9" unicode="&#x1ea9;" horiz-adv-x="559" 
d="M21 149q0 49 18.5 81t57 51t97.5 29.5t140 16.5v33q0 30 -25 44t-72 14q-21 0 -48 -2t-55.5 -7t-58.5 -14l-26 128q45 14 99 22.5t100 8.5q88 0 142.5 -21.5t80 -64.5t25.5 -106v-190q0 -25 7.5 -33t17.5 -8q5 0 11.5 0.5t11.5 2.5l13 -117q-20 -12 -44.5 -19.5
t-54.5 -7.5q-42 0 -68.5 15.5t-39.5 47.5q-26 -19 -52.5 -33.5t-57 -22t-68.5 -7.5q-34 0 -61.5 11t-48 31.5t-31 49.5t-10.5 67zM186 159q0 -32 14 -47t37 -15q16 0 33.5 5t34.5 14.5t29 21.5v102q-37 -3 -64.5 -7.5t-46.5 -13.5t-28 -23.5t-9 -36.5zM83 596l101 194h180
l98 -194h-132l-58 115l-58 -115h-131zM440 729l-10 63q30 4 40 13t10 20q0 15 -11 21.5t-30 6.5q-15 0 -27.5 -2.5l-27.5 -5.5l-10 82q11 3 27 6.5t33.5 6t32.5 2.5q55 0 87.5 -23.5t32.5 -71.5q0 -43 -32.5 -75t-114.5 -43z" />
    <glyph glyph-name="uni1EAA" unicode="&#x1eaa;" horiz-adv-x="665" 
d="M7 0l222 703h204l225 -703h-186l-37 130h-214l-37 -130h-177zM252 269h152l-76 303zM143 745l96 186h189l94 -186h-131l-59 116l-59 -116h-130zM125 1012q-2 12 -2.5 24t-0.5 22q0 52 26.5 85t80.5 33q23 0 43.5 -7.5t39 -17t33.5 -17.5t28 -8q10 0 16 4.5t9.5 13.5
t3.5 21q0 3 -0.5 8t-1.5 8h88q2 -12 2.5 -24t0.5 -23q0 -54 -26.5 -86t-80.5 -32q-23 0 -43.5 7.5t-38.5 17t-33 17t-29 7.5q-13 0 -20.5 -9.5t-7.5 -27.5q0 -3 0.5 -7.5t1.5 -8.5h-89z" />
    <glyph glyph-name="uni1EAB" unicode="&#x1eab;" horiz-adv-x="559" 
d="M21 149q0 49 18.5 81t57 51t97.5 29.5t140 16.5v33q0 30 -25 44t-72 14q-21 0 -48 -2t-55.5 -7t-58.5 -14l-26 128q45 14 99 22.5t100 8.5q88 0 142.5 -21.5t80 -64.5t25.5 -106v-190q0 -25 7.5 -33t17.5 -8q5 0 11.5 0.5t11.5 2.5l13 -117q-20 -12 -44.5 -19.5
t-54.5 -7.5q-42 0 -68.5 15.5t-39.5 47.5q-26 -19 -52.5 -33.5t-57 -22t-68.5 -7.5q-34 0 -61.5 11t-48 31.5t-31 49.5t-10.5 67zM186 159q0 -32 14 -47t37 -15q16 0 33.5 5t34.5 14.5t29 21.5v102q-37 -3 -64.5 -7.5t-46.5 -13.5t-28 -23.5t-9 -36.5zM83 596l101 194h180
l98 -194h-132l-58 115l-58 -115h-131zM65 874q-2 12 -2.5 24t-0.5 22q0 52 26.5 85t80.5 33q23 0 43.5 -7.5t39 -17t33.5 -17.5t28 -8q10 0 16 4.5t9.5 13.5t3.5 21q0 3 -0.5 8t-1.5 8h88q2 -12 2.5 -24t0.5 -23q0 -54 -26.5 -86t-80.5 -32q-23 0 -43.5 7.5t-38.5 17t-33 17
t-29 7.5q-13 0 -20.5 -9.5t-7.5 -27.5q0 -3 0.5 -7.5t1.5 -8.5h-89z" />
    <glyph glyph-name="uni1EAC" unicode="&#x1eac;" horiz-adv-x="665" 
d="M7 0l222 703h204l225 -703h-186l-37 130h-214l-37 -130h-177zM252 269h152l-76 303zM328 -188q-34 0 -51 16.5t-17 54.5q0 40 17 56t51 16t50.5 -16t16.5 -56q0 -38 -16.5 -54.5t-50.5 -16.5zM143 745l96 186h189l94 -186h-131l-59 116l-59 -116h-130z" />
    <glyph glyph-name="uni1EAD" unicode="&#x1ead;" horiz-adv-x="559" 
d="M21 149q0 49 18.5 81t57 51t97.5 29.5t140 16.5v33q0 30 -25 44t-72 14q-21 0 -48 -2t-55.5 -7t-58.5 -14l-26 128q45 14 99 22.5t100 8.5q88 0 142.5 -21.5t80 -64.5t25.5 -106v-190q0 -25 7.5 -33t17.5 -8q5 0 11.5 0.5t11.5 2.5l13 -117q-20 -12 -44.5 -19.5
t-54.5 -7.5q-42 0 -68.5 15.5t-39.5 47.5q-26 -19 -52.5 -33.5t-57 -22t-68.5 -7.5q-34 0 -61.5 11t-48 31.5t-31 49.5t-10.5 67zM186 159q0 -32 14 -47t37 -15q16 0 33.5 5t34.5 14.5t29 21.5v102q-37 -3 -64.5 -7.5t-46.5 -13.5t-28 -23.5t-9 -36.5zM276 -204
q-34 0 -51 16.5t-17 54.5q0 40 17 56t51 16t50.5 -16t16.5 -56q0 -38 -16.5 -54.5t-50.5 -16.5zM83 596l101 194h180l98 -194h-132l-58 115l-58 -115h-131z" />
    <glyph glyph-name="uni1EAE" unicode="&#x1eae;" horiz-adv-x="665" 
d="M7 0l222 703h204l225 -703h-186l-37 130h-214l-37 -130h-177zM252 269h152l-76 303zM333 750q-58 0 -97.5 11t-59.5 41.5t-22 88.5q-1 6 -1 13t1 14l91 1q1 -3 1 -5v-5q0 -17 7 -30.5t26 -20.5t54 -7t52 7t24 20.5t10 30.5q1 3 1 5v5l91 -1q1 -7 1 -14t-1 -13
q-1 -53 -19.5 -84.5t-57.5 -44t-101 -12.5zM245 991l88 186h160l-125 -186h-123z" />
    <glyph glyph-name="uni1EAF" unicode="&#x1eaf;" horiz-adv-x="559" 
d="M21 149q0 49 18.5 81t57 51t97.5 29.5t140 16.5v33q0 30 -25 44t-72 14q-21 0 -48 -2t-55.5 -7t-58.5 -14l-26 128q45 14 99 22.5t100 8.5q88 0 142.5 -21.5t80 -64.5t25.5 -106v-190q0 -25 7.5 -33t17.5 -8q5 0 11.5 0.5t11.5 2.5l13 -117q-20 -12 -44.5 -19.5
t-54.5 -7.5q-42 0 -68.5 15.5t-39.5 47.5q-26 -19 -52.5 -33.5t-57 -22t-68.5 -7.5q-34 0 -61.5 11t-48 31.5t-31 49.5t-10.5 67zM186 159q0 -32 14 -47t37 -15q16 0 33.5 5t34.5 14.5t29 21.5v102q-37 -3 -64.5 -7.5t-46.5 -13.5t-28 -23.5t-9 -36.5zM273 601
q-57 0 -96.5 11t-60 42t-22.5 89v12.5v13.5l92 1v-4.5v-4.5q1 -17 7.5 -30t25.5 -20t54 -7t53.5 7t25.5 20t8 30v4.5v4.5l92 -1q1 -7 0.5 -14t-0.5 -13q-1 -53 -19.5 -84t-57.5 -44t-102 -13zM185 843l88 186h160l-125 -186h-123z" />
    <glyph glyph-name="uni1EB0" unicode="&#x1eb0;" horiz-adv-x="665" 
d="M7 0l222 703h204l225 -703h-186l-37 130h-214l-37 -130h-177zM252 269h152l-76 303zM333 750q-58 0 -97.5 11t-59.5 41.5t-22 88.5q-1 6 -1 13t1 14l91 1q1 -3 1 -5v-5q0 -17 7 -30.5t26 -20.5t54 -7t52 7t24 20.5t10 30.5q1 3 1 5v5l91 -1q1 -7 1 -14t-1 -13
q-1 -53 -19.5 -84.5t-57.5 -44t-101 -12.5zM245 991l-125 186h166l89 -186h-130z" />
    <glyph glyph-name="uni1EB1" unicode="&#x1eb1;" horiz-adv-x="559" 
d="M21 149q0 49 18.5 81t57 51t97.5 29.5t140 16.5v33q0 30 -25 44t-72 14q-21 0 -48 -2t-55.5 -7t-58.5 -14l-26 128q45 14 99 22.5t100 8.5q88 0 142.5 -21.5t80 -64.5t25.5 -106v-190q0 -25 7.5 -33t17.5 -8q5 0 11.5 0.5t11.5 2.5l13 -117q-20 -12 -44.5 -19.5
t-54.5 -7.5q-42 0 -68.5 15.5t-39.5 47.5q-26 -19 -52.5 -33.5t-57 -22t-68.5 -7.5q-34 0 -61.5 11t-48 31.5t-31 49.5t-10.5 67zM186 159q0 -32 14 -47t37 -15q16 0 33.5 5t34.5 14.5t29 21.5v102q-37 -3 -64.5 -7.5t-46.5 -13.5t-28 -23.5t-9 -36.5zM273 601
q-57 0 -96.5 11t-60 42t-22.5 89v12.5v13.5l92 1v-4.5v-4.5q1 -17 7.5 -30t25.5 -20t54 -7t53.5 7t25.5 20t8 30v4.5v4.5l92 -1q1 -7 0.5 -14t-0.5 -13q-1 -53 -19.5 -84t-57.5 -44t-102 -13zM185 843l-125 186h166l89 -186h-130z" />
    <glyph glyph-name="uni1EB2" unicode="&#x1eb2;" horiz-adv-x="665" 
d="M7 0l222 703h204l225 -703h-186l-37 130h-214l-37 -130h-177zM252 269h152l-76 303zM333 750q-58 0 -97.5 11t-59.5 41.5t-22 88.5q-1 6 -1 13t1 14l91 1q1 -3 1 -5v-5q0 -17 7 -30.5t26 -20.5t54 -7t52 7t24 20.5t10 30.5q1 3 1 5v5l91 -1q1 -7 1 -14t-1 -13
q-1 -53 -19.5 -84.5t-57.5 -44t-101 -12.5zM292 928l-10 63q30 4 40 13t10 20q0 15 -11 21.5t-30 6.5q-15 0 -27.5 -2.5l-27.5 -5.5l-10 82q11 3 27 6.5t33.5 6t32.5 2.5q55 0 87.5 -23.5t32.5 -71.5q0 -43 -32.5 -75t-114.5 -43z" />
    <glyph glyph-name="uni1EB3" unicode="&#x1eb3;" horiz-adv-x="559" 
d="M21 149q0 49 18.5 81t57 51t97.5 29.5t140 16.5v33q0 30 -25 44t-72 14q-21 0 -48 -2t-55.5 -7t-58.5 -14l-26 128q45 14 99 22.5t100 8.5q88 0 142.5 -21.5t80 -64.5t25.5 -106v-190q0 -25 7.5 -33t17.5 -8q5 0 11.5 0.5t11.5 2.5l13 -117q-20 -12 -44.5 -19.5
t-54.5 -7.5q-42 0 -68.5 15.5t-39.5 47.5q-26 -19 -52.5 -33.5t-57 -22t-68.5 -7.5q-34 0 -61.5 11t-48 31.5t-31 49.5t-10.5 67zM186 159q0 -32 14 -47t37 -15q16 0 33.5 5t34.5 14.5t29 21.5v102q-37 -3 -64.5 -7.5t-46.5 -13.5t-28 -23.5t-9 -36.5zM273 601
q-57 0 -96.5 11t-60 42t-22.5 89v12.5v13.5l92 1v-4.5v-4.5q1 -17 7.5 -30t25.5 -20t54 -7t53.5 7t25.5 20t8 30v4.5v4.5l92 -1q1 -7 0.5 -14t-0.5 -13q-1 -53 -19.5 -84t-57.5 -44t-102 -13zM233 779l-10 63q30 4 40 13t10 20q0 15 -11 21.5t-30 6.5q-15 0 -27.5 -2.5
l-27.5 -5.5l-10 82q11 3 27 6.5t33.5 6t32.5 2.5q55 0 87.5 -23.5t32.5 -71.5q0 -43 -32.5 -75t-114.5 -43z" />
    <glyph glyph-name="uni1EB4" unicode="&#x1eb4;" horiz-adv-x="665" 
d="M7 0l222 703h204l225 -703h-186l-37 130h-214l-37 -130h-177zM252 269h152l-76 303zM333 750q-58 0 -97.5 11t-59.5 41.5t-22 88.5q-1 6 -1 13t1 14l91 1q1 -3 1 -5v-5q0 -17 7 -30.5t26 -20.5t54 -7t52 7t24 20.5t10 30.5q1 3 1 5v5l91 -1q1 -7 1 -14t-1 -13
q-1 -53 -19.5 -84.5t-57.5 -44t-101 -12.5zM125 1002q-2 12 -2.5 24t-0.5 22q0 52 26.5 85t80.5 33q23 0 43.5 -7.5t39 -17t33.5 -17.5t28 -8q10 0 16 4.5t9.5 13.5t3.5 21q0 3 -0.5 8t-1.5 8h88q2 -12 2.5 -24t0.5 -23q0 -54 -26.5 -86t-80.5 -32q-23 0 -43.5 7.5t-38.5 17
t-33 17t-29 7.5q-13 0 -20.5 -9.5t-7.5 -27.5q0 -3 0.5 -7.5t1.5 -8.5h-89z" />
    <glyph glyph-name="uni1EB5" unicode="&#x1eb5;" horiz-adv-x="559" 
d="M21 149q0 49 18.5 81t57 51t97.5 29.5t140 16.5v33q0 30 -25 44t-72 14q-21 0 -48 -2t-55.5 -7t-58.5 -14l-26 128q45 14 99 22.5t100 8.5q88 0 142.5 -21.5t80 -64.5t25.5 -106v-190q0 -25 7.5 -33t17.5 -8q5 0 11.5 0.5t11.5 2.5l13 -117q-20 -12 -44.5 -19.5
t-54.5 -7.5q-42 0 -68.5 15.5t-39.5 47.5q-26 -19 -52.5 -33.5t-57 -22t-68.5 -7.5q-34 0 -61.5 11t-48 31.5t-31 49.5t-10.5 67zM186 159q0 -32 14 -47t37 -15q16 0 33.5 5t34.5 14.5t29 21.5v102q-37 -3 -64.5 -7.5t-46.5 -13.5t-28 -23.5t-9 -36.5zM273 601
q-57 0 -96.5 11t-60 42t-22.5 89v12.5v13.5l92 1v-4.5v-4.5q1 -17 7.5 -30t25.5 -20t54 -7t53.5 7t25.5 20t8 30v4.5v4.5l92 -1q1 -7 0.5 -14t-0.5 -13q-1 -53 -19.5 -84t-57.5 -44t-102 -13zM65 856q-2 12 -2.5 24t-0.5 22q0 52 26.5 85t80.5 33q23 0 43.5 -7.5t39 -17
t33.5 -17.5t28 -8q10 0 16 4.5t9.5 13.5t3.5 21q0 3 -0.5 8t-1.5 8h88q2 -12 2.5 -24t0.5 -23q0 -54 -26.5 -86t-80.5 -32q-23 0 -43.5 7.5t-38.5 17t-33 17t-29 7.5q-13 0 -20.5 -9.5t-7.5 -27.5q0 -3 0.5 -7.5t1.5 -8.5h-89z" />
    <glyph glyph-name="uni1EB6" unicode="&#x1eb6;" horiz-adv-x="665" 
d="M7 0l222 703h204l225 -703h-186l-37 130h-214l-37 -130h-177zM252 269h152l-76 303zM328 -188q-34 0 -51 16.5t-17 54.5q0 40 17 56t51 16t50.5 -16t16.5 -56q0 -38 -16.5 -54.5t-50.5 -16.5zM333 750q-58 0 -97.5 11t-59.5 41.5t-22 88.5q-1 6 -1 13t1 14l91 1
q1 -3 1 -5v-5q0 -17 7 -30.5t26 -20.5t54 -7t52 7t24 20.5t10 30.5q1 3 1 5v5l91 -1q1 -7 1 -14t-1 -13q-1 -53 -19.5 -84.5t-57.5 -44t-101 -12.5z" />
    <glyph glyph-name="uni1EB7" unicode="&#x1eb7;" horiz-adv-x="559" 
d="M21 149q0 49 18.5 81t57 51t97.5 29.5t140 16.5v33q0 30 -25 44t-72 14q-21 0 -48 -2t-55.5 -7t-58.5 -14l-26 128q45 14 99 22.5t100 8.5q88 0 142.5 -21.5t80 -64.5t25.5 -106v-190q0 -25 7.5 -33t17.5 -8q5 0 11.5 0.5t11.5 2.5l13 -117q-20 -12 -44.5 -19.5
t-54.5 -7.5q-42 0 -68.5 15.5t-39.5 47.5q-26 -19 -52.5 -33.5t-57 -22t-68.5 -7.5q-34 0 -61.5 11t-48 31.5t-31 49.5t-10.5 67zM186 159q0 -32 14 -47t37 -15q16 0 33.5 5t34.5 14.5t29 21.5v102q-37 -3 -64.5 -7.5t-46.5 -13.5t-28 -23.5t-9 -36.5zM276 -204
q-34 0 -51 16.5t-17 54.5q0 40 17 56t51 16t50.5 -16t16.5 -56q0 -38 -16.5 -54.5t-50.5 -16.5zM273 601q-57 0 -96.5 11t-60 42t-22.5 89v12.5v13.5l92 1v-4.5v-4.5q1 -17 7.5 -30t25.5 -20t54 -7t53.5 7t25.5 20t8 30v4.5v4.5l92 -1q1 -7 0.5 -14t-0.5 -13
q-1 -53 -19.5 -84t-57.5 -44t-102 -13z" />
    <glyph glyph-name="uni1EB8" unicode="&#x1eb8;" horiz-adv-x="599" 
d="M55 0v700h502v-144h-333v-132h308v-136h-308v-145h351v-143h-520zM315 -188q-34 0 -51 16.5t-17 54.5q0 40 17 56t51 16t50.5 -16t16.5 -56q0 -38 -16.5 -54.5t-50.5 -16.5z" />
    <glyph glyph-name="uni1EB9" unicode="&#x1eb9;" horiz-adv-x="559" 
d="M293 -10q-64 0 -113 15.5t-83.5 48t-52.5 84t-18 122.5q0 81 20.5 137t57 91t86.5 50.5t109 15.5q120 0 176.5 -59t56.5 -192q0 -10 -0.5 -25.5t-1.5 -30.5q-25 -2 -61 -5t-80 -6t-93 -5t-100 -3q-1 -3 -1 -6v-7q0 -33 13.5 -54.5t41.5 -32t73 -10.5q28 0 59 3t63 8.5
t64 12.5l19 -118q-35 -11 -72 -19t-77 -11.5t-86 -3.5zM197 325q26 0 52 1t49 2.5t41 2.5t30 1q-1 40 -10 63.5t-26 33.5t-43 10q-18 0 -33 -5t-27.5 -17.5t-21 -35t-11.5 -56.5zM286 -204q-34 0 -51 16.5t-17 54.5q0 40 17 56t51 16t50.5 -16t16.5 -56q0 -38 -16.5 -54.5
t-50.5 -16.5z" />
    <glyph glyph-name="uni1EBA" unicode="&#x1eba;" horiz-adv-x="599" 
d="M55 0v700h502v-144h-333v-132h308v-136h-308v-145h351v-143h-520zM276 747l-10 63q30 4 40 13t10 20q0 15 -11 21.5t-30 6.5q-15 0 -27.5 -2.5l-27.5 -5.5l-10 82q11 3 27 6.5t33.5 6t32.5 2.5q55 0 87.5 -23.5t32.5 -71.5q0 -43 -32.5 -75t-114.5 -43z" />
    <glyph glyph-name="uni1EBB" unicode="&#x1ebb;" horiz-adv-x="559" 
d="M293 -10q-64 0 -113 15.5t-83.5 48t-52.5 84t-18 122.5q0 81 20.5 137t57 91t86.5 50.5t109 15.5q120 0 176.5 -59t56.5 -192q0 -10 -0.5 -25.5t-1.5 -30.5q-25 -2 -61 -5t-80 -6t-93 -5t-100 -3q-1 -3 -1 -6v-7q0 -33 13.5 -54.5t41.5 -32t73 -10.5q28 0 59 3t63 8.5
t64 12.5l19 -118q-35 -11 -72 -19t-77 -11.5t-86 -3.5zM197 325q26 0 52 1t49 2.5t41 2.5t30 1q-1 40 -10 63.5t-26 33.5t-43 10q-18 0 -33 -5t-27.5 -17.5t-21 -35t-11.5 -56.5zM251 593l-10 63q30 4 40 13t10 20q0 15 -11 21.5t-30 6.5q-15 0 -27.5 -2.5l-27.5 -5.5
l-10 82q11 3 27 6.5t33.5 6t32.5 2.5q55 0 87.5 -23.5t32.5 -71.5q0 -43 -32.5 -75t-114.5 -43z" />
    <glyph glyph-name="uni1EBC" unicode="&#x1ebc;" horiz-adv-x="599" 
d="M55 0v700h502v-144h-333v-132h308v-136h-308v-145h351v-143h-520zM134 756q-2 12 -2.5 24t-0.5 22q0 52 26.5 85t80.5 33q23 0 43.5 -7.5t39 -17t33.5 -17.5t28 -8q10 0 16 4.5t9.5 13.5t3.5 21q0 3 -0.5 8t-1.5 8h88q2 -12 2.5 -24t0.5 -23q0 -54 -26.5 -86t-80.5 -32
q-23 0 -43.5 7.5t-38.5 17t-33 17t-29 7.5q-13 0 -20.5 -9.5t-7.5 -27.5q0 -3 0.5 -7.5t1.5 -8.5h-89z" />
    <glyph glyph-name="uni1EBD" unicode="&#x1ebd;" horiz-adv-x="559" 
d="M293 -10q-64 0 -113 15.5t-83.5 48t-52.5 84t-18 122.5q0 81 20.5 137t57 91t86.5 50.5t109 15.5q120 0 176.5 -59t56.5 -192q0 -10 -0.5 -25.5t-1.5 -30.5q-25 -2 -61 -5t-80 -6t-93 -5t-100 -3q-1 -3 -1 -6v-7q0 -33 13.5 -54.5t41.5 -32t73 -10.5q28 0 59 3t63 8.5
t64 12.5l19 -118q-35 -11 -72 -19t-77 -11.5t-86 -3.5zM197 325q26 0 52 1t49 2.5t41 2.5t30 1q-1 40 -10 63.5t-26 33.5t-43 10q-18 0 -33 -5t-27.5 -17.5t-21 -35t-11.5 -56.5zM109 599q-2 12 -2.5 24t-0.5 22q0 60 26 89t80 29q22 0 42.5 -7t39 -16.5t34.5 -16.5t30 -7
q9 0 15.5 5t10 13t3.5 17q0 3 -0.5 8t-0.5 8h86q2 -12 2.5 -23.5t0.5 -22.5q0 -60 -26 -89.5t-80 -29.5q-20 0 -40.5 7t-39.5 16.5t-36.5 16.5t-29.5 7q-14 0 -21.5 -9t-7.5 -24q0 -4 0.5 -9t0.5 -8h-86z" />
    <glyph glyph-name="uni1EBE" unicode="&#x1ebe;" horiz-adv-x="599" 
d="M55 0v700h502v-144h-333v-132h308v-136h-308v-145h351v-143h-520zM127 745l96 186h189l94 -186h-131l-59 116l-59 -116h-130zM451 898l88 186h160l-125 -186h-123z" />
    <glyph glyph-name="uni1EBF" unicode="&#x1ebf;" horiz-adv-x="559" 
d="M293 -10q-64 0 -113 15.5t-83.5 48t-52.5 84t-18 122.5q0 81 20.5 137t57 91t86.5 50.5t109 15.5q120 0 176.5 -59t56.5 -192q0 -10 -0.5 -25.5t-1.5 -30.5q-25 -2 -61 -5t-80 -6t-93 -5t-100 -3q-1 -3 -1 -6v-7q0 -33 13.5 -54.5t41.5 -32t73 -10.5q28 0 59 3t63 8.5
t64 12.5l19 -118q-35 -11 -72 -19t-77 -11.5t-86 -3.5zM197 325q26 0 52 1t49 2.5t41 2.5t30 1q-1 40 -10 63.5t-26 33.5t-43 10q-18 0 -33 -5t-27.5 -17.5t-21 -35t-11.5 -56.5zM101 596l101 194h180l98 -194h-132l-58 115l-58 -115h-131zM427 753l88 186h160l-125 -186
h-123z" />
    <glyph glyph-name="uni1EC0" unicode="&#x1ec0;" horiz-adv-x="599" 
d="M55 0v700h502v-144h-333v-132h308v-136h-308v-145h351v-143h-520zM127 745l96 186h189l94 -186h-131l-59 116l-59 -116h-130zM484 900l-125 186h166l89 -186h-130z" />
    <glyph glyph-name="uni1EC1" unicode="&#x1ec1;" horiz-adv-x="559" 
d="M293 -10q-64 0 -113 15.5t-83.5 48t-52.5 84t-18 122.5q0 81 20.5 137t57 91t86.5 50.5t109 15.5q120 0 176.5 -59t56.5 -192q0 -10 -0.5 -25.5t-1.5 -30.5q-25 -2 -61 -5t-80 -6t-93 -5t-100 -3q-1 -3 -1 -6v-7q0 -33 13.5 -54.5t41.5 -32t73 -10.5q28 0 59 3t63 8.5
t64 12.5l19 -118q-35 -11 -72 -19t-77 -11.5t-86 -3.5zM197 325q26 0 52 1t49 2.5t41 2.5t30 1q-1 40 -10 63.5t-26 33.5t-43 10q-18 0 -33 -5t-27.5 -17.5t-21 -35t-11.5 -56.5zM101 596l101 194h180l98 -194h-132l-58 115l-58 -115h-131zM454 753l-125 186h166l89 -186
h-130z" />
    <glyph glyph-name="uni1EC2" unicode="&#x1ec2;" horiz-adv-x="599" 
d="M55 0v700h502v-144h-333v-132h308v-136h-308v-145h351v-143h-520zM127 745l96 186h189l94 -186h-131l-59 116l-59 -116h-130zM484 873l-10 63q30 4 40 13t10 20q0 15 -11 21.5t-30 6.5q-15 0 -27.5 -2.5l-27.5 -5.5l-10 82q11 3 27 6.5t33.5 6t32.5 2.5q55 0 87.5 -23.5
t32.5 -71.5q0 -43 -32.5 -75t-114.5 -43z" />
    <glyph glyph-name="uni1EC3" unicode="&#x1ec3;" horiz-adv-x="559" 
d="M293 -10q-64 0 -113 15.5t-83.5 48t-52.5 84t-18 122.5q0 81 20.5 137t57 91t86.5 50.5t109 15.5q120 0 176.5 -59t56.5 -192q0 -10 -0.5 -25.5t-1.5 -30.5q-25 -2 -61 -5t-80 -6t-93 -5t-100 -3q-1 -3 -1 -6v-7q0 -33 13.5 -54.5t41.5 -32t73 -10.5q28 0 59 3t63 8.5
t64 12.5l19 -118q-35 -11 -72 -19t-77 -11.5t-86 -3.5zM197 325q26 0 52 1t49 2.5t41 2.5t30 1q-1 40 -10 63.5t-26 33.5t-43 10q-18 0 -33 -5t-27.5 -17.5t-21 -35t-11.5 -56.5zM101 596l101 194h180l98 -194h-132l-58 115l-58 -115h-131zM457 729l-10 63q30 4 40 13t10 20
q0 15 -11 21.5t-30 6.5q-15 0 -27.5 -2.5l-27.5 -5.5l-10 82q11 3 27 6.5t33.5 6t32.5 2.5q55 0 87.5 -23.5t32.5 -71.5q0 -43 -32.5 -75t-114.5 -43z" />
    <glyph glyph-name="uni1EC4" unicode="&#x1ec4;" horiz-adv-x="599" 
d="M55 0v700h502v-144h-333v-132h308v-136h-308v-145h351v-143h-520zM127 745l96 186h189l94 -186h-131l-59 116l-59 -116h-130zM108 1012q-2 12 -2.5 24t-0.5 22q0 52 26.5 85t80.5 33q23 0 43.5 -7.5t39 -17t33.5 -17.5t28 -8q10 0 16 4.5t9.5 13.5t3.5 21q0 3 -0.5 8
t-1.5 8h88q2 -12 2.5 -24t0.5 -23q0 -54 -26.5 -86t-80.5 -32q-23 0 -43.5 7.5t-38.5 17t-33 17t-29 7.5q-13 0 -20.5 -9.5t-7.5 -27.5q0 -3 0.5 -7.5t1.5 -8.5h-89z" />
    <glyph glyph-name="uni1EC5" unicode="&#x1ec5;" horiz-adv-x="559" 
d="M293 -10q-64 0 -113 15.5t-83.5 48t-52.5 84t-18 122.5q0 81 20.5 137t57 91t86.5 50.5t109 15.5q120 0 176.5 -59t56.5 -192q0 -10 -0.5 -25.5t-1.5 -30.5q-25 -2 -61 -5t-80 -6t-93 -5t-100 -3q-1 -3 -1 -6v-7q0 -33 13.5 -54.5t41.5 -32t73 -10.5q28 0 59 3t63 8.5
t64 12.5l19 -118q-35 -11 -72 -19t-77 -11.5t-86 -3.5zM197 325q26 0 52 1t49 2.5t41 2.5t30 1q-1 40 -10 63.5t-26 33.5t-43 10q-18 0 -33 -5t-27.5 -17.5t-21 -35t-11.5 -56.5zM101 596l101 194h180l98 -194h-132l-58 115l-58 -115h-131zM83 874q-2 12 -2.5 24t-0.5 22
q0 52 26.5 85t80.5 33q23 0 43.5 -7.5t39 -17t33.5 -17.5t28 -8q10 0 16 4.5t9.5 13.5t3.5 21q0 3 -0.5 8t-1.5 8h88q2 -12 2.5 -24t0.5 -23q0 -54 -26.5 -86t-80.5 -32q-23 0 -43.5 7.5t-38.5 17t-33 17t-29 7.5q-13 0 -20.5 -9.5t-7.5 -27.5q0 -3 0.5 -7.5t1.5 -8.5h-89z
" />
    <glyph glyph-name="uni1EC6" unicode="&#x1ec6;" horiz-adv-x="599" 
d="M55 0v700h502v-144h-333v-132h308v-136h-308v-145h351v-143h-520zM315 -188q-34 0 -51 16.5t-17 54.5q0 40 17 56t51 16t50.5 -16t16.5 -56q0 -38 -16.5 -54.5t-50.5 -16.5zM127 745l96 186h189l94 -186h-131l-59 116l-59 -116h-130z" />
    <glyph glyph-name="uni1EC7" unicode="&#x1ec7;" horiz-adv-x="559" 
d="M293 -10q-64 0 -113 15.5t-83.5 48t-52.5 84t-18 122.5q0 81 20.5 137t57 91t86.5 50.5t109 15.5q120 0 176.5 -59t56.5 -192q0 -10 -0.5 -25.5t-1.5 -30.5q-25 -2 -61 -5t-80 -6t-93 -5t-100 -3q-1 -3 -1 -6v-7q0 -33 13.5 -54.5t41.5 -32t73 -10.5q28 0 59 3t63 8.5
t64 12.5l19 -118q-35 -11 -72 -19t-77 -11.5t-86 -3.5zM197 325q26 0 52 1t49 2.5t41 2.5t30 1q-1 40 -10 63.5t-26 33.5t-43 10q-18 0 -33 -5t-27.5 -17.5t-21 -35t-11.5 -56.5zM286 -204q-34 0 -51 16.5t-17 54.5q0 40 17 56t51 16t50.5 -16t16.5 -56q0 -38 -16.5 -54.5
t-50.5 -16.5zM101 596l101 194h180l98 -194h-132l-58 115l-58 -115h-131z" />
    <glyph glyph-name="uni1EC8" unicode="&#x1ec8;" horiz-adv-x="279" 
d="M55 0v700h169v-700h-169zM100 747l-10 63q30 4 40 13t10 20q0 15 -11 21.5t-30 6.5q-15 0 -27.5 -2.5l-27.5 -5.5l-10 82q11 3 27 6.5t33.5 6t32.5 2.5q55 0 87.5 -23.5t32.5 -71.5q0 -43 -32.5 -75t-114.5 -43z" />
    <glyph glyph-name="uni1EC9" unicode="&#x1ec9;" horiz-adv-x="257" 
d="M46 0v544h165v-544h-165zM89 593l-10 63q30 4 40 13t10 20q0 15 -11 21.5t-30 6.5q-15 0 -27.5 -2.5l-27.5 -5.5l-10 82q11 3 27 6.5t33.5 6t32.5 2.5q55 0 87.5 -23.5t32.5 -71.5q0 -43 -32.5 -75t-114.5 -43z" />
    <glyph glyph-name="uni1ECA" unicode="&#x1eca;" horiz-adv-x="279" 
d="M55 0v700h169v-700h-169zM140 -188q-34 0 -51 16.5t-17 54.5q0 40 17 56t51 16t50.5 -16t16.5 -56q0 -38 -16.5 -54.5t-50.5 -16.5z" />
    <glyph glyph-name="uni1ECB" unicode="&#x1ecb;" horiz-adv-x="255" 
d="M128 602q-50 0 -73.5 20t-23.5 62t23.5 62t73.5 20t73 -20t23 -62t-22.5 -62t-73.5 -20zM46 0v544h163v-544h-163zM128 -204q-34 0 -51 16.5t-17 54.5q0 40 17 56t51 16t50.5 -16t16.5 -56q0 -38 -16.5 -54.5t-50.5 -16.5z" />
    <glyph glyph-name="uni1ECC" unicode="&#x1ecc;" horiz-adv-x="702" 
d="M351 123q27 0 50.5 7t41.5 22.5t30.5 41t19 65t6.5 92.5t-6.5 92t-19 64.5t-31 41t-41.5 22t-50 6.5t-49.5 -6.5t-40.5 -21.5t-31 -41t-20 -65.5t-7 -92.5q0 -54 7 -92.5t20 -64.5t31 -41.5t41 -22t49 -6.5zM352 -10q-61 0 -111 12t-89.5 38t-66 68t-41 102t-14.5 140
t13.5 139.5t40 101.5t65.5 68.5t89.5 38.5t112.5 12q63 0 113.5 -12t89 -38t65 -67.5t40 -101t13.5 -138.5q0 -82 -13.5 -142.5t-40.5 -102.5t-66 -68t-89 -38t-111 -12zM351 -188q-34 0 -51 16.5t-17 54.5q0 40 17 56t51 16t50.5 -16t16.5 -56q0 -38 -16.5 -54.5
t-50.5 -16.5z" />
    <glyph glyph-name="uni1ECD" unicode="&#x1ecd;" 
d="M26 273q0 66 13 118t43 88.5t81 55.5t127 19t127 -19t81 -55.5t43 -88.5t13 -118q0 -67 -14 -120t-45 -89t-81.5 -55t-123.5 -19t-123.5 19t-81.5 55t-45 89t-14 120zM195 273q0 -60 9.5 -95t30.5 -49.5t55 -14.5q35 0 55.5 14.5t30.5 49.5t10 95t-9 94t-30 48.5
t-57 14.5t-56.5 -14.5t-29.5 -48.5t-9 -94zM291 -204q-34 0 -51 16.5t-17 54.5q0 40 17 56t51 16t50.5 -16t16.5 -56q0 -38 -16.5 -54.5t-50.5 -16.5z" />
    <glyph glyph-name="uni1ECE" unicode="&#x1ece;" horiz-adv-x="702" 
d="M351 123q27 0 50.5 7t41.5 22.5t30.5 41t19 65t6.5 92.5t-6.5 92t-19 64.5t-31 41t-41.5 22t-50 6.5t-49.5 -6.5t-40.5 -21.5t-31 -41t-20 -65.5t-7 -92.5q0 -54 7 -92.5t20 -64.5t31 -41.5t41 -22t49 -6.5zM352 -10q-61 0 -111 12t-89.5 38t-66 68t-41 102t-14.5 140
t13.5 139.5t40 101.5t65.5 68.5t89.5 38.5t112.5 12q63 0 113.5 -12t89 -38t65 -67.5t40 -101t13.5 -138.5q0 -82 -13.5 -142.5t-40.5 -102.5t-66 -68t-89 -38t-111 -12zM311 747l-10 63q30 4 40 13t10 20q0 15 -11 21.5t-30 6.5q-15 0 -27.5 -2.5l-27.5 -5.5l-10 82
q11 3 27 6.5t33.5 6t32.5 2.5q55 0 87.5 -23.5t32.5 -71.5q0 -43 -32.5 -75t-114.5 -43z" />
    <glyph glyph-name="uni1ECF" unicode="&#x1ecf;" 
d="M26 273q0 66 13 118t43 88.5t81 55.5t127 19t127 -19t81 -55.5t43 -88.5t13 -118q0 -67 -14 -120t-45 -89t-81.5 -55t-123.5 -19t-123.5 19t-81.5 55t-45 89t-14 120zM195 273q0 -60 9.5 -95t30.5 -49.5t55 -14.5q35 0 55.5 14.5t30.5 49.5t10 95t-9 94t-30 48.5
t-57 14.5t-56.5 -14.5t-29.5 -48.5t-9 -94zM250 593l-10 63q30 4 40 13t10 20q0 15 -11 21.5t-30 6.5q-15 0 -27.5 -2.5l-27.5 -5.5l-10 82q11 3 27 6.5t33.5 6t32.5 2.5q55 0 87.5 -23.5t32.5 -71.5q0 -43 -32.5 -75t-114.5 -43z" />
    <glyph glyph-name="uni1ED0" unicode="&#x1ed0;" horiz-adv-x="702" 
d="M351 123q27 0 50.5 7t41.5 22.5t30.5 41t19 65t6.5 92.5t-6.5 92t-19 64.5t-31 41t-41.5 22t-50 6.5t-49.5 -6.5t-40.5 -21.5t-31 -41t-20 -65.5t-7 -92.5q0 -54 7 -92.5t20 -64.5t31 -41.5t41 -22t49 -6.5zM352 -10q-61 0 -111 12t-89.5 38t-66 68t-41 102t-14.5 140
t13.5 139.5t40 101.5t65.5 68.5t89.5 38.5t112.5 12q63 0 113.5 -12t89 -38t65 -67.5t40 -101t13.5 -138.5q0 -82 -13.5 -142.5t-40.5 -102.5t-66 -68t-89 -38t-111 -12zM161 745l96 186h189l94 -186h-131l-59 116l-59 -116h-130zM485 898l88 186h160l-125 -186h-123z" />
    <glyph glyph-name="uni1ED1" unicode="&#x1ed1;" 
d="M26 273q0 66 13 118t43 88.5t81 55.5t127 19t127 -19t81 -55.5t43 -88.5t13 -118q0 -67 -14 -120t-45 -89t-81.5 -55t-123.5 -19t-123.5 19t-81.5 55t-45 89t-14 120zM195 273q0 -60 9.5 -95t30.5 -49.5t55 -14.5q35 0 55.5 14.5t30.5 49.5t10 95t-9 94t-30 48.5
t-57 14.5t-56.5 -14.5t-29.5 -48.5t-9 -94zM100 596l101 194h180l98 -194h-132l-58 115l-58 -115h-131zM426 753l88 186h160l-125 -186h-123z" />
    <glyph glyph-name="uni1ED2" unicode="&#x1ed2;" horiz-adv-x="702" 
d="M351 123q27 0 50.5 7t41.5 22.5t30.5 41t19 65t6.5 92.5t-6.5 92t-19 64.5t-31 41t-41.5 22t-50 6.5t-49.5 -6.5t-40.5 -21.5t-31 -41t-20 -65.5t-7 -92.5q0 -54 7 -92.5t20 -64.5t31 -41.5t41 -22t49 -6.5zM352 -10q-61 0 -111 12t-89.5 38t-66 68t-41 102t-14.5 140
t13.5 139.5t40 101.5t65.5 68.5t89.5 38.5t112.5 12q63 0 113.5 -12t89 -38t65 -67.5t40 -101t13.5 -138.5q0 -82 -13.5 -142.5t-40.5 -102.5t-66 -68t-89 -38t-111 -12zM161 745l96 186h189l94 -186h-131l-59 116l-59 -116h-130zM518 900l-125 186h166l89 -186h-130z" />
    <glyph glyph-name="uni1ED3" unicode="&#x1ed3;" 
d="M26 273q0 66 13 118t43 88.5t81 55.5t127 19t127 -19t81 -55.5t43 -88.5t13 -118q0 -67 -14 -120t-45 -89t-81.5 -55t-123.5 -19t-123.5 19t-81.5 55t-45 89t-14 120zM195 273q0 -60 9.5 -95t30.5 -49.5t55 -14.5q35 0 55.5 14.5t30.5 49.5t10 95t-9 94t-30 48.5
t-57 14.5t-56.5 -14.5t-29.5 -48.5t-9 -94zM100 596l101 194h180l98 -194h-132l-58 115l-58 -115h-131zM454 753l-125 186h166l89 -186h-130z" />
    <glyph glyph-name="uni1ED4" unicode="&#x1ed4;" horiz-adv-x="702" 
d="M351 123q27 0 50.5 7t41.5 22.5t30.5 41t19 65t6.5 92.5t-6.5 92t-19 64.5t-31 41t-41.5 22t-50 6.5t-49.5 -6.5t-40.5 -21.5t-31 -41t-20 -65.5t-7 -92.5q0 -54 7 -92.5t20 -64.5t31 -41.5t41 -22t49 -6.5zM352 -10q-61 0 -111 12t-89.5 38t-66 68t-41 102t-14.5 140
t13.5 139.5t40 101.5t65.5 68.5t89.5 38.5t112.5 12q63 0 113.5 -12t89 -38t65 -67.5t40 -101t13.5 -138.5q0 -82 -13.5 -142.5t-40.5 -102.5t-66 -68t-89 -38t-111 -12zM161 745l96 186h189l94 -186h-131l-59 116l-59 -116h-130zM519 873l-10 63q30 4 40 13t10 20
q0 15 -11 21.5t-30 6.5q-15 0 -27.5 -2.5l-27.5 -5.5l-10 82q11 3 27 6.5t33.5 6t32.5 2.5q55 0 87.5 -23.5t32.5 -71.5q0 -43 -32.5 -75t-114.5 -43z" />
    <glyph glyph-name="uni1ED5" unicode="&#x1ed5;" 
d="M26 273q0 66 13 118t43 88.5t81 55.5t127 19t127 -19t81 -55.5t43 -88.5t13 -118q0 -67 -14 -120t-45 -89t-81.5 -55t-123.5 -19t-123.5 19t-81.5 55t-45 89t-14 120zM195 273q0 -60 9.5 -95t30.5 -49.5t55 -14.5q35 0 55.5 14.5t30.5 49.5t10 95t-9 94t-30 48.5
t-57 14.5t-56.5 -14.5t-29.5 -48.5t-9 -94zM100 596l101 194h180l98 -194h-132l-58 115l-58 -115h-131zM457 729l-10 63q30 4 40 13t10 20q0 15 -11 21.5t-30 6.5q-15 0 -27.5 -2.5l-27.5 -5.5l-10 82q11 3 27 6.5t33.5 6t32.5 2.5q55 0 87.5 -23.5t32.5 -71.5
q0 -43 -32.5 -75t-114.5 -43z" />
    <glyph glyph-name="uni1ED6" unicode="&#x1ed6;" horiz-adv-x="702" 
d="M351 123q27 0 50.5 7t41.5 22.5t30.5 41t19 65t6.5 92.5t-6.5 92t-19 64.5t-31 41t-41.5 22t-50 6.5t-49.5 -6.5t-40.5 -21.5t-31 -41t-20 -65.5t-7 -92.5q0 -54 7 -92.5t20 -64.5t31 -41.5t41 -22t49 -6.5zM352 -10q-61 0 -111 12t-89.5 38t-66 68t-41 102t-14.5 140
t13.5 139.5t40 101.5t65.5 68.5t89.5 38.5t112.5 12q63 0 113.5 -12t89 -38t65 -67.5t40 -101t13.5 -138.5q0 -82 -13.5 -142.5t-40.5 -102.5t-66 -68t-89 -38t-111 -12zM161 745l96 186h189l94 -186h-131l-59 116l-59 -116h-130zM143 1012q-2 12 -2.5 24t-0.5 22
q0 52 26.5 85t80.5 33q23 0 43.5 -7.5t39 -17t33.5 -17.5t28 -8q10 0 16 4.5t9.5 13.5t3.5 21q0 3 -0.5 8t-1.5 8h88q2 -12 2.5 -24t0.5 -23q0 -54 -26.5 -86t-80.5 -32q-23 0 -43.5 7.5t-38.5 17t-33 17t-29 7.5q-13 0 -20.5 -9.5t-7.5 -27.5q0 -3 0.5 -7.5t1.5 -8.5h-89z
" />
    <glyph glyph-name="uni1ED7" unicode="&#x1ed7;" 
d="M26 273q0 66 13 118t43 88.5t81 55.5t127 19t127 -19t81 -55.5t43 -88.5t13 -118q0 -67 -14 -120t-45 -89t-81.5 -55t-123.5 -19t-123.5 19t-81.5 55t-45 89t-14 120zM195 273q0 -60 9.5 -95t30.5 -49.5t55 -14.5q35 0 55.5 14.5t30.5 49.5t10 95t-9 94t-30 48.5
t-57 14.5t-56.5 -14.5t-29.5 -48.5t-9 -94zM100 596l101 194h180l98 -194h-132l-58 115l-58 -115h-131zM82 874q-2 12 -2.5 24t-0.5 22q0 52 26.5 85t80.5 33q23 0 43.5 -7.5t39 -17t33.5 -17.5t28 -8q10 0 16 4.5t9.5 13.5t3.5 21q0 3 -0.5 8t-1.5 8h88q2 -12 2.5 -24
t0.5 -23q0 -54 -26.5 -86t-80.5 -32q-23 0 -43.5 7.5t-38.5 17t-33 17t-29 7.5q-13 0 -20.5 -9.5t-7.5 -27.5q0 -3 0.5 -7.5t1.5 -8.5h-89z" />
    <glyph glyph-name="uni1ED8" unicode="&#x1ed8;" horiz-adv-x="702" 
d="M351 123q27 0 50.5 7t41.5 22.5t30.5 41t19 65t6.5 92.5t-6.5 92t-19 64.5t-31 41t-41.5 22t-50 6.5t-49.5 -6.5t-40.5 -21.5t-31 -41t-20 -65.5t-7 -92.5q0 -54 7 -92.5t20 -64.5t31 -41.5t41 -22t49 -6.5zM352 -10q-61 0 -111 12t-89.5 38t-66 68t-41 102t-14.5 140
t13.5 139.5t40 101.5t65.5 68.5t89.5 38.5t112.5 12q63 0 113.5 -12t89 -38t65 -67.5t40 -101t13.5 -138.5q0 -82 -13.5 -142.5t-40.5 -102.5t-66 -68t-89 -38t-111 -12zM351 -188q-34 0 -51 16.5t-17 54.5q0 40 17 56t51 16t50.5 -16t16.5 -56q0 -38 -16.5 -54.5
t-50.5 -16.5zM161 745l96 186h189l94 -186h-131l-59 116l-59 -116h-130z" />
    <glyph glyph-name="uni1ED9" unicode="&#x1ed9;" 
d="M26 273q0 66 13 118t43 88.5t81 55.5t127 19t127 -19t81 -55.5t43 -88.5t13 -118q0 -67 -14 -120t-45 -89t-81.5 -55t-123.5 -19t-123.5 19t-81.5 55t-45 89t-14 120zM195 273q0 -60 9.5 -95t30.5 -49.5t55 -14.5q35 0 55.5 14.5t30.5 49.5t10 95t-9 94t-30 48.5
t-57 14.5t-56.5 -14.5t-29.5 -48.5t-9 -94zM291 -204q-34 0 -51 16.5t-17 54.5q0 40 17 56t51 16t50.5 -16t16.5 -56q0 -38 -16.5 -54.5t-50.5 -16.5zM100 596l101 194h180l98 -194h-132l-58 115l-58 -115h-131z" />
    <glyph glyph-name="uni1EDA" unicode="&#x1eda;" horiz-adv-x="702" 
d="M351 123q27 0 50.5 7t41.5 22.5t30.5 41t19 65t6.5 92.5t-6.5 92t-19 64.5t-31 41t-41.5 22t-50 6.5t-49.5 -6.5t-40.5 -21.5t-31 -41t-20 -65.5t-7 -92.5q0 -54 7 -92.5t20 -64.5t31 -41.5t41 -22t49 -6.5zM352 -10q-61 0 -111 12t-89.5 38t-66 68t-41 102t-14.5 140
t13.5 139.5t40 101.5t65.5 68.5t89.5 38.5t112.5 12q63 0 113.5 -12t89 -38t65 -67.5t40 -101t13.5 -138.5q0 -82 -13.5 -142.5t-40.5 -102.5t-66 -68t-89 -38t-111 -12zM478 588v102h9q28 0 43.5 12t19 38t-5.5 68l138 2q11 -54 5 -95.5t-28.5 -69.5t-61.5 -42.5t-95 -14.5
h-24zM283 745l88 186h160l-125 -186h-123z" />
    <glyph glyph-name="uni1EDB" unicode="&#x1edb;" 
d="M26 273q0 66 13 118t43 88.5t81 55.5t127 19t127 -19t81 -55.5t43 -88.5t13 -118q0 -67 -14 -120t-45 -89t-81.5 -55t-123.5 -19t-123.5 19t-81.5 55t-45 89t-14 120zM195 273q0 -60 9.5 -95t30.5 -49.5t55 -14.5q35 0 55.5 14.5t30.5 49.5t10 95t-9 94t-30 48.5
t-57 14.5t-56.5 -14.5t-29.5 -48.5t-9 -94zM364 433v102h9q28 0 43.5 12t19 38t-5.5 68l138 2q11 -54 5 -95.5t-28.5 -69.5t-61.5 -42.5t-95 -14.5h-24zM218 595l92 194h161l-128 -194h-125z" />
    <glyph glyph-name="uni1EDC" unicode="&#x1edc;" horiz-adv-x="702" 
d="M351 123q27 0 50.5 7t41.5 22.5t30.5 41t19 65t6.5 92.5t-6.5 92t-19 64.5t-31 41t-41.5 22t-50 6.5t-49.5 -6.5t-40.5 -21.5t-31 -41t-20 -65.5t-7 -92.5q0 -54 7 -92.5t20 -64.5t31 -41.5t41 -22t49 -6.5zM352 -10q-61 0 -111 12t-89.5 38t-66 68t-41 102t-14.5 140
t13.5 139.5t40 101.5t65.5 68.5t89.5 38.5t112.5 12q63 0 113.5 -12t89 -38t65 -67.5t40 -101t13.5 -138.5q0 -82 -13.5 -142.5t-40.5 -102.5t-66 -68t-89 -38t-111 -12zM478 588v102h9q28 0 43.5 12t19 38t-5.5 68l138 2q11 -54 5 -95.5t-28.5 -69.5t-61.5 -42.5t-95 -14.5
h-24zM288 745l-125 186h166l89 -186h-130z" />
    <glyph glyph-name="uni1EDD" unicode="&#x1edd;" 
d="M26 273q0 66 13 118t43 88.5t81 55.5t127 19t127 -19t81 -55.5t43 -88.5t13 -118q0 -67 -14 -120t-45 -89t-81.5 -55t-123.5 -19t-123.5 19t-81.5 55t-45 89t-14 120zM195 273q0 -60 9.5 -95t30.5 -49.5t55 -14.5q35 0 55.5 14.5t30.5 49.5t10 95t-9 94t-30 48.5
t-57 14.5t-56.5 -14.5t-29.5 -48.5t-9 -94zM364 433v102h9q28 0 43.5 12t19 38t-5.5 68l138 2q11 -54 5 -95.5t-28.5 -69.5t-61.5 -42.5t-95 -14.5h-24zM226 596l-127 194h166l92 -194h-131z" />
    <glyph glyph-name="uni1EDE" unicode="&#x1ede;" horiz-adv-x="702" 
d="M351 123q27 0 50.5 7t41.5 22.5t30.5 41t19 65t6.5 92.5t-6.5 92t-19 64.5t-31 41t-41.5 22t-50 6.5t-49.5 -6.5t-40.5 -21.5t-31 -41t-20 -65.5t-7 -92.5q0 -54 7 -92.5t20 -64.5t31 -41.5t41 -22t49 -6.5zM352 -10q-61 0 -111 12t-89.5 38t-66 68t-41 102t-14.5 140
t13.5 139.5t40 101.5t65.5 68.5t89.5 38.5t112.5 12q63 0 113.5 -12t89 -38t65 -67.5t40 -101t13.5 -138.5q0 -82 -13.5 -142.5t-40.5 -102.5t-66 -68t-89 -38t-111 -12zM479 588v102h9q28 0 43.5 12t19 38t-5.5 68l138 2q11 -54 5 -95.5t-28.5 -69.5t-61.5 -42.5t-95 -14.5
h-24zM306 747l-10 63q30 4 40 13t10 20q0 15 -11 21.5t-30 6.5q-15 0 -27.5 -2.5l-27.5 -5.5l-10 82q11 3 27 6.5t33.5 6t32.5 2.5q55 0 87.5 -23.5t32.5 -71.5q0 -43 -32.5 -75t-114.5 -43z" />
    <glyph glyph-name="uni1EDF" unicode="&#x1edf;" 
d="M26 273q0 66 13 118t43 88.5t81 55.5t127 19t127 -19t81 -55.5t43 -88.5t13 -118q0 -67 -14 -120t-45 -89t-81.5 -55t-123.5 -19t-123.5 19t-81.5 55t-45 89t-14 120zM195 273q0 -60 9.5 -95t30.5 -49.5t55 -14.5q35 0 55.5 14.5t30.5 49.5t10 95t-9 94t-30 48.5
t-57 14.5t-56.5 -14.5t-29.5 -48.5t-9 -94zM364 433v102h9q28 0 43.5 12t19 38t-5.5 68l138 2q11 -54 5 -95.5t-28.5 -69.5t-61.5 -42.5t-95 -14.5h-24zM250 593l-10 63q30 4 40 13t10 20q0 15 -11 21.5t-30 6.5q-15 0 -27.5 -2.5l-27.5 -5.5l-10 82q11 3 27 6.5t33.5 6
t32.5 2.5q55 0 87.5 -23.5t32.5 -71.5q0 -43 -32.5 -75t-114.5 -43z" />
    <glyph glyph-name="uni1EE0" unicode="&#x1ee0;" horiz-adv-x="702" 
d="M351 123q27 0 50.5 7t41.5 22.5t30.5 41t19 65t6.5 92.5t-6.5 92t-19 64.5t-31 41t-41.5 22t-50 6.5t-49.5 -6.5t-40.5 -21.5t-31 -41t-20 -65.5t-7 -92.5q0 -54 7 -92.5t20 -64.5t31 -41.5t41 -22t49 -6.5zM352 -10q-61 0 -111 12t-89.5 38t-66 68t-41 102t-14.5 140
t13.5 139.5t40 101.5t65.5 68.5t89.5 38.5t112.5 12q63 0 113.5 -12t89 -38t65 -67.5t40 -101t13.5 -138.5q0 -82 -13.5 -142.5t-40.5 -102.5t-66 -68t-89 -38t-111 -12zM479 588v102h9q28 0 43.5 12t19 38t-5.5 68l138 2q11 -54 5 -95.5t-28.5 -69.5t-61.5 -42.5t-95 -14.5
h-24zM176 756l-2 24t-1 23q0 58 24.5 87.5t66.5 29.5q20 0 36 -7t30 -16t27.5 -16t27.5 -7q13 0 20.5 9t7.5 24v8.5v7.5h74q2 -11 2.5 -23t0.5 -23q0 -59 -24 -88t-67 -29q-21 0 -36.5 7t-29.5 16.5t-26.5 16.5t-27.5 7q-14 0 -21 -9.5t-7 -25.5q0 -3 0.5 -7.5t0.5 -8.5h-76
z" />
    <glyph glyph-name="uni1EE1" unicode="&#x1ee1;" 
d="M26 273q0 66 13 118t43 88.5t81 55.5t127 19t127 -19t81 -55.5t43 -88.5t13 -118q0 -67 -14 -120t-45 -89t-81.5 -55t-123.5 -19t-123.5 19t-81.5 55t-45 89t-14 120zM195 273q0 -60 9.5 -95t30.5 -49.5t55 -14.5q35 0 55.5 14.5t30.5 49.5t10 95t-9 94t-30 48.5
t-57 14.5t-56.5 -14.5t-29.5 -48.5t-9 -94zM364 433v102h9q28 0 43.5 12t19 38t-5.5 68l138 2q11 -54 5 -95.5t-28.5 -69.5t-61.5 -42.5t-95 -14.5h-24zM106 608l-2 24t-1 23q0 58 24.5 87.5t66.5 29.5q20 0 36 -7t30 -16t27.5 -16t27.5 -7q13 0 20.5 9t7.5 24v8.5v7.5h74
q2 -11 2.5 -23t0.5 -23q0 -59 -24 -88t-67 -29q-21 0 -36.5 7t-29.5 16.5t-26.5 16.5t-27.5 7q-14 0 -21 -9.5t-7 -25.5q0 -3 0.5 -7.5t0.5 -8.5h-76z" />
    <glyph glyph-name="uni1EE2" unicode="&#x1ee2;" horiz-adv-x="702" 
d="M351 123q27 0 50.5 7t41.5 22.5t30.5 41t19 65t6.5 92.5t-6.5 92t-19 64.5t-31 41t-41.5 22t-50 6.5t-49.5 -6.5t-40.5 -21.5t-31 -41t-20 -65.5t-7 -92.5q0 -54 7 -92.5t20 -64.5t31 -41.5t41 -22t49 -6.5zM352 -10q-61 0 -111 12t-89.5 38t-66 68t-41 102t-14.5 140
t13.5 139.5t40 101.5t65.5 68.5t89.5 38.5t112.5 12q63 0 113.5 -12t89 -38t65 -67.5t40 -101t13.5 -138.5q0 -82 -13.5 -142.5t-40.5 -102.5t-66 -68t-89 -38t-111 -12zM478 588v102h9q28 0 43.5 12t19 38t-5.5 68l138 2q11 -54 5 -95.5t-28.5 -69.5t-61.5 -42.5t-95 -14.5
h-24zM351 -188q-34 0 -51 16.5t-17 54.5q0 40 17 56t51 16t50.5 -16t16.5 -56q0 -38 -16.5 -54.5t-50.5 -16.5z" />
    <glyph glyph-name="uni1EE3" unicode="&#x1ee3;" 
d="M26 273q0 66 13 118t43 88.5t81 55.5t127 19t127 -19t81 -55.5t43 -88.5t13 -118q0 -67 -14 -120t-45 -89t-81.5 -55t-123.5 -19t-123.5 19t-81.5 55t-45 89t-14 120zM195 273q0 -60 9.5 -95t30.5 -49.5t55 -14.5q35 0 55.5 14.5t30.5 49.5t10 95t-9 94t-30 48.5
t-57 14.5t-56.5 -14.5t-29.5 -48.5t-9 -94zM364 433v102h9q28 0 43.5 12t19 38t-5.5 68l138 2q11 -54 5 -95.5t-28.5 -69.5t-61.5 -42.5t-95 -14.5h-24zM291 -204q-34 0 -51 16.5t-17 54.5q0 40 17 56t51 16t50.5 -16t16.5 -56q0 -38 -16.5 -54.5t-50.5 -16.5z" />
    </font>
</defs>
</svg>
