<?xml version="1.0" standalone="no"?>
<!DOCTYPE svg PUBLIC "-//W3C//DTD SVG 1.1//EN" "http://www.w3.org/Graphics/SVG/1.1/DTD/svg11.dtd" >
<svg xmlns="http://www.w3.org/2000/svg" xmlns:xlink="http://www.w3.org/1999/xlink" version="1.1">
<metadata>
Created by FontForge 20170731 at Thu May 20 14:48:22 2021
 By Aleksey,,,
Copyright 2020 The Georama Project Authors (http://github.com/productiontype/georama)
</metadata>
<defs>
<font id="Georama-SemiBold" horiz-adv-x="0" >
  <font-face 
    font-family="Georama SemiBold"
    font-weight="600"
    font-stretch="normal"
    units-per-em="1000"
    panose-1="2 11 0 0 3 2 0 2 0 4"
    ascent="800"
    descent="-200"
    x-height="541"
    cap-height="700"
    bbox="-597 -326 1310 1157"
    underline-thickness="50"
    underline-position="-150"
    unicode-range="U+000D-FB02"
  />
<missing-glyph horiz-adv-x="500" 
d="M0 0v700h500v-700h-500zM250 395l170 255h-340zM450 95v510l-170 -255zM50 95l170 255l-170 255v-510zM80 50h340l-170 255z" />
    <glyph glyph-name="uniFB01" unicode="fi" horiz-adv-x="587" 
d="M94 0v414h-78v88l78 9v12q0 74 30 124.5t87.5 76.5t139.5 26q29 0 62.5 -3.5t68 -10.5t66.5 -18l-31 -96q-18 6 -38 10.5t-40.5 7.5t-40 4.5t-36.5 1.5q-69 0 -103 -31.5t-34 -97.5v-6h306v-511h-133v414h-173v-414h-131z" />
    <glyph glyph-name="uniFB02" unicode="fl" horiz-adv-x="653" 
d="M555 -10q-47 0 -79 16t-48.5 54t-16.5 103v479q-13 3 -30 5t-31 2q-42 0 -69.5 -13t-41.5 -42.5t-14 -78.5v-16h128v-98h-128v-401h-131v401h-78v89l78 9v19q0 77 30.5 128.5t89 77.5t144.5 26q47 0 94.5 -6t91.5 -19v-550q0 -29 6 -44.5t17.5 -20.5t26.5 -5q10 0 21.5 2
t25.5 6l13 -102q-20 -9 -45.5 -15t-53.5 -6z" />
    <glyph glyph-name="T_h.liga" unicode="Th" horiz-adv-x="1075" 
d="M563 0v579h-203v-579h-137v579h-210v121h677v-203q32 18 61 30t57.5 18t59.5 6q51 0 85.5 -18t52.5 -53.5t18 -89.5v-390h-134v352q0 41 -19.5 61.5t-57.5 20.5q-20 0 -39.5 -4t-38.5 -11.5t-39 -18.5v-400h-133z" />
    <glyph glyph-name="f_b.liga" unicode="fb" horiz-adv-x="929" 
d="M630 -10q-45 0 -99 7t-115 19v626q-16 3 -32 5t-31 2q-42 0 -70.5 -13t-43 -42.5t-14.5 -78.5v-16h128v-98h-128v-401h-131v401h-78v89l78 9v19q0 77 30.5 128.5t89 77.5t144.5 26q48 0 97 -6t94 -19v-227q42 27 82.5 40t81.5 13q91 0 138.5 -68t47.5 -199
q0 -104 -28 -169t-87 -95t-154 -30zM635 86q44 0 71.5 18t41 59.5t13.5 110.5q0 58 -11 94t-32.5 54t-53.5 18q-18 0 -36 -4t-37 -12t-42 -22v-305q25 -5 46 -8t40 -3z" />
    <glyph glyph-name="f_f.liga" unicode="ff" horiz-adv-x="690" 
d="M94 0v401h-78v89l78 9v12q0 63 17.5 108t48.5 73.5t73.5 41.5t92.5 13q39 0 77 -7.5t76 -22.5q25 18 54.5 25.5t65.5 7.5q35 0 68.5 -5.5t69.5 -19.5l-18 -94q-24 7 -47 10.5t-45 3.5q-47 0 -72 -30t-25 -99v-19h142v-96h-142v-401h-130v401h-175v-401h-131zM225 494h175
v24q0 40 6 68.5t17 47.5q-22 7 -43 10t-41 3q-37 0 -62.5 -13.5t-38.5 -43.5t-13 -80v-16z" />
    <glyph glyph-name="f_f_b.liga" unicode="ffb" horiz-adv-x="1235" 
d="M936 -10q-46 0 -100 7t-114 19v626q-16 3 -32 5t-32 2q-30 0 -54 -6.5t-40.5 -22t-25 -43.5t-8.5 -70v-8h129v-98h-129v-401h-130v401h-175v-401h-131v401h-78v89l78 9v12q0 63 17.5 108t49.5 73.5t75.5 41.5t95.5 13q41 0 84 -8.5t84 -23.5q31 18 71.5 26.5t92.5 8.5
q47 0 96.5 -6t93.5 -19v-227q42 27 83 40t82 13q90 0 137.5 -68t47.5 -199q0 -104 -28 -169t-87 -95t-153 -30zM225 494h175v17q0 39 6 70.5t20 52.5q-23 7 -44.5 10t-42.5 3q-37 0 -62.5 -13.5t-38.5 -43.5t-13 -80v-16zM940 86q44 0 71.5 18t41.5 59.5t14 110.5
q0 58 -11.5 94t-33 54t-53.5 18q-18 0 -36 -4t-37 -12t-42 -22v-305q25 -5 46.5 -8t39.5 -3z" />
    <glyph glyph-name="f_f_h.liga" unicode="ffh" horiz-adv-x="1234" 
d="M94 0v401h-78v89l78 9v12q0 63 17.5 108t49.5 73.5t75.5 41.5t95.5 13q41 0 84 -8.5t84 -23.5q31 18 71.5 26.5t92.5 8.5q47 0 96.5 -6t93.5 -19v-228q29 18 57 30t56.5 18t59.5 6q50 0 85 -18t52.5 -52t17.5 -84v-397h-133v356q0 42 -19.5 62.5t-58.5 20.5q-20 0 -39 -4
t-38 -11.5t-40 -18.5v-405h-132v642q-16 3 -32 5t-32 2q-30 0 -54 -6.5t-40.5 -22t-25 -43.5t-8.5 -70v-8h129v-98h-129v-401h-130v401h-175v-401h-131zM225 494h175v17q0 39 6 70.5t20 52.5q-23 7 -44.5 10t-42.5 3q-37 0 -62.5 -13.5t-38.5 -43.5t-13 -80v-16z" />
    <glyph glyph-name="f_f_i.liga" unicode="ffi" horiz-adv-x="892" 
d="M94 0v414h-78v88l78 9v12q0 59 17.5 101.5t49.5 69.5t75.5 40t95.5 13q41 0 83.5 -8.5t82.5 -23.5q30 17 69 26t89 9q29 0 62.5 -3.5t68 -10.5t66.5 -18l-31 -96q-18 6 -38 10.5t-40.5 7.5t-40 4.5t-36.5 1.5q-44 0 -74.5 -12.5t-46.5 -40.5t-16 -76v-6h306v-511h-133
v414h-173v-414h-130v414h-175v-414h-131zM225 507h175v16q0 34 5.5 62.5t19.5 48.5q-22 7 -43.5 10t-42.5 3q-37 0 -62.5 -13t-38.5 -40t-13 -71v-16z" />
    <glyph glyph-name="f_f_j.liga" unicode="ffj" horiz-adv-x="889" 
d="M822 622q-20 6 -41 11t-41.5 7.5t-39 4t-33.5 1.5q-45 0 -75 -12.5t-46 -41t-16 -75.5v-6h300v-483q0 -77 -20 -128.5t-60 -79t-101 -32.5q-13 -1 -27 -0.5t-28 2t-27 3.5l9 111q10 -2 19 -2.5t18 1.5q27 4 46 18.5t29 42t10 71.5v379h-168v-414h-130v414h-175v-414h-131
v414h-78v88l78 9v12q0 59 17.5 101.5t49.5 69.5t75.5 40t95.5 13q41 0 83.5 -8.5t82.5 -23.5q30 17 69 26t87 9q32 0 66.5 -4t68.5 -11t64 -17zM400 523q0 34 6 62.5t19 48.5q-22 7 -43.5 10t-42.5 3q-37 0 -62.5 -13t-38.5 -40t-13 -71v-16h175v16z" />
    <glyph glyph-name="f_f_k.liga" unicode="ffk" horiz-adv-x="1207" 
d="M1161 -9q-16 0 -32.5 3.5t-35 14.5t-44 32t-61.5 56l-137 133v-230h-127v641q-16 3 -32 5t-32 2q-31 0 -55 -7t-40 -23.5t-24 -41.5t-8 -61v-16h128v-99h-128v-400h-132v400h-174v-400h-132v400h-79v90l79 9v12q0 65 18 110t50.5 73t75 40.5t91.5 12.5q43 0 86.5 -8.5
t84.5 -24.5q31 18 73 27t92 9q47 0 94.5 -6.5t90.5 -17.5v-325l165 -161q49 -47 78.5 -71t48.5 -32.5t36 -8.5q3 0 7 0.5t8 0.5l2 -135l-16 -2t-19 -1zM227 497h174v22q0 34 6 62.5t18 52.5q-23 7 -44 10t-41 3q-37 0 -62 -13.5t-38 -44t-13 -80.5v-12zM960 238l-108 53
q36 31 66.5 60.5t55.5 60.5t43.5 65t28.5 73l134 -9q-12 -44 -36.5 -86t-55.5 -80.5t-64.5 -72.5t-63.5 -64z" />
    <glyph glyph-name="f_f_l.liga" unicode="ffl" horiz-adv-x="958" 
d="M860 -10q-46 0 -78.5 16t-49 56t-16.5 109v471q-15 3 -30.5 5t-30.5 2q-30 0 -53.5 -6.5t-39 -22t-24 -43.5t-8.5 -70v-8h129v-98h-129v-401h-130v401h-175v-401h-131v401h-78v89l78 9v12q0 63 17.5 108t49.5 73.5t75.5 41.5t95.5 13q41 0 84 -8.5t84 -23.5
q31 18 71.5 26.5t92.5 8.5q46 0 93.5 -6t91.5 -19v-542q0 -33 6.5 -50t18 -22.5t25.5 -5.5q10 0 22 2t25 6l13 -102q-20 -9 -45 -15t-54 -6zM225 494h175v17q0 39 6 70.5t20 52.5q-23 7 -44.5 10t-42.5 3q-37 0 -62.5 -13.5t-38.5 -43.5t-13 -80v-16z" />
    <glyph glyph-name="f_f_t.liga" unicode="fft" horiz-adv-x="1003" 
d="M94 0v419h-78v84l78 10v10q0 59 17.5 101.5t49.5 69.5t75.5 40t95.5 13q41 0 83 -8t83 -23q30 17 67.5 25.5t77.5 8.5q55 0 105 -8t86 -21v-204h141v-98h-141v-236q0 -19 3 -34t10 -25t20 -15.5t33 -5.5q17 0 36 4t41 11l19 -102q-34 -13 -70 -19.5t-71 -6.5
q-41 0 -70.5 12t-47.5 35.5t-26.5 57.5t-9.5 78v246h-171v-419h-130v419h-175v-419h-131zM530 513h171l4 127q-17 5 -33 7.5t-35 2.5q-32 0 -56 -13t-37.5 -41t-13.5 -76v-7zM225 513h175v10q0 34 5.5 63.5t20.5 50.5q-23 6 -44.5 9.5t-42.5 3.5q-37 0 -62.5 -13.5
t-38.5 -41.5t-13 -72v-10z" />
    <glyph glyph-name="f_h.liga" unicode="fh" horiz-adv-x="929" 
d="M94 0v401h-78v89l78 9v19q0 77 30.5 128.5t89 77.5t144.5 26q48 0 97 -6t94 -19v-228q29 18 57 30t56.5 18t59.5 6q50 0 84.5 -18t52.5 -52t18 -84v-397h-133v356q0 42 -20 62.5t-58 20.5q-20 0 -39 -4t-38 -11.5t-40 -18.5v-405h-133v642q-16 3 -32 5t-31 2
q-42 0 -70.5 -13t-43 -42.5t-14.5 -78.5v-16h128v-98h-128v-401h-131z" />
    <glyph glyph-name="f_j.liga" unicode="fj" horiz-adv-x="583" 
d="M343 -212q-12 -1 -26 -0.5t-28 2t-27 3.5l9 111q10 -2 19 -2.5t18 1.5q27 4 45.5 18.5t28.5 42t10 71.5v379h-167v-414h-131v414h-78v88l78 9v12q0 77 31.5 127.5t88.5 75t135 24.5q33 0 67 -4t68 -11t64 -17l-31 -96q-20 6 -41 11t-41.5 7.5t-39 4t-33.5 1.5
q-69 0 -103 -31.5t-34 -97.5v-6h300v-483q0 -77 -20 -128.5t-60 -79t-102 -32.5z" />
    <glyph glyph-name="f_k.liga" unicode="fk" horiz-adv-x="901" 
d="M855 -9q-16 0 -32.5 3.5t-35 14.5t-43.5 32t-61 56l-137 133v-230h-128v641q-16 3 -32 5t-31 2q-32 0 -55.5 -7t-40 -23.5t-24.5 -41.5t-8 -61v-16h128v-99h-128v-400h-132v400h-79v90l79 9v20q0 76 30.5 127.5t90 77.5t144.5 26q47 0 94.5 -6.5t91.5 -17.5v-325
l164 -161q49 -47 78.5 -71t49 -32.5t35.5 -8.5q3 0 7 0.5t8 0.5l2 -135q-7 -1 -15.5 -2t-19.5 -1zM654 238l-108 53q35 31 65.5 61t55.5 61t44 64.5t29 72.5l134 -9q-12 -44 -36 -86t-55.5 -80.5t-64.5 -72.5t-64 -64z" />
    <glyph glyph-name="f_t.liga" unicode="ft" horiz-adv-x="698" 
d="M550 -10q-42 0 -71 12t-47 35.5t-27 57.5t-9 78v246h-171v-419h-131v419h-78v84l78 10v10q0 57 18 100t50.5 71t77 42t97.5 14q56 0 106 -8t86 -21v-204h141v-98h-141v-236q0 -19 3 -34t10 -25t20 -15.5t33 -5.5q17 0 36 4t41 11l18 -102q-33 -13 -69 -19.5t-71 -6.5z
M225 513h171l4 127q-17 5 -33.5 7.5t-34.5 2.5q-52 0 -79.5 -32t-27.5 -98v-7z" />
    <glyph glyph-name=".notdef" horiz-adv-x="500" 
d="M0 0v700h500v-700h-500zM250 395l170 255h-340zM450 95v510l-170 -255zM50 95l170 255l-170 255v-510zM80 50h340l-170 255z" />
    <glyph glyph-name="uni0000" 
 />
    <glyph glyph-name="uni0000" 
 />
    <glyph glyph-name="uni000D" unicode="&#xd;" horiz-adv-x="267" 
 />
    <glyph glyph-name="uni0020" unicode=" " horiz-adv-x="267" 
 />
    <glyph glyph-name="uni0021" unicode="!" horiz-adv-x="243" 
d="M65 261l-9 479h133l-10 -479h-114zM48 66q0 37 16.5 54.5t57.5 17.5q40 0 56.5 -17.5t16.5 -54.5t-16.5 -54.5t-56.5 -17.5q-41 0 -57.5 17.5t-16.5 54.5z" />
    <glyph glyph-name="uni0022" unicode="&#x22;" horiz-adv-x="375" 
d="M45 427l-6 273h119l-7 -273h-106zM223 427l-6 273h119l-7 -273h-106z" />
    <glyph glyph-name="uni0023" unicode="#" horiz-adv-x="623" 
d="M76 436v97h92l25 167h119l-26 -167h107l26 167h118l-25 -167h63v-97h-76l-29 -177h78v-97h-91l-25 -162h-118l24 162h-107l-24 -162h-119l25 162h-64v97h77l29 177h-79zM274 436l-30 -177h107l30 177h-107z" />
    <glyph glyph-name="uni0024" unicode="$" horiz-adv-x="623" 
d="M286 -10q-30 0 -61 3.5t-62 9t-60.5 13.5t-54.5 17l26 103q27 -9 57 -16.5t60.5 -13t59 -8t53.5 -2.5q69 0 101 20t32 60q0 22 -12 39t-35.5 31.5t-59 28.5t-83.5 30q-56 21 -95.5 49.5t-60.5 68.5t-21 93q0 65 31 107.5t88.5 64.5t138.5 22q39 0 77.5 -4.5t74.5 -11.5
t64 -17l-25 -104q-26 9 -57.5 15t-64.5 9.5t-64 3.5q-64 0 -95 -19.5t-31 -58.5q0 -22 10 -39.5t30 -31.5t51.5 -27t74.5 -26q65 -20 110.5 -47.5t68.5 -68t23 -97.5q0 -54 -21 -91t-59.5 -61t-91.5 -34.5t-117 -9.5zM267 -105v109l106 6v-115h-106zM267 691v113h106v-107z
" />
    <glyph glyph-name="uni0025" unicode="%" horiz-adv-x="955" 
d="M41 508q0 59 12.5 99t36 63.5t57 33t75.5 9.5t75.5 -10t57 -33t35.5 -63t12 -99t-12.5 -98.5t-36.5 -63.5t-57 -34t-74 -10q-42 0 -75.5 10t-57 33.5t-36 63t-12.5 99.5zM141 505q0 -57 10 -87t28.5 -40.5t42.5 -10.5t42 10.5t28.5 40.5t10.5 87q0 62 -10.5 92.5
t-28.5 40.5t-42 10t-42.5 -10.5t-28.5 -41t-10 -91.5zM337 -8l-85 4l367 731l86 -3zM553 197q0 59 12.5 99t36 63.5t57 33t75.5 9.5t75.5 -10t57 -33t35.5 -63t12 -99t-12.5 -98.5t-36.5 -63.5t-57 -34t-74 -10q-42 0 -75.5 10t-57 33.5t-36 63t-12.5 99.5zM653 194
q0 -57 10 -87t28.5 -40.5t42.5 -10.5t42 10.5t28.5 40.5t10.5 87q0 62 -10.5 92.5t-28.5 40.5t-42 10t-42.5 -10.5t-28.5 -41t-10 -91.5z" />
    <glyph glyph-name="uni0026" unicode="&#x26;" horiz-adv-x="695" 
d="M537 -5l-361 372q-24 27 -39 53t-21.5 52.5t-6.5 54.5q0 56 23.5 97t72.5 63.5t126 22.5q102 0 154 -39.5t52 -117.5q0 -35 -11 -66.5t-35 -56.5t-64 -44l-53 61q22 16 33 36t11 48q0 25 -9 41t-27.5 24.5t-46.5 8.5q-45 0 -67 -19.5t-22 -56.5q0 -16 5 -32.5t16.5 -34.5
t31.5 -40l393 -422zM285 -10q-119 0 -186.5 56t-67.5 148q0 70 34.5 121t106.5 85l62 -73q-38 -22 -56.5 -49.5t-18.5 -69.5q0 -36 17.5 -62t49.5 -41t75 -15q46 0 76 14.5t49 39.5l65 -78q-27 -25 -59 -42t-68.5 -25.5t-78.5 -8.5zM567 116l-79 93q17 21 25.5 49t9.5 62
q1 12 0 23t-3 22l109 2q2 -13 3.5 -26t1.5 -30q0 -55 -17.5 -104.5t-49.5 -90.5z" />
    <glyph glyph-name="uni0027" unicode="'" horiz-adv-x="197" 
d="M45 427l-6 273h119l-7 -273h-106z" />
    <glyph glyph-name="uni0028" unicode="(" horiz-adv-x="319" 
d="M55 265q0 98 14.5 182t44 148.5t76 104.5t110.5 50v-99q-35 -14 -61 -43t-42.5 -76.5t-24.5 -113.5t-8 -153t8 -153t24.5 -113.5t42.5 -76.5t61 -43v-99q-64 10 -110.5 50t-76 104.5t-44 148.5t-14.5 182z" />
    <glyph glyph-name="uni0029" unicode=")" horiz-adv-x="319" 
d="M18 -121q36 14 62 43t42.5 76.5t24.5 113.5t8 153t-8 153t-24.5 113.5t-42.5 76.5t-62 43v99q65 -10 111.5 -50t76 -104.5t44 -148.5t14.5 -182t-14.5 -182t-44 -148.5t-76 -104.5t-111.5 -50v99z" />
    <glyph glyph-name="uni002A" unicode="*" horiz-adv-x="355" 
d="M102 367l-49 34l64 107l-110 48l19 57l114 -32l7 125h62l6 -125l114 32l19 -57l-110 -48l64 -107l-49 -34l-75 97z" />
    <glyph glyph-name="uni002B" unicode="+" horiz-adv-x="511" 
d="M198 105v151h-149v107h149v150h115v-150h149v-107h-149v-151h-115z" />
    <glyph glyph-name="uni002C" unicode="," horiz-adv-x="216" 
d="M46 75l122 4q5 -16 8.5 -34.5t3.5 -40.5q0 -34 -9.5 -69t-29.5 -67t-51 -61l-99 24q33 36 48.5 82.5t15.5 90.5q0 13 -2 32t-7 39z" />
    <glyph glyph-name="uni002D" unicode="-" horiz-adv-x="339" 
d="M37 243v113h265v-113h-265z" />
    <glyph glyph-name="uni002E" unicode="." horiz-adv-x="219" 
d="M36 67q0 37 16.5 54t57.5 17t57 -17t16 -54t-16 -54.5t-57 -17.5q-40 0 -57 17.5t-17 54.5z" />
    <glyph glyph-name="uni002F" unicode="/" horiz-adv-x="401" 
d="M1 -210l291 950h108l-291 -950h-108z" />
    <glyph glyph-name="uni0030" unicode="0" horiz-adv-x="623" 
d="M28 350q0 104 20 173.5t58 110.5t90 58.5t116 17.5q65 0 117.5 -17.5t89.5 -59t57 -110.5t20 -173q0 -103 -21 -172.5t-58.5 -110.5t-89.5 -59t-115 -18q-64 0 -116 17.5t-89.5 59t-58 111t-20.5 172.5zM164 346q0 -78 11 -127.5t31 -76t47 -37t59 -10.5q31 0 58 10.5
t47 37t31 76t11 127.5q0 81 -11 132t-31.5 79t-47 38t-57.5 10q-32 0 -58.5 -10t-47 -38t-31.5 -79t-11 -132z" />
    <glyph glyph-name="uni0031" unicode="1" horiz-adv-x="623" 
d="M78 0v108h201v444l-187 -84l-29 113l283 121h68v-594h170v-108h-506z" />
    <glyph glyph-name="uni0032" unicode="2" horiz-adv-x="624" 
d="M55 91q80 68 136.5 118t93 87t57 66.5t28.5 54t8 51.5q0 35 -14.5 59.5t-41.5 37.5t-67 13q-36 0 -76.5 -11.5t-81.5 -35.5l-41 113q32 22 69.5 36.5t79 22t82.5 7.5q75 0 127.5 -27t80.5 -75t28 -112q0 -32 -5.5 -60t-21.5 -58.5t-46.5 -68t-80.5 -86.5t-123 -114h330
v-109h-518z" />
    <glyph glyph-name="uni0033" unicode="3" horiz-adv-x="624" 
d="M32 47l37 96q29 -13 60 -22t66 -14t74 -5q53 0 89 12.5t53.5 38t17.5 61.5q0 49 -40 72t-118 23h-101v99h112q41 0 69.5 11t42 32t13.5 48q0 44 -37.5 68.5t-104.5 24.5q-43 0 -88.5 -8.5t-91.5 -30.5l-32 105q29 16 66 28t79.5 18t91.5 6q77 0 132.5 -22t86.5 -62.5
t31 -97.5q0 -55 -28 -96.5t-81 -61.5q66 -17 100.5 -60t34.5 -105q0 -68 -34.5 -116t-98 -73.5t-153.5 -25.5q-51 0 -94 6t-79.5 18.5t-74.5 32.5z" />
    <glyph glyph-name="uni0034" unicode="4" horiz-adv-x="624" 
d="M22 133l-2 99l354 471l119 -3v-462h104v-105h-104v-133h-141v133h-330zM139 238h217v285z" />
    <glyph glyph-name="uni0035" unicode="5" horiz-adv-x="624" 
d="M36 40l36 104q27 -11 54.5 -19.5t61.5 -13.5t76 -5q60 0 97.5 13.5t55.5 38t18 59.5q0 26 -8 45t-27.5 31.5t-52.5 18.5t-81 6h-177l-10 11l43 371h413v-116h-312l-18 -164h121q81 0 135.5 -21t82.5 -64.5t28 -112.5q0 -78 -38 -129.5t-104.5 -77t-155.5 -25.5
q-48 0 -88 5.5t-76.5 16.5t-73.5 28z" />
    <glyph glyph-name="uni0036" unicode="6" horiz-adv-x="624" 
d="M317 -10q-90 0 -154 36t-97 111.5t-33 192.5q0 128 35.5 212t106 126t175.5 42q42 0 82 -4t75 -12.5t63 -20.5l-31 -106q-31 9 -58 15.5t-55 10.5t-58 4q-73 0 -116.5 -27.5t-62 -83.5t-18.5 -141q0 -71 11 -119t31 -76.5t48.5 -40.5t62.5 -12q63 0 97 32.5t34 94.5
q0 37 -16.5 63t-46 39.5t-71.5 13.5q-30 0 -59 -9t-55 -26t-48 -37l-4 97q23 24 56.5 40.5t72.5 25.5t82 9q71 0 120 -24.5t74 -72.5t25 -115q0 -116 -67.5 -177t-200.5 -61z" />
    <glyph glyph-name="uni0037" unicode="7" horiz-adv-x="624" 
d="M187 0q0 51 6 96t19.5 90t35 91.5t51.5 99.5l118 199h-364v124h522v-88l-148 -265q-35 -64 -57.5 -120t-34 -110.5t-12.5 -116.5h-136z" />
    <glyph glyph-name="uni0038" unicode="8" horiz-adv-x="624" 
d="M364 390q33 20 51.5 39t26 40t7.5 46q0 44 -34.5 67.5t-102.5 23.5q-41 0 -69 -10t-42 -28t-14 -46q0 -25 14 -43t38 -30.5t55.5 -22.5t65.5 -19.5t68 -21.5t65.5 -27.5t55.5 -37.5t38 -53t14 -74q0 -67 -32.5 -112.5t-97.5 -68t-164 -22.5q-137 0 -210.5 51t-73.5 146
q0 40 16 75.5t47.5 65t79.5 51.5l83 -47q-47 -27 -68.5 -58t-21.5 -78q0 -52 40.5 -79t118.5 -27q70 0 106 23.5t36 69.5q0 28 -13.5 47t-37 33t-54 25t-63.5 20.5t-66.5 21t-64 27.5t-54 37.5t-37 52.5t-13.5 73q0 92 68 141t193 49q124 0 190.5 -46t66.5 -130
q0 -33 -11.5 -65.5t-39 -61.5t-71.5 -55z" />
    <glyph glyph-name="uni0039" unicode="9" horiz-adv-x="624" 
d="M267 -10q-42 0 -82 4.5t-76 13.5t-63 21l31 104q30 -9 58 -16t56 -10.5t57 -3.5q74 0 117 27.5t61.5 83.5t18.5 141q0 70 -9 118t-27.5 76.5t-46 41t-65.5 12.5q-41 0 -72 -14.5t-48 -42t-17 -69.5q0 -38 16.5 -64t47 -39.5t70.5 -13.5q30 0 59.5 8.5t57.5 25t51 39.5
v-102q-25 -23 -58.5 -39t-71.5 -24.5t-78 -8.5q-72 0 -122 25t-75.5 72.5t-25.5 115.5q0 78 31 130.5t92.5 80t149.5 27.5q95 0 156.5 -36.5t92 -112.5t30.5 -195q0 -127 -35.5 -210.5t-105.5 -124.5t-175 -41z" />
    <glyph glyph-name="uni003A" unicode=":" horiz-adv-x="219" 
d="M36 67q0 37 16.5 54t57.5 17t57 -17t16 -54t-16 -54.5t-57 -17.5q-40 0 -57 17.5t-17 54.5zM36 475q0 37 16.5 54t57.5 17t57 -17t16 -54t-16 -54.5t-57 -17.5q-40 0 -57 17.5t-17 54.5z" />
    <glyph glyph-name="uni003B" unicode=";" horiz-adv-x="219" 
d="M48 75l122 4q5 -16 8.5 -34.5t3.5 -40.5q0 -34 -9.5 -69t-29.5 -67t-51 -61l-99 24q33 36 48.5 82.5t15.5 90.5q0 13 -2 32t-7 39zM36 475q0 37 16.5 54t57.5 17t57 -17t16 -54t-16 -54.5t-57 -17.5q-40 0 -57 17.5t-17 54.5z" />
    <glyph glyph-name="uni003C" unicode="&#x3c;" horiz-adv-x="511" 
d="M469 77l-427 173v106l427 174v-104l-309 -123l309 -122v-104z" />
    <glyph glyph-name="uni003D" unicode="=" horiz-adv-x="505" 
d="M456 246v-107h-407v107h407zM456 468v-106h-407v106h407z" />
    <glyph glyph-name="uni003E" unicode="&#x3e;" horiz-adv-x="511" 
d="M469 250l-427 -173v103l309 123l-309 123v104l427 -174v-106z" />
    <glyph glyph-name="uni003F" unicode="?" horiz-adv-x="469" 
d="M160 261l-3 127q48 17 78.5 34.5t47 35.5t23 37t6.5 39q0 24 -8.5 41.5t-23 29.5t-34 18t-42.5 6q-35 0 -74 -11.5t-78 -36.5l-41 104q28 20 64 34.5t74.5 22.5t75.5 8q46 0 86 -11.5t71.5 -36t49.5 -63t18 -90.5q0 -53 -18 -93t-56.5 -71.5t-100.5 -57.5l-1 -66h-114z
M145 66q0 37 16.5 54.5t56.5 17.5t57 -17.5t17 -54.5t-17 -54.5t-57 -17.5t-56.5 17.5t-16.5 54.5z" />
    <glyph glyph-name="uni0040" unicode="@" horiz-adv-x="825" 
d="M403 -124q-83 0 -150.5 22.5t-116.5 70t-75 122t-26 178.5q0 95 25 175.5t75.5 140t126 92.5t175.5 33q113 0 192 -40.5t120.5 -122t41.5 -203.5q0 -61 -10.5 -113.5t-31.5 -93t-53 -63.5t-76 -22q-29 0 -50 9t-34.5 26.5t-21.5 42.5t-11 58q-16 -42 -39.5 -71t-51.5 -44
t-64 -15q-40 0 -71 20.5t-48 65t-17 115.5q0 58 13.5 107.5t42 88t70.5 60t99 21.5q28 0 56 -4t56 -11t57 -17l-19 -259q-3 -47 3 -73t19 -36.5t31 -10.5q25 -1 44.5 26.5t30.5 76t11 109.5q0 104 -31 174t-97 105.5t-171 35.5q-81 0 -141.5 -29t-100.5 -81t-60.5 -123
t-20.5 -154q0 -91 22.5 -153.5t63 -101t95.5 -56t122 -17.5q53 0 100.5 11t87.5 30l17 -52q-26 -14 -60.5 -25.5t-73 -18t-75.5 -6.5zM386 153q17 0 33 7.5t29 26t23.5 51t17.5 82.5l12 127q-17 6 -35 8.5t-33 2.5q-27 0 -47 -16.5t-34 -45t-21.5 -63t-7.5 -72.5t8.5 -62
t23 -35t31.5 -11z" />
    <glyph glyph-name="uni0041" unicode="A" horiz-adv-x="640" 
d="M9 0l229 705h163l231 -705h-151l-46 150h-236l-47 -150h-143zM224 263h185l-92 328z" />
    <glyph glyph-name="uni0042" unicode="B" horiz-adv-x="646" 
d="M61 2v695q57 5 102.5 7.5t84.5 4t73 1.5q94 0 151 -17.5t82.5 -55t25.5 -98.5q0 -57 -26 -97.5t-77 -61.5v-2q66 -16 103 -63t37 -115q0 -56 -16 -96t-50 -65t-89.5 -37t-137.5 -12q-28 0 -51 0.5t-43 1t-43.5 2t-53.5 3.5t-72 5zM200 405h157q28 0 49.5 12t33 34
t11.5 50q0 34 -13.5 56t-43 32t-79.5 10h-23.5t-19.5 -0.5t-19 -1t-22.5 -1.5t-30.5 -3v-188zM200 107q21 -1 38 -2.5t30.5 -2t25.5 -1t23 -0.5q60 0 94.5 10.5t49 33.5t14.5 61q0 48 -29 72.5t-89 24.5h-157v-196z" />
    <glyph glyph-name="uni0043" unicode="C" horiz-adv-x="612" 
d="M35 339q0 132 37 214t110.5 119.5t182.5 37.5q33 0 60.5 -1.5t52 -5t47.5 -9t47 -12.5l-28 -110q-29 8 -57 12.5t-54.5 6.5t-54.5 2q-52 0 -90.5 -13t-63.5 -42.5t-37 -78.5t-12 -119q0 -66 12 -110.5t36.5 -72t61.5 -39.5t87 -12q46 0 96.5 6.5t92.5 18.5l24 -108
q-24 -8 -49.5 -14t-54.5 -10t-61 -6.5t-70 -2.5q-77 0 -136 19t-99 59.5t-60 107.5t-20 163z" />
    <glyph glyph-name="uni0044" unicode="D" horiz-adv-x="680" 
d="M317 -10q-47 0 -90.5 1t-84.5 3t-81 4v702q45 4 85.5 6t80.5 3t82 1q119 0 193 -37.5t108.5 -117t34.5 -206.5q0 -124 -36.5 -203.5t-109 -117.5t-182.5 -38zM325 99q58 0 97.5 24.5t59.5 79.5t20 145q0 94 -19.5 149t-59.5 79t-103 24q-18 0 -39.5 -0.5t-42 -1.5
t-39.5 -2v-492q15 -1 31 -2t32 -1.5l32 -1t31 -0.5z" />
    <glyph glyph-name="uni0045" unicode="E" horiz-adv-x="585" 
d="M61 0v700h480v-120h-341v-162h317v-117h-317v-181h359v-120h-498z" />
    <glyph glyph-name="uni0046" unicode="F" horiz-adv-x="555" 
d="M61 0v700h477v-122h-339v-205h294v-119h-293v-254h-139z" />
    <glyph glyph-name="uni0047" unicode="G" horiz-adv-x="650" 
d="M35 339q0 126 36 208t108.5 122.5t180.5 40.5q31 0 60 -2t56 -5.5t52.5 -9.5t49.5 -14l-25 -109q-46 12 -93 18t-89 6q-66 0 -110 -27.5t-65.5 -84t-21.5 -145.5q0 -84 20 -136.5t60 -77t98 -24.5q38 0 70 4t57 12v158h-137v107h261v-341q-53 -25 -120.5 -37t-146.5 -12
q-101 0 -167.5 38t-100 115.5t-33.5 195.5z" />
    <glyph glyph-name="uni0048" unicode="H" horiz-adv-x="694" 
d="M61 0v700h137v-325h298v325h137v-700h-137v252h-298v-252h-137z" />
    <glyph glyph-name="uni0049" unicode="I" horiz-adv-x="259" 
d="M61 0v700h137v-700h-137z" />
    <glyph glyph-name="uni004A" unicode="J" horiz-adv-x="498" 
d="M9 23l26 106q28 -7 54 -12t50 -8t44 -3q42 0 70 13t42 43t14 81v337h-252v120h389v-488q0 -73 -24 -122.5t-73.5 -74.5t-127.5 -25q-34 0 -70 4t-72 11.5t-70 17.5z" />
    <glyph glyph-name="uni004B" unicode="K" horiz-adv-x="653" 
d="M610 -10q-30 0 -59 9t-60.5 28t-66.5 51l-225 204v-282h-138v700h138v-248l259 -231q31 -27 54 -44t41.5 -27t34 -13.5t30.5 -3.5h7.5h8.5v-141q-7 -1 -13 -1.5t-11 -0.5zM321 295l-89 78q28 19 58.5 45t62 56.5t62 66.5t57 77.5t47.5 87.5l106 -53q-23 -59 -55.5 -111
t-72.5 -96.5t-85 -82.5t-91 -68z" />
    <glyph glyph-name="uni004C" unicode="L" horiz-adv-x="539" 
d="M61 0v700h137v-580h324v-120h-461z" />
    <glyph glyph-name="uni004D" unicode="M" horiz-adv-x="781" 
d="M61 0v700h142l190 -339l192 339h135v-700h-125v495l-174 -304h-64l-170 302v-493h-126z" />
    <glyph glyph-name="uni004E" unicode="N" horiz-adv-x="679" 
d="M61 0v702h130l305 -489v487h122v-702h-129l-305 482v-480h-123z" />
    <glyph glyph-name="uni004F" unicode="O" horiz-adv-x="699" 
d="M348 99q31 0 57.5 7t48 24.5t37 45.5t24 71.5t8.5 102.5q0 60 -8.5 103.5t-24.5 72t-37 45.5t-48 24t-57 7q-29 0 -55 -7t-47.5 -23.5t-37 -45.5t-24 -72.5t-8.5 -103.5t8.5 -102.5t24.5 -71.5t37.5 -46t47 -24t54.5 -7zM349 -10q-57 0 -105 11.5t-87 37t-65.5 67
t-41 102t-14.5 142.5t13.5 142t40 101.5t65.5 68t87 37.5t107 11q58 0 107 -11.5t87 -36.5t65 -66.5t41 -101.5t14 -141q0 -84 -14 -145t-41.5 -102.5t-65.5 -67t-86.5 -37t-106.5 -11.5z" />
    <glyph glyph-name="uni0050" unicode="P" horiz-adv-x="647" 
d="M61 0v702q68 3 117.5 5t84 2.5t53.5 0.5q91 0 150.5 -13.5t93 -42.5t47.5 -75.5t14 -112.5q0 -68 -14.5 -116.5t-46 -79.5t-83 -45.5t-125.5 -14.5h-36h-27t-24 0.5t-28 1t-39 1.5v-213h-137zM199 596v-274q18 -1 32 -1.5t26.5 -1t25 -0.5h28.5q52 0 85.5 8t52 26
t26 46.5t7.5 69.5q0 35 -7 60t-24 41t-47.5 23.5t-77.5 7.5h-24.5t-25.5 -0.5t-32.5 -1.5t-44.5 -3z" />
    <glyph glyph-name="uni0051" unicode="Q" horiz-adv-x="697" 
d="M483 29q12 -35 25 -58.5t30 -35t38 -11.5q13 0 27 3.5t29 10.5l16 -113q-25 -9 -49.5 -14t-47.5 -5q-47 0 -81 21.5t-59 66t-44 111.5zM348 98q31 0 57.5 7.5t47.5 24.5t36.5 45.5t24 72t8.5 102.5q0 60 -8 103t-24 72t-37 45.5t-47.5 24t-57.5 7.5q-28 0 -54.5 -7
t-48 -24t-37.5 -45.5t-24.5 -72t-8.5 -103.5t8.5 -103t24.5 -72t37.5 -45.5t48 -24t54.5 -7.5zM349 -10q-59 0 -107.5 11.5t-87 37t-65 67t-40.5 102t-14 142.5q0 81 13.5 141.5t39.5 102.5t64 67.5t87.5 37t109.5 11.5q59 0 108 -11t87.5 -37t64.5 -67t39.5 -101t13.5 -142
t-14 -143.5t-40.5 -103t-64.5 -67t-87 -37t-107 -11.5z" />
    <glyph glyph-name="uni0052" unicode="R" horiz-adv-x="680" 
d="M630 -10q-29 0 -57 9.5t-57 29t-59 49.5t-62.5 72.5t-69.5 96.5q-7 -1 -21.5 -1h-21.5h-40.5t-42.5 1v-247h-138v701q54 3 98.5 5t83 3t72.5 1q81 0 138 -11.5t93 -37t52.5 -66.5t16.5 -98q0 -60 -18.5 -102.5t-52.5 -69.5t-81 -43q30 -40 56.5 -69.5t49 -49t41.5 -29.5
t37 -10q3 0 7.5 0.5t8.5 0.5v-132q-6 -1 -14 -2t-19 -1zM311 356q41 0 71.5 6.5t50.5 20.5t30 37.5t10 58.5q0 44 -14 70.5t-48 38.5t-93 12h-30t-25.5 -0.5t-27.5 -1t-36 -2.5v-237q17 -1 31 -1.5t27.5 -1t26 -0.5h27.5z" />
    <glyph glyph-name="uni0053" unicode="S" horiz-adv-x="602" 
d="M545 677l-26 -107q-20 7 -45 12.5t-51.5 9.5t-53.5 6t-51 2q-66 0 -103.5 -20.5t-37.5 -61.5q0 -20 10.5 -35.5t32.5 -29.5t58.5 -27t87.5 -27q54 -15 94 -34.5t66.5 -43.5t39 -55.5t12.5 -72.5q0 -65 -34.5 -110t-101 -69t-162.5 -24q-31 0 -66 3t-70.5 8.5t-68.5 13.5
t-59 18l27 106q27 -9 58 -16.5t63 -13t64 -8.5t60 -3q49 0 82 9.5t49.5 28.5t16.5 46q0 21 -13 37t-39 28.5t-66.5 26.5t-94.5 31q-48 17 -83.5 36t-58.5 43.5t-34.5 55.5t-11.5 70q0 44 17 80.5t51.5 63.5t88 41.5t125.5 14.5q43 0 85.5 -4.5t80 -12t62.5 -16.5z" />
    <glyph glyph-name="uni0054" unicode="T" horiz-adv-x="583" 
d="M569 579h-209v-579h-137v579h-210v121h556v-121z" />
    <glyph glyph-name="uni0055" unicode="U" horiz-adv-x="674" 
d="M52 221v479h135v-480q0 -28 8 -48.5t22 -34t33 -21.5t41.5 -11t45.5 -3q25 0 47 3.5t40.5 11.5t32.5 21.5t21.5 33.5t7.5 48v480h136v-479q0 -52 -13 -90.5t-37.5 -65.5t-59.5 -43.5t-79.5 -24t-95.5 -7.5t-95 7.5t-79 24t-60 43.5t-38 65.5t-13 90.5z" />
    <glyph glyph-name="uni0056" unicode="V" horiz-adv-x="631" 
d="M236 0l-233 698l150 4l165 -577l161 577l150 -4l-232 -698h-161z" />
    <glyph glyph-name="uni0057" unicode="W" horiz-adv-x="815" 
d="M662 0h-143l-113 483l-118 -483h-136l-149 699l147 2l79 -563l119 528h123l115 -527l79 562l147 -2z" />
    <glyph glyph-name="uni0058" unicode="X" horiz-adv-x="624" 
d="M5 2l226 357l-207 339l164 4l133 -243l129 243l154 -4l-204 -336l215 -360l-161 -5l-143 260l-146 -260z" />
    <glyph glyph-name="uni0059" unicode="Y" horiz-adv-x="625" 
d="M245 0v260l-242 438l152 4l159 -354l156 354l151 -4l-239 -438v-260h-137z" />
    <glyph glyph-name="uni005A" unicode="Z" horiz-adv-x="597" 
d="M24 0v109l373 477v2h-355v112h514v-109l-370 -477v-2h390v-112h-552z" />
    <glyph glyph-name="uni005B" unicode="[" horiz-adv-x="319" 
d="M157 -117h141v-93h-245v950h245v-93h-141v-764z" />
    <glyph glyph-name="uni005C" unicode="\" horiz-adv-x="401" 
d="M109 740l291 -950h-108l-291 950h108z" />
    <glyph glyph-name="uni005D" unicode="]" horiz-adv-x="319" 
d="M21 -117h141v764h-141v93h245v-950h-245v93z" />
    <glyph glyph-name="uni005E" unicode="^" horiz-adv-x="511" 
d="M46 249l149 456h121l150 -456h-102l-108 320l-108 -320h-102z" />
    <glyph glyph-name="uni005F" unicode="_" horiz-adv-x="780" 
d="M11 -176v101h758v-101h-758z" />
    <glyph glyph-name="uni0060" unicode="`" horiz-adv-x="434" 
d="M229 596l-131 194h137l101 -194h-107z" />
    <glyph glyph-name="uni0061" unicode="a" horiz-adv-x="541" 
d="M24 141q0 50 19.5 81.5t58.5 50t98.5 29t139.5 16.5v50q0 36 -27 53.5t-78 17.5q-21 0 -47 -2t-54 -7t-57 -14l-23 105q45 14 95.5 22t94.5 8q79 0 130 -20.5t75.5 -61t24.5 -100.5v-216q0 -28 8 -38t20 -10q5 0 12 1t13 4l11 -97q-17 -10 -39 -16.5t-47 -6.5
q-40 0 -64 16.5t-35 50.5q-25 -18 -53 -34t-60 -24.5t-71 -8.5q-33 0 -59 10t-45.5 29.5t-30 47.5t-10.5 64zM159 150q0 -35 16.5 -52.5t44.5 -17.5q21 0 42.5 7t42 18.5t35.5 27.5v111q-43 -2 -76.5 -8t-57 -16t-35.5 -27t-12 -43z" />
    <glyph glyph-name="uni0062" unicode="b" horiz-adv-x="565" 
d="M52 16v724h133v-242q42 27 82.5 40t81.5 13q91 0 138.5 -68t47.5 -199q0 -104 -28 -169t-87 -95t-153 -30q-46 0 -100 7t-115 19zM185 97q25 -5 46 -8t40 -3q44 0 71.5 18t41 59.5t13.5 110.5q0 58 -11 94t-32.5 54t-53.5 18q-18 0 -36 -4t-37 -12t-42 -22v-305z" />
    <glyph glyph-name="uni0063" unicode="c" horiz-adv-x="504" 
d="M31 262q0 97 30.5 161t91.5 96t148 32q30 0 60.5 -2.5t59.5 -7t52 -11.5l-18 -111q-23 5 -47 8.5t-47.5 5.5t-45.5 2q-48 0 -80.5 -18.5t-49.5 -56t-17 -95.5q0 -54 17.5 -89.5t51 -53t80.5 -17.5q23 0 47.5 1.5t49.5 5.5t49 9l20 -106q-40 -11 -92.5 -18t-101.5 -7
q-129 0 -193.5 66.5t-64.5 205.5z" />
    <glyph glyph-name="uni0064" unicode="d" horiz-adv-x="566" 
d="M397 -1l-16 44q-42 -27 -82.5 -40t-84.5 -13q-88 0 -135.5 69.5t-47.5 200.5q0 100 27 164t83.5 95.5t142.5 31.5q23 0 47.5 -2t48.5 -7v198h134v-741h-117zM380 138v303q-25 7 -46 9.5t-40 2.5q-43 0 -70.5 -17t-41 -57t-13.5 -107q0 -59 11.5 -97t33 -56t52.5 -18
q18 0 36 4t37 12t41 21z" />
    <glyph glyph-name="uni0065" unicode="e" horiz-adv-x="546" 
d="M284 -10q-61 0 -108 15.5t-79.5 48t-49 83t-16.5 120.5q0 81 19.5 137.5t55.5 91t84 50t105 15.5q113 0 166.5 -57t53.5 -186v-23t-2 -27q-23 -2 -59 -5t-81 -6t-97 -5t-107 -4q-1 -3 -1 -7v-8q0 -46 15.5 -73.5t46.5 -41t78 -13.5q30 0 61.5 3.5t63 9t61.5 12.5l16 -98
q-32 -10 -68 -17.5t-75 -11t-83 -3.5zM170 324q35 0 67.5 1.5t61.5 3t50 3t33 2.5q-1 44 -11.5 71t-31.5 39t-54 12q-20 0 -39 -6t-35 -21t-26.5 -40t-14.5 -65z" />
    <glyph glyph-name="uni0066" unicode="f" horiz-adv-x="385" 
d="M94 0v401h-78v89l78 9v19q0 79 23 130t67 76.5t107 25.5q36 0 70 -5.5t70 -19.5l-18 -94q-23 7 -46.5 10.5t-44.5 3.5q-48 0 -72.5 -30t-24.5 -99v-17h142v-98h-142v-401h-131z" />
    <glyph glyph-name="uni0067" unicode="g" horiz-adv-x="563" 
d="M255 -220q-118 0 -178.5 35.5t-60.5 104.5q0 28 9.5 50.5t29 41t48.5 31.5l75 -26q-16 -8 -28 -18t-18 -22t-6 -29q0 -24 14 -40.5t45 -24.5t80 -8t83.5 9t52.5 26.5t18 41.5q0 18 -7.5 28.5t-26.5 15.5t-53 5h-118q-54 0 -92.5 13.5t-59.5 40.5t-21 65q0 41 20.5 69
t57.5 47l73 -23q-23 -10 -35.5 -23.5t-12.5 -33.5q0 -21 16 -33t51 -12h164q83 0 126.5 -37.5t43.5 -106.5q0 -59 -34 -101t-98.5 -64t-157.5 -22zM268 189q-109 0 -165 46t-56 135t56 135t165 46t165.5 -46t56.5 -135t-56.5 -135t-165.5 -46zM268 276q48 0 71 21.5t23 72.5
t-23 73t-71 22q-46 0 -69.5 -22t-23.5 -73t23.5 -72.5t69.5 -21.5zM449 437l-53 70q14 35 42.5 52t68.5 17q14 0 26 -1.5t22 -4.5l-15 -102q-7 2 -16.5 3t-18.5 1q-18 0 -32.5 -8t-23.5 -27z" />
    <glyph glyph-name="uni0068" unicode="h" horiz-adv-x="565" 
d="M52 0v740h134v-243q30 18 57 30t55.5 18t59.5 6q51 0 85.5 -18t52.5 -52t18 -84v-397h-134v356q0 42 -19.5 62t-58.5 20q-20 0 -39.5 -4.5t-38 -11.5t-38.5 -17v-405h-134z" />
    <glyph glyph-name="uni0069" unicode="i" horiz-adv-x="237" 
d="M119 618q-42 0 -60.5 16.5t-18.5 51.5q0 36 18.5 52t60.5 16t60.5 -16t18.5 -52q0 -35 -18.5 -51.5t-60.5 -16.5zM52 0v541h133v-541h-133z" />
    <glyph glyph-name="uni006A" unicode="j" horiz-adv-x="244" 
d="M192 541v-516q0 -104 -36.5 -162t-118.5 -70q-10 -1 -22 -1.5t-24.5 -0.5t-23.5 2l7 111q7 0 13 1t12 3q31 10 45.5 39.5t14.5 84.5v509h133zM125 618q-42 0 -60.5 16.5t-18.5 51.5q0 36 18.5 52t60.5 16t60.5 -16t18.5 -52q0 -35 -18.5 -51.5t-60.5 -16.5z" />
    <glyph glyph-name="uni006B" unicode="k" horiz-adv-x="535" 
d="M489 -9q-16 0 -32.5 3.5t-35 14.5t-44 32t-60.5 56l-138 133v-230h-127v740h127v-339l165 -161q49 -47 78.5 -71t49 -32.5t35.5 -8.5q3 0 7 0.5t8 0.5l2 -135q-7 -1 -15.5 -2t-19.5 -1zM288 238l-108 53q35 31 65.5 61t56 61t44 64.5t28.5 72.5l134 -9q-12 -44 -36 -86
t-55.5 -80.5t-64.5 -72.5t-64 -64z" />
    <glyph glyph-name="uni006C" unicode="l" horiz-adv-x="294" 
d="M185 740v-565q0 -29 6.5 -44.5t18 -20.5t25.5 -5q10 0 22 2t26 6l12 -102q-20 -9 -45 -15t-54 -6q-46 0 -78.5 16t-49 54t-16.5 103v577h133z" />
    <glyph glyph-name="uni006D" unicode="m" horiz-adv-x="847" 
d="M52 0v541h121v-47q29 19 57 31t56.5 18.5t57.5 6.5q31 0 54 -7t39.5 -20.5t27.5 -33.5q31 19 60 33t60 21.5t66 7.5q30 0 53.5 -7.5t41 -21.5t28.5 -33t16.5 -42t5.5 -49v-398h-134v356q0 16 -3.5 31t-11 26.5t-21.5 18t-35 6.5q-20 0 -38.5 -5t-35 -12t-31.5 -16
q3 -10 4 -20t1 -19v-366h-133v356q0 15 -3.5 30t-11.5 26.5t-22 18t-35 6.5q-18 0 -34.5 -4t-33 -11t-33.5 -17v-405h-133z" />
    <glyph glyph-name="uni006E" unicode="n" horiz-adv-x="565" 
d="M52 0v541h121v-47q33 19 63 31.5t59.5 19t62.5 6.5q52 0 86.5 -18.5t51.5 -52.5t17 -82v-398h-133v356q0 42 -19.5 62.5t-58.5 20.5q-20 0 -39 -4.5t-38 -11.5t-40 -18v-405h-133z" />
    <glyph glyph-name="uni006F" unicode="o" horiz-adv-x="567" 
d="M31 271q0 69 12.5 121t41.5 87t77.5 53.5t120.5 18.5q73 0 121.5 -18.5t77.5 -53.5t41.5 -87t12.5 -121t-13.5 -122t-43.5 -88t-78 -53t-118 -18q-69 0 -117 18t-78 53t-43.5 88t-13.5 122zM167 271q0 -67 12 -106.5t38 -56.5t66 -17q42 0 67.5 17t37 56.5t11.5 106.5
t-10.5 106t-36 56t-69.5 17q-43 0 -68.5 -17t-36.5 -56t-11 -106z" />
    <glyph glyph-name="uni0070" unicode="p" horiz-adv-x="566" 
d="M52 -210v754h121l4 -50q46 30 88.5 43.5t86.5 13.5q88 0 135.5 -69.5t47.5 -199.5q0 -100 -27.5 -164.5t-84 -96t-142.5 -31.5q-21 0 -45 2.5t-50 6.5v-209h-134zM271 87q44 0 71.5 17.5t41 57.5t13.5 107q0 60 -11 98t-32.5 56t-53.5 18q-18 0 -36 -3.5t-37 -11.5
t-42 -22v-304q25 -6 46 -9.5t40 -3.5z" />
    <glyph glyph-name="uni0071" unicode="q" horiz-adv-x="566" 
d="M514 526v-736h-133v253q-41 -27 -82 -40t-82 -13q-91 0 -138.5 70t-47.5 206q0 99 28.5 162t88 93t152.5 30q47 0 101 -6t113 -19zM381 443q-25 6 -46 8.5t-40 2.5q-43 0 -71 -18t-41.5 -59t-13.5 -111q0 -56 11 -93t33 -54.5t53 -17.5q18 0 36 3.5t37.5 12t41.5 21.5
v305z" />
    <glyph glyph-name="uni0072" unicode="r" horiz-adv-x="406" 
d="M173 541v-64q28 26 52.5 42.5t50 24t53.5 7.5q18 0 36.5 -2.5t36.5 -8.5l-21 -120q-18 4 -36.5 6.5t-34.5 2.5q-29 0 -60 -11t-65 -38v-380h-133v541h121z" />
    <glyph glyph-name="uni0073" unicode="s" horiz-adv-x="461" 
d="M21 21l16 98q18 -6 40 -11.5t46.5 -9.5t48.5 -6t45 -2q48 0 70.5 14.5t22.5 43.5q0 16 -9 27.5t-26.5 20t-43 16t-58.5 15.5q-35 8 -61 21.5t-44.5 32.5t-27 44t-8.5 57q0 83 54 126t160 43q33 0 62 -3.5t55.5 -9t48.5 -13.5l-17 -100q-22 7 -44 12t-47.5 8t-57.5 3
q-43 0 -65 -13.5t-22 -40.5q0 -16 8 -26.5t23 -17.5t37 -13t49 -12q37 -9 67 -21.5t51.5 -30.5t34 -45.5t12.5 -66.5q0 -37 -11.5 -65.5t-32.5 -48.5t-49 -32.5t-62 -18.5t-71 -6q-36 0 -69 3.5t-64.5 10.5t-60.5 17z" />
    <glyph glyph-name="uni0074" unicode="t" horiz-adv-x="403" 
d="M248 -10q-52 0 -87.5 20t-53 61t-17.5 105v268h-83v88l83 9l16 120h117v-120h153v-98h-153v-256q0 -46 17 -65t53 -19q20 0 41 3.5t44 9.5l18 -101q-40 -14 -77.5 -19.5t-70.5 -5.5z" />
    <glyph glyph-name="uni0075" unicode="u" horiz-adv-x="574" 
d="M207 -10q-47 0 -82 17t-54 52t-19 88v394h133v-363q0 -38 19.5 -57.5t55.5 -19.5q20 0 38 4t36 11.5t38 17.5v407h133v-392q0 -17 3.5 -27t10.5 -14.5t16 -4.5q12 0 24 5l11 -95q-11 -7 -25 -12t-30.5 -8t-34.5 -3q-33 0 -56 14.5t-36 41.5q-29 -17 -58 -30t-59 -19.5
t-64 -6.5z" />
    <glyph glyph-name="uni0076" unicode="v" horiz-adv-x="554" 
d="M201 0l-193 539l141 4l131 -424l126 424l140 -4l-195 -539h-150z" />
    <glyph glyph-name="uni0077" unicode="w" horiz-adv-x="772" 
d="M140 0l-130 539l132 3l81 -418l93 417h141l93 -417l82 418l131 -3l-135 -539h-151l-93 388l-89 -388h-155z" />
    <glyph glyph-name="uni0078" unicode="x" horiz-adv-x="560" 
d="M6 0l197 273l-183 266l156 5l110 -185l111 185l146 -5l-183 -263l193 -276l-155 -4l-118 191l-117 -191z" />
    <glyph glyph-name="uni0079" unicode="y" horiz-adv-x="557" 
d="M165 -209l67 209h-23l-201 540l146 3l133 -433l124 433l137 -3l-246 -752z" />
    <glyph glyph-name="uni007A" unicode="z" horiz-adv-x="504" 
d="M26 0v93l279 345h-270v103h431v-92l-276 -345h292v-104h-456z" />
    <glyph glyph-name="uni007B" unicode="{" horiz-adv-x="325" 
d="M77 -51q0 44 9 77.5t17.5 63t8.5 59.5q0 18 -3.5 33.5t-12.5 25t-26 9.5h-18v95h18q17 0 26 9.5t12.5 25.5t3.5 34q0 29 -8.5 58t-17.5 63t-9 78q0 52 18 87.5t51 54t78 18.5h72v-93h-39q-25 0 -39.5 -10.5t-20.5 -29.5t-6 -42q0 -31 8 -60t16 -58.5t8 -62.5
q0 -21 -5.5 -43t-19 -42t-40.5 -34q27 -13 40.5 -33t19 -43t5.5 -44q0 -33 -8 -63t-16 -58.5t-8 -59.5q0 -22 6 -41t20.5 -30t39.5 -11h39v-92h-72q-45 0 -78 18t-51 54t-18 87z" />
    <glyph glyph-name="uni007C" unicode="|" horiz-adv-x="219" 
d="M164 790v-1000h-109v1000h109z" />
    <glyph glyph-name="uni007D" unicode="}" horiz-adv-x="325" 
d="M29 -118h34q24 0 38.5 11t21 30t6.5 41q0 31 -8 59.5t-16 58.5t-8 63q0 21 5.5 44t19 43t39.5 33q-26 14 -39.5 34t-19 42t-5.5 43q0 33 8 62.5t16 58.5t8 60q0 23 -6.5 42t-21 29.5t-38.5 10.5h-34v93h73q44 0 77 -18.5t51 -54t18 -87.5q0 -44 -8.5 -78t-17.5 -63
t-9 -58q0 -18 3.5 -34t13 -25.5t25.5 -9.5h18v-95h-18q-16 0 -25.5 -9.5t-13 -25t-3.5 -33.5q0 -30 9 -59.5t17.5 -63t8.5 -77.5q0 -51 -18 -87t-51 -54t-77 -18h-73v92z" />
    <glyph glyph-name="uni007E" unicode="~" horiz-adv-x="511" 
d="M453 242q-17 -17 -39 -27t-48 -10q-34 0 -61.5 14t-52.5 31.5t-50.5 31.5t-54.5 14q-31 0 -52.5 -12t-35.5 -25v108q7 7 19 15t30 14.5t41 6.5q30 0 55.5 -14t49.5 -32t51 -31.5t61 -13.5q26 0 47 10t40 28v-108z" />
    <glyph glyph-name="uni00A0" unicode="&#xa0;" horiz-adv-x="267" 
 />
    <glyph glyph-name="uni00A1" unicode="&#xa1;" horiz-adv-x="243" 
d="M180 280l9 -479h-133l9 479h115zM195 475q0 -37 -16.5 -54.5t-56.5 -17.5q-41 0 -57.5 17.5t-16.5 54.5t16.5 54t57.5 17q40 0 56.5 -17t16.5 -54z" />
    <glyph glyph-name="uni00A2" unicode="&#xa2;" horiz-adv-x="623" 
d="M334 -10q-118 0 -178.5 68t-60.5 202q0 64 14.5 117.5t44.5 92.5t78 60.5t116 21.5q34 0 63 -3t55.5 -7.5t50.5 -11.5l-18 -111q-23 6 -44.5 9.5t-42.5 5t-44 1.5q-45 0 -76 -18.5t-46.5 -56.5t-15.5 -97q0 -80 35 -119.5t101 -39.5q22 0 45.5 2t47.5 5.5t48 8.5l20 -105
q-27 -8 -59.5 -14t-66 -8.5t-67.5 -2.5zM274 -105v114l106 -5v-109h-106zM274 530v116h106v-108z" />
    <glyph glyph-name="uni00A3" unicode="&#xa3;" horiz-adv-x="624" 
d="M77 0v86q38 33 61.5 59.5t34 52t10.5 55.5q0 36 -11 65.5t-25 58.5t-25 63t-11 76q0 89 64 141.5t185 52.5q26 0 51.5 -2t50 -6.5t47 -10t42.5 -14.5l-19 -103q-16 5 -35 8.5t-38.5 6t-39.5 4t-39 1.5q-37 0 -66.5 -12t-46.5 -37.5t-17 -66.5q0 -29 9 -55.5t21.5 -52.5
t21.5 -53t9 -57q0 -31 -9.5 -57t-27.5 -49t-43 -47h331v-107h-485zM69 307v88h412v-88h-412z" />
    <glyph glyph-name="uni00A4" unicode="&#xa4;" horiz-adv-x="469" 
d="M39 423l69 69l67 -67q12 7 27.5 11.5t32.5 4.5t31.5 -4.5t27.5 -11.5l67 67l69 -69l-61 -61q8 -14 13 -30.5t5 -34.5t-5 -35t-13 -31l61 -61l-69 -69l-69 68q-12 -8 -26.5 -11.5t-30.5 -3.5q-17 0 -31.5 3.5t-27.5 11.5l-68 -68l-69 69l62 61q-9 14 -14 31t-5 35t5 34.5
t13 29.5zM234 229q29 0 49 19.5t20 48.5q0 28 -19.5 48t-49.5 20q-28 0 -47.5 -20t-19.5 -48q0 -29 19.5 -48.5t47.5 -19.5z" />
    <glyph glyph-name="uni00A5" unicode="&#xa5;" horiz-adv-x="624" 
d="M84 316v72h161l-199 310l146 5l123 -232l118 232l147 -5l-195 -310h163v-72h-163v-56h163v-72h-163v-188h-140v188h-161v72h161v56h-161z" />
    <glyph glyph-name="uni00A6" unicode="&#xa6;" horiz-adv-x="219" 
d="M164 391h-109v399h109v-399zM55 190h109v-400h-109v400z" />
    <glyph glyph-name="uni00A7" unicode="&#xa7;" horiz-adv-x="545" 
d="M232 -221q-37 0 -70 5t-63.5 15.5t-61.5 27.5l26 110q17 -11 30.5 -18t27 -10t26.5 -3q22 0 37.5 7.5t23.5 22t8 34.5q0 22 -8 45.5t-23.5 57.5t-39.5 86q-37 73 -58 127t-29.5 98.5t-9.5 87.5q-1 86 33 148.5t99 96t157 33.5q36 0 71.5 -6t67.5 -18l-22 -114
q-17 7 -30.5 9.5t-24.5 2.5q-32 0 -49.5 -18t-17.5 -49q0 -13 3.5 -27.5t12 -35t22 -49.5t34.5 -72q26 -52 45 -95.5t30 -80t16 -69t5 -63.5q0 -85 -36 -149.5t-96.5 -100.5t-135.5 -36zM231 -144q44 0 76 15.5t53.5 42t32 61.5t10.5 73q0 28 -4.5 55t-15.5 60t-29.5 75
t-44.5 99q-30 62 -46.5 102t-23 68t-6.5 55q1 23 9 46.5t23.5 40t38.5 17.5l21 -21q-14 5 -25 7t-26 2q-37 0 -66 -18t-45 -53t-16 -88q0 -32 4.5 -63t15.5 -64.5t28 -74t42 -92.5q23 -45 38 -80t23.5 -62t13 -48.5t4.5 -40.5q0 -35 -15.5 -63t-43 -44t-64.5 -15l-31 21
q16 -7 33 -10t36 -3z" />
    <glyph glyph-name="uni00A8" unicode="&#xa8;" horiz-adv-x="434" 
d="M314 624q-30 0 -44 14.5t-14 48.5q0 33 14 48.5t44 15.5t44.5 -15.5t14.5 -48.5q0 -34 -14.5 -48.5t-44.5 -14.5zM120 624q-29 0 -43.5 14.5t-14.5 48.5q0 33 14.5 48.5t43.5 15.5q30 0 44.5 -15.5t14.5 -48.5q0 -34 -14.5 -48.5t-44.5 -14.5z" />
    <glyph glyph-name="uni00A9" unicode="&#xa9;" horiz-adv-x="718" 
d="M360 36q63 0 112 19t83 58t52 98t18 139t-18 139t-52 97.5t-83 57.5t-112 19t-112 -19t-84 -57.5t-53 -97.5t-18 -139t18 -139t53 -98t84 -58t112 -19zM360 710q72 0 130.5 -22.5t99.5 -68t63 -112.5t22 -157t-22 -157t-63 -112.5t-99 -68t-131 -22.5q-74 0 -132 22.5
t-99.5 68t-63 112.5t-21.5 157t21.5 157t63 112.5t99.5 68t132 22.5zM209 344q0 74 21 118t58 63.5t84 19.5q30 0 57.5 -4.5t51.5 -14.5l-15 -67q-18 5 -40 8.5t-42 3.5q-29 0 -49 -12.5t-30.5 -40t-10.5 -75.5q0 -61 19.5 -88.5t62.5 -27.5q28 0 53 4.5t43 10.5l13 -67
q-23 -10 -55 -15.5t-67 -5.5q-47 0 -81.5 19.5t-53.5 62t-19 108.5z" />
    <glyph glyph-name="uni00AA" unicode="&#xaa;" horiz-adv-x="382" 
d="M43 242v70h309v-70h-309zM30 449q0 37 19.5 57t61.5 29.5t110 12.5v26q0 19 -15 30t-49 11q-22 0 -46 -3.5t-48 -10.5l-15 64q28 9 60.5 13.5t60.5 4.5q55 0 87 -14t46.5 -39.5t14.5 -60.5v-108q0 -16 5 -22t11 -6q3 0 7.5 1.5l7.5 2.5l8 -58q-12 -7 -26.5 -11t-32.5 -4
q-25 0 -40.5 8.5t-23.5 27.5q-23 -17 -48 -26.5t-62 -9.5q-19 0 -35.5 5t-29.5 15.5t-20.5 26.5t-7.5 38zM120 454q0 -20 10 -29t27 -9q18 0 35 8t30 20v61q-29 -1 -49 -5t-31.5 -10t-16.5 -15t-5 -21z" />
    <glyph glyph-name="uni00AB" unicode="&#xab;" horiz-adv-x="520" 
d="M25 196v152l219 182l7 -137l-147 -122l147 -123l-7 -136zM270 196v152l219 182l7 -137l-147 -122l147 -123l-7 -136z" />
    <glyph glyph-name="uni00AC" unicode="&#xac;" horiz-adv-x="511" 
d="M50 329v107h412v-264h-107v157h-305z" />
    <glyph glyph-name="uni00AD" unicode="&#xad;" horiz-adv-x="339" 
d="M37 243v113h265v-113h-265z" />
    <glyph glyph-name="uni00AE" unicode="&#xae;" horiz-adv-x="679" 
d="M336 208q-69 0 -123.5 22t-92.5 66t-57 107.5t-19 146.5q0 84 19.5 148t57.5 107t92 65.5t123 22.5q72 0 127 -22.5t94 -65.5t59 -107t20 -148q0 -83 -20 -148t-59 -107.5t-94.5 -64.5t-126.5 -22zM336 255q60 0 106 18.5t77.5 55.5t47.5 92t16 129q0 75 -16 130
t-47 91.5t-77.5 54.5t-106.5 18q-58 0 -102.5 -18t-75 -55t-46.5 -91.5t-16 -129.5q0 -74 16 -129t46 -92t75.5 -55.5t102.5 -18.5zM488 375q-20 0 -39 6t-38.5 19.5t-38.5 37.5t-39 61h-7h-7q-8 0 -15.5 0.5t-15.5 0.5v-122h-85v355q29 2 52.5 3t44 1.5t36.5 0.5
q53 0 86 -11.5t48.5 -35.5t15.5 -62q0 -43 -18 -69.5t-52 -35.5q14 -21 27 -36.5t26 -24t25 -8.5h3.5h2.5v-80h-6h-6zM329 554q28 0 43 7t21 21t6 35q0 19 -4.5 30t-17.5 17t-39 6h-16t-14 -0.5t-20 -1.5v-113q14 0 23 -0.5t18 -0.5z" />
    <glyph glyph-name="uni00AF" unicode="&#xaf;" horiz-adv-x="434" 
d="M73 640v94h288v-94h-288z" />
    <glyph glyph-name="uni00B0" unicode="&#xb0;" horiz-adv-x="323" 
d="M161 425q-45 0 -74 20.5t-43.5 53.5t-14.5 72q0 28 7.5 54.5t23.5 47t41.5 33t59.5 12.5t59.5 -12.5t42 -33t24 -47t7.5 -54.5q0 -39 -15 -72t-44.5 -53.5t-73.5 -20.5zM161 508q23 0 36.5 18t13.5 45q0 26 -13 44t-37 18t-36.5 -18t-12.5 -44q0 -27 13 -45t36 -18z" />
    <glyph glyph-name="uni00B1" unicode="&#xb1;" horiz-adv-x="520" 
d="M49 32v107h153v143h-153v107h153v144h116v-144h153v-107h-153v-143h153v-107h-422z" />
    <glyph glyph-name="uni00B2" unicode="&#xb2;" horiz-adv-x="400" 
d="M48 370l-2 58q48 36 81.5 65t54.5 53.5t31 45t10 39.5q0 28 -16 45t-46 17q-21 0 -42 -5.5t-47 -19.5l-27 68q19 13 42 21t47.5 12.5t48.5 4.5q43 0 74 -14.5t47.5 -42.5t16.5 -67q0 -24 -6.5 -46.5t-22 -47t-43 -54t-70.5 -67.5h178v-65h-309z" />
    <glyph glyph-name="uni00B3" unicode="&#xb3;" horiz-adv-x="398" 
d="M28 394l25 60q15 -8 31.5 -13t37.5 -7.5t50 -2.5q48 0 72 16.5t24 44.5q0 17 -7.5 28t-26 17t-50.5 6h-73v59h80q33 0 49 13.5t16 34.5q0 16 -11.5 27.5t-32.5 18t-49 6.5q-29 0 -49.5 -2.5t-33.5 -6.5t-20 -7l-21 62q23 12 61.5 19t85.5 7q80 0 120.5 -27.5t40.5 -75.5
q0 -32 -17.5 -56t-46.5 -34q39 -10 59 -34.5t20 -60.5q0 -40 -22 -67.5t-62 -41.5t-95 -14q-44 0 -81 7t-74 24z" />
    <glyph glyph-name="uni00B4" unicode="&#xb4;" horiz-adv-x="434" 
d="M100 595l101 194h132l-131 -194h-102z" />
    <glyph glyph-name="uni00B5" unicode="&#xb5;" horiz-adv-x="574" 
d="M52 -210v751h133v-365q0 -38 20 -57.5t56 -19.5q20 0 38 4t36 12t38 18v408h132v-396q0 -17 4 -27t11 -14t15 -4q13 0 24 5l12 -92q-11 -7 -25.5 -12t-30.5 -8t-34 -3q-35 0 -55.5 13t-33.5 39q-22 -15 -44.5 -27t-46 -18t-50.5 -6q-24 0 -41 6.5t-28 20.5v-228h-130z
" />
    <glyph glyph-name="uni00B6" unicode="&#xb6;" horiz-adv-x="644" 
d="M474 -210v950h105v-950h-105zM260 288l-13 -79q-106 16 -156 85.5t-50 179.5q0 59 15.5 108t49.5 84.5t89 54.5t135 19h71v-950h-104v843q-48 -1 -79.5 -21t-46 -57.5t-14.5 -89.5q0 -76 26.5 -122t76.5 -55z" />
    <glyph glyph-name="uni00B7" unicode="&#xb7;" horiz-adv-x="217" 
d="M34 307q0 38 17 55.5t57 17.5q41 0 57.5 -17.5t16.5 -55.5q0 -37 -16.5 -54.5t-57.5 -17.5q-39 0 -56.5 17.5t-17.5 54.5z" />
    <glyph glyph-name="uni00B8" unicode="&#xb8;" horiz-adv-x="434" 
d="M130 -124q15 -5 28.5 -8t24.5 -3q25 0 39 13t14 37q0 14 -6 28.5t-16.5 30.5t-24.5 30h97q14 -14 24.5 -34t17 -40.5t6.5 -40.5q0 -30 -12 -54.5t-38 -39.5t-71 -15q-19 0 -41 3.5t-47 12.5z" />
    <glyph glyph-name="uni00B9" unicode="&#xb9;" horiz-adv-x="370" 
d="M39 370v66h114v235l-107 -45l-21 73l176 69h49v-332h98v-66h-309z" />
    <glyph glyph-name="uni00BA" unicode="&#xba;" horiz-adv-x="392" 
d="M43 242v70h310v-70h-310zM34 525q0 51 15 86.5t50 53.5t96 18q62 0 96.5 -18t49.5 -53.5t15 -86.5q0 -53 -16 -89t-51 -54.5t-94 -18.5q-58 0 -94 18.5t-51.5 54.5t-15.5 89zM133 524q0 -37 6 -58.5t20 -30.5t36 -9q23 0 36.5 9t19.5 30.5t6 58.5t-5.5 58t-19 30t-37.5 9
t-37.5 -9t-19 -30t-5.5 -58z" />
    <glyph glyph-name="uni00BB" unicode="&#xbb;" horiz-adv-x="520" 
d="M252 337v-130l-219 -194l-8 142l147 116l-147 121l8 138zM497 337v-130l-219 -194l-8 142l147 116l-147 121l8 138z" />
    <glyph glyph-name="uni00BC" unicode="&#xbc;" horiz-adv-x="878" 
d="M39 305v66h114v235l-107 -45l-21 73l176 69h49v-332h98v-66h-309zM325 -8l-85 4l367 731l86 -3zM483 70l-2 58l206 271l97 -2v-266h57v-61h-57v-70h-101v70h-200zM547 131h138v181z" />
    <glyph glyph-name="uni00BD" unicode="&#xbd;" horiz-adv-x="933" 
d="M39 305v66h114v235l-107 -45l-21 73l176 69h49v-332h98v-66h-309zM325 -8l-85 4l367 731l86 -3zM582 0l-2 58q48 36 81.5 65t54.5 53.5t31 45t10 39.5q0 28 -16 45t-46 17q-21 0 -42 -5.5t-47 -19.5l-27 68q19 13 42 21t47.5 12.5t48.5 4.5q43 0 74 -14.5t47.5 -42.5
t16.5 -67q0 -24 -6.5 -46.5t-22 -47t-43 -54t-70.5 -67.5h178v-65h-309z" />
    <glyph glyph-name="uni00BE" unicode="&#xbe;" horiz-adv-x="883" 
d="M28 329l25 60q15 -8 31.5 -13t37.5 -7.5t50 -2.5q48 0 72 16.5t24 44.5q0 17 -7.5 28t-26 17t-50.5 6h-73v59h80q33 0 49 13.5t16 34.5q0 16 -11.5 27.5t-32.5 18t-49 6.5q-29 0 -49.5 -2.5t-33.5 -6.5t-20 -7l-21 62q23 12 61.5 19t85.5 7q80 0 120.5 -27.5t40.5 -75.5
q0 -32 -17.5 -56t-46.5 -34q39 -10 59 -34.5t20 -60.5q0 -40 -22 -67.5t-62 -41.5t-95 -14q-44 0 -81 7t-74 24zM331 -8l-85 4l367 731l86 -3zM489 70l-2 58l206 271l97 -2v-266h57v-61h-57v-70h-101v70h-200zM553 131h138v181z" />
    <glyph glyph-name="uni00BF" unicode="&#xbf;" horiz-adv-x="476" 
d="M323 276l3 -126q-48 -18 -78.5 -35.5t-47 -35.5t-23 -36.5t-6.5 -39.5q0 -23 8.5 -41t23 -30t34 -18t41.5 -6q36 0 74.5 11.5t78.5 36.5l40 -104q-28 -20 -63.5 -34.5t-74.5 -22.5t-75 -8q-46 0 -86.5 12t-72 36.5t-49 62.5t-17.5 90q0 53 18 93t56.5 71.5t100.5 57.5v66
h115zM338 472q0 -38 -16 -55t-58 -17q-40 0 -56.5 17t-16.5 55q0 37 16.5 54t56.5 17q41 0 57.5 -17t16.5 -54z" />
    <glyph glyph-name="uni00C0" unicode="&#xc0;" horiz-adv-x="640" 
d="M9 0l229 705h163l231 -705h-151l-46 150h-236l-47 -150h-143zM224 263h185l-92 328zM269 745l-125 182h136l96 -182h-107z" />
    <glyph glyph-name="uni00C1" unicode="&#xc1;" horiz-adv-x="640" 
d="M9 0l229 705h163l231 -705h-151l-46 150h-236l-47 -150h-143zM224 263h185l-92 328zM270 745l96 181h129l-125 -181h-100z" />
    <glyph glyph-name="uni00C2" unicode="&#xc2;" horiz-adv-x="640" 
d="M9 0l229 705h163l231 -705h-151l-46 150h-236l-47 -150h-143zM224 263h185l-92 328zM145 745l100 181h153l99 -181h-107l-70 122l-70 -122h-105z" />
    <glyph glyph-name="uni00C3" unicode="&#xc3;" horiz-adv-x="640" 
d="M9 0l229 705h163l231 -705h-151l-46 150h-236l-47 -150h-143zM224 263h185l-92 328zM148 761q-2 12 -2.5 23.5t-0.5 21.5q0 44 24.5 76.5t72.5 32.5q26 0 47 -9.5t39 -21.5t33 -21t30 -9q9 0 16 5t10.5 15.5t3.5 25.5q0 5 -0.5 10.5t-2.5 9.5h74q2 -12 2.5 -23t0.5 -22
q0 -45 -24.5 -78t-73.5 -33q-25 0 -46.5 9.5t-39 21.5t-32.5 21.5t-30 9.5q-14 0 -22 -11.5t-8 -33.5q0 -5 1 -10l2 -10h-74z" />
    <glyph glyph-name="uni00C4" unicode="&#xc4;" horiz-adv-x="640" 
d="M9 0l229 705h163l231 -705h-151l-46 150h-236l-47 -150h-143zM224 263h185l-92 328zM417 764q-30 0 -44 14.5t-14 48.5q0 33 14 48.5t44 15.5t44.5 -15.5t14.5 -48.5q0 -34 -14.5 -48.5t-44.5 -14.5zM223 764q-29 0 -43.5 14.5t-14.5 48.5q0 33 14.5 48.5t43.5 15.5
q30 0 44.5 -15.5t14.5 -48.5q0 -34 -14.5 -48.5t-44.5 -14.5z" />
    <glyph glyph-name="uni00C5" unicode="&#xc5;" horiz-adv-x="640" 
d="M9 0l229 705h163l231 -705h-151l-46 150h-236l-47 -150h-143zM224 263h185l-92 328zM321 746q-53 0 -80.5 24.5t-27.5 69.5q0 46 27.5 70t80.5 24q52 0 79.5 -24t27.5 -70q0 -45 -27.5 -69.5t-79.5 -24.5zM321 801q38 0 38 39q0 40 -38 40q-39 0 -39 -40q0 -39 39 -39z
" />
    <glyph glyph-name="uni00C6" unicode="&#xc6;" horiz-adv-x="974" 
d="M6 0l380 700h545v-120h-336v-180h312v-117h-312v-163h353v-120h-489v208h-182l-115 -209zM329 320h129v276z" />
    <glyph glyph-name="uni00C7" unicode="&#xc7;" horiz-adv-x="612" 
d="M35 339q0 132 37 214t110.5 119.5t182.5 37.5q33 0 60.5 -1.5t52 -5t47.5 -9t47 -12.5l-28 -110q-29 8 -57 12.5t-54.5 6.5t-54.5 2q-52 0 -90.5 -13t-63.5 -42.5t-37 -78.5t-12 -119q0 -66 12 -110.5t36.5 -72t61.5 -39.5t87 -12q46 0 96.5 6.5t92.5 18.5l24 -108
q-24 -8 -49.5 -14t-54.5 -10t-61 -6.5t-70 -2.5q-77 0 -136 19t-99 59.5t-60 107.5t-20 163zM234 -124q15 -5 28.5 -8t24.5 -3q25 0 39 13t14 37q0 14 -6 28.5t-16.5 30.5t-24.5 30h97q14 -14 24.5 -34t17 -40.5t6.5 -40.5q0 -30 -12 -54.5t-38 -39.5t-71 -15q-19 0 -41 3.5
t-47 12.5z" />
    <glyph glyph-name="uni00C8" unicode="&#xc8;" horiz-adv-x="583" 
d="M61 0v700h480v-120h-341v-162h317v-117h-317v-181h359v-120h-498zM257 745l-125 182h136l96 -182h-107z" />
    <glyph glyph-name="uni00C9" unicode="&#xc9;" horiz-adv-x="583" 
d="M61 0v700h480v-120h-341v-162h317v-117h-317v-181h359v-120h-498zM258 745l96 181h129l-125 -181h-100z" />
    <glyph glyph-name="uni00CA" unicode="&#xca;" horiz-adv-x="583" 
d="M61 0v700h480v-120h-341v-162h317v-117h-317v-181h359v-120h-498zM133 745l100 181h153l99 -181h-107l-70 122l-70 -122h-105z" />
    <glyph glyph-name="uni00CB" unicode="&#xcb;" horiz-adv-x="583" 
d="M61 0v700h480v-120h-341v-162h317v-117h-317v-181h359v-120h-498zM406 764q-30 0 -44 14.5t-14 48.5q0 33 14 48.5t44 15.5t44.5 -15.5t14.5 -48.5q0 -34 -14.5 -48.5t-44.5 -14.5zM212 764q-29 0 -43.5 14.5t-14.5 48.5q0 33 14.5 48.5t43.5 15.5q30 0 44.5 -15.5
t14.5 -48.5q0 -34 -14.5 -48.5t-44.5 -14.5z" />
    <glyph glyph-name="uni00CC" unicode="&#xcc;" horiz-adv-x="259" 
d="M61 0v700h137v-700h-137zM78 745l-125 182h136l96 -182h-107z" />
    <glyph glyph-name="uni00CD" unicode="&#xcd;" horiz-adv-x="259" 
d="M61 0v700h137v-700h-137zM79 745l96 181h129l-125 -181h-100z" />
    <glyph glyph-name="uni00CE" unicode="&#xce;" horiz-adv-x="259" 
d="M61 0v700h137v-700h-137zM-46 745l100 181h153l99 -181h-107l-70 122l-70 -122h-105z" />
    <glyph glyph-name="uni00CF" unicode="&#xcf;" horiz-adv-x="259" 
d="M61 0v700h137v-700h-137zM227 764q-30 0 -44 14.5t-14 48.5q0 33 14 48.5t44 15.5t44.5 -15.5t14.5 -48.5q0 -34 -14.5 -48.5t-44.5 -14.5zM33 764q-29 0 -43.5 14.5t-14.5 48.5q0 33 14.5 48.5t43.5 15.5q30 0 44.5 -15.5t14.5 -48.5q0 -34 -14.5 -48.5t-44.5 -14.5z
" />
    <glyph glyph-name="uni00D0" unicode="&#xd0;" horiz-adv-x="683" 
d="M5 303v104h320v-104h-320zM320 -10q-47 0 -90.5 1t-84.5 3t-81 4v702q45 4 85.5 6t80.5 3t82 1q119 0 193 -37.5t108.5 -117t34.5 -206.5q0 -124 -36.5 -203.5t-109 -117.5t-182.5 -38zM328 99q58 0 97.5 24.5t59.5 79.5t20 145q0 94 -19.5 149t-59.5 79t-103 24
q-18 0 -39.5 -0.5t-42 -1.5t-39.5 -2v-492q15 -1 31 -2t32 -1.5l32 -1t31 -0.5z" />
    <glyph glyph-name="uni00D1" unicode="&#xd1;" horiz-adv-x="679" 
d="M61 0v702h130l305 -489v487h122v-702h-129l-305 482v-480h-123zM167 761q-2 12 -2.5 23.5t-0.5 21.5q0 44 24.5 76.5t72.5 32.5q26 0 47 -9.5t39 -21.5t33 -21t30 -9q9 0 16 5t10.5 15.5t3.5 25.5q0 5 -0.5 10.5t-2.5 9.5h74q2 -12 2.5 -23t0.5 -22q0 -45 -24.5 -78
t-73.5 -33q-25 0 -46.5 9.5t-39 21.5t-32.5 21.5t-30 9.5q-14 0 -22 -11.5t-8 -33.5q0 -5 1 -10l2 -10h-74z" />
    <glyph glyph-name="uni00D2" unicode="&#xd2;" horiz-adv-x="697" 
d="M348 99q31 0 57.5 7t48 24.5t37 45.5t24 71.5t8.5 102.5q0 60 -8.5 103.5t-24.5 72t-37 45.5t-48 24t-57 7q-29 0 -55 -7t-47.5 -23.5t-37 -45.5t-24 -72.5t-8.5 -103.5t8.5 -102.5t24.5 -71.5t37.5 -46t47 -24t54.5 -7zM349 -10q-57 0 -105 11.5t-87 37t-65.5 67
t-41 102t-14.5 142.5t13.5 142t40 101.5t65.5 68t87 37.5t107 11q58 0 107 -11.5t87 -36.5t65 -66.5t41 -101.5t14 -141q0 -84 -14 -145t-41.5 -102.5t-65.5 -67t-86.5 -37t-106.5 -11.5zM297 745l-125 182h136l96 -182h-107z" />
    <glyph glyph-name="uni00D3" unicode="&#xd3;" horiz-adv-x="697" 
d="M348 99q31 0 57.5 7t48 24.5t37 45.5t24 71.5t8.5 102.5q0 60 -8.5 103.5t-24.5 72t-37 45.5t-48 24t-57 7q-29 0 -55 -7t-47.5 -23.5t-37 -45.5t-24 -72.5t-8.5 -103.5t8.5 -102.5t24.5 -71.5t37.5 -46t47 -24t54.5 -7zM349 -10q-57 0 -105 11.5t-87 37t-65.5 67
t-41 102t-14.5 142.5t13.5 142t40 101.5t65.5 68t87 37.5t107 11q58 0 107 -11.5t87 -36.5t65 -66.5t41 -101.5t14 -141q0 -84 -14 -145t-41.5 -102.5t-65.5 -67t-86.5 -37t-106.5 -11.5zM298 745l96 181h129l-125 -181h-100z" />
    <glyph glyph-name="uni00D4" unicode="&#xd4;" horiz-adv-x="697" 
d="M348 99q31 0 57.5 7t48 24.5t37 45.5t24 71.5t8.5 102.5q0 60 -8.5 103.5t-24.5 72t-37 45.5t-48 24t-57 7q-29 0 -55 -7t-47.5 -23.5t-37 -45.5t-24 -72.5t-8.5 -103.5t8.5 -102.5t24.5 -71.5t37.5 -46t47 -24t54.5 -7zM349 -10q-57 0 -105 11.5t-87 37t-65.5 67
t-41 102t-14.5 142.5t13.5 142t40 101.5t65.5 68t87 37.5t107 11q58 0 107 -11.5t87 -36.5t65 -66.5t41 -101.5t14 -141q0 -84 -14 -145t-41.5 -102.5t-65.5 -67t-86.5 -37t-106.5 -11.5zM173 745l100 181h153l99 -181h-107l-70 122l-70 -122h-105z" />
    <glyph glyph-name="uni00D5" unicode="&#xd5;" horiz-adv-x="697" 
d="M348 99q31 0 57.5 7t48 24.5t37 45.5t24 71.5t8.5 102.5q0 60 -8.5 103.5t-24.5 72t-37 45.5t-48 24t-57 7q-29 0 -55 -7t-47.5 -23.5t-37 -45.5t-24 -72.5t-8.5 -103.5t8.5 -102.5t24.5 -71.5t37.5 -46t47 -24t54.5 -7zM349 -10q-57 0 -105 11.5t-87 37t-65.5 67
t-41 102t-14.5 142.5t13.5 142t40 101.5t65.5 68t87 37.5t107 11q58 0 107 -11.5t87 -36.5t65 -66.5t41 -101.5t14 -141q0 -84 -14 -145t-41.5 -102.5t-65.5 -67t-86.5 -37t-106.5 -11.5zM176 761q-2 12 -2.5 23.5t-0.5 21.5q0 44 24.5 76.5t72.5 32.5q26 0 47 -9.5
t39 -21.5t33 -21t30 -9q9 0 16 5t10.5 15.5t3.5 25.5q0 5 -0.5 10.5t-2.5 9.5h74q2 -12 2.5 -23t0.5 -22q0 -45 -24.5 -78t-73.5 -33q-25 0 -46.5 9.5t-39 21.5t-32.5 21.5t-30 9.5q-14 0 -22 -11.5t-8 -33.5q0 -5 1 -10l2 -10h-74z" />
    <glyph glyph-name="uni00D6" unicode="&#xd6;" horiz-adv-x="697" 
d="M348 99q31 0 57.5 7t48 24.5t37 45.5t24 71.5t8.5 102.5q0 60 -8.5 103.5t-24.5 72t-37 45.5t-48 24t-57 7q-29 0 -55 -7t-47.5 -23.5t-37 -45.5t-24 -72.5t-8.5 -103.5t8.5 -102.5t24.5 -71.5t37.5 -46t47 -24t54.5 -7zM349 -10q-57 0 -105 11.5t-87 37t-65.5 67
t-41 102t-14.5 142.5t13.5 142t40 101.5t65.5 68t87 37.5t107 11q58 0 107 -11.5t87 -36.5t65 -66.5t41 -101.5t14 -141q0 -84 -14 -145t-41.5 -102.5t-65.5 -67t-86.5 -37t-106.5 -11.5zM446 764q-30 0 -44 14.5t-14 48.5q0 33 14 48.5t44 15.5t44.5 -15.5t14.5 -48.5
q0 -34 -14.5 -48.5t-44.5 -14.5zM252 764q-29 0 -43.5 14.5t-14.5 48.5q0 33 14.5 48.5t43.5 15.5q30 0 44.5 -15.5t14.5 -48.5q0 -34 -14.5 -48.5t-44.5 -14.5z" />
    <glyph glyph-name="uni00D7" unicode="&#xd7;" horiz-adv-x="484" 
d="M120 99l-73 78l116 135l-116 136l73 78l122 -139l122 138l73 -77l-116 -136l116 -135l-74 -77l-121 138z" />
    <glyph glyph-name="uni00D8" unicode="&#xd8;" horiz-adv-x="698" 
d="M145 -12h-105l102 148h5l340 496h5l58 83h107l-95 -136h-5l-345 -502h-5zM348 94q30 0 57 7.5t49.5 24t38 46t24.5 73.5t9 105q0 62 -9 105.5t-24.5 73t-38 46.5t-49.5 24t-57 7t-57 -7t-49 -24t-38 -46.5t-24.5 -73t-8.5 -105.5q0 -61 8.5 -105t24.5 -73t38 -46
t49 -24.5t57 -7.5zM348 -10q-58 0 -107.5 11.5t-87.5 37t-64.5 67.5t-40 102t-13.5 142q0 81 13 141.5t39 102.5t64 67.5t88 37t109 11.5t109 -11t88 -37t64 -67t39.5 -101t13.5 -142t-14 -143.5t-40 -103t-64.5 -67.5t-87.5 -37t-108 -11z" />
    <glyph glyph-name="uni00D9" unicode="&#xd9;" horiz-adv-x="674" 
d="M52 221v479h135v-480q0 -28 8 -48.5t22 -34t33 -21.5t41.5 -11t45.5 -3q25 0 47 3.5t40.5 11.5t32.5 21.5t21.5 33.5t7.5 48v480h136v-479q0 -52 -13 -90.5t-37.5 -65.5t-59.5 -43.5t-79.5 -24t-95.5 -7.5t-95 7.5t-79 24t-60 43.5t-38 65.5t-13 90.5zM286 745l-125 182
h136l96 -182h-107z" />
    <glyph glyph-name="uni00DA" unicode="&#xda;" horiz-adv-x="674" 
d="M52 221v479h135v-480q0 -28 8 -48.5t22 -34t33 -21.5t41.5 -11t45.5 -3q25 0 47 3.5t40.5 11.5t32.5 21.5t21.5 33.5t7.5 48v480h136v-479q0 -52 -13 -90.5t-37.5 -65.5t-59.5 -43.5t-79.5 -24t-95.5 -7.5t-95 7.5t-79 24t-60 43.5t-38 65.5t-13 90.5zM287 745l96 181
h129l-125 -181h-100z" />
    <glyph glyph-name="uni00DB" unicode="&#xdb;" horiz-adv-x="674" 
d="M52 221v479h135v-480q0 -28 8 -48.5t22 -34t33 -21.5t41.5 -11t45.5 -3q25 0 47 3.5t40.5 11.5t32.5 21.5t21.5 33.5t7.5 48v480h136v-479q0 -52 -13 -90.5t-37.5 -65.5t-59.5 -43.5t-79.5 -24t-95.5 -7.5t-95 7.5t-79 24t-60 43.5t-38 65.5t-13 90.5zM162 745l100 181
h153l99 -181h-107l-70 122l-70 -122h-105z" />
    <glyph glyph-name="uni00DC" unicode="&#xdc;" horiz-adv-x="674" 
d="M52 221v479h135v-480q0 -28 8 -48.5t22 -34t33 -21.5t41.5 -11t45.5 -3q25 0 47 3.5t40.5 11.5t32.5 21.5t21.5 33.5t7.5 48v480h136v-479q0 -52 -13 -90.5t-37.5 -65.5t-59.5 -43.5t-79.5 -24t-95.5 -7.5t-95 7.5t-79 24t-60 43.5t-38 65.5t-13 90.5zM434 764
q-30 0 -44 14.5t-14 48.5q0 33 14 48.5t44 15.5t44.5 -15.5t14.5 -48.5q0 -34 -14.5 -48.5t-44.5 -14.5zM240 764q-29 0 -43.5 14.5t-14.5 48.5q0 33 14.5 48.5t43.5 15.5q30 0 44.5 -15.5t14.5 -48.5q0 -34 -14.5 -48.5t-44.5 -14.5z" />
    <glyph glyph-name="uni00DD" unicode="&#xdd;" horiz-adv-x="625" 
d="M245 0v260l-242 438l152 4l159 -354l156 354l151 -4l-239 -438v-260h-137zM262 745l96 181h129l-125 -181h-100z" />
    <glyph glyph-name="uni00DE" unicode="&#xde;" horiz-adv-x="652" 
d="M61 0v700h138v-73q29 2 50.5 2.5t38 1t28.5 0.5q91 0 150.5 -14t93 -43t47.5 -75.5t14 -111.5q0 -69 -14.5 -117.5t-46 -79.5t-83 -45.5t-125.5 -14.5h-36t-27 0.5t-24 0.5t-28 1t-39 2v-134h-137zM310 243q54 0 87.5 9t52 27.5t25.5 46t7 64.5q0 35 -7 59.5t-24 40.5
t-47.5 24t-77.5 8q-13 0 -24.5 -0.5t-25.5 -1t-32.5 -1.5t-44.5 -2v-271q18 -1 32.5 -1.5t26.5 -1t25 -0.5h27z" />
    <glyph glyph-name="uni00DF" unicode="&#xdf;" horiz-adv-x="685" 
d="M94 0v401h-78v89l78 9v28q0 75 31.5 124.5t94.5 74t156 24.5q122 0 184.5 -38t62.5 -118q0 -56 -33 -88t-101 -51q-39 -14 -56 -28.5t-17 -36.5q0 -16 10 -28t33.5 -22t67.5 -23q55 -15 89 -36.5t50 -52.5t16 -76q0 -34 -11 -60.5t-31 -46t-47.5 -31.5t-60 -18t-68.5 -6
q-32 0 -66 3.5t-66.5 10t-63.5 16.5l16 95q27 -8 58.5 -14.5t64.5 -10t60 -3.5q28 0 49 7t32 20t11 30t-8 28.5t-30 22.5t-65 24q-60 16 -96 36.5t-51 52t-15 77.5q0 34 12.5 61t39 47t68.5 32q44 16 61.5 30t17.5 37q0 19 -10.5 31.5t-34.5 18t-67 5.5q-51 0 -85 -16
t-52 -49t-18 -82v-500h-132z" />
    <glyph glyph-name="uni00E0" unicode="&#xe0;" horiz-adv-x="541" 
d="M24 141q0 50 19.5 81.5t58.5 50t98.5 29t139.5 16.5v50q0 36 -27 53.5t-78 17.5q-21 0 -47 -2t-54 -7t-57 -14l-23 105q45 14 95.5 22t94.5 8q79 0 130 -20.5t75.5 -61t24.5 -100.5v-216q0 -28 8 -38t20 -10q5 0 12 1t13 4l11 -97q-17 -10 -39 -16.5t-47 -6.5
q-40 0 -64 16.5t-35 50.5q-25 -18 -53 -34t-60 -24.5t-71 -8.5q-33 0 -59 10t-45.5 29.5t-30 47.5t-10.5 64zM159 150q0 -35 16.5 -52.5t44.5 -17.5q21 0 42.5 7t42 18.5t35.5 27.5v111q-43 -2 -76.5 -8t-57 -16t-35.5 -27t-12 -43zM214 596l-131 194h137l101 -194h-107z
" />
    <glyph glyph-name="uni00E1" unicode="&#xe1;" horiz-adv-x="541" 
d="M24 141q0 50 19.5 81.5t58.5 50t98.5 29t139.5 16.5v50q0 36 -27 53.5t-78 17.5q-21 0 -47 -2t-54 -7t-57 -14l-23 105q45 14 95.5 22t94.5 8q79 0 130 -20.5t75.5 -61t24.5 -100.5v-216q0 -28 8 -38t20 -10q5 0 12 1t13 4l11 -97q-17 -10 -39 -16.5t-47 -6.5
q-40 0 -64 16.5t-35 50.5q-25 -18 -53 -34t-60 -24.5t-71 -8.5q-33 0 -59 10t-45.5 29.5t-30 47.5t-10.5 64zM159 150q0 -35 16.5 -52.5t44.5 -17.5q21 0 42.5 7t42 18.5t35.5 27.5v111q-43 -2 -76.5 -8t-57 -16t-35.5 -27t-12 -43zM209 595l101 194h132l-131 -194h-102z
" />
    <glyph glyph-name="uni00E2" unicode="&#xe2;" horiz-adv-x="541" 
d="M24 141q0 50 19.5 81.5t58.5 50t98.5 29t139.5 16.5v50q0 36 -27 53.5t-78 17.5q-21 0 -47 -2t-54 -7t-57 -14l-23 105q45 14 95.5 22t94.5 8q79 0 130 -20.5t75.5 -61t24.5 -100.5v-216q0 -28 8 -38t20 -10q5 0 12 1t13 4l11 -97q-17 -10 -39 -16.5t-47 -6.5
q-40 0 -64 16.5t-35 50.5q-25 -18 -53 -34t-60 -24.5t-71 -8.5q-33 0 -59 10t-45.5 29.5t-30 47.5t-10.5 64zM159 150q0 -35 16.5 -52.5t44.5 -17.5q21 0 42.5 7t42 18.5t35.5 27.5v111q-43 -2 -76.5 -8t-57 -16t-35.5 -27t-12 -43zM86 596l106 194h146l104 -194h-108
l-70 126l-70 -126h-108z" />
    <glyph glyph-name="uni00E3" unicode="&#xe3;" horiz-adv-x="541" 
d="M24 141q0 50 19.5 81.5t58.5 50t98.5 29t139.5 16.5v50q0 36 -27 53.5t-78 17.5q-21 0 -47 -2t-54 -7t-57 -14l-23 105q45 14 95.5 22t94.5 8q79 0 130 -20.5t75.5 -61t24.5 -100.5v-216q0 -28 8 -38t20 -10q5 0 12 1t13 4l11 -97q-17 -10 -39 -16.5t-47 -6.5
q-40 0 -64 16.5t-35 50.5q-25 -18 -53 -34t-60 -24.5t-71 -8.5q-33 0 -59 10t-45.5 29.5t-30 47.5t-10.5 64zM159 150q0 -35 16.5 -52.5t44.5 -17.5q21 0 42.5 7t42 18.5t35.5 27.5v111q-43 -2 -76.5 -8t-57 -16t-35.5 -27t-12 -43zM92 600q-2 12 -3 23.5t-1 21.5
q0 55 24 82t72 27q23 0 43.5 -8.5t39 -20.5t35 -20.5t33.5 -8.5q10 0 17 6t10.5 15.5t3.5 19.5q0 5 -0.5 11t-1.5 10h72q2 -11 2.5 -22.5t0.5 -22.5q0 -54 -23.5 -81.5t-72.5 -27.5q-21 0 -42 8.5t-40 20t-36.5 20t-31.5 8.5q-15 0 -23 -10.5t-8 -28.5q0 -5 0.5 -11t1.5 -11
h-72z" />
    <glyph glyph-name="uni00E4" unicode="&#xe4;" horiz-adv-x="541" 
d="M24 141q0 50 19.5 81.5t58.5 50t98.5 29t139.5 16.5v50q0 36 -27 53.5t-78 17.5q-21 0 -47 -2t-54 -7t-57 -14l-23 105q45 14 95.5 22t94.5 8q79 0 130 -20.5t75.5 -61t24.5 -100.5v-216q0 -28 8 -38t20 -10q5 0 12 1t13 4l11 -97q-17 -10 -39 -16.5t-47 -6.5
q-40 0 -64 16.5t-35 50.5q-25 -18 -53 -34t-60 -24.5t-71 -8.5q-33 0 -59 10t-45.5 29.5t-30 47.5t-10.5 64zM159 150q0 -35 16.5 -52.5t44.5 -17.5q21 0 42.5 7t42 18.5t35.5 27.5v111q-43 -2 -76.5 -8t-57 -16t-35.5 -27t-12 -43zM361 624q-30 0 -44 14.5t-14 48.5
q0 33 14 48.5t44 15.5t44.5 -15.5t14.5 -48.5q0 -34 -14.5 -48.5t-44.5 -14.5zM167 624q-29 0 -43.5 14.5t-14.5 48.5q0 33 14.5 48.5t43.5 15.5q30 0 44.5 -15.5t14.5 -48.5q0 -34 -14.5 -48.5t-44.5 -14.5z" />
    <glyph glyph-name="uni00E5" unicode="&#xe5;" horiz-adv-x="541" 
d="M24 141q0 50 19.5 81.5t58.5 50t98.5 29t139.5 16.5v50q0 36 -27 53.5t-78 17.5q-21 0 -47 -2t-54 -7t-57 -14l-23 105q45 14 95.5 22t94.5 8q79 0 130 -20.5t75.5 -61t24.5 -100.5v-216q0 -28 8 -38t20 -10q5 0 12 1t13 4l11 -97q-17 -10 -39 -16.5t-47 -6.5
q-40 0 -64 16.5t-35 50.5q-25 -18 -53 -34t-60 -24.5t-71 -8.5q-33 0 -59 10t-45.5 29.5t-30 47.5t-10.5 64zM159 150q0 -35 16.5 -52.5t44.5 -17.5q21 0 42.5 7t42 18.5t35.5 27.5v111q-43 -2 -76.5 -8t-57 -16t-35.5 -27t-12 -43zM264 600q-52 0 -80 24.5t-28 69.5
q0 46 28 70t80 24q53 0 80.5 -24t27.5 -70q0 -45 -27.5 -69.5t-80.5 -24.5zM264 655q38 0 38 39t-38 39t-38 -39t38 -39z" />
    <glyph glyph-name="uni00E6" unicode="&#xe6;" horiz-adv-x="841" 
d="M174 -10q-70 0 -110 39t-40 112q0 48 18 80.5t56.5 52.5t98 32t142.5 17v45q0 33 -25.5 52t-78.5 19q-19 0 -45 -2t-54.5 -7t-58.5 -14l-22 105q46 15 96.5 22.5t92.5 7.5q35 0 62 -5t47.5 -15.5t36 -26t27.5 -36.5h1q19 30 44 48.5t56.5 26.5t67.5 8q76 0 125.5 -25
t74.5 -79t25 -140q0 -12 -0.5 -24t-0.5 -23q-30 -2 -79.5 -6.5t-113.5 -8.5t-141 -6q-1 -2 -1 -6t1 -8q1 -49 15 -76.5t43.5 -38t76.5 -10.5q43 0 90 7t89 17l17 -103q-32 -10 -65.5 -17t-69.5 -10.5t-78 -3.5q-50 0 -88.5 9.5t-67 29t-50.5 49.5h-2q-23 -20 -47 -36
t-50 -27.5t-54.5 -18t-60.5 -6.5zM220 80q23 0 46 8.5t43.5 22.5t35.5 29q-4 17 -5 37t-1 43v15.5v14.5q-44 -4 -77.5 -10t-56.5 -17t-34.5 -29t-11.5 -44q0 -35 17 -52.5t44 -17.5zM476 316q45 0 84 2t69 4.5t46 3.5q-2 46 -13.5 74.5t-31.5 41.5t-51 13q-26 0 -49.5 -11.5
t-38 -41.5t-15.5 -86z" />
    <glyph glyph-name="uni00E7" unicode="&#xe7;" horiz-adv-x="504" 
d="M31 262q0 97 30.5 161t91.5 96t148 32q30 0 60.5 -2.5t59.5 -7t52 -11.5l-18 -111q-23 5 -47 8.5t-47.5 5.5t-45.5 2q-48 0 -80.5 -18.5t-49.5 -56t-17 -95.5q0 -54 17.5 -89.5t51 -53t80.5 -17.5q23 0 47.5 1.5t49.5 5.5t49 9l20 -106q-40 -11 -92.5 -18t-101.5 -7
q-129 0 -193.5 66.5t-64.5 205.5zM184 -124q15 -5 28.5 -8t24.5 -3q25 0 39 13t14 37q0 14 -6 28.5t-16.5 30.5t-24.5 30h97q14 -14 24.5 -34t17 -40.5t6.5 -40.5q0 -30 -12 -54.5t-38 -39.5t-71 -15q-19 0 -41 3.5t-47 12.5z" />
    <glyph glyph-name="uni00E8" unicode="&#xe8;" horiz-adv-x="544" 
d="M284 -10q-61 0 -108 15.5t-79.5 48t-49 83t-16.5 120.5q0 81 19.5 137.5t55.5 91t84 50t105 15.5q113 0 166.5 -57t53.5 -186v-23t-2 -27q-23 -2 -59 -5t-81 -6t-97 -5t-107 -4q-1 -3 -1 -7v-8q0 -46 15.5 -73.5t46.5 -41t78 -13.5q30 0 61.5 3.5t63 9t61.5 12.5l16 -98
q-32 -10 -68 -17.5t-75 -11t-83 -3.5zM170 324q35 0 67.5 1.5t61.5 3t50 3t33 2.5q-1 44 -11.5 71t-31.5 39t-54 12q-20 0 -39 -6t-35 -21t-26.5 -40t-14.5 -65zM234 596l-131 194h137l101 -194h-107z" />
    <glyph glyph-name="uni00E9" unicode="&#xe9;" horiz-adv-x="544" 
d="M284 -10q-61 0 -108 15.5t-79.5 48t-49 83t-16.5 120.5q0 81 19.5 137.5t55.5 91t84 50t105 15.5q113 0 166.5 -57t53.5 -186v-23t-2 -27q-23 -2 -59 -5t-81 -6t-97 -5t-107 -4q-1 -3 -1 -7v-8q0 -46 15.5 -73.5t46.5 -41t78 -13.5q30 0 61.5 3.5t63 9t61.5 12.5l16 -98
q-32 -10 -68 -17.5t-75 -11t-83 -3.5zM170 324q35 0 67.5 1.5t61.5 3t50 3t33 2.5q-1 44 -11.5 71t-31.5 39t-54 12q-20 0 -39 -6t-35 -21t-26.5 -40t-14.5 -65zM229 595l101 194h132l-131 -194h-102z" />
    <glyph glyph-name="uni00EA" unicode="&#xea;" horiz-adv-x="544" 
d="M284 -10q-61 0 -108 15.5t-79.5 48t-49 83t-16.5 120.5q0 81 19.5 137.5t55.5 91t84 50t105 15.5q113 0 166.5 -57t53.5 -186v-23t-2 -27q-23 -2 -59 -5t-81 -6t-97 -5t-107 -4q-1 -3 -1 -7v-8q0 -46 15.5 -73.5t46.5 -41t78 -13.5q30 0 61.5 3.5t63 9t61.5 12.5l16 -98
q-32 -10 -68 -17.5t-75 -11t-83 -3.5zM170 324q35 0 67.5 1.5t61.5 3t50 3t33 2.5q-1 44 -11.5 71t-31.5 39t-54 12q-20 0 -39 -6t-35 -21t-26.5 -40t-14.5 -65zM106 596l106 194h146l104 -194h-108l-70 126l-70 -126h-108z" />
    <glyph glyph-name="uni00EB" unicode="&#xeb;" horiz-adv-x="544" 
d="M284 -10q-61 0 -108 15.5t-79.5 48t-49 83t-16.5 120.5q0 81 19.5 137.5t55.5 91t84 50t105 15.5q113 0 166.5 -57t53.5 -186v-23t-2 -27q-23 -2 -59 -5t-81 -6t-97 -5t-107 -4q-1 -3 -1 -7v-8q0 -46 15.5 -73.5t46.5 -41t78 -13.5q30 0 61.5 3.5t63 9t61.5 12.5l16 -98
q-32 -10 -68 -17.5t-75 -11t-83 -3.5zM170 324q35 0 67.5 1.5t61.5 3t50 3t33 2.5q-1 44 -11.5 71t-31.5 39t-54 12q-20 0 -39 -6t-35 -21t-26.5 -40t-14.5 -65zM381 624q-30 0 -44 14.5t-14 48.5q0 33 14 48.5t44 15.5t44.5 -15.5t14.5 -48.5q0 -34 -14.5 -48.5
t-44.5 -14.5zM187 624q-29 0 -43.5 14.5t-14.5 48.5q0 33 14.5 48.5t43.5 15.5q30 0 44.5 -15.5t14.5 -48.5q0 -34 -14.5 -48.5t-44.5 -14.5z" />
    <glyph glyph-name="uni00EC" unicode="&#xec;" horiz-adv-x="238" 
d="M52 0v541h134v-541h-134zM69 596l-131 194h137l101 -194h-107z" />
    <glyph glyph-name="uni00ED" unicode="&#xed;" horiz-adv-x="238" 
d="M52 0v541h134v-541h-134zM64 595l101 194h132l-131 -194h-102z" />
    <glyph glyph-name="uni00EE" unicode="&#xee;" horiz-adv-x="238" 
d="M52 0v541h134v-541h-134zM-59 596l106 194h146l104 -194h-108l-70 126l-70 -126h-108z" />
    <glyph glyph-name="uni00EF" unicode="&#xef;" horiz-adv-x="238" 
d="M52 0v541h134v-541h-134zM216 624q-30 0 -44 14.5t-14 48.5q0 33 14 48.5t44 15.5t44.5 -15.5t14.5 -48.5q0 -34 -14.5 -48.5t-44.5 -14.5zM22 624q-29 0 -43.5 14.5t-14.5 48.5q0 33 14.5 48.5t43.5 15.5q30 0 44.5 -15.5t14.5 -48.5q0 -34 -14.5 -48.5t-44.5 -14.5z
" />
    <glyph glyph-name="uni00F0" unicode="&#xf0;" horiz-adv-x="560" 
d="M417 412q-27 15 -58 22.5t-64 7.5q-45 0 -73.5 -17.5t-41.5 -58t-13 -110.5q0 -91 27 -128.5t84 -37.5q33 0 55.5 12t36.5 40.5t21 80t7 131.5q0 85 -11 141t-35.5 89t-65.5 47t-102 14q-22 0 -42 -2.5t-41.5 -7t-49.5 -10.5l-13 87q46 12 88.5 18t86.5 6
q78 0 137.5 -22.5t99.5 -69.5t60 -120t20 -174q0 -133 -26 -212t-83.5 -113.5t-155.5 -34.5q-79 0 -131.5 28.5t-78 87t-25.5 148.5q0 140 57 210t185 70q30 0 55.5 -3t48.5 -10t45 -19zM189 551h-122l234 130l5 6l93 53h122l-154 -86l-6 -8z" />
    <glyph glyph-name="uni00F1" unicode="&#xf1;" horiz-adv-x="565" 
d="M52 0v541h121v-47q33 19 63 31.5t59.5 19t62.5 6.5q52 0 86.5 -18.5t51.5 -52.5t17 -82v-398h-133v356q0 42 -19.5 62.5t-58.5 20.5q-20 0 -39 -4.5t-38 -11.5t-40 -18v-405h-133zM112 600q-2 12 -3 23.5t-1 21.5q0 55 24 82t72 27q23 0 43.5 -8.5t39 -20.5t35 -20.5
t33.5 -8.5q10 0 17 6t10.5 15.5t3.5 19.5q0 5 -0.5 11t-1.5 10h72q2 -11 2.5 -22.5t0.5 -22.5q0 -54 -23.5 -81.5t-72.5 -27.5q-21 0 -42 8.5t-40 20t-36.5 20t-31.5 8.5q-15 0 -23 -10.5t-8 -28.5q0 -5 0.5 -11t1.5 -11h-72z" />
    <glyph glyph-name="uni00F2" unicode="&#xf2;" horiz-adv-x="567" 
d="M31 271q0 69 12.5 121t41.5 87t77.5 53.5t120.5 18.5q73 0 121.5 -18.5t77.5 -53.5t41.5 -87t12.5 -121t-13.5 -122t-43.5 -88t-78 -53t-118 -18q-69 0 -117 18t-78 53t-43.5 88t-13.5 122zM167 271q0 -67 12 -106.5t38 -56.5t66 -17q42 0 67.5 17t37 56.5t11.5 106.5
t-10.5 106t-36 56t-69.5 17q-43 0 -68.5 -17t-36.5 -56t-11 -106zM233 596l-131 194h137l101 -194h-107z" />
    <glyph glyph-name="uni00F3" unicode="&#xf3;" horiz-adv-x="567" 
d="M31 271q0 69 12.5 121t41.5 87t77.5 53.5t120.5 18.5q73 0 121.5 -18.5t77.5 -53.5t41.5 -87t12.5 -121t-13.5 -122t-43.5 -88t-78 -53t-118 -18q-69 0 -117 18t-78 53t-43.5 88t-13.5 122zM167 271q0 -67 12 -106.5t38 -56.5t66 -17q42 0 67.5 17t37 56.5t11.5 106.5
t-10.5 106t-36 56t-69.5 17q-43 0 -68.5 -17t-36.5 -56t-11 -106zM228 595l101 194h132l-131 -194h-102z" />
    <glyph glyph-name="uni00F4" unicode="&#xf4;" horiz-adv-x="567" 
d="M31 271q0 69 12.5 121t41.5 87t77.5 53.5t120.5 18.5q73 0 121.5 -18.5t77.5 -53.5t41.5 -87t12.5 -121t-13.5 -122t-43.5 -88t-78 -53t-118 -18q-69 0 -117 18t-78 53t-43.5 88t-13.5 122zM167 271q0 -67 12 -106.5t38 -56.5t66 -17q42 0 67.5 17t37 56.5t11.5 106.5
t-10.5 106t-36 56t-69.5 17q-43 0 -68.5 -17t-36.5 -56t-11 -106zM105 596l106 194h146l104 -194h-108l-70 126l-70 -126h-108z" />
    <glyph glyph-name="uni00F5" unicode="&#xf5;" horiz-adv-x="567" 
d="M31 271q0 69 12.5 121t41.5 87t77.5 53.5t120.5 18.5q73 0 121.5 -18.5t77.5 -53.5t41.5 -87t12.5 -121t-13.5 -122t-43.5 -88t-78 -53t-118 -18q-69 0 -117 18t-78 53t-43.5 88t-13.5 122zM167 271q0 -67 12 -106.5t38 -56.5t66 -17q42 0 67.5 17t37 56.5t11.5 106.5
t-10.5 106t-36 56t-69.5 17q-43 0 -68.5 -17t-36.5 -56t-11 -106zM111 600q-2 12 -3 23.5t-1 21.5q0 55 24 82t72 27q23 0 43.5 -8.5t39 -20.5t35 -20.5t33.5 -8.5q10 0 17 6t10.5 15.5t3.5 19.5q0 5 -0.5 11t-1.5 10h72q2 -11 2.5 -22.5t0.5 -22.5q0 -54 -23.5 -81.5
t-72.5 -27.5q-21 0 -42 8.5t-40 20t-36.5 20t-31.5 8.5q-15 0 -23 -10.5t-8 -28.5q0 -5 0.5 -11t1.5 -11h-72z" />
    <glyph glyph-name="uni00F6" unicode="&#xf6;" horiz-adv-x="567" 
d="M31 271q0 69 12.5 121t41.5 87t77.5 53.5t120.5 18.5q73 0 121.5 -18.5t77.5 -53.5t41.5 -87t12.5 -121t-13.5 -122t-43.5 -88t-78 -53t-118 -18q-69 0 -117 18t-78 53t-43.5 88t-13.5 122zM167 271q0 -67 12 -106.5t38 -56.5t66 -17q42 0 67.5 17t37 56.5t11.5 106.5
t-10.5 106t-36 56t-69.5 17q-43 0 -68.5 -17t-36.5 -56t-11 -106zM380 624q-30 0 -44 14.5t-14 48.5q0 33 14 48.5t44 15.5t44.5 -15.5t14.5 -48.5q0 -34 -14.5 -48.5t-44.5 -14.5zM186 624q-29 0 -43.5 14.5t-14.5 48.5q0 33 14.5 48.5t43.5 15.5q30 0 44.5 -15.5
t14.5 -48.5q0 -34 -14.5 -48.5t-44.5 -14.5z" />
    <glyph glyph-name="uni00F7" unicode="&#xf7;" horiz-adv-x="512" 
d="M192 127q0 30 14.5 43t49.5 13t49.5 -13t14.5 -43t-14 -43.5t-50 -13.5q-34 0 -49 13.5t-15 43.5zM192 492q0 30 14.5 43.5t49.5 13.5t49.5 -13.5t14.5 -43.5t-14 -43.5t-50 -13.5q-34 0 -49 13.5t-15 43.5zM49 256v108h414v-108h-414z" />
    <glyph glyph-name="uni00F8" unicode="&#xf8;" horiz-adv-x="567" 
d="M282 -10q70 0 118 18t78 53.5t43.5 88t13.5 121.5q0 68 -12.5 120t-41.5 87.5t-77.5 54t-121.5 18.5q-72 0 -120.5 -18.5t-77.5 -54t-41.5 -87.5t-12.5 -120q0 -69 13.5 -121.5t43.5 -88t78 -53.5t117 -18zM282 86q-43 0 -69.5 16.5t-38.5 57.5t-12 111t11 110t37.5 57
t71.5 17q46 0 72 -17t37 -57t11 -110t-12 -111t-38 -57.5t-70 -16.5zM30 -7h92l51 68h1l270 369l1 -1l90 122h-95l-50 -69l-1 1l-274 -377l-1 1z" />
    <glyph glyph-name="uni00F9" unicode="&#xf9;" horiz-adv-x="574" 
d="M207 -10q-47 0 -82 17t-54 52t-19 88v394h133v-363q0 -38 19.5 -57.5t55.5 -19.5q20 0 38 4t36 11.5t38 17.5v407h133v-392q0 -17 3.5 -27t10.5 -14.5t16 -4.5q12 0 24 5l11 -95q-11 -7 -25 -12t-30.5 -8t-34.5 -3q-33 0 -56 14.5t-36 41.5q-29 -17 -58 -30t-59 -19.5
t-64 -6.5zM231 596l-131 194h137l101 -194h-107z" />
    <glyph glyph-name="uni00FA" unicode="&#xfa;" horiz-adv-x="574" 
d="M207 -10q-47 0 -82 17t-54 52t-19 88v394h133v-363q0 -38 19.5 -57.5t55.5 -19.5q20 0 38 4t36 11.5t38 17.5v407h133v-392q0 -17 3.5 -27t10.5 -14.5t16 -4.5q12 0 24 5l11 -95q-11 -7 -25 -12t-30.5 -8t-34.5 -3q-33 0 -56 14.5t-36 41.5q-29 -17 -58 -30t-59 -19.5
t-64 -6.5zM226 595l101 194h132l-131 -194h-102z" />
    <glyph glyph-name="uni00FB" unicode="&#xfb;" horiz-adv-x="574" 
d="M207 -10q-47 0 -82 17t-54 52t-19 88v394h133v-363q0 -38 19.5 -57.5t55.5 -19.5q20 0 38 4t36 11.5t38 17.5v407h133v-392q0 -17 3.5 -27t10.5 -14.5t16 -4.5q12 0 24 5l11 -95q-11 -7 -25 -12t-30.5 -8t-34.5 -3q-33 0 -56 14.5t-36 41.5q-29 -17 -58 -30t-59 -19.5
t-64 -6.5zM103 596l106 194h146l104 -194h-108l-70 126l-70 -126h-108z" />
    <glyph glyph-name="uni00FC" unicode="&#xfc;" horiz-adv-x="574" 
d="M207 -10q-47 0 -82 17t-54 52t-19 88v394h133v-363q0 -38 19.5 -57.5t55.5 -19.5q20 0 38 4t36 11.5t38 17.5v407h133v-392q0 -17 3.5 -27t10.5 -14.5t16 -4.5q12 0 24 5l11 -95q-11 -7 -25 -12t-30.5 -8t-34.5 -3q-33 0 -56 14.5t-36 41.5q-29 -17 -58 -30t-59 -19.5
t-64 -6.5zM378 624q-30 0 -44 14.5t-14 48.5q0 33 14 48.5t44 15.5t44.5 -15.5t14.5 -48.5q0 -34 -14.5 -48.5t-44.5 -14.5zM184 624q-29 0 -43.5 14.5t-14.5 48.5q0 33 14.5 48.5t43.5 15.5q30 0 44.5 -15.5t14.5 -48.5q0 -34 -14.5 -48.5t-44.5 -14.5z" />
    <glyph glyph-name="uni00FD" unicode="&#xfd;" horiz-adv-x="535" 
d="M165 -209l67 209h-23l-201 540l146 3l133 -433l124 433l137 -3l-246 -752zM212 595l101 194h132l-131 -194h-102z" />
    <glyph glyph-name="uni00FE" unicode="&#xfe;" horiz-adv-x="565" 
d="M52 -210v950h133v-223q36 16 74.5 25t73.5 9q99 0 150.5 -68.5t51.5 -201.5q0 -104 -27 -168t-85.5 -93.5t-152.5 -29.5q-19 0 -41 2t-44 6v-208h-133zM271 86q45 0 72.5 17.5t40.5 58t13 109.5q0 59 -12.5 96t-38 55t-63.5 18q-22 0 -46.5 -4.5t-51.5 -14.5v-324
q25 -5 46.5 -8t39.5 -3z" />
    <glyph glyph-name="uni00FF" unicode="&#xff;" horiz-adv-x="535" 
d="M165 -209l67 209h-23l-201 540l146 3l133 -433l124 433l137 -3l-246 -752zM364 624q-30 0 -44 14.5t-14 48.5q0 33 14 48.5t44 15.5t44.5 -15.5t14.5 -48.5q0 -34 -14.5 -48.5t-44.5 -14.5zM170 624q-29 0 -43.5 14.5t-14.5 48.5q0 33 14.5 48.5t43.5 15.5
q30 0 44.5 -15.5t14.5 -48.5q0 -34 -14.5 -48.5t-44.5 -14.5z" />
    <glyph glyph-name="uni0100" unicode="&#x100;" horiz-adv-x="640" 
d="M9 0l229 705h163l231 -705h-151l-46 150h-236l-47 -150h-143zM224 263h185l-92 328zM176 782v95h289v-95h-289z" />
    <glyph glyph-name="uni0101" unicode="&#x101;" horiz-adv-x="541" 
d="M24 141q0 50 19.5 81.5t58.5 50t98.5 29t139.5 16.5v50q0 36 -27 53.5t-78 17.5q-21 0 -47 -2t-54 -7t-57 -14l-23 105q45 14 95.5 22t94.5 8q79 0 130 -20.5t75.5 -61t24.5 -100.5v-216q0 -28 8 -38t20 -10q5 0 12 1t13 4l11 -97q-17 -10 -39 -16.5t-47 -6.5
q-40 0 -64 16.5t-35 50.5q-25 -18 -53 -34t-60 -24.5t-71 -8.5q-33 0 -59 10t-45.5 29.5t-30 47.5t-10.5 64zM159 150q0 -35 16.5 -52.5t44.5 -17.5q21 0 42.5 7t42 18.5t35.5 27.5v111q-43 -2 -76.5 -8t-57 -16t-35.5 -27t-12 -43zM120 640v94h288v-94h-288z" />
    <glyph glyph-name="uni0102" unicode="&#x102;" horiz-adv-x="640" 
d="M9 0l229 705h163l231 -705h-151l-46 150h-236l-47 -150h-143zM224 263h185l-92 328zM321 754q-54 0 -91.5 11t-56.5 40.5t-22 83.5q-1 6 -1 12.5v13.5l79 1q1 -3 1 -6v-5q0 -22 9 -37.5t29 -23t53 -7.5q34 0 51 8t25.5 23t13.5 37q1 2 1 5v6l79 -1v-13.5t-1 -12.5
q-2 -51 -20 -81t-54.5 -42t-94.5 -12z" />
    <glyph glyph-name="uni0103" unicode="&#x103;" horiz-adv-x="541" 
d="M24 141q0 50 19.5 81.5t58.5 50t98.5 29t139.5 16.5v50q0 36 -27 53.5t-78 17.5q-21 0 -47 -2t-54 -7t-57 -14l-23 105q45 14 95.5 22t94.5 8q79 0 130 -20.5t75.5 -61t24.5 -100.5v-216q0 -28 8 -38t20 -10q5 0 12 1t13 4l11 -97q-17 -10 -39 -16.5t-47 -6.5
q-40 0 -64 16.5t-35 50.5q-25 -18 -53 -34t-60 -24.5t-71 -8.5q-33 0 -59 10t-45.5 29.5t-30 47.5t-10.5 64zM159 150q0 -35 16.5 -52.5t44.5 -17.5q21 0 42.5 7t42 18.5t35.5 27.5v111q-43 -2 -76.5 -8t-57 -16t-35.5 -27t-12 -43zM265 603q-55 0 -92 11t-57 40.5t-21 83.5
q-1 6 -1 12.5v13.5l79 1v-6v-6q2 -20 10 -34.5t27.5 -22t54.5 -7.5q33 0 52.5 7.5t28 22t9.5 34.5v6v6l80 -1q0 -7 -0.5 -13.5t-0.5 -13.5q-1 -50 -19.5 -79.5t-55 -42t-94.5 -12.5z" />
    <glyph glyph-name="uni0104" unicode="&#x104;" horiz-adv-x="640" 
d="M9 0l229 705h163l231 -705h-151l-46 150h-236l-47 -150h-143zM224 263h185l-92 328zM572 -220q-31 0 -55 10.5t-37 31t-13 51.5q0 29 12 54.5t33 47t47 36.5l72 -11q-20 -13 -34 -28t-21 -30.5t-7 -33.5q0 -22 11.5 -30.5t27.5 -8.5q7 0 12 1l10 2l6 -82q-13 -5 -28 -7.5
t-36 -2.5z" />
    <glyph glyph-name="uni0105" unicode="&#x105;" horiz-adv-x="541" 
d="M24 141q0 50 19.5 81.5t58.5 50t98.5 29t139.5 16.5v50q0 36 -27 53.5t-78 17.5q-21 0 -47 -2t-54 -7t-57 -14l-23 105q45 14 95.5 22t94.5 8q79 0 130 -20.5t75.5 -61t24.5 -100.5v-216q0 -28 8 -38t20 -10q5 0 12 1t13 4l11 -97q-17 -10 -39 -16.5t-47 -6.5
q-40 0 -64 16.5t-35 50.5q-25 -18 -53 -34t-60 -24.5t-71 -8.5q-33 0 -59 10t-45.5 29.5t-30 47.5t-10.5 64zM159 150q0 -35 16.5 -52.5t44.5 -17.5q21 0 42.5 7t42 18.5t35.5 27.5v111q-43 -2 -76.5 -8t-57 -16t-35.5 -27t-12 -43zM465 -213q-31 0 -55 10.5t-37 31
t-13 51.5q0 29 12 54.5t33 47t47 36.5l72 -11q-20 -13 -34 -28t-21 -30.5t-7 -33.5q0 -22 11.5 -30.5t27.5 -8.5q7 0 12 1l10 2l6 -82q-13 -5 -28 -7.5t-36 -2.5z" />
    <glyph glyph-name="uni0106" unicode="&#x106;" horiz-adv-x="612" 
d="M35 339q0 132 37 214t110.5 119.5t182.5 37.5q33 0 60.5 -1.5t52 -5t47.5 -9t47 -12.5l-28 -110q-29 8 -57 12.5t-54.5 6.5t-54.5 2q-52 0 -90.5 -13t-63.5 -42.5t-37 -78.5t-12 -119q0 -66 12 -110.5t36.5 -72t61.5 -39.5t87 -12q46 0 96.5 6.5t92.5 18.5l24 -108
q-24 -8 -49.5 -14t-54.5 -10t-61 -6.5t-70 -2.5q-77 0 -136 19t-99 59.5t-60 107.5t-20 163zM294 745l96 181h129l-125 -181h-100z" />
    <glyph glyph-name="uni0107" unicode="&#x107;" horiz-adv-x="504" 
d="M31 262q0 97 30.5 161t91.5 96t148 32q30 0 60.5 -2.5t59.5 -7t52 -11.5l-18 -111q-23 5 -47 8.5t-47.5 5.5t-45.5 2q-48 0 -80.5 -18.5t-49.5 -56t-17 -95.5q0 -54 17.5 -89.5t51 -53t80.5 -17.5q23 0 47.5 1.5t49.5 5.5t49 9l20 -106q-40 -11 -92.5 -18t-101.5 -7
q-129 0 -193.5 66.5t-64.5 205.5zM236 595l101 194h132l-131 -194h-102z" />
    <glyph glyph-name="uni0108" unicode="&#x108;" horiz-adv-x="612" 
d="M35 339q0 132 37 214t110.5 119.5t182.5 37.5q33 0 60.5 -1.5t52 -5t47.5 -9t47 -12.5l-28 -110q-29 8 -57 12.5t-54.5 6.5t-54.5 2q-52 0 -90.5 -13t-63.5 -42.5t-37 -78.5t-12 -119q0 -66 12 -110.5t36.5 -72t61.5 -39.5t87 -12q46 0 96.5 6.5t92.5 18.5l24 -108
q-24 -8 -49.5 -14t-54.5 -10t-61 -6.5t-70 -2.5q-77 0 -136 19t-99 59.5t-60 107.5t-20 163zM169 745l100 181h153l99 -181h-107l-70 122l-70 -122h-105z" />
    <glyph glyph-name="uni0109" unicode="&#x109;" horiz-adv-x="504" 
d="M31 262q0 97 30.5 161t91.5 96t148 32q30 0 60.5 -2.5t59.5 -7t52 -11.5l-18 -111q-23 5 -47 8.5t-47.5 5.5t-45.5 2q-48 0 -80.5 -18.5t-49.5 -56t-17 -95.5q0 -54 17.5 -89.5t51 -53t80.5 -17.5q23 0 47.5 1.5t49.5 5.5t49 9l20 -106q-40 -11 -92.5 -18t-101.5 -7
q-129 0 -193.5 66.5t-64.5 205.5zM113 596l106 194h146l104 -194h-108l-70 126l-70 -126h-108z" />
    <glyph glyph-name="uni010A" unicode="&#x10a;" horiz-adv-x="612" 
d="M35 339q0 132 37 214t110.5 119.5t182.5 37.5q33 0 60.5 -1.5t52 -5t47.5 -9t47 -12.5l-28 -110q-29 8 -57 12.5t-54.5 6.5t-54.5 2q-52 0 -90.5 -13t-63.5 -42.5t-37 -78.5t-12 -119q0 -66 12 -110.5t36.5 -72t61.5 -39.5t87 -12q46 0 96.5 6.5t92.5 18.5l24 -108
q-24 -8 -49.5 -14t-54.5 -10t-61 -6.5t-70 -2.5q-77 0 -136 19t-99 59.5t-60 107.5t-20 163zM344 773q-28 0 -42 14t-14 46q0 33 14 46.5t42 13.5q29 0 42.5 -13.5t13.5 -46.5q0 -32 -13.5 -46t-42.5 -14z" />
    <glyph glyph-name="uni010B" unicode="&#x10b;" horiz-adv-x="504" 
d="M31 262q0 97 30.5 161t91.5 96t148 32q30 0 60.5 -2.5t59.5 -7t52 -11.5l-18 -111q-23 5 -47 8.5t-47.5 5.5t-45.5 2q-48 0 -80.5 -18.5t-49.5 -56t-17 -95.5q0 -54 17.5 -89.5t51 -53t80.5 -17.5q23 0 47.5 1.5t49.5 5.5t49 9l20 -106q-40 -11 -92.5 -18t-101.5 -7
q-129 0 -193.5 66.5t-64.5 205.5zM291 628q-28 0 -42 14t-14 46q0 33 14 46.5t42 13.5q29 0 42.5 -13.5t13.5 -46.5q0 -32 -13.5 -46t-42.5 -14z" />
    <glyph glyph-name="uni010C" unicode="&#x10c;" horiz-adv-x="612" 
d="M35 339q0 132 37 214t110.5 119.5t182.5 37.5q33 0 60.5 -1.5t52 -5t47.5 -9t47 -12.5l-28 -110q-29 8 -57 12.5t-54.5 6.5t-54.5 2q-52 0 -90.5 -13t-63.5 -42.5t-37 -78.5t-12 -119q0 -66 12 -110.5t36.5 -72t61.5 -39.5t87 -12q46 0 96.5 6.5t92.5 18.5l24 -108
q-24 -8 -49.5 -14t-54.5 -10t-61 -6.5t-70 -2.5q-77 0 -136 19t-99 59.5t-60 107.5t-20 163zM520 926l-100 -181h-153l-99 181h107l70 -122l70 122h105z" />
    <glyph glyph-name="uni010D" unicode="&#x10d;" horiz-adv-x="504" 
d="M31 262q0 97 30.5 161t91.5 96t148 32q30 0 60.5 -2.5t59.5 -7t52 -11.5l-18 -111q-23 5 -47 8.5t-47.5 5.5t-45.5 2q-48 0 -80.5 -18.5t-49.5 -56t-17 -95.5q0 -54 17.5 -89.5t51 -53t80.5 -17.5q23 0 47.5 1.5t49.5 5.5t49 9l20 -106q-40 -11 -92.5 -18t-101.5 -7
q-129 0 -193.5 66.5t-64.5 205.5zM469 789l-106 -194h-146l-104 194h108l70 -126l70 126h108z" />
    <glyph glyph-name="uni010E" unicode="&#x10e;" horiz-adv-x="679" 
d="M317 -10q-47 0 -90.5 1t-84.5 3t-81 4v702q45 4 85.5 6t80.5 3t82 1q119 0 193 -37.5t108.5 -117t34.5 -206.5q0 -124 -36.5 -203.5t-109 -117.5t-182.5 -38zM325 99q58 0 97.5 24.5t59.5 79.5t20 145q0 94 -19.5 149t-59.5 79t-103 24q-18 0 -39.5 -0.5t-42 -1.5
t-39.5 -2v-492q15 -1 31 -2t32 -1.5l32 -1t31 -0.5zM509 926l-100 -181h-153l-99 181h107l70 -122l70 122h105z" />
    <glyph glyph-name="uni010F" unicode="&#x10f;" horiz-adv-x="703" 
d="M397 -1l-16 44q-42 -27 -82.5 -40t-84.5 -13q-88 0 -135.5 69.5t-47.5 200.5q0 100 27 164t83.5 95.5t142.5 31.5q23 0 47.5 -2t48.5 -7v198h134v-741h-117zM380 138v303q-25 7 -46 9.5t-40 2.5q-43 0 -70.5 -17t-41 -57t-13.5 -107q0 -59 11.5 -97t33 -56t52.5 -18
q18 0 36 4t37 12t41 21zM545 551q20 33 29 66t9 66q0 17 -2.5 32t-8.5 25h123q5 -11 6.5 -23t1.5 -23q0 -43 -15.5 -78t-42.5 -65h-100z" />
    <glyph glyph-name="uni0110" unicode="&#x110;" horiz-adv-x="683" 
d="M5 303v104h320v-104h-320zM320 -10q-47 0 -90.5 1t-84.5 3t-81 4v702q45 4 85.5 6t80.5 3t82 1q119 0 193 -37.5t108.5 -117t34.5 -206.5q0 -124 -36.5 -203.5t-109 -117.5t-182.5 -38zM328 99q58 0 97.5 24.5t59.5 79.5t20 145q0 94 -19.5 149t-59.5 79t-103 24
q-18 0 -39.5 -0.5t-42 -1.5t-39.5 -2v-492q15 -1 31 -2t32 -1.5l32 -1t31 -0.5z" />
    <glyph glyph-name="uni0111" unicode="&#x111;" horiz-adv-x="571" 
d="M234 606v75h345v-75h-345zM397 -1l-16 44q-42 -27 -82.5 -40t-84.5 -13q-88 0 -135.5 69.5t-47.5 200.5q0 100 27 164t83.5 95.5t142.5 31.5q23 0 47.5 -2t48.5 -7v198h134v-741h-117zM380 138v303q-25 7 -46 9.5t-40 2.5q-43 0 -70.5 -17t-41 -57t-13.5 -107
q0 -59 11.5 -97t33 -56t52.5 -18q18 0 36 4t37 12t41 21z" />
    <glyph glyph-name="uni0112" unicode="&#x112;" horiz-adv-x="583" 
d="M61 0v700h480v-120h-341v-162h317v-117h-317v-181h359v-120h-498zM164 782v95h289v-95h-289z" />
    <glyph glyph-name="uni0113" unicode="&#x113;" horiz-adv-x="544" 
d="M284 -10q-61 0 -108 15.5t-79.5 48t-49 83t-16.5 120.5q0 81 19.5 137.5t55.5 91t84 50t105 15.5q113 0 166.5 -57t53.5 -186v-23t-2 -27q-23 -2 -59 -5t-81 -6t-97 -5t-107 -4q-1 -3 -1 -7v-8q0 -46 15.5 -73.5t46.5 -41t78 -13.5q30 0 61.5 3.5t63 9t61.5 12.5l16 -98
q-32 -10 -68 -17.5t-75 -11t-83 -3.5zM170 324q35 0 67.5 1.5t61.5 3t50 3t33 2.5q-1 44 -11.5 71t-31.5 39t-54 12q-20 0 -39 -6t-35 -21t-26.5 -40t-14.5 -65zM140 640v94h288v-94h-288z" />
    <glyph glyph-name="uni0114" unicode="&#x114;" horiz-adv-x="583" 
d="M61 0v700h480v-120h-341v-162h317v-117h-317v-181h359v-120h-498zM309 754q-54 0 -91.5 11t-56.5 40.5t-22 83.5q-1 6 -1 12.5v13.5l79 1q1 -3 1 -6v-5q0 -22 9 -37.5t29 -23t53 -7.5q34 0 51 8t25.5 23t13.5 37q1 2 1 5v6l79 -1v-13.5t-1 -12.5q-2 -51 -20 -81
t-54.5 -42t-94.5 -12z" />
    <glyph glyph-name="uni0115" unicode="&#x115;" horiz-adv-x="544" 
d="M284 -10q-61 0 -108 15.5t-79.5 48t-49 83t-16.5 120.5q0 81 19.5 137.5t55.5 91t84 50t105 15.5q113 0 166.5 -57t53.5 -186v-23t-2 -27q-23 -2 -59 -5t-81 -6t-97 -5t-107 -4q-1 -3 -1 -7v-8q0 -46 15.5 -73.5t46.5 -41t78 -13.5q30 0 61.5 3.5t63 9t61.5 12.5l16 -98
q-32 -10 -68 -17.5t-75 -11t-83 -3.5zM170 324q35 0 67.5 1.5t61.5 3t50 3t33 2.5q-1 44 -11.5 71t-31.5 39t-54 12q-20 0 -39 -6t-35 -21t-26.5 -40t-14.5 -65zM285 603q-55 0 -92 11t-57 40.5t-21 83.5q-1 6 -1 12.5v13.5l79 1v-6v-6q2 -20 10 -34.5t27.5 -22t54.5 -7.5
q33 0 52.5 7.5t28 22t9.5 34.5v6v6l80 -1q0 -7 -0.5 -13.5t-0.5 -13.5q-1 -50 -19.5 -79.5t-55 -42t-94.5 -12.5z" />
    <glyph glyph-name="uni0116" unicode="&#x116;" horiz-adv-x="583" 
d="M61 0v700h480v-120h-341v-162h317v-117h-317v-181h359v-120h-498zM309 773q-28 0 -42 14t-14 46q0 33 14 46.5t42 13.5q29 0 42.5 -13.5t13.5 -46.5q0 -32 -13.5 -46t-42.5 -14z" />
    <glyph glyph-name="uni0117" unicode="&#x117;" horiz-adv-x="544" 
d="M284 -10q-61 0 -108 15.5t-79.5 48t-49 83t-16.5 120.5q0 81 19.5 137.5t55.5 91t84 50t105 15.5q113 0 166.5 -57t53.5 -186v-23t-2 -27q-23 -2 -59 -5t-81 -6t-97 -5t-107 -4q-1 -3 -1 -7v-8q0 -46 15.5 -73.5t46.5 -41t78 -13.5q30 0 61.5 3.5t63 9t61.5 12.5l16 -98
q-32 -10 -68 -17.5t-75 -11t-83 -3.5zM170 324q35 0 67.5 1.5t61.5 3t50 3t33 2.5q-1 44 -11.5 71t-31.5 39t-54 12q-20 0 -39 -6t-35 -21t-26.5 -40t-14.5 -65zM284 628q-28 0 -42 14t-14 46q0 33 14 46.5t42 13.5q29 0 42.5 -13.5t13.5 -46.5q0 -32 -13.5 -46t-42.5 -14z
" />
    <glyph glyph-name="uni0118" unicode="&#x118;" horiz-adv-x="583" 
d="M61 0v700h480v-120h-341v-162h317v-117h-317v-181h359v-120h-498zM498 -220q-31 0 -55 10.5t-37 31t-13 51.5q0 29 12 54.5t33 47t47 36.5l72 -11q-20 -13 -34 -28t-21 -30.5t-7 -33.5q0 -22 11.5 -30.5t27.5 -8.5q7 0 12 1l10 2l6 -82q-13 -5 -28 -7.5t-36 -2.5z" />
    <glyph glyph-name="uni0119" unicode="&#x119;" horiz-adv-x="544" 
d="M284 -10q-61 0 -108 15.5t-79.5 48t-49 83t-16.5 120.5q0 81 19.5 137.5t55.5 91t84 50t105 15.5q113 0 166.5 -57t53.5 -186v-23t-2 -27q-23 -2 -59 -5t-81 -6t-97 -5t-107 -4q-1 -3 -1 -7v-8q0 -46 15.5 -73.5t46.5 -41t78 -13.5q30 0 61.5 3.5t63 9t61.5 12.5l16 -98
q-32 -10 -68 -17.5t-75 -11t-83 -3.5zM170 324q35 0 67.5 1.5t61.5 3t50 3t33 2.5q-1 44 -11.5 71t-31.5 39t-54 12q-20 0 -39 -6t-35 -21t-26.5 -40t-14.5 -65zM404 -209q-31 0 -55 10.5t-37 31t-13 51.5q0 29 12 54.5t33 47t47 36.5l72 -11q-20 -13 -34 -28t-21 -30.5
t-7 -33.5q0 -22 11.5 -30.5t27.5 -8.5q7 0 12 1l10 2l6 -82q-13 -5 -28 -7.5t-36 -2.5z" />
    <glyph glyph-name="uni011A" unicode="&#x11a;" horiz-adv-x="583" 
d="M61 0v700h480v-120h-341v-162h317v-117h-317v-181h359v-120h-498zM485 926l-100 -181h-153l-99 181h107l70 -122l70 122h105z" />
    <glyph glyph-name="uni011B" unicode="&#x11b;" horiz-adv-x="544" 
d="M284 -10q-61 0 -108 15.5t-79.5 48t-49 83t-16.5 120.5q0 81 19.5 137.5t55.5 91t84 50t105 15.5q113 0 166.5 -57t53.5 -186v-23t-2 -27q-23 -2 -59 -5t-81 -6t-97 -5t-107 -4q-1 -3 -1 -7v-8q0 -46 15.5 -73.5t46.5 -41t78 -13.5q30 0 61.5 3.5t63 9t61.5 12.5l16 -98
q-32 -10 -68 -17.5t-75 -11t-83 -3.5zM170 324q35 0 67.5 1.5t61.5 3t50 3t33 2.5q-1 44 -11.5 71t-31.5 39t-54 12q-20 0 -39 -6t-35 -21t-26.5 -40t-14.5 -65zM462 789l-106 -194h-146l-104 194h108l70 -126l70 126h108z" />
    <glyph glyph-name="uni011C" unicode="&#x11c;" horiz-adv-x="650" 
d="M35 339q0 126 36 208t108.5 122.5t180.5 40.5q31 0 60 -2t56 -5.5t52.5 -9.5t49.5 -14l-25 -109q-46 12 -93 18t-89 6q-66 0 -110 -27.5t-65.5 -84t-21.5 -145.5q0 -84 20 -136.5t60 -77t98 -24.5q38 0 70 4t57 12v158h-137v107h261v-341q-53 -25 -120.5 -37t-146.5 -12
q-101 0 -167.5 38t-100 115.5t-33.5 195.5zM166 745l100 181h153l99 -181h-107l-70 122l-70 -122h-105z" />
    <glyph glyph-name="uni011D" unicode="&#x11d;" horiz-adv-x="563" 
d="M255 -220q-118 0 -178.5 35.5t-60.5 104.5q0 28 9.5 50.5t29 41t48.5 31.5l75 -26q-16 -8 -28 -18t-18 -22t-6 -29q0 -24 14 -40.5t45 -24.5t80 -8t83.5 9t52.5 26.5t18 41.5q0 18 -7.5 28.5t-26.5 15.5t-53 5h-118q-54 0 -92.5 13.5t-59.5 40.5t-21 65q0 41 20.5 69
t57.5 47l73 -23q-23 -10 -35.5 -23.5t-12.5 -33.5q0 -21 16 -33t51 -12h164q83 0 126.5 -37.5t43.5 -106.5q0 -59 -34 -101t-98.5 -64t-157.5 -22zM268 189q-109 0 -165 46t-56 135t56 135t165 46t165.5 -46t56.5 -135t-56.5 -135t-165.5 -46zM268 276q48 0 71 21.5t23 72.5
t-23 73t-71 22q-46 0 -69.5 -22t-23.5 -73t23.5 -72.5t69.5 -21.5zM449 437l-53 70q14 35 42.5 52t68.5 17q14 0 26 -1.5t22 -4.5l-15 -102q-7 2 -16.5 3t-18.5 1q-18 0 -32.5 -8t-23.5 -27zM93 596l106 194h146l104 -194h-108l-70 126l-70 -126h-108z" />
    <glyph glyph-name="uni011E" unicode="&#x11e;" horiz-adv-x="650" 
d="M35 339q0 126 36 208t108.5 122.5t180.5 40.5q31 0 60 -2t56 -5.5t52.5 -9.5t49.5 -14l-25 -109q-46 12 -93 18t-89 6q-66 0 -110 -27.5t-65.5 -84t-21.5 -145.5q0 -84 20 -136.5t60 -77t98 -24.5q38 0 70 4t57 12v158h-137v107h261v-341q-53 -25 -120.5 -37t-146.5 -12
q-101 0 -167.5 38t-100 115.5t-33.5 195.5zM342 754q-54 0 -91.5 11t-56.5 40.5t-22 83.5q-1 6 -1 12.5v13.5l79 1q1 -3 1 -6v-5q0 -22 9 -37.5t29 -23t53 -7.5q34 0 51 8t25.5 23t13.5 37q1 2 1 5v6l79 -1v-13.5t-1 -12.5q-2 -51 -20 -81t-54.5 -42t-94.5 -12z" />
    <glyph glyph-name="uni011F" unicode="&#x11f;" horiz-adv-x="563" 
d="M255 -220q-118 0 -178.5 35.5t-60.5 104.5q0 28 9.5 50.5t29 41t48.5 31.5l75 -26q-16 -8 -28 -18t-18 -22t-6 -29q0 -24 14 -40.5t45 -24.5t80 -8t83.5 9t52.5 26.5t18 41.5q0 18 -7.5 28.5t-26.5 15.5t-53 5h-118q-54 0 -92.5 13.5t-59.5 40.5t-21 65q0 41 20.5 69
t57.5 47l73 -23q-23 -10 -35.5 -23.5t-12.5 -33.5q0 -21 16 -33t51 -12h164q83 0 126.5 -37.5t43.5 -106.5q0 -59 -34 -101t-98.5 -64t-157.5 -22zM268 189q-109 0 -165 46t-56 135t56 135t165 46t165.5 -46t56.5 -135t-56.5 -135t-165.5 -46zM268 276q48 0 71 21.5t23 72.5
t-23 73t-71 22q-46 0 -69.5 -22t-23.5 -73t23.5 -72.5t69.5 -21.5zM449 437l-53 70q14 35 42.5 52t68.5 17q14 0 26 -1.5t22 -4.5l-15 -102q-7 2 -16.5 3t-18.5 1q-18 0 -32.5 -8t-23.5 -27zM272 603q-55 0 -92 11t-57 40.5t-21 83.5q-1 6 -1 12.5v13.5l79 1v-6v-6
q2 -20 10 -34.5t27.5 -22t54.5 -7.5q33 0 52.5 7.5t28 22t9.5 34.5v6v6l80 -1q0 -7 -0.5 -13.5t-0.5 -13.5q-1 -50 -19.5 -79.5t-55 -42t-94.5 -12.5z" />
    <glyph glyph-name="uni0120" unicode="&#x120;" horiz-adv-x="650" 
d="M35 339q0 126 36 208t108.5 122.5t180.5 40.5q31 0 60 -2t56 -5.5t52.5 -9.5t49.5 -14l-25 -109q-46 12 -93 18t-89 6q-66 0 -110 -27.5t-65.5 -84t-21.5 -145.5q0 -84 20 -136.5t60 -77t98 -24.5q38 0 70 4t57 12v158h-137v107h261v-341q-53 -25 -120.5 -37t-146.5 -12
q-101 0 -167.5 38t-100 115.5t-33.5 195.5zM342 773q-28 0 -42 14t-14 46q0 33 14 46.5t42 13.5q29 0 42.5 -13.5t13.5 -46.5q0 -32 -13.5 -46t-42.5 -14z" />
    <glyph glyph-name="uni0121" unicode="&#x121;" horiz-adv-x="563" 
d="M255 -220q-118 0 -178.5 35.5t-60.5 104.5q0 28 9.5 50.5t29 41t48.5 31.5l75 -26q-16 -8 -28 -18t-18 -22t-6 -29q0 -24 14 -40.5t45 -24.5t80 -8t83.5 9t52.5 26.5t18 41.5q0 18 -7.5 28.5t-26.5 15.5t-53 5h-118q-54 0 -92.5 13.5t-59.5 40.5t-21 65q0 41 20.5 69
t57.5 47l73 -23q-23 -10 -35.5 -23.5t-12.5 -33.5q0 -21 16 -33t51 -12h164q83 0 126.5 -37.5t43.5 -106.5q0 -59 -34 -101t-98.5 -64t-157.5 -22zM268 189q-109 0 -165 46t-56 135t56 135t165 46t165.5 -46t56.5 -135t-56.5 -135t-165.5 -46zM268 276q48 0 71 21.5t23 72.5
t-23 73t-71 22q-46 0 -69.5 -22t-23.5 -73t23.5 -72.5t69.5 -21.5zM449 437l-53 70q14 35 42.5 52t68.5 17q14 0 26 -1.5t22 -4.5l-15 -102q-7 2 -16.5 3t-18.5 1q-18 0 -32.5 -8t-23.5 -27zM271 628q-28 0 -42 14t-14 46q0 33 14 46.5t42 13.5q29 0 42.5 -13.5t13.5 -46.5
q0 -32 -13.5 -46t-42.5 -14z" />
    <glyph glyph-name="uni0122" unicode="&#x122;" horiz-adv-x="650" 
d="M35 339q0 126 36 208t108.5 122.5t180.5 40.5q31 0 60 -2t56 -5.5t52.5 -9.5t49.5 -14l-25 -109q-46 12 -93 18t-89 6q-66 0 -110 -27.5t-65.5 -84t-21.5 -145.5q0 -84 20 -136.5t60 -77t98 -24.5q38 0 70 4t57 12v158h-137v107h261v-341q-53 -25 -120.5 -37t-146.5 -12
q-101 0 -167.5 38t-100 115.5t-33.5 195.5zM252 -213q17 30 25.5 61t8.5 59q0 11 -1.5 20.5t-4.5 16.5h125q2 -6 3 -13t1 -15q0 -24 -7 -47.5t-18.5 -44t-27.5 -37.5h-104z" />
    <glyph glyph-name="uni0123" unicode="&#x123;" horiz-adv-x="563" 
d="M255 -220q-118 0 -178.5 35.5t-60.5 104.5q0 28 9.5 50.5t29 41t48.5 31.5l75 -26q-16 -8 -28 -18t-18 -22t-6 -29q0 -24 14 -40.5t45 -24.5t80 -8t83.5 9t52.5 26.5t18 41.5q0 18 -7.5 28.5t-26.5 15.5t-53 5h-118q-54 0 -92.5 13.5t-59.5 40.5t-21 65q0 41 20.5 69
t57.5 47l73 -23q-23 -10 -35.5 -23.5t-12.5 -33.5q0 -21 16 -33t51 -12h164q83 0 126.5 -37.5t43.5 -106.5q0 -59 -34 -101t-98.5 -64t-157.5 -22zM268 189q-109 0 -165 46t-56 135t56 135t165 46t165.5 -46t56.5 -135t-56.5 -135t-165.5 -46zM268 276q48 0 71 21.5t23 72.5
t-23 73t-71 22q-46 0 -69.5 -22t-23.5 -73t23.5 -72.5t69.5 -21.5zM449 437l-53 70q14 35 42.5 52t68.5 17q14 0 26 -1.5t22 -4.5l-15 -102q-7 2 -16.5 3t-18.5 1q-18 0 -32.5 -8t-23.5 -27zM333 594h-127q-5 9 -8.5 22.5t-3.5 30.5q0 38 14 68.5t40 57.5h107
q-22 -31 -30 -59t-8 -56q0 -19 4 -36t12 -28z" />
    <glyph glyph-name="uni0124" unicode="&#x124;" horiz-adv-x="694" 
d="M61 0v700h137v-325h298v325h137v-700h-137v252h-298v-252h-137zM172 745l100 181h153l99 -181h-107l-70 122l-70 -122h-105z" />
    <glyph glyph-name="uni0125" unicode="&#x125;" horiz-adv-x="565" 
d="M52 0v740h134v-243q30 18 57 30t55.5 18t59.5 6q51 0 85.5 -18t52.5 -52t18 -84v-397h-134v356q0 42 -19.5 62t-58.5 20q-20 0 -39.5 -4.5t-38 -11.5t-38.5 -17v-405h-134zM110 785l100 181h153l99 -181h-107l-70 122l-70 -122h-105z" />
    <glyph glyph-name="uni0126" unicode="&#x126;" horiz-adv-x="694" 
d="M16 502v87h46v111h137v-111h299v111h134v-111h46v-87h-46v-502h-134v253h-299v-253h-137v502h-46zM199 375h299v127h-299v-127z" />
    <glyph glyph-name="uni0127" unicode="&#x127;" horiz-adv-x="565" 
d="M-6 606v75h349v-75h-349zM52 0v740h134v-243q30 18 57 30t55.5 18t59.5 6q51 0 85.5 -18t52.5 -52t18 -84v-397h-134v356q0 42 -19.5 62t-58.5 20q-20 0 -39.5 -4.5t-38 -11.5t-38.5 -17v-405h-134z" />
    <glyph glyph-name="uni0128" unicode="&#x128;" horiz-adv-x="259" 
d="M61 0v700h137v-700h-137zM-43 761q-2 12 -2.5 23.5t-0.5 21.5q0 44 24.5 76.5t72.5 32.5q26 0 47 -9.5t39 -21.5t33 -21t30 -9q9 0 16 5t10.5 15.5t3.5 25.5q0 5 -0.5 10.5t-2.5 9.5h74q2 -12 2.5 -23t0.5 -22q0 -45 -24.5 -78t-73.5 -33q-25 0 -46.5 9.5t-39 21.5
t-32.5 21.5t-30 9.5q-14 0 -22 -11.5t-8 -33.5q0 -5 1 -10l2 -10h-74z" />
    <glyph glyph-name="uni0129" unicode="&#x129;" horiz-adv-x="238" 
d="M52 0v541h134v-541h-134zM-53 600q-2 12 -3 23.5t-1 21.5q0 55 24 82t72 27q23 0 43.5 -8.5t39 -20.5t35 -20.5t33.5 -8.5q10 0 17 6t10.5 15.5t3.5 19.5q0 5 -0.5 11t-1.5 10h72q2 -11 2.5 -22.5t0.5 -22.5q0 -54 -23.5 -81.5t-72.5 -27.5q-21 0 -42 8.5t-40 20
t-36.5 20t-31.5 8.5q-15 0 -23 -10.5t-8 -28.5q0 -5 0.5 -11t1.5 -11h-72z" />
    <glyph glyph-name="uni012A" unicode="&#x12a;" horiz-adv-x="259" 
d="M61 0v700h137v-700h-137zM-15 782v95h289v-95h-289z" />
    <glyph glyph-name="uni012B" unicode="&#x12b;" horiz-adv-x="238" 
d="M52 0v541h134v-541h-134zM-25 640v94h288v-94h-288z" />
    <glyph glyph-name="uni012C" unicode="&#x12c;" horiz-adv-x="259" 
d="M61 0v700h137v-700h-137zM130 754q-54 0 -91.5 11t-56.5 40.5t-22 83.5q-1 6 -1 12.5v13.5l79 1q1 -3 1 -6v-5q0 -22 9 -37.5t29 -23t53 -7.5q34 0 51 8t25.5 23t13.5 37q1 2 1 5v6l79 -1v-13.5t-1 -12.5q-2 -51 -20 -81t-54.5 -42t-94.5 -12z" />
    <glyph glyph-name="uni012D" unicode="&#x12d;" horiz-adv-x="238" 
d="M52 0v541h134v-541h-134zM120 603q-55 0 -92 11t-57 40.5t-21 83.5q-1 6 -1 12.5v13.5l79 1v-6v-6q2 -20 10 -34.5t27.5 -22t54.5 -7.5q33 0 52.5 7.5t28 22t9.5 34.5v6v6l80 -1q0 -7 -0.5 -13.5t-0.5 -13.5q-1 -50 -19.5 -79.5t-55 -42t-94.5 -12.5z" />
    <glyph glyph-name="uni012E" unicode="&#x12e;" horiz-adv-x="259" 
d="M61 0v700h137v-700h-137zM139 -220q-31 0 -55 10.5t-37 31t-13 51.5q0 29 12 54.5t33 47t47 36.5l72 -11q-20 -13 -34 -28t-21 -30.5t-7 -33.5q0 -22 11.5 -30.5t27.5 -8.5q7 0 12 1l10 2l6 -82q-13 -5 -28 -7.5t-36 -2.5z" />
    <glyph glyph-name="uni012F" unicode="&#x12f;" horiz-adv-x="237" 
d="M119 618q-42 0 -60.5 16.5t-18.5 51.5q0 36 18.5 52t60.5 16t60.5 -16t18.5 -52q0 -35 -18.5 -51.5t-60.5 -16.5zM52 0v541h133v-541h-133zM126 -220q-31 0 -55 10.5t-37 31t-13 51.5q0 29 12 54.5t33 47t47 36.5l72 -11q-20 -13 -34 -28t-21 -30.5t-7 -33.5
q0 -22 11.5 -30.5t27.5 -8.5q7 0 12 1l10 2l6 -82q-13 -5 -28 -7.5t-36 -2.5z" />
    <glyph glyph-name="uni0130" unicode="&#x130;" horiz-adv-x="259" 
d="M130 764q-42 0 -60.5 16.5t-18.5 51.5q0 36 18.5 52.5t60.5 16.5t60.5 -16.5t18.5 -52.5q0 -35 -18 -51.5t-61 -16.5zM61 0v700h137v-700h-137z" />
    <glyph glyph-name="uni0131" unicode="&#x131;" horiz-adv-x="238" 
d="M52 0v541h134v-541h-134z" />
    <glyph glyph-name="uni0132" unicode="&#x132;" horiz-adv-x="757" 
d="M61 0v700h137v-700h-137zM268 23l26 106q28 -7 54 -12t50 -8t44 -3q42 0 70 13t42 43t14 81v337h-252v120h389v-488q0 -73 -24 -122.5t-73.5 -74.5t-127.5 -25q-34 0 -70 4t-72 11.5t-70 17.5z" />
    <glyph glyph-name="uni0133" unicode="&#x133;" horiz-adv-x="494" 
d="M119 618q-42 0 -60.5 16.5t-18.5 51.5q0 36 18.5 52t60.5 16t60.5 -16t18.5 -52q0 -35 -18.5 -51.5t-60.5 -16.5zM52 0v541h133v-541h-133zM443 541v-516q0 -104 -36.5 -162t-118.5 -70q-10 -1 -22 -1.5t-24.5 -0.5t-23.5 2l7 111q7 0 13 1t12 3q31 10 45.5 39.5
t14.5 84.5v509h133zM376 618q-42 0 -60.5 16.5t-18.5 51.5q0 36 18.5 52t60.5 16t60.5 -16t18.5 -52q0 -35 -18.5 -51.5t-60.5 -16.5z" />
    <glyph glyph-name="uni0134" unicode="&#x134;" horiz-adv-x="498" 
d="M9 23l26 106q28 -7 54 -12t50 -8t44 -3q42 0 70 13t42 43t14 81v337h-252v120h389v-488q0 -73 -24 -122.5t-73.5 -74.5t-127.5 -25q-34 0 -70 4t-72 11.5t-70 17.5zM77 745l100 181h153l99 -181h-107l-70 122l-70 -122h-105z" />
    <glyph glyph-name="uni0135" unicode="&#x135;" horiz-adv-x="244" 
d="M192 25q0 -104 -36.5 -162t-118.5 -70q-10 -1 -22 -1.5t-24.5 -0.5t-23.5 2l7 111q7 0 13 1t12 3q31 10 45.5 39.5t14.5 84.5v509h133v-516zM-53 596l106 194h146l104 -194h-108l-70 126l-70 -126h-108z" />
    <glyph glyph-name="uni0136" unicode="&#x136;" horiz-adv-x="651" 
d="M610 -10q-30 0 -59 9t-60.5 28t-66.5 51l-225 204v-282h-138v700h138v-248l259 -231q31 -27 54 -44t41.5 -27t34 -13.5t30.5 -3.5h7.5h8.5v-141q-7 -1 -13 -1.5t-11 -0.5zM321 295l-89 78q28 19 58.5 45t62 56.5t62 66.5t57 77.5t47.5 87.5l106 -53q-23 -59 -55.5 -111
t-72.5 -96.5t-85 -82.5t-91 -68zM239 -213q17 30 25.5 61t8.5 59q0 11 -1.5 20.5t-4.5 16.5h125q2 -6 3 -13t1 -15q0 -24 -7 -47.5t-18.5 -44t-27.5 -37.5h-104z" />
    <glyph glyph-name="uni0137" unicode="&#x137;" horiz-adv-x="534" 
d="M489 -9q-16 0 -32.5 3.5t-35 14.5t-44 32t-60.5 56l-138 133v-230h-127v740h127v-339l165 -161q49 -47 78.5 -71t49 -32.5t35.5 -8.5q3 0 7 0.5t8 0.5l2 -135q-7 -1 -15.5 -2t-19.5 -1zM288 238l-108 53q35 31 65.5 61t56 61t44 64.5t28.5 72.5l134 -9q-12 -44 -36 -86
t-55.5 -80.5t-64.5 -72.5t-64 -64zM190 -213q17 30 25.5 61t8.5 59q0 11 -1.5 20.5t-4.5 16.5h125q2 -6 3 -13t1 -15q0 -24 -7 -47.5t-18.5 -44t-27.5 -37.5h-104z" />
    <glyph glyph-name="uni0138" unicode="&#x138;" horiz-adv-x="535" 
d="M489 -9q-16 0 -32.5 3.5t-35 14.5t-44 32t-60.5 56l-138 133v-230h-127v541h127v-140l165 -161q49 -47 78.5 -71t49 -32.5t35.5 -8.5q3 0 7 0.5t8 0.5l2 -135q-7 -1 -15.5 -2t-19.5 -1zM288 238l-108 53q35 31 65.5 60t56 59t44 63t28.5 72l134 -9q-12 -44 -36 -85
t-55.5 -79t-64.5 -71t-64 -63z" />
    <glyph glyph-name="uni0139" unicode="&#x139;" horiz-adv-x="539" 
d="M61 0v700h137v-580h324v-120h-461zM79 745l96 181h129l-125 -181h-100z" />
    <glyph glyph-name="uni013A" unicode="&#x13a;" horiz-adv-x="294" 
d="M185 740v-565q0 -29 6.5 -44.5t18 -20.5t25.5 -5q10 0 22 2t26 6l12 -102q-20 -9 -45 -15t-54 -6q-46 0 -78.5 16t-49 54t-16.5 103v577h133zM68 785l96 181h129l-125 -181h-100z" />
    <glyph glyph-name="uni013B" unicode="&#x13b;" horiz-adv-x="539" 
d="M61 0v700h137v-580h324v-120h-461zM201 -213q17 30 25.5 61t8.5 59q0 11 -1.5 20.5t-4.5 16.5h125q2 -6 3 -13t1 -15q0 -24 -7 -47.5t-18.5 -44t-27.5 -37.5h-104z" />
    <glyph glyph-name="uni013C" unicode="&#x13c;" horiz-adv-x="294" 
d="M185 740v-565q0 -29 6.5 -44.5t18 -20.5t25.5 -5q10 0 22 2t26 6l12 -102q-20 -9 -45 -15t-54 -6q-46 0 -78.5 16t-49 54t-16.5 103v577h133zM83 -213q17 30 25.5 61t8.5 59q0 11 -1.5 20.5t-4.5 16.5h125q2 -6 3 -13t1 -15q0 -24 -7 -47.5t-18.5 -44t-27.5 -37.5h-104z
" />
    <glyph glyph-name="uni013D" unicode="&#x13d;" horiz-adv-x="539" 
d="M61 0v700h137v-580h324v-120h-461zM309 511q20 33 29 66t9 66q0 17 -2.5 32t-8.5 25h123q5 -11 6.5 -23t1.5 -23q0 -43 -15.5 -78t-42.5 -65h-100z" />
    <glyph glyph-name="uni013E" unicode="&#x13e;" horiz-adv-x="387" 
d="M185 740v-565q0 -29 6.5 -44.5t18 -20.5t25.5 -5q10 0 22 2t26 6l12 -102q-20 -9 -45 -15t-54 -6q-46 0 -78.5 16t-49 54t-16.5 103v577h133zM217 551q20 33 29 66t9 66q0 17 -2.5 32t-8.5 25h123q5 -11 6.5 -23t1.5 -23q0 -43 -15.5 -78t-42.5 -65h-100z" />
    <glyph glyph-name="uni013F" unicode="&#x13f;" horiz-adv-x="539" 
d="M334 394q0 31 14 44.5t48 13.5q36 0 49.5 -13.5t13.5 -44.5q0 -30 -13.5 -43.5t-49.5 -13.5q-34 0 -48 13.5t-14 43.5zM61 0v700h137v-580h324v-120h-461z" />
    <glyph glyph-name="uni0140" unicode="&#x140;" horiz-adv-x="343" 
d="M296 328q-23 0 -33.5 11.5t-10.5 38.5q0 28 10.5 39.5t33.5 11.5q25 0 35 -11.5t10 -39.5q0 -27 -10 -38.5t-35 -11.5zM185 740v-565q0 -29 6.5 -44.5t18 -20.5t25.5 -5q10 0 22 2t26 6l12 -102q-20 -9 -45 -15t-54 -6q-46 0 -78.5 16t-49 54t-16.5 103v577h133z" />
    <glyph glyph-name="uni0141" unicode="&#x141;" horiz-adv-x="551" 
d="M13 190v119l60 37v354h138v-287l190 113v-119l-190 -113v-174h323v-120h-461v227z" />
    <glyph glyph-name="uni0142" unicode="&#x142;" horiz-adv-x="311" 
d="M196 -10q-43 0 -72.5 15t-45.5 51.5t-18 99.5l-1 68l-52 -42v105l52 42v411h133v-323l92 73v-105l-92 -73v-122q0 -32 6.5 -48.5t17.5 -22.5t25 -6q12 0 26 2t30 6l13 -110q-24 -9 -53.5 -15t-60.5 -6z" />
    <glyph glyph-name="uni0143" unicode="&#x143;" horiz-adv-x="679" 
d="M61 0v702h130l305 -489v487h122v-702h-129l-305 482v-480h-123zM289 745l96 181h129l-125 -181h-100z" />
    <glyph glyph-name="uni0144" unicode="&#x144;" horiz-adv-x="565" 
d="M52 0v541h121v-47q33 19 63 31.5t59.5 19t62.5 6.5q52 0 86.5 -18.5t51.5 -52.5t17 -82v-398h-133v356q0 42 -19.5 62.5t-58.5 20.5q-20 0 -39 -4.5t-38 -11.5t-40 -18v-405h-133zM229 595l101 194h132l-131 -194h-102z" />
    <glyph glyph-name="uni0145" unicode="&#x145;" horiz-adv-x="679" 
d="M61 0v702h130l305 -489v487h122v-702h-129l-305 482v-480h-123zM251 -213q17 30 25.5 61t8.5 59q0 11 -1.5 20.5t-4.5 16.5h125q2 -6 3 -13t1 -15q0 -24 -7 -47.5t-18.5 -44t-27.5 -37.5h-104z" />
    <glyph glyph-name="uni0146" unicode="&#x146;" horiz-adv-x="565" 
d="M52 0v541h121v-47q33 19 63 31.5t59.5 19t62.5 6.5q52 0 86.5 -18.5t51.5 -52.5t17 -82v-398h-133v356q0 42 -19.5 62.5t-58.5 20.5q-20 0 -39 -4.5t-38 -11.5t-40 -18v-405h-133zM195 -213q17 30 25.5 61t8.5 59q0 11 -1.5 20.5t-4.5 16.5h125q2 -6 3 -13t1 -15
q0 -24 -7 -47.5t-18.5 -44t-27.5 -37.5h-104z" />
    <glyph glyph-name="uni0147" unicode="&#x147;" horiz-adv-x="679" 
d="M61 0v702h130l305 -489v487h122v-702h-129l-305 482v-480h-123zM516 926l-100 -181h-153l-99 181h107l70 -122l70 122h105z" />
    <glyph glyph-name="uni0148" unicode="&#x148;" horiz-adv-x="565" 
d="M52 0v541h121v-47q33 19 63 31.5t59.5 19t62.5 6.5q52 0 86.5 -18.5t51.5 -52.5t17 -82v-398h-133v356q0 42 -19.5 62.5t-58.5 20.5q-20 0 -39 -4.5t-38 -11.5t-40 -18v-405h-133zM461 789l-106 -194h-146l-104 194h108l70 -126l70 126h108z" />
    <glyph glyph-name="uni014A" unicode="&#x14a;" horiz-adv-x="679" 
d="M61 0v702h129l307 -490v488h121v-712q0 -61 -25 -102t-71.5 -61t-112.5 -20q-35 0 -66.5 5.5t-59.5 14.5l22 105q22 -5 43.5 -7.5t39.5 -2.5q31 0 53.5 7.5t35 24t12.5 41.5v9l-305 479v-481h-123z" />
    <glyph glyph-name="uni014B" unicode="&#x14b;" horiz-adv-x="565" 
d="M513 24q0 -66 -18 -115t-51 -78.5t-79 -37.5q-15 -2 -28.5 -3t-27.5 0l2 118q7 1 13 2t11 3q22 10 33.5 36.5t11.5 72.5v334q0 41 -19.5 62t-58.5 21q-20 0 -39 -4.5t-38 -11.5t-40 -18v-405h-133v541h121v-47q31 18 60.5 31t60 19.5t64.5 6.5q52 0 86.5 -18.5
t51.5 -52.5t17 -80v-376z" />
    <glyph glyph-name="uni014C" unicode="&#x14c;" horiz-adv-x="697" 
d="M348 99q31 0 57.5 7t48 24.5t37 45.5t24 71.5t8.5 102.5q0 60 -8.5 103.5t-24.5 72t-37 45.5t-48 24t-57 7q-29 0 -55 -7t-47.5 -23.5t-37 -45.5t-24 -72.5t-8.5 -103.5t8.5 -102.5t24.5 -71.5t37.5 -46t47 -24t54.5 -7zM349 -10q-57 0 -105 11.5t-87 37t-65.5 67
t-41 102t-14.5 142.5t13.5 142t40 101.5t65.5 68t87 37.5t107 11q58 0 107 -11.5t87 -36.5t65 -66.5t41 -101.5t14 -141q0 -84 -14 -145t-41.5 -102.5t-65.5 -67t-86.5 -37t-106.5 -11.5zM204 782v95h289v-95h-289z" />
    <glyph glyph-name="uni014D" unicode="&#x14d;" horiz-adv-x="567" 
d="M31 271q0 69 12.5 121t41.5 87t77.5 53.5t120.5 18.5q73 0 121.5 -18.5t77.5 -53.5t41.5 -87t12.5 -121t-13.5 -122t-43.5 -88t-78 -53t-118 -18q-69 0 -117 18t-78 53t-43.5 88t-13.5 122zM167 271q0 -67 12 -106.5t38 -56.5t66 -17q42 0 67.5 17t37 56.5t11.5 106.5
t-10.5 106t-36 56t-69.5 17q-43 0 -68.5 -17t-36.5 -56t-11 -106zM139 640v94h288v-94h-288z" />
    <glyph glyph-name="uni014E" unicode="&#x14e;" horiz-adv-x="697" 
d="M348 99q31 0 57.5 7t48 24.5t37 45.5t24 71.5t8.5 102.5q0 60 -8.5 103.5t-24.5 72t-37 45.5t-48 24t-57 7q-29 0 -55 -7t-47.5 -23.5t-37 -45.5t-24 -72.5t-8.5 -103.5t8.5 -102.5t24.5 -71.5t37.5 -46t47 -24t54.5 -7zM349 -10q-57 0 -105 11.5t-87 37t-65.5 67
t-41 102t-14.5 142.5t13.5 142t40 101.5t65.5 68t87 37.5t107 11q58 0 107 -11.5t87 -36.5t65 -66.5t41 -101.5t14 -141q0 -84 -14 -145t-41.5 -102.5t-65.5 -67t-86.5 -37t-106.5 -11.5zM349 754q-54 0 -91.5 11t-56.5 40.5t-22 83.5q-1 6 -1 12.5v13.5l79 1q1 -3 1 -6v-5
q0 -22 9 -37.5t29 -23t53 -7.5q34 0 51 8t25.5 23t13.5 37q1 2 1 5v6l79 -1v-13.5t-1 -12.5q-2 -51 -20 -81t-54.5 -42t-94.5 -12z" />
    <glyph glyph-name="uni014F" unicode="&#x14f;" horiz-adv-x="567" 
d="M31 271q0 69 12.5 121t41.5 87t77.5 53.5t120.5 18.5q73 0 121.5 -18.5t77.5 -53.5t41.5 -87t12.5 -121t-13.5 -122t-43.5 -88t-78 -53t-118 -18q-69 0 -117 18t-78 53t-43.5 88t-13.5 122zM167 271q0 -67 12 -106.5t38 -56.5t66 -17q42 0 67.5 17t37 56.5t11.5 106.5
t-10.5 106t-36 56t-69.5 17q-43 0 -68.5 -17t-36.5 -56t-11 -106zM284 603q-55 0 -92 11t-57 40.5t-21 83.5q-1 6 -1 12.5v13.5l79 1v-6v-6q2 -20 10 -34.5t27.5 -22t54.5 -7.5q33 0 52.5 7.5t28 22t9.5 34.5v6v6l80 -1q0 -7 -0.5 -13.5t-0.5 -13.5q-1 -50 -19.5 -79.5
t-55 -42t-94.5 -12.5z" />
    <glyph glyph-name="uni0150" unicode="&#x150;" horiz-adv-x="697" 
d="M348 99q31 0 57.5 7t48 24.5t37 45.5t24 71.5t8.5 102.5q0 60 -8.5 103.5t-24.5 72t-37 45.5t-48 24t-57 7q-29 0 -55 -7t-47.5 -23.5t-37 -45.5t-24 -72.5t-8.5 -103.5t8.5 -102.5t24.5 -71.5t37.5 -46t47 -24t54.5 -7zM349 -10q-57 0 -105 11.5t-87 37t-65.5 67
t-41 102t-14.5 142.5t13.5 142t40 101.5t65.5 68t87 37.5t107 11q58 0 107 -11.5t87 -36.5t65 -66.5t41 -101.5t14 -141q0 -84 -14 -145t-41.5 -102.5t-65.5 -67t-86.5 -37t-106.5 -11.5zM394 745l83 182h124l-110 -182h-97zM210 745l83 182h124l-110 -182h-97z" />
    <glyph glyph-name="uni0151" unicode="&#x151;" horiz-adv-x="567" 
d="M31 271q0 69 12.5 121t41.5 87t77.5 53.5t120.5 18.5q73 0 121.5 -18.5t77.5 -53.5t41.5 -87t12.5 -121t-13.5 -122t-43.5 -88t-78 -53t-118 -18q-69 0 -117 18t-78 53t-43.5 88t-13.5 122zM167 271q0 -67 12 -106.5t38 -56.5t66 -17q42 0 67.5 17t37 56.5t11.5 106.5
t-10.5 106t-36 56t-69.5 17q-43 0 -68.5 -17t-36.5 -56t-11 -106zM327 596l88 194h124l-116 -194h-96zM142 596l89 194h123l-115 -194h-97z" />
    <glyph glyph-name="uni0152" unicode="&#x152;" horiz-adv-x="1004" 
d="M978 0h-358q-43 -3 -84 -5t-81.5 -3t-83.5 -1q-63 0 -115.5 10.5t-93 36t-69 67t-43.5 103.5t-15 146q0 95 21 162t62.5 109.5t102.5 62.5t141 20q42 0 82 -1t80 -2.5t79 -4.5h357v-119h-340v-163h316v-117h-316v-181h358v-120zM481 106v487q-9 1 -21 1.5t-26 1.5
t-27.5 1.5l-27 1t-23.5 0.5q-29 0 -55.5 -7t-48.5 -23t-38.5 -44t-26 -70.5t-9.5 -102.5q0 -61 9.5 -104.5t26.5 -72t39.5 -44.5t50 -23t58.5 -7q24 0 46 1t41.5 2t31.5 2z" />
    <glyph glyph-name="uni0153" unicode="&#x153;" horiz-adv-x="914" 
d="M31 271q0 69 12.5 121t41.5 87t77.5 53.5t120.5 18.5q50 0 86 -11t61.5 -32t42.5 -53q19 32 46 53.5t62 32t75 10.5q78 0 128.5 -26.5t74.5 -80t24 -136.5q0 -11 -0.5 -23.5t-1.5 -22.5q-21 -2 -56 -5t-80.5 -6t-98 -5.5t-110.5 -3.5q0 -5 -0.5 -11t-0.5 -13
q0 -43 16.5 -70t47 -38.5t73.5 -11.5q27 0 59 3t65.5 9t65.5 13l16 -102q-30 -9 -64.5 -16t-73 -11t-80.5 -4q-46 0 -82.5 10.5t-64.5 30.5t-46 49q-25 -44 -69.5 -67t-114.5 -23q-69 0 -117.5 18t-78 53t-43 88t-13.5 122zM167 271q0 -68 12 -107.5t37.5 -56.5t66.5 -17
q42 0 67.5 17t37 56.5t11.5 107.5t-10.5 107t-36 56t-69.5 17q-43 0 -68.5 -17t-36.5 -56t-11 -107zM537 317q35 0 67.5 1t61 3t49.5 3t33 2q-2 72 -26.5 101t-71.5 29q-19 0 -37.5 -5.5t-34.5 -20t-26.5 -42.5t-14.5 -71z" />
    <glyph glyph-name="uni0154" unicode="&#x154;" horiz-adv-x="678" 
d="M630 -10q-29 0 -57 9.5t-57 29t-59 49.5t-62.5 72.5t-69.5 96.5q-7 -1 -21.5 -1h-21.5h-40.5t-42.5 1v-247h-138v701q54 3 98.5 5t83 3t72.5 1q81 0 138 -11.5t93 -37t52.5 -66.5t16.5 -98q0 -60 -18.5 -102.5t-52.5 -69.5t-81 -43q30 -40 56.5 -69.5t49 -49t41.5 -29.5
t37 -10q3 0 7.5 0.5t8.5 0.5v-132q-6 -1 -14 -2t-19 -1zM311 356q41 0 71.5 6.5t50.5 20.5t30 37.5t10 58.5q0 44 -14 70.5t-48 38.5t-93 12h-30t-25.5 -0.5t-27.5 -1t-36 -2.5v-237q17 -1 31 -1.5t27.5 -1t26 -0.5h27.5zM280 745l96 181h129l-125 -181h-100z" />
    <glyph glyph-name="uni0155" unicode="&#x155;" horiz-adv-x="406" 
d="M173 541v-64q28 26 52.5 42.5t50 24t53.5 7.5q18 0 36.5 -2.5t36.5 -8.5l-21 -120q-18 4 -36.5 6.5t-34.5 2.5q-29 0 -60 -11t-65 -38v-380h-133v541h121zM164 595l101 194h132l-131 -194h-102z" />
    <glyph glyph-name="uni0156" unicode="&#x156;" horiz-adv-x="678" 
d="M630 -10q-29 0 -57 9.5t-57 29t-59 49.5t-62.5 72.5t-69.5 96.5q-7 -1 -21.5 -1h-21.5h-40.5t-42.5 1v-247h-138v701q54 3 98.5 5t83 3t72.5 1q81 0 138 -11.5t93 -37t52.5 -66.5t16.5 -98q0 -60 -18.5 -102.5t-52.5 -69.5t-81 -43q30 -40 56.5 -69.5t49 -49t41.5 -29.5
t37 -10q3 0 7.5 0.5t8.5 0.5v-132q-6 -1 -14 -2t-19 -1zM311 356q41 0 71.5 6.5t50.5 20.5t30 37.5t10 58.5q0 44 -14 70.5t-48 38.5t-93 12h-30t-25.5 -0.5t-27.5 -1t-36 -2.5v-237q17 -1 31 -1.5t27.5 -1t26 -0.5h27.5zM248 -213q17 30 25.5 61t8.5 59q0 11 -1.5 20.5
t-4.5 16.5h125q2 -6 3 -13t1 -15q0 -24 -7 -47.5t-18.5 -44t-27.5 -37.5h-104z" />
    <glyph glyph-name="uni0157" unicode="&#x157;" horiz-adv-x="406" 
d="M173 541v-64q28 26 52.5 42.5t50 24t53.5 7.5q18 0 36.5 -2.5t36.5 -8.5l-21 -120q-18 4 -36.5 6.5t-34.5 2.5q-29 0 -60 -11t-65 -38v-380h-133v541h121zM29 -213q17 30 25.5 61t8.5 59q0 11 -1.5 20.5t-4.5 16.5h125q2 -6 3 -13t1 -15q0 -24 -7 -47.5t-18.5 -44
t-27.5 -37.5h-104z" />
    <glyph glyph-name="uni0158" unicode="&#x158;" horiz-adv-x="678" 
d="M630 -10q-29 0 -57 9.5t-57 29t-59 49.5t-62.5 72.5t-69.5 96.5q-7 -1 -21.5 -1h-21.5h-40.5t-42.5 1v-247h-138v701q54 3 98.5 5t83 3t72.5 1q81 0 138 -11.5t93 -37t52.5 -66.5t16.5 -98q0 -60 -18.5 -102.5t-52.5 -69.5t-81 -43q30 -40 56.5 -69.5t49 -49t41.5 -29.5
t37 -10q3 0 7.5 0.5t8.5 0.5v-132q-6 -1 -14 -2t-19 -1zM311 356q41 0 71.5 6.5t50.5 20.5t30 37.5t10 58.5q0 44 -14 70.5t-48 38.5t-93 12h-30t-25.5 -0.5t-27.5 -1t-36 -2.5v-237q17 -1 31 -1.5t27.5 -1t26 -0.5h27.5zM506 926l-100 -181h-153l-99 181h107l70 -122
l70 122h105z" />
    <glyph glyph-name="uni0159" unicode="&#x159;" horiz-adv-x="406" 
d="M173 541v-64q28 26 52.5 42.5t50 24t53.5 7.5q18 0 36.5 -2.5t36.5 -8.5l-21 -120q-18 4 -36.5 6.5t-34.5 2.5q-29 0 -60 -11t-65 -38v-380h-133v541h121zM397 789l-106 -194h-146l-104 194h108l70 -126l70 126h108z" />
    <glyph glyph-name="uni015A" unicode="&#x15a;" horiz-adv-x="600" 
d="M545 677l-26 -107q-20 7 -45 12.5t-51.5 9.5t-53.5 6t-51 2q-66 0 -103.5 -20.5t-37.5 -61.5q0 -20 10.5 -35.5t32.5 -29.5t58.5 -27t87.5 -27q54 -15 94 -34.5t66.5 -43.5t39 -55.5t12.5 -72.5q0 -65 -34.5 -110t-101 -69t-162.5 -24q-31 0 -66 3t-70.5 8.5t-68.5 13.5
t-59 18l27 106q27 -9 58 -16.5t63 -13t64 -8.5t60 -3q49 0 82 9.5t49.5 28.5t16.5 46q0 21 -13 37t-39 28.5t-66.5 26.5t-94.5 31q-48 17 -83.5 36t-58.5 43.5t-34.5 55.5t-11.5 70q0 44 17 80.5t51.5 63.5t88 41.5t125.5 14.5q43 0 85.5 -4.5t80 -12t62.5 -16.5zM255 745
l96 181h129l-125 -181h-100z" />
    <glyph glyph-name="uni015B" unicode="&#x15b;" horiz-adv-x="469" 
d="M21 21l16 98q18 -6 40 -11.5t46.5 -9.5t48.5 -6t45 -2q48 0 70.5 14.5t22.5 43.5q0 16 -9 27.5t-26.5 20t-43 16t-58.5 15.5q-35 8 -61 21.5t-44.5 32.5t-27 44t-8.5 57q0 83 54 126t160 43q33 0 62 -3.5t55.5 -9t48.5 -13.5l-17 -100q-22 7 -44 12t-47.5 8t-57.5 3
q-43 0 -65 -13.5t-22 -40.5q0 -16 8 -26.5t23 -17.5t37 -13t49 -12q37 -9 67 -21.5t51.5 -30.5t34 -45.5t12.5 -66.5q0 -37 -11.5 -65.5t-32.5 -48.5t-49 -32.5t-62 -18.5t-71 -6q-36 0 -69 3.5t-64.5 10.5t-60.5 17zM178 595l101 194h132l-131 -194h-102z" />
    <glyph glyph-name="uni015C" unicode="&#x15c;" horiz-adv-x="600" 
d="M545 677l-26 -107q-20 7 -45 12.5t-51.5 9.5t-53.5 6t-51 2q-66 0 -103.5 -20.5t-37.5 -61.5q0 -20 10.5 -35.5t32.5 -29.5t58.5 -27t87.5 -27q54 -15 94 -34.5t66.5 -43.5t39 -55.5t12.5 -72.5q0 -65 -34.5 -110t-101 -69t-162.5 -24q-31 0 -66 3t-70.5 8.5t-68.5 13.5
t-59 18l27 106q27 -9 58 -16.5t63 -13t64 -8.5t60 -3q49 0 82 9.5t49.5 28.5t16.5 46q0 21 -13 37t-39 28.5t-66.5 26.5t-94.5 31q-48 17 -83.5 36t-58.5 43.5t-34.5 55.5t-11.5 70q0 44 17 80.5t51.5 63.5t88 41.5t125.5 14.5q43 0 85.5 -4.5t80 -12t62.5 -16.5zM130 745
l100 181h153l99 -181h-107l-70 122l-70 -122h-105z" />
    <glyph glyph-name="uni015D" unicode="&#x15d;" horiz-adv-x="469" 
d="M21 21l16 98q18 -6 40 -11.5t46.5 -9.5t48.5 -6t45 -2q48 0 70.5 14.5t22.5 43.5q0 16 -9 27.5t-26.5 20t-43 16t-58.5 15.5q-35 8 -61 21.5t-44.5 32.5t-27 44t-8.5 57q0 83 54 126t160 43q33 0 62 -3.5t55.5 -9t48.5 -13.5l-17 -100q-22 7 -44 12t-47.5 8t-57.5 3
q-43 0 -65 -13.5t-22 -40.5q0 -16 8 -26.5t23 -17.5t37 -13t49 -12q37 -9 67 -21.5t51.5 -30.5t34 -45.5t12.5 -66.5q0 -37 -11.5 -65.5t-32.5 -48.5t-49 -32.5t-62 -18.5t-71 -6q-36 0 -69 3.5t-64.5 10.5t-60.5 17zM55 596l106 194h146l104 -194h-108l-70 126l-70 -126
h-108z" />
    <glyph glyph-name="uni015E" unicode="&#x15e;" horiz-adv-x="602" 
d="M545 677l-26 -107q-20 7 -45 12.5t-51.5 9.5t-53.5 6t-51 2q-66 0 -103.5 -20.5t-37.5 -61.5q0 -20 10.5 -35.5t32.5 -29.5t58.5 -27t87.5 -27q54 -15 94 -34.5t66.5 -43.5t39 -55.5t12.5 -72.5q0 -65 -34.5 -110t-101 -69t-162.5 -24q-31 0 -66 3t-70.5 8.5t-68.5 13.5
t-59 18l27 106q27 -9 58 -16.5t63 -13t64 -8.5t60 -3q49 0 82 9.5t49.5 28.5t16.5 46q0 21 -13 37t-39 28.5t-66.5 26.5t-94.5 31q-48 17 -83.5 36t-58.5 43.5t-34.5 55.5t-11.5 70q0 44 17 80.5t51.5 63.5t88 41.5t125.5 14.5q43 0 85.5 -4.5t80 -12t62.5 -16.5zM187 -124
q15 -5 28.5 -8t24.5 -3q25 0 39 13t14 37q0 14 -6 28.5t-16.5 30.5t-24.5 30h97q14 -14 24.5 -34t17 -40.5t6.5 -40.5q0 -30 -12 -54.5t-38 -39.5t-71 -15q-19 0 -41 3.5t-47 12.5z" />
    <glyph glyph-name="uni015F" unicode="&#x15f;" horiz-adv-x="469" 
d="M21 21l16 98q18 -6 40 -11.5t46.5 -9.5t48.5 -6t45 -2q48 0 70.5 14.5t22.5 43.5q0 16 -9 27.5t-26.5 20t-43 16t-58.5 15.5q-35 8 -61 21.5t-44.5 32.5t-27 44t-8.5 57q0 83 54 126t160 43q33 0 62 -3.5t55.5 -9t48.5 -13.5l-17 -100q-22 7 -44 12t-47.5 8t-57.5 3
q-43 0 -65 -13.5t-22 -40.5q0 -16 8 -26.5t23 -17.5t37 -13t49 -12q37 -9 67 -21.5t51.5 -30.5t34 -45.5t12.5 -66.5q0 -37 -11.5 -65.5t-32.5 -48.5t-49 -32.5t-62 -18.5t-71 -6q-36 0 -69 3.5t-64.5 10.5t-60.5 17zM125 -124q15 -5 28.5 -8t24.5 -3q25 0 39 13t14 37
q0 14 -6 28.5t-16.5 30.5t-24.5 30h97q14 -14 24.5 -34t17 -40.5t6.5 -40.5q0 -30 -12 -54.5t-38 -39.5t-71 -15q-19 0 -41 3.5t-47 12.5z" />
    <glyph glyph-name="uni0160" unicode="&#x160;" horiz-adv-x="600" 
d="M545 677l-26 -107q-20 7 -45 12.5t-51.5 9.5t-53.5 6t-51 2q-66 0 -103.5 -20.5t-37.5 -61.5q0 -20 10.5 -35.5t32.5 -29.5t58.5 -27t87.5 -27q54 -15 94 -34.5t66.5 -43.5t39 -55.5t12.5 -72.5q0 -65 -34.5 -110t-101 -69t-162.5 -24q-31 0 -66 3t-70.5 8.5t-68.5 13.5
t-59 18l27 106q27 -9 58 -16.5t63 -13t64 -8.5t60 -3q49 0 82 9.5t49.5 28.5t16.5 46q0 21 -13 37t-39 28.5t-66.5 26.5t-94.5 31q-48 17 -83.5 36t-58.5 43.5t-34.5 55.5t-11.5 70q0 44 17 80.5t51.5 63.5t88 41.5t125.5 14.5q43 0 85.5 -4.5t80 -12t62.5 -16.5zM481 926
l-100 -181h-153l-99 181h107l70 -122l70 122h105z" />
    <glyph glyph-name="uni0161" unicode="&#x161;" horiz-adv-x="469" 
d="M21 21l16 98q18 -6 40 -11.5t46.5 -9.5t48.5 -6t45 -2q48 0 70.5 14.5t22.5 43.5q0 16 -9 27.5t-26.5 20t-43 16t-58.5 15.5q-35 8 -61 21.5t-44.5 32.5t-27 44t-8.5 57q0 83 54 126t160 43q33 0 62 -3.5t55.5 -9t48.5 -13.5l-17 -100q-22 7 -44 12t-47.5 8t-57.5 3
q-43 0 -65 -13.5t-22 -40.5q0 -16 8 -26.5t23 -17.5t37 -13t49 -12q37 -9 67 -21.5t51.5 -30.5t34 -45.5t12.5 -66.5q0 -37 -11.5 -65.5t-32.5 -48.5t-49 -32.5t-62 -18.5t-71 -6q-36 0 -69 3.5t-64.5 10.5t-60.5 17zM410 789l-106 -194h-146l-104 194h108l70 -126l70 126
h108z" />
    <glyph glyph-name="uni0162" unicode="&#x162;" horiz-adv-x="578" 
d="M181 -125q15 -5 28.5 -8t24.5 -3q25 0 39 13t14 38q0 14 -6 28.5t-16 30.5t-23 30l95 1q14 -15 24.5 -35t16.5 -41t6 -40q0 -30 -11.5 -54.5t-38 -39.5t-70.5 -15q-19 0 -41 3.5t-47 12.5zM569 579h-209v-579h-137v579h-210v121h556v-121z" />
    <glyph glyph-name="uni0163" unicode="&#x163;" horiz-adv-x="403" 
d="M248 -10q-52 0 -87.5 20t-53 61t-17.5 105v268h-83v88l83 9l16 120h117v-120h153v-98h-153v-256q0 -46 17 -65t53 -19q20 0 41 3.5t44 9.5l18 -101q-40 -14 -77.5 -19.5t-70.5 -5.5zM122 -124q15 -5 28.5 -8t24.5 -3q25 0 39 13t14 37q0 14 -6 28.5t-16.5 30.5t-24.5 30
h97q14 -14 24.5 -34t17 -40.5t6.5 -40.5q0 -30 -12 -54.5t-38 -39.5t-71 -15q-19 0 -41 3.5t-47 12.5z" />
    <glyph glyph-name="uni0164" unicode="&#x164;" horiz-adv-x="583" 
d="M569 579h-209v-579h-137v579h-210v121h556v-121zM467 926l-100 -181h-153l-99 181h107l70 -122l70 122h105z" />
    <glyph glyph-name="uni0165" unicode="&#x165;" horiz-adv-x="403" 
d="M248 -10q-52 0 -87.5 20t-53 61t-17.5 105v268h-83v88l83 9l16 120h117v-120h153v-98h-153v-256q0 -46 17 -65t53 -19q20 0 41 3.5t44 9.5l18 -101q-40 -14 -77.5 -19.5t-70.5 -5.5zM285 580q20 33 29 66t9 66q0 17 -2.5 32t-8.5 25h123q5 -11 6.5 -23t1.5 -23
q0 -43 -15.5 -78t-42.5 -65h-100z" />
    <glyph glyph-name="uni0166" unicode="&#x166;" horiz-adv-x="583" 
d="M83 286v109h140v184h-210v121h556v-121h-209v-184h139v-109h-139v-286h-137v286h-140z" />
    <glyph glyph-name="uni0167" unicode="&#x167;" horiz-adv-x="403" 
d="M223 272v-91q0 -41 17 -59t54 -18q18 0 38.5 3.5t45.5 10.5l18 -103q-40 -14 -77.5 -19.5t-71.5 -5.5q-52 0 -87 20t-53 60.5t-18 102.5v99h-63v86h63v86h-82v88l82 9l17 121h117v-121h153v-97h-153v-86h120v-86h-120z" />
    <glyph glyph-name="uni0168" unicode="&#x168;" horiz-adv-x="674" 
d="M52 221v479h135v-480q0 -28 8 -48.5t22 -34t33 -21.5t41.5 -11t45.5 -3q25 0 47 3.5t40.5 11.5t32.5 21.5t21.5 33.5t7.5 48v480h136v-479q0 -52 -13 -90.5t-37.5 -65.5t-59.5 -43.5t-79.5 -24t-95.5 -7.5t-95 7.5t-79 24t-60 43.5t-38 65.5t-13 90.5zM165 761
q-2 12 -2.5 23.5t-0.5 21.5q0 44 24.5 76.5t72.5 32.5q26 0 47 -9.5t39 -21.5t33 -21t30 -9q9 0 16 5t10.5 15.5t3.5 25.5q0 5 -0.5 10.5t-2.5 9.5h74q2 -12 2.5 -23t0.5 -22q0 -45 -24.5 -78t-73.5 -33q-25 0 -46.5 9.5t-39 21.5t-32.5 21.5t-30 9.5q-14 0 -22 -11.5
t-8 -33.5q0 -5 1 -10l2 -10h-74z" />
    <glyph glyph-name="uni0169" unicode="&#x169;" horiz-adv-x="574" 
d="M207 -10q-47 0 -82 17t-54 52t-19 88v394h133v-363q0 -38 19.5 -57.5t55.5 -19.5q20 0 38 4t36 11.5t38 17.5v407h133v-392q0 -17 3.5 -27t10.5 -14.5t16 -4.5q12 0 24 5l11 -95q-11 -7 -25 -12t-30.5 -8t-34.5 -3q-33 0 -56 14.5t-36 41.5q-29 -17 -58 -30t-59 -19.5
t-64 -6.5zM109 600q-2 12 -3 23.5t-1 21.5q0 55 24 82t72 27q23 0 43.5 -8.5t39 -20.5t35 -20.5t33.5 -8.5q10 0 17 6t10.5 15.5t3.5 19.5q0 5 -0.5 11t-1.5 10h72q2 -11 2.5 -22.5t0.5 -22.5q0 -54 -23.5 -81.5t-72.5 -27.5q-21 0 -42 8.5t-40 20t-36.5 20t-31.5 8.5
q-15 0 -23 -10.5t-8 -28.5q0 -5 0.5 -11t1.5 -11h-72z" />
    <glyph glyph-name="uni016A" unicode="&#x16a;" horiz-adv-x="674" 
d="M52 221v479h135v-480q0 -28 8 -48.5t22 -34t33 -21.5t41.5 -11t45.5 -3q25 0 47 3.5t40.5 11.5t32.5 21.5t21.5 33.5t7.5 48v480h136v-479q0 -52 -13 -90.5t-37.5 -65.5t-59.5 -43.5t-79.5 -24t-95.5 -7.5t-95 7.5t-79 24t-60 43.5t-38 65.5t-13 90.5zM193 782v95h289
v-95h-289z" />
    <glyph glyph-name="uni016B" unicode="&#x16b;" horiz-adv-x="574" 
d="M207 -10q-47 0 -82 17t-54 52t-19 88v394h133v-363q0 -38 19.5 -57.5t55.5 -19.5q20 0 38 4t36 11.5t38 17.5v407h133v-392q0 -17 3.5 -27t10.5 -14.5t16 -4.5q12 0 24 5l11 -95q-11 -7 -25 -12t-30.5 -8t-34.5 -3q-33 0 -56 14.5t-36 41.5q-29 -17 -58 -30t-59 -19.5
t-64 -6.5zM137 640v94h288v-94h-288z" />
    <glyph glyph-name="uni016C" unicode="&#x16c;" horiz-adv-x="674" 
d="M52 221v479h135v-480q0 -28 8 -48.5t22 -34t33 -21.5t41.5 -11t45.5 -3q25 0 47 3.5t40.5 11.5t32.5 21.5t21.5 33.5t7.5 48v480h136v-479q0 -52 -13 -90.5t-37.5 -65.5t-59.5 -43.5t-79.5 -24t-95.5 -7.5t-95 7.5t-79 24t-60 43.5t-38 65.5t-13 90.5zM338 754
q-54 0 -91.5 11t-56.5 40.5t-22 83.5q-1 6 -1 12.5v13.5l79 1q1 -3 1 -6v-5q0 -22 9 -37.5t29 -23t53 -7.5q34 0 51 8t25.5 23t13.5 37q1 2 1 5v6l79 -1v-13.5t-1 -12.5q-2 -51 -20 -81t-54.5 -42t-94.5 -12z" />
    <glyph glyph-name="uni016D" unicode="&#x16d;" horiz-adv-x="574" 
d="M207 -10q-47 0 -82 17t-54 52t-19 88v394h133v-363q0 -38 19.5 -57.5t55.5 -19.5q20 0 38 4t36 11.5t38 17.5v407h133v-392q0 -17 3.5 -27t10.5 -14.5t16 -4.5q12 0 24 5l11 -95q-11 -7 -25 -12t-30.5 -8t-34.5 -3q-33 0 -56 14.5t-36 41.5q-29 -17 -58 -30t-59 -19.5
t-64 -6.5zM282 603q-55 0 -92 11t-57 40.5t-21 83.5q-1 6 -1 12.5v13.5l79 1v-6v-6q2 -20 10 -34.5t27.5 -22t54.5 -7.5q33 0 52.5 7.5t28 22t9.5 34.5v6v6l80 -1q0 -7 -0.5 -13.5t-0.5 -13.5q-1 -50 -19.5 -79.5t-55 -42t-94.5 -12.5z" />
    <glyph glyph-name="uni016E" unicode="&#x16e;" horiz-adv-x="674" 
d="M52 221v479h135v-480q0 -28 8 -48.5t22 -34t33 -21.5t41.5 -11t45.5 -3q25 0 47 3.5t40.5 11.5t32.5 21.5t21.5 33.5t7.5 48v480h136v-479q0 -52 -13 -90.5t-37.5 -65.5t-59.5 -43.5t-79.5 -24t-95.5 -7.5t-95 7.5t-79 24t-60 43.5t-38 65.5t-13 90.5zM338 746
q-53 0 -80.5 24.5t-27.5 69.5q0 46 27.5 70t80.5 24q52 0 79.5 -24t27.5 -70q0 -45 -27.5 -69.5t-79.5 -24.5zM338 801q38 0 38 39q0 40 -38 40q-39 0 -39 -40q0 -39 39 -39z" />
    <glyph glyph-name="uni016F" unicode="&#x16f;" horiz-adv-x="574" 
d="M207 -10q-47 0 -82 17t-54 52t-19 88v394h133v-363q0 -38 19.5 -57.5t55.5 -19.5q20 0 38 4t36 11.5t38 17.5v407h133v-392q0 -17 3.5 -27t10.5 -14.5t16 -4.5q12 0 24 5l11 -95q-11 -7 -25 -12t-30.5 -8t-34.5 -3q-33 0 -56 14.5t-36 41.5q-29 -17 -58 -30t-59 -19.5
t-64 -6.5zM281 600q-52 0 -80 24.5t-28 69.5q0 46 28 70t80 24q53 0 80.5 -24t27.5 -70q0 -45 -27.5 -69.5t-80.5 -24.5zM281 655q38 0 38 39t-38 39t-38 -39t38 -39z" />
    <glyph glyph-name="uni0170" unicode="&#x170;" horiz-adv-x="674" 
d="M52 221v479h135v-480q0 -28 8 -48.5t22 -34t33 -21.5t41.5 -11t45.5 -3q25 0 47 3.5t40.5 11.5t32.5 21.5t21.5 33.5t7.5 48v480h136v-479q0 -52 -13 -90.5t-37.5 -65.5t-59.5 -43.5t-79.5 -24t-95.5 -7.5t-95 7.5t-79 24t-60 43.5t-38 65.5t-13 90.5zM383 745l83 182
h124l-110 -182h-97zM199 745l83 182h124l-110 -182h-97z" />
    <glyph glyph-name="uni0171" unicode="&#x171;" horiz-adv-x="574" 
d="M207 -10q-47 0 -82 17t-54 52t-19 88v394h133v-363q0 -38 19.5 -57.5t55.5 -19.5q20 0 38 4t36 11.5t38 17.5v407h133v-392q0 -17 3.5 -27t10.5 -14.5t16 -4.5q12 0 24 5l11 -95q-11 -7 -25 -12t-30.5 -8t-34.5 -3q-33 0 -56 14.5t-36 41.5q-29 -17 -58 -30t-59 -19.5
t-64 -6.5zM325 596l88 194h124l-116 -194h-96zM140 596l89 194h123l-115 -194h-97z" />
    <glyph glyph-name="uni0172" unicode="&#x172;" horiz-adv-x="674" 
d="M52 221v479h135v-480q0 -28 8 -48.5t22 -34t33 -21.5t41.5 -11t45.5 -3q25 0 47 3.5t40.5 11.5t32.5 21.5t21.5 33.5t7.5 48v480h136v-479q0 -52 -13 -90.5t-37.5 -65.5t-59.5 -43.5t-79.5 -24t-95.5 -7.5t-95 7.5t-79 24t-60 43.5t-38 65.5t-13 90.5zM353 -219
q-31 0 -55 10.5t-37 31t-13 51.5q0 29 12 54.5t33 47t47 36.5l72 -11q-20 -13 -34 -28t-21 -30.5t-7 -33.5q0 -22 11.5 -30.5t27.5 -8.5q7 0 12 1l10 2l6 -82q-13 -5 -28 -7.5t-36 -2.5z" />
    <glyph glyph-name="uni0173" unicode="&#x173;" horiz-adv-x="574" 
d="M511 -207q-31 0 -55 9.5t-37 29.5t-13 50q0 26 12 50t33 44.5t47 34.5l22 -16q-10 -2 -19.5 -3.5t-20.5 -1.5q-33 0 -56 14.5t-36 41.5q-29 -17 -58 -30t-59 -19.5t-64 -6.5q-47 0 -82 17t-54 52t-19 88v394h133v-363q0 -38 19.5 -57.5t55.5 -19.5q20 0 38 4t36 11.5
t38 17.5v407h133v-392q0 -17 3.5 -27t10.5 -14.5t16 -4.5q12 0 24 5l11 -95q-20 -14 -34 -28.5t-21 -30t-7 -33.5q0 -22 11.5 -30.5t27.5 -8.5q7 0 12.5 1t9.5 2l6 -83q-12 -4 -27.5 -6.5t-36.5 -2.5z" />
    <glyph glyph-name="uni0174" unicode="&#x174;" horiz-adv-x="816" 
d="M662 0h-143l-113 483l-118 -483h-136l-149 699l147 2l79 -563l119 528h123l115 -527l79 562l147 -2zM233 745l100 181h153l99 -181h-107l-70 122l-70 -122h-105z" />
    <glyph glyph-name="uni0175" unicode="&#x175;" horiz-adv-x="772" 
d="M140 0l-130 539l132 3l81 -418l93 417h141l93 -417l82 418l131 -3l-135 -539h-151l-93 388l-89 -388h-155zM208 596l106 194h146l104 -194h-108l-70 126l-70 -126h-108z" />
    <glyph glyph-name="uni0176" unicode="&#x176;" horiz-adv-x="625" 
d="M245 0v260l-242 438l152 4l159 -354l156 354l151 -4l-239 -438v-260h-137zM137 745l100 181h153l99 -181h-107l-70 122l-70 -122h-105z" />
    <glyph glyph-name="uni0177" unicode="&#x177;" horiz-adv-x="535" 
d="M165 -209l67 209h-23l-201 540l146 3l133 -433l124 433l137 -3l-246 -752zM89 596l106 194h146l104 -194h-108l-70 126l-70 -126h-108z" />
    <glyph glyph-name="uni0178" unicode="&#x178;" horiz-adv-x="625" 
d="M245 0v260l-242 438l152 4l159 -354l156 354l151 -4l-239 -438v-260h-137zM410 764q-30 0 -44 14.5t-14 48.5q0 33 14 48.5t44 15.5t44.5 -15.5t14.5 -48.5q0 -34 -14.5 -48.5t-44.5 -14.5zM216 764q-29 0 -43.5 14.5t-14.5 48.5q0 33 14.5 48.5t43.5 15.5
q30 0 44.5 -15.5t14.5 -48.5q0 -34 -14.5 -48.5t-44.5 -14.5z" />
    <glyph glyph-name="uni0179" unicode="&#x179;" horiz-adv-x="597" 
d="M24 0v109l373 477v2h-355v112h514v-109l-370 -477v-2h390v-112h-552zM252 745l96 181h129l-125 -181h-100z" />
    <glyph glyph-name="uni017A" unicode="&#x17a;" horiz-adv-x="507" 
d="M26 0v93l279 345h-270v103h431v-92l-276 -345h292v-104h-456zM202 595l101 194h132l-131 -194h-102z" />
    <glyph glyph-name="uni017B" unicode="&#x17b;" horiz-adv-x="597" 
d="M24 0v109l373 477v2h-355v112h514v-109l-370 -477v-2h390v-112h-552zM302 773q-28 0 -42 14t-14 46q0 33 14 46.5t42 13.5q29 0 42.5 -13.5t13.5 -46.5q0 -32 -13.5 -46t-42.5 -14z" />
    <glyph glyph-name="uni017C" unicode="&#x17c;" horiz-adv-x="507" 
d="M26 0v93l279 345h-270v103h431v-92l-276 -345h292v-104h-456zM257 628q-28 0 -42 14t-14 46q0 33 14 46.5t42 13.5q29 0 42.5 -13.5t13.5 -46.5q0 -32 -13.5 -46t-42.5 -14z" />
    <glyph glyph-name="uni017D" unicode="&#x17d;" horiz-adv-x="597" 
d="M24 0v109l373 477v2h-355v112h514v-109l-370 -477v-2h390v-112h-552zM478 926l-100 -181h-153l-99 181h107l70 -122l70 122h105z" />
    <glyph glyph-name="uni017E" unicode="&#x17e;" horiz-adv-x="507" 
d="M26 0v93l279 345h-270v103h431v-92l-276 -345h292v-104h-456zM435 789l-106 -194h-146l-104 194h108l70 -126l70 126h108z" />
    <glyph glyph-name="uni017F" unicode="&#x17f;" horiz-adv-x="334" 
d="M226 504v-504h-132v401h-78v89l78 9v12q0 59 13 104t38 75t61.5 45t82.5 15q41 0 77 -6.5t71 -18.5l-18 -99q-21 6 -47 10.5t-50 4.5q-20 0 -37.5 -6t-30.5 -21t-20.5 -41.5t-7.5 -68.5z" />
    <glyph glyph-name="uni018F" unicode="&#x18f;" horiz-adv-x="636" 
d="M61 563l-21 105q42 14 84 23t86.5 13.5t93.5 4.5q71 0 126 -21t93 -63.5t57.5 -106.5t19.5 -150q0 -96 -20.5 -167t-60 -118t-95.5 -70t-127 -23q-136 0 -202 76.5t-66 235.5q0 13 0.5 31t1.5 30q95 8 198.5 15.5t220.5 10.5v13v13q0 46 -11 80t-33 56.5t-53.5 32.5
t-72.5 10q-35 0 -72.5 -3.5t-74.5 -10.5t-72 -17zM453 290q-26 0 -56 -1t-61 -2t-61.5 -2t-57 -3t-48.5 -4q2 -65 15.5 -104t41.5 -57t74 -18q45 0 77.5 20.5t52.5 62.5t23 108z" />
    <glyph glyph-name="uni0192" unicode="&#x192;" horiz-adv-x="623" 
d="M109 392l82 6l10 62q14 84 46.5 139.5t82.5 83t116 27.5q39 0 76.5 -7t68.5 -20l-36 -105q-28 8 -52.5 12t-48.5 4q-33 0 -58.5 -16t-43 -49t-26.5 -87l-7 -44h185l-15 -97h-186l-81 -511h-128l81 511h-80z" />
    <glyph glyph-name="uni01A0" unicode="&#x1a0;" horiz-adv-x="698" 
d="M348 99q31 0 57.5 7t48 24.5t37 45.5t24 71.5t8.5 102.5q0 60 -8.5 103.5t-24.5 72t-37 45.5t-48 24t-57 7q-29 0 -55 -7t-47.5 -23.5t-37 -45.5t-24 -72.5t-8.5 -103.5t8.5 -102.5t24.5 -71.5t37.5 -46t47 -24t54.5 -7zM349 -10q-57 0 -105 11.5t-87 37t-65.5 67
t-41 102t-14.5 142.5t13.5 142t40 101.5t65.5 68t87 37.5t107 11q58 0 107 -11.5t87 -36.5t65 -66.5t41 -101.5t14 -141q0 -84 -14 -145t-41.5 -102.5t-65.5 -67t-86.5 -37t-106.5 -11.5zM482 603v84h9q31 0 49 13.5t21.5 41.5t-8.5 69l111 4q13 -49 9.5 -88.5t-24 -67
t-57.5 -42t-89 -14.5h-21z" />
    <glyph glyph-name="uni01A1" unicode="&#x1a1;" horiz-adv-x="567" 
d="M31 271q0 69 12.5 121t41.5 87t77.5 53.5t120.5 18.5q73 0 121.5 -18.5t77.5 -53.5t41.5 -87t12.5 -121t-13.5 -122t-43.5 -88t-78 -53t-118 -18q-69 0 -117 18t-78 53t-43.5 88t-13.5 122zM167 271q0 -67 12 -106.5t38 -56.5t66 -17q42 0 67.5 17t37 56.5t11.5 106.5
t-10.5 106t-36 56t-69.5 17q-43 0 -68.5 -17t-36.5 -56t-11 -106zM358 449v84h9q31 0 49 13.5t21.5 41.5t-8.5 69l111 4q13 -49 9.5 -88.5t-24 -67t-57.5 -42t-89 -14.5h-21z" />
    <glyph glyph-name="uni01AF" unicode="&#x1af;" horiz-adv-x="674" 
d="M52 221v479h135v-480q0 -28 8 -48.5t22 -34t33 -21.5t41.5 -11t45.5 -3q25 0 47 3.5t40.5 11.5t32.5 21.5t21.5 33.5t7.5 48v480h136v-479q0 -52 -13 -90.5t-37.5 -65.5t-59.5 -43.5t-79.5 -24t-95.5 -7.5t-95 7.5t-79 24t-60 43.5t-38 65.5t-13 90.5zM565 616v84h9
q31 0 49 13.5t21.5 41.5t-8.5 69l111 4q13 -49 9.5 -88.5t-24 -67t-57.5 -42t-89 -14.5h-21z" />
    <glyph glyph-name="uni01B0" unicode="&#x1b0;" horiz-adv-x="574" 
d="M207 -10q-47 0 -82 17t-54 52t-19 88v394h133v-363q0 -38 19.5 -57.5t55.5 -19.5q20 0 38 4t36 11.5t38 17.5v407h133v-392q0 -17 3.5 -27t10.5 -14.5t16 -4.5q12 0 24 5l11 -95q-11 -7 -25 -12t-30.5 -8t-34.5 -3q-33 0 -56 14.5t-36 41.5q-29 -17 -58 -30t-59 -19.5
t-64 -6.5zM443 457v84h9q31 0 49 13.5t21.5 41.5t-8.5 69l111 4q13 -49 9.5 -88.5t-24 -67t-57.5 -42t-89 -14.5h-21z" />
    <glyph glyph-name="uni01C4" unicode="&#x1c4;" horiz-adv-x="1260" 
d="M317 -10q-47 0 -90.5 1t-84.5 3t-81 4v702q45 4 85.5 6t80.5 3t82 1q119 0 193 -37.5t108.5 -117t34.5 -206.5q0 -124 -36.5 -203.5t-109 -117.5t-182.5 -38zM325 99q58 0 97.5 24.5t59.5 79.5t20 145q0 94 -19.5 149t-59.5 79t-103 24q-18 0 -39.5 -0.5t-42 -1.5
t-39.5 -2v-492q15 -1 31 -2t32 -1.5l32 -1t31 -0.5zM688 0v109l373 477v2h-355v112h514v-109l-370 -477v-2h390v-112h-552zM1141 926l-100 -181h-153l-99 181h107l70 -122l70 122h105z" />
    <glyph glyph-name="uni01C5" unicode="&#x1c5;" horiz-adv-x="1171" 
d="M317 -10q-47 0 -90.5 1t-84.5 3t-81 4v702q45 4 85.5 6t80.5 3t82 1q119 0 193 -37.5t108.5 -117t34.5 -206.5q0 -124 -36.5 -203.5t-109 -117.5t-182.5 -38zM325 99q58 0 97.5 24.5t59.5 79.5t20 145q0 94 -19.5 149t-59.5 79t-103 24q-18 0 -39.5 -0.5t-42 -1.5
t-39.5 -2v-492q15 -1 31 -2t32 -1.5l32 -1t31 -0.5zM690 0v93l279 345h-270v103h431v-92l-276 -345h292v-104h-456zM1099 789l-106 -194h-146l-104 194h108l70 -126l70 126h108z" />
    <glyph glyph-name="uni01C6" unicode="&#x1c6;" horiz-adv-x="1073" 
d="M397 -1l-16 44q-42 -27 -82.5 -40t-84.5 -13q-88 0 -135.5 69.5t-47.5 200.5q0 100 27 164t83.5 95.5t142.5 31.5q23 0 47.5 -2t48.5 -7v198h134v-741h-117zM380 138v303q-25 7 -46 9.5t-40 2.5q-43 0 -70.5 -17t-41 -57t-13.5 -107q0 -59 11.5 -97t33 -56t52.5 -18
q18 0 36 4t37 12t41 21zM592 0v93l279 345h-270v103h431v-92l-276 -345h292v-104h-456zM1001 789l-106 -194h-146l-104 194h108l70 -126l70 126h108z" />
    <glyph glyph-name="uni01C7" unicode="&#x1c7;" horiz-adv-x="1045" 
d="M61 0v700h137v-580h324v-120h-461zM557 23l26 106q28 -7 54 -12t50 -8t44 -3q42 0 70 13t42 43t14 81v337h-252v120h389v-488q0 -73 -24 -122.5t-73.5 -74.5t-127.5 -25q-34 0 -70 4t-72 11.5t-70 17.5z" />
    <glyph glyph-name="uni01C8" unicode="&#x1c8;" horiz-adv-x="784" 
d="M61 0v700h137v-580h324v-120h-461zM733 541v-516q0 -104 -36.5 -162t-118.5 -70q-10 -1 -22 -1.5t-24.5 -0.5t-23.5 2l7 111q7 0 13 1t12 3q31 10 45.5 39.5t14.5 84.5v509h133zM666 618q-42 0 -60.5 16.5t-18.5 51.5q0 36 18.5 52t60.5 16t60.5 -16t18.5 -52
q0 -35 -18.5 -51.5t-60.5 -16.5z" />
    <glyph glyph-name="uni01C9" unicode="&#x1c9;" horiz-adv-x="538" 
d="M185 740v-565q0 -29 6.5 -44.5t18 -20.5t25.5 -5q10 0 22 2t26 6l12 -102q-20 -9 -45 -15t-54 -6q-46 0 -78.5 16t-49 54t-16.5 103v577h133zM486 541v-516q0 -104 -36.5 -162t-118.5 -70q-10 -1 -22 -1.5t-24.5 -0.5t-23.5 2l7 111q7 0 13 1t12 3q31 10 45.5 39.5
t14.5 84.5v509h133zM419 618q-42 0 -60.5 16.5t-18.5 51.5q0 36 18.5 52t60.5 16t60.5 -16t18.5 -52q0 -35 -18.5 -51.5t-60.5 -16.5z" />
    <glyph glyph-name="uni01CA" unicode="&#x1ca;" horiz-adv-x="1177" 
d="M61 0v702h130l305 -489v487h122v-702h-129l-305 482v-480h-123zM688 23l26 106q28 -7 54 -12t50 -8t44 -3q42 0 70 13t42 43t14 81v337h-252v120h389v-488q0 -73 -24 -122.5t-73.5 -74.5t-127.5 -25q-34 0 -70 4t-72 11.5t-70 17.5z" />
    <glyph glyph-name="uni01CB" unicode="&#x1cb;" horiz-adv-x="920" 
d="M61 0v702h130l305 -489v487h122v-702h-129l-305 482v-480h-123zM868 541v-516q0 -104 -36.5 -162t-118.5 -70q-10 -1 -22 -1.5t-24.5 -0.5t-23.5 2l7 111q7 0 13 1t12 3q31 10 45.5 39.5t14.5 84.5v509h133zM801 618q-42 0 -60.5 16.5t-18.5 51.5q0 36 18.5 52t60.5 16
t60.5 -16t18.5 -52q0 -35 -18.5 -51.5t-60.5 -16.5z" />
    <glyph glyph-name="uni01CC" unicode="&#x1cc;" horiz-adv-x="809" 
d="M52 0v541h121v-47q33 19 63 31.5t59.5 19t62.5 6.5q52 0 86.5 -18.5t51.5 -52.5t17 -82v-398h-133v356q0 42 -19.5 62.5t-58.5 20.5q-20 0 -39 -4.5t-38 -11.5t-40 -18v-405h-133zM757 541v-516q0 -104 -36.5 -162t-118.5 -70q-10 -1 -22 -1.5t-24.5 -0.5t-23.5 2l7 111
q7 0 13 1t12 3q31 10 45.5 39.5t14.5 84.5v509h133zM690 618q-42 0 -60.5 16.5t-18.5 51.5q0 36 18.5 52t60.5 16t60.5 -16t18.5 -52q0 -35 -18.5 -51.5t-60.5 -16.5z" />
    <glyph glyph-name="uni01E6" unicode="&#x1e6;" horiz-adv-x="650" 
d="M35 339q0 126 36 208t108.5 122.5t180.5 40.5q31 0 60 -2t56 -5.5t52.5 -9.5t49.5 -14l-25 -109q-46 12 -93 18t-89 6q-66 0 -110 -27.5t-65.5 -84t-21.5 -145.5q0 -84 20 -136.5t60 -77t98 -24.5q38 0 70 4t57 12v158h-137v107h261v-341q-53 -25 -120.5 -37t-146.5 -12
q-101 0 -167.5 38t-100 115.5t-33.5 195.5zM518 926l-100 -181h-153l-99 181h107l70 -122l70 122h105z" />
    <glyph glyph-name="uni01E7" unicode="&#x1e7;" horiz-adv-x="563" 
d="M255 -220q-118 0 -178.5 35.5t-60.5 104.5q0 28 9.5 50.5t29 41t48.5 31.5l75 -26q-16 -8 -28 -18t-18 -22t-6 -29q0 -24 14 -40.5t45 -24.5t80 -8t83.5 9t52.5 26.5t18 41.5q0 18 -7.5 28.5t-26.5 15.5t-53 5h-118q-54 0 -92.5 13.5t-59.5 40.5t-21 65q0 41 20.5 69
t57.5 47l73 -23q-23 -10 -35.5 -23.5t-12.5 -33.5q0 -21 16 -33t51 -12h164q83 0 126.5 -37.5t43.5 -106.5q0 -59 -34 -101t-98.5 -64t-157.5 -22zM268 189q-109 0 -165 46t-56 135t56 135t165 46t165.5 -46t56.5 -135t-56.5 -135t-165.5 -46zM268 276q48 0 71 21.5t23 72.5
t-23 73t-71 22q-46 0 -69.5 -22t-23.5 -73t23.5 -72.5t69.5 -21.5zM449 437l-53 70q14 35 42.5 52t68.5 17q14 0 26 -1.5t22 -4.5l-15 -102q-7 2 -16.5 3t-18.5 1q-18 0 -32.5 -8t-23.5 -27zM449 789l-106 -194h-146l-104 194h108l70 -126l70 126h108z" />
    <glyph glyph-name="uni01EA" unicode="&#x1ea;" horiz-adv-x="697" 
d="M348 99q31 0 57.5 7t48 24.5t37 45.5t24 71.5t8.5 102.5q0 60 -8.5 103.5t-24.5 72t-37 45.5t-48 24t-57 7q-29 0 -55 -7t-47.5 -23.5t-37 -45.5t-24 -72.5t-8.5 -103.5t8.5 -102.5t24.5 -71.5t37.5 -46t47 -24t54.5 -7zM349 -10q-57 0 -105 11.5t-87 37t-65.5 67
t-41 102t-14.5 142.5t13.5 142t40 101.5t65.5 68t87 37.5t107 11q58 0 107 -11.5t87 -36.5t65 -66.5t41 -101.5t14 -141q0 -84 -14 -145t-41.5 -102.5t-65.5 -67t-86.5 -37t-106.5 -11.5zM367 -217q-31 0 -55 10.5t-37 31t-13 51.5q0 29 12 54.5t33 47t47 36.5l72 -11
q-20 -13 -34 -28t-21 -30.5t-7 -33.5q0 -22 11.5 -30.5t27.5 -8.5q7 0 12 1l10 2l6 -82q-13 -5 -28 -7.5t-36 -2.5z" />
    <glyph glyph-name="uni01EB" unicode="&#x1eb;" horiz-adv-x="567" 
d="M31 271q0 69 12.5 121t41.5 87t77.5 53.5t120.5 18.5q73 0 121.5 -18.5t77.5 -53.5t41.5 -87t12.5 -121t-13.5 -122t-43.5 -88t-78 -53t-118 -18q-69 0 -117 18t-78 53t-43.5 88t-13.5 122zM167 271q0 -67 12 -106.5t38 -56.5t66 -17q42 0 67.5 17t37 56.5t11.5 106.5
t-10.5 106t-36 56t-69.5 17q-43 0 -68.5 -17t-36.5 -56t-11 -106zM308 -216q-31 0 -55 10.5t-37 31t-13 51.5q0 29 12 54.5t33 47t47 36.5l72 -11q-20 -13 -34 -28t-21 -30.5t-7 -33.5q0 -22 11.5 -30.5t27.5 -8.5q7 0 12 1l10 2l6 -82q-13 -5 -28 -7.5t-36 -2.5z" />
    <glyph glyph-name="uni01FA" unicode="&#x1fa;" horiz-adv-x="640" 
d="M9 0l229 705h163l231 -705h-151l-46 150h-236l-47 -150h-143zM224 263h185l-92 328zM321 746q-53 0 -80.5 24.5t-27.5 69.5q0 46 27.5 70t80.5 24q52 0 79.5 -24t27.5 -70q0 -45 -27.5 -69.5t-79.5 -24.5zM321 801q38 0 38 39q0 40 -38 40q-39 0 -39 -40q0 -39 39 -39z
M270 967l96 181h129l-125 -181h-100z" />
    <glyph glyph-name="uni01FB" unicode="&#x1fb;" horiz-adv-x="541" 
d="M24 141q0 50 19.5 81.5t58.5 50t98.5 29t139.5 16.5v50q0 36 -27 53.5t-78 17.5q-21 0 -47 -2t-54 -7t-57 -14l-23 105q45 14 95.5 22t94.5 8q79 0 130 -20.5t75.5 -61t24.5 -100.5v-216q0 -28 8 -38t20 -10q5 0 12 1t13 4l11 -97q-17 -10 -39 -16.5t-47 -6.5
q-40 0 -64 16.5t-35 50.5q-25 -18 -53 -34t-60 -24.5t-71 -8.5q-33 0 -59 10t-45.5 29.5t-30 47.5t-10.5 64zM159 150q0 -35 16.5 -52.5t44.5 -17.5q21 0 42.5 7t42 18.5t35.5 27.5v111q-43 -2 -76.5 -8t-57 -16t-35.5 -27t-12 -43zM264 587q-53 0 -80.5 24.5t-27.5 69.5
q0 46 27.5 70t80.5 24q52 0 79.5 -24t27.5 -70q0 -45 -27.5 -69.5t-79.5 -24.5zM264 642q38 0 38 39q0 40 -38 40q-39 0 -39 -40q0 -39 39 -39zM213 808l96 181h129l-125 -181h-100z" />
    <glyph glyph-name="uni01FC" unicode="&#x1fc;" horiz-adv-x="973" 
d="M6 0l380 700h545v-120h-336v-180h312v-117h-312v-163h353v-120h-489v208h-182l-115 -209zM329 320h129v276zM472 745l96 181h129l-125 -181h-100z" />
    <glyph glyph-name="uni01FD" unicode="&#x1fd;" horiz-adv-x="839" 
d="M174 -10q-70 0 -110 39t-40 112q0 48 18 80.5t56.5 52.5t98 32t142.5 17v45q0 33 -25.5 52t-78.5 19q-19 0 -45 -2t-54.5 -7t-58.5 -14l-22 105q46 15 96.5 22.5t92.5 7.5q35 0 62 -5t47.5 -15.5t36 -26t27.5 -36.5h1q19 30 44 48.5t56.5 26.5t67.5 8q76 0 125.5 -25
t74.5 -79t25 -140q0 -12 -0.5 -24t-0.5 -23q-30 -2 -79.5 -6.5t-113.5 -8.5t-141 -6q-1 -2 -1 -6t1 -8q1 -49 15 -76.5t43.5 -38t76.5 -10.5q43 0 90 7t89 17l17 -103q-32 -10 -65.5 -17t-69.5 -10.5t-78 -3.5q-50 0 -88.5 9.5t-67 29t-50.5 49.5h-2q-23 -20 -47 -36
t-50 -27.5t-54.5 -18t-60.5 -6.5zM220 80q23 0 46 8.5t43.5 22.5t35.5 29q-4 17 -5 37t-1 43v15.5v14.5q-44 -4 -77.5 -10t-56.5 -17t-34.5 -29t-11.5 -44q0 -35 17 -52.5t44 -17.5zM476 316q45 0 84 2t69 4.5t46 3.5q-2 46 -13.5 74.5t-31.5 41.5t-51 13q-26 0 -49.5 -11.5
t-38 -41.5t-15.5 -86zM371 595l101 194h132l-131 -194h-102z" />
    <glyph glyph-name="uni01FE" unicode="&#x1fe;" horiz-adv-x="697" 
d="M145 -12h-105l102 148h5l340 496h5l58 83h107l-95 -136h-5l-345 -502h-5zM348 94q30 0 57 7.5t49.5 24t38 46t24.5 73.5t9 105q0 62 -9 105.5t-24.5 73t-38 46.5t-49.5 24t-57 7t-57 -7t-49 -24t-38 -46.5t-24.5 -73t-8.5 -105.5q0 -61 8.5 -105t24.5 -73t38 -46
t49 -24.5t57 -7.5zM348 -10q-58 0 -107.5 11.5t-87.5 37t-64.5 67.5t-40 102t-13.5 142q0 81 13 141.5t39 102.5t64 67.5t88 37t109 11.5t109 -11t88 -37t64 -67t39.5 -101t13.5 -142t-14 -143.5t-40 -103t-64.5 -67.5t-87.5 -37t-108 -11zM299 745l96 181h129l-125 -181
h-100z" />
    <glyph glyph-name="uni01FF" unicode="&#x1ff;" horiz-adv-x="567" 
d="M282 -10q70 0 118 18t78 53.5t43.5 88t13.5 121.5q0 68 -12.5 120t-41.5 87.5t-77.5 54t-121.5 18.5q-72 0 -120.5 -18.5t-77.5 -54t-41.5 -87.5t-12.5 -120q0 -69 13.5 -121.5t43.5 -88t78 -53.5t117 -18zM282 86q-43 0 -69.5 16.5t-38.5 57.5t-12 111t11 110t37.5 57
t71.5 17q46 0 72 -17t37 -57t11 -110t-12 -111t-38 -57.5t-70 -16.5zM30 -7h92l51 68h1l270 369l1 -1l90 122h-95l-50 -69l-1 1l-274 -377l-1 1zM228 595l101 194h132l-131 -194h-102z" />
    <glyph glyph-name="uni0200" unicode="&#x200;" horiz-adv-x="640" 
d="M9 0l229 705h163l231 -705h-151l-46 150h-236l-47 -150h-143zM224 263h185l-92 328zM371 745l-110 182h124l83 -182h-97zM187 745l-110 182h124l83 -182h-97z" />
    <glyph glyph-name="uni0201" unicode="&#x201;" horiz-adv-x="541" 
d="M24 141q0 50 19.5 81.5t58.5 50t98.5 29t139.5 16.5v50q0 36 -27 53.5t-78 17.5q-21 0 -47 -2t-54 -7t-57 -14l-23 105q45 14 95.5 22t94.5 8q79 0 130 -20.5t75.5 -61t24.5 -100.5v-216q0 -28 8 -38t20 -10q5 0 12 1t13 4l11 -97q-17 -10 -39 -16.5t-47 -6.5
q-40 0 -64 16.5t-35 50.5q-25 -18 -53 -34t-60 -24.5t-71 -8.5q-33 0 -59 10t-45.5 29.5t-30 47.5t-10.5 64zM159 150q0 -35 16.5 -52.5t44.5 -17.5q21 0 42.5 7t42 18.5t35.5 27.5v111q-43 -2 -76.5 -8t-57 -16t-35.5 -27t-12 -43zM133 596l-115 194h124l88 -194h-97z
M318 596l-116 194h124l88 -194h-96z" />
    <glyph glyph-name="uni0202" unicode="&#x202;" horiz-adv-x="640" 
d="M9 0l229 705h163l231 -705h-151l-46 150h-236l-47 -150h-143zM224 263h185l-92 328zM319 917q55 0 92 -11t57 -40.5t21 -83.5q1 -6 1 -12.5v-13.5l-79 -1v6v6q-2 20 -10 34.5t-27.5 22t-54.5 7.5q-33 0 -52.5 -7.5t-28 -22t-9.5 -34.5v-6v-6l-80 1q0 7 0.5 13.5t0.5 13.5
q1 50 19.5 79.5t55 42t94.5 12.5z" />
    <glyph glyph-name="uni0203" unicode="&#x203;" horiz-adv-x="541" 
d="M24 141q0 50 19.5 81.5t58.5 50t98.5 29t139.5 16.5v50q0 36 -27 53.5t-78 17.5q-21 0 -47 -2t-54 -7t-57 -14l-23 105q45 14 95.5 22t94.5 8q79 0 130 -20.5t75.5 -61t24.5 -100.5v-216q0 -28 8 -38t20 -10q5 0 12 1t13 4l11 -97q-17 -10 -39 -16.5t-47 -6.5
q-40 0 -64 16.5t-35 50.5q-25 -18 -53 -34t-60 -24.5t-71 -8.5q-33 0 -59 10t-45.5 29.5t-30 47.5t-10.5 64zM159 150q0 -35 16.5 -52.5t44.5 -17.5q21 0 42.5 7t42 18.5t35.5 27.5v111q-43 -2 -76.5 -8t-57 -16t-35.5 -27t-12 -43zM263 758q55 0 92 -11t57 -40.5t21 -83.5
q1 -6 1 -12.5v-13.5l-79 -1v6v6q-2 20 -10 34.5t-27.5 22t-54.5 7.5q-33 0 -52.5 -7.5t-28 -22t-9.5 -34.5v-6v-6l-80 1q0 7 0.5 13.5t0.5 13.5q1 50 19.5 79.5t55 42t94.5 12.5z" />
    <glyph glyph-name="uni0204" unicode="&#x204;" horiz-adv-x="583" 
d="M61 0v700h480v-120h-341v-162h317v-117h-317v-181h359v-120h-498zM359 745l-110 182h124l83 -182h-97zM175 745l-110 182h124l83 -182h-97z" />
    <glyph glyph-name="uni0205" unicode="&#x205;" horiz-adv-x="544" 
d="M284 -10q-61 0 -108 15.5t-79.5 48t-49 83t-16.5 120.5q0 81 19.5 137.5t55.5 91t84 50t105 15.5q113 0 166.5 -57t53.5 -186v-23t-2 -27q-23 -2 -59 -5t-81 -6t-97 -5t-107 -4q-1 -3 -1 -7v-8q0 -46 15.5 -73.5t46.5 -41t78 -13.5q30 0 61.5 3.5t63 9t61.5 12.5l16 -98
q-32 -10 -68 -17.5t-75 -11t-83 -3.5zM170 324q35 0 67.5 1.5t61.5 3t50 3t33 2.5q-1 44 -11.5 71t-31.5 39t-54 12q-20 0 -39 -6t-35 -21t-26.5 -40t-14.5 -65zM153 596l-115 194h124l88 -194h-97zM338 596l-116 194h124l88 -194h-96z" />
    <glyph glyph-name="uni0206" unicode="&#x206;" horiz-adv-x="583" 
d="M61 0v700h480v-120h-341v-162h317v-117h-317v-181h359v-120h-498zM308 917q55 0 92 -11t57 -40.5t21 -83.5q1 -6 1 -12.5v-13.5l-79 -1v6v6q-2 20 -10 34.5t-27.5 22t-54.5 7.5q-33 0 -52.5 -7.5t-28 -22t-9.5 -34.5v-6v-6l-80 1q0 7 0.5 13.5t0.5 13.5q1 50 19.5 79.5
t55 42t94.5 12.5z" />
    <glyph glyph-name="uni0207" unicode="&#x207;" horiz-adv-x="544" 
d="M284 -10q-61 0 -108 15.5t-79.5 48t-49 83t-16.5 120.5q0 81 19.5 137.5t55.5 91t84 50t105 15.5q113 0 166.5 -57t53.5 -186v-23t-2 -27q-23 -2 -59 -5t-81 -6t-97 -5t-107 -4q-1 -3 -1 -7v-8q0 -46 15.5 -73.5t46.5 -41t78 -13.5q30 0 61.5 3.5t63 9t61.5 12.5l16 -98
q-32 -10 -68 -17.5t-75 -11t-83 -3.5zM170 324q35 0 67.5 1.5t61.5 3t50 3t33 2.5q-1 44 -11.5 71t-31.5 39t-54 12q-20 0 -39 -6t-35 -21t-26.5 -40t-14.5 -65zM283 758q55 0 92 -11t57 -40.5t21 -83.5q1 -6 1 -12.5v-13.5l-79 -1v6v6q-2 20 -10 34.5t-27.5 22t-54.5 7.5
q-33 0 -52.5 -7.5t-28 -22t-9.5 -34.5v-6v-6l-80 1q0 7 0.5 13.5t0.5 13.5q1 50 19.5 79.5t55 42t94.5 12.5z" />
    <glyph glyph-name="uni0208" unicode="&#x208;" horiz-adv-x="259" 
d="M61 0v700h137v-700h-137zM180 745l-110 182h124l83 -182h-97zM-4 745l-110 182h124l83 -182h-97z" />
    <glyph glyph-name="uni0209" unicode="&#x209;" horiz-adv-x="238" 
d="M52 0v541h134v-541h-134zM-12 596l-115 194h124l88 -194h-97zM173 596l-116 194h124l88 -194h-96z" />
    <glyph glyph-name="uni020A" unicode="&#x20a;" horiz-adv-x="259" 
d="M61 0v700h137v-700h-137zM129 917q55 0 92 -11t57 -40.5t21 -83.5q1 -6 1 -12.5v-13.5l-79 -1v6v6q-2 20 -10 34.5t-27.5 22t-54.5 7.5q-33 0 -52.5 -7.5t-28 -22t-9.5 -34.5v-6v-6l-80 1q0 7 0.5 13.5t0.5 13.5q1 50 19.5 79.5t55 42t94.5 12.5z" />
    <glyph glyph-name="uni020B" unicode="&#x20b;" horiz-adv-x="238" 
d="M52 0v541h134v-541h-134zM118 758q55 0 92 -11t57 -40.5t21 -83.5q1 -6 1 -12.5v-13.5l-79 -1v6v6q-2 20 -10 34.5t-27.5 22t-54.5 7.5q-33 0 -52.5 -7.5t-28 -22t-9.5 -34.5v-6v-6l-80 1q0 7 0.5 13.5t0.5 13.5q1 50 19.5 79.5t55 42t94.5 12.5z" />
    <glyph glyph-name="uni020C" unicode="&#x20c;" horiz-adv-x="697" 
d="M348 99q31 0 57.5 7t48 24.5t37 45.5t24 71.5t8.5 102.5q0 60 -8.5 103.5t-24.5 72t-37 45.5t-48 24t-57 7q-29 0 -55 -7t-47.5 -23.5t-37 -45.5t-24 -72.5t-8.5 -103.5t8.5 -102.5t24.5 -71.5t37.5 -46t47 -24t54.5 -7zM349 -10q-57 0 -105 11.5t-87 37t-65.5 67
t-41 102t-14.5 142.5t13.5 142t40 101.5t65.5 68t87 37.5t107 11q58 0 107 -11.5t87 -36.5t65 -66.5t41 -101.5t14 -141q0 -84 -14 -145t-41.5 -102.5t-65.5 -67t-86.5 -37t-106.5 -11.5zM399 745l-110 182h124l83 -182h-97zM215 745l-110 182h124l83 -182h-97z" />
    <glyph glyph-name="uni020D" unicode="&#x20d;" horiz-adv-x="567" 
d="M31 271q0 69 12.5 121t41.5 87t77.5 53.5t120.5 18.5q73 0 121.5 -18.5t77.5 -53.5t41.5 -87t12.5 -121t-13.5 -122t-43.5 -88t-78 -53t-118 -18q-69 0 -117 18t-78 53t-43.5 88t-13.5 122zM167 271q0 -67 12 -106.5t38 -56.5t66 -17q42 0 67.5 17t37 56.5t11.5 106.5
t-10.5 106t-36 56t-69.5 17q-43 0 -68.5 -17t-36.5 -56t-11 -106zM152 596l-115 194h124l88 -194h-97zM337 596l-116 194h124l88 -194h-96z" />
    <glyph glyph-name="uni020E" unicode="&#x20e;" horiz-adv-x="697" 
d="M348 99q31 0 57.5 7t48 24.5t37 45.5t24 71.5t8.5 102.5q0 60 -8.5 103.5t-24.5 72t-37 45.5t-48 24t-57 7q-29 0 -55 -7t-47.5 -23.5t-37 -45.5t-24 -72.5t-8.5 -103.5t8.5 -102.5t24.5 -71.5t37.5 -46t47 -24t54.5 -7zM349 -10q-57 0 -105 11.5t-87 37t-65.5 67
t-41 102t-14.5 142.5t13.5 142t40 101.5t65.5 68t87 37.5t107 11q58 0 107 -11.5t87 -36.5t65 -66.5t41 -101.5t14 -141q0 -84 -14 -145t-41.5 -102.5t-65.5 -67t-86.5 -37t-106.5 -11.5zM348 917q55 0 92 -11t57 -40.5t21 -83.5q1 -6 1 -12.5v-13.5l-79 -1v6v6
q-2 20 -10 34.5t-27.5 22t-54.5 7.5q-33 0 -52.5 -7.5t-28 -22t-9.5 -34.5v-6v-6l-80 1q0 7 0.5 13.5t0.5 13.5q1 50 19.5 79.5t55 42t94.5 12.5z" />
    <glyph glyph-name="uni020F" unicode="&#x20f;" horiz-adv-x="567" 
d="M31 271q0 69 12.5 121t41.5 87t77.5 53.5t120.5 18.5q73 0 121.5 -18.5t77.5 -53.5t41.5 -87t12.5 -121t-13.5 -122t-43.5 -88t-78 -53t-118 -18q-69 0 -117 18t-78 53t-43.5 88t-13.5 122zM167 271q0 -67 12 -106.5t38 -56.5t66 -17q42 0 67.5 17t37 56.5t11.5 106.5
t-10.5 106t-36 56t-69.5 17q-43 0 -68.5 -17t-36.5 -56t-11 -106zM282 758q55 0 92 -11t57 -40.5t21 -83.5q1 -6 1 -12.5v-13.5l-79 -1v6v6q-2 20 -10 34.5t-27.5 22t-54.5 7.5q-33 0 -52.5 -7.5t-28 -22t-9.5 -34.5v-6v-6l-80 1q0 7 0.5 13.5t0.5 13.5q1 50 19.5 79.5
t55 42t94.5 12.5z" />
    <glyph glyph-name="uni0210" unicode="&#x210;" horiz-adv-x="678" 
d="M630 -10q-29 0 -57 9.5t-57 29t-59 49.5t-62.5 72.5t-69.5 96.5q-7 -1 -21.5 -1h-21.5h-40.5t-42.5 1v-247h-138v701q54 3 98.5 5t83 3t72.5 1q81 0 138 -11.5t93 -37t52.5 -66.5t16.5 -98q0 -60 -18.5 -102.5t-52.5 -69.5t-81 -43q30 -40 56.5 -69.5t49 -49t41.5 -29.5
t37 -10q3 0 7.5 0.5t8.5 0.5v-132q-6 -1 -14 -2t-19 -1zM311 356q41 0 71.5 6.5t50.5 20.5t30 37.5t10 58.5q0 44 -14 70.5t-48 38.5t-93 12h-30t-25.5 -0.5t-27.5 -1t-36 -2.5v-237q17 -1 31 -1.5t27.5 -1t26 -0.5h27.5zM381 745l-110 182h124l83 -182h-97zM197 745
l-110 182h124l83 -182h-97z" />
    <glyph glyph-name="uni0211" unicode="&#x211;" horiz-adv-x="406" 
d="M173 541v-64q28 26 52.5 42.5t50 24t53.5 7.5q18 0 36.5 -2.5t36.5 -8.5l-21 -120q-18 4 -36.5 6.5t-34.5 2.5q-29 0 -60 -11t-65 -38v-380h-133v541h121zM88 596l-115 194h124l88 -194h-97zM273 596l-116 194h124l88 -194h-96z" />
    <glyph glyph-name="uni0212" unicode="&#x212;" horiz-adv-x="678" 
d="M630 -10q-29 0 -57 9.5t-57 29t-59 49.5t-62.5 72.5t-69.5 96.5q-7 -1 -21.5 -1h-21.5h-40.5t-42.5 1v-247h-138v701q54 3 98.5 5t83 3t72.5 1q81 0 138 -11.5t93 -37t52.5 -66.5t16.5 -98q0 -60 -18.5 -102.5t-52.5 -69.5t-81 -43q30 -40 56.5 -69.5t49 -49t41.5 -29.5
t37 -10q3 0 7.5 0.5t8.5 0.5v-132q-6 -1 -14 -2t-19 -1zM311 356q41 0 71.5 6.5t50.5 20.5t30 37.5t10 58.5q0 44 -14 70.5t-48 38.5t-93 12h-30t-25.5 -0.5t-27.5 -1t-36 -2.5v-237q17 -1 31 -1.5t27.5 -1t26 -0.5h27.5zM329 917q55 0 92 -11t57 -40.5t21 -83.5
q1 -6 1 -12.5v-13.5l-79 -1v6v6q-2 20 -10 34.5t-27.5 22t-54.5 7.5q-33 0 -52.5 -7.5t-28 -22t-9.5 -34.5v-6v-6l-80 1q0 7 0.5 13.5t0.5 13.5q1 50 19.5 79.5t55 42t94.5 12.5z" />
    <glyph glyph-name="uni0213" unicode="&#x213;" horiz-adv-x="406" 
d="M173 541v-64q28 26 52.5 42.5t50 24t53.5 7.5q18 0 36.5 -2.5t36.5 -8.5l-21 -120q-18 4 -36.5 6.5t-34.5 2.5q-29 0 -60 -11t-65 -38v-380h-133v541h121zM218 758q55 0 92 -11t57 -40.5t21 -83.5q1 -6 1 -12.5v-13.5l-79 -1v6v6q-2 20 -10 34.5t-27.5 22t-54.5 7.5
q-33 0 -52.5 -7.5t-28 -22t-9.5 -34.5v-6v-6l-80 1q0 7 0.5 13.5t0.5 13.5q1 50 19.5 79.5t55 42t94.5 12.5z" />
    <glyph glyph-name="uni0214" unicode="&#x214;" horiz-adv-x="674" 
d="M52 221v479h135v-480q0 -28 8 -48.5t22 -34t33 -21.5t41.5 -11t45.5 -3q25 0 47 3.5t40.5 11.5t32.5 21.5t21.5 33.5t7.5 48v480h136v-479q0 -52 -13 -90.5t-37.5 -65.5t-59.5 -43.5t-79.5 -24t-95.5 -7.5t-95 7.5t-79 24t-60 43.5t-38 65.5t-13 90.5zM388 745l-110 182
h124l83 -182h-97zM204 745l-110 182h124l83 -182h-97z" />
    <glyph glyph-name="uni0215" unicode="&#x215;" horiz-adv-x="574" 
d="M207 -10q-47 0 -82 17t-54 52t-19 88v394h133v-363q0 -38 19.5 -57.5t55.5 -19.5q20 0 38 4t36 11.5t38 17.5v407h133v-392q0 -17 3.5 -27t10.5 -14.5t16 -4.5q12 0 24 5l11 -95q-11 -7 -25 -12t-30.5 -8t-34.5 -3q-33 0 -56 14.5t-36 41.5q-29 -17 -58 -30t-59 -19.5
t-64 -6.5zM150 596l-115 194h124l88 -194h-97zM335 596l-116 194h124l88 -194h-96z" />
    <glyph glyph-name="uni0216" unicode="&#x216;" horiz-adv-x="674" 
d="M52 221v479h135v-480q0 -28 8 -48.5t22 -34t33 -21.5t41.5 -11t45.5 -3q25 0 47 3.5t40.5 11.5t32.5 21.5t21.5 33.5t7.5 48v480h136v-479q0 -52 -13 -90.5t-37.5 -65.5t-59.5 -43.5t-79.5 -24t-95.5 -7.5t-95 7.5t-79 24t-60 43.5t-38 65.5t-13 90.5zM336 917
q55 0 92 -11t57 -40.5t21 -83.5q1 -6 1 -12.5v-13.5l-79 -1v6v6q-2 20 -10 34.5t-27.5 22t-54.5 7.5q-33 0 -52.5 -7.5t-28 -22t-9.5 -34.5v-6v-6l-80 1q0 7 0.5 13.5t0.5 13.5q1 50 19.5 79.5t55 42t94.5 12.5z" />
    <glyph glyph-name="uni0217" unicode="&#x217;" horiz-adv-x="574" 
d="M207 -10q-47 0 -82 17t-54 52t-19 88v394h133v-363q0 -38 19.5 -57.5t55.5 -19.5q20 0 38 4t36 11.5t38 17.5v407h133v-392q0 -17 3.5 -27t10.5 -14.5t16 -4.5q12 0 24 5l11 -95q-11 -7 -25 -12t-30.5 -8t-34.5 -3q-33 0 -56 14.5t-36 41.5q-29 -17 -58 -30t-59 -19.5
t-64 -6.5zM280 758q55 0 92 -11t57 -40.5t21 -83.5q1 -6 1 -12.5v-13.5l-79 -1v6v6q-2 20 -10 34.5t-27.5 22t-54.5 7.5q-33 0 -52.5 -7.5t-28 -22t-9.5 -34.5v-6v-6l-80 1q0 7 0.5 13.5t0.5 13.5q1 50 19.5 79.5t55 42t94.5 12.5z" />
    <glyph glyph-name="uni0218" unicode="&#x218;" horiz-adv-x="600" 
d="M545 677l-26 -107q-20 7 -45 12.5t-51.5 9.5t-53.5 6t-51 2q-66 0 -103.5 -20.5t-37.5 -61.5q0 -20 10.5 -35.5t32.5 -29.5t58.5 -27t87.5 -27q54 -15 94 -34.5t66.5 -43.5t39 -55.5t12.5 -72.5q0 -65 -34.5 -110t-101 -69t-162.5 -24q-31 0 -66 3t-70.5 8.5t-68.5 13.5
t-59 18l27 106q27 -9 58 -16.5t63 -13t64 -8.5t60 -3q49 0 82 9.5t49.5 28.5t16.5 46q0 21 -13 37t-39 28.5t-66.5 26.5t-94.5 31q-48 17 -83.5 36t-58.5 43.5t-34.5 55.5t-11.5 70q0 44 17 80.5t51.5 63.5t88 41.5t125.5 14.5q43 0 85.5 -4.5t80 -12t62.5 -16.5zM207 -213
q17 30 25.5 61t8.5 59q0 11 -1.5 20.5t-4.5 16.5h125q2 -6 3 -13t1 -15q0 -24 -7 -47.5t-18.5 -44t-27.5 -37.5h-104z" />
    <glyph glyph-name="uni0219" unicode="&#x219;" horiz-adv-x="469" 
d="M21 21l16 98q18 -6 40 -11.5t46.5 -9.5t48.5 -6t45 -2q48 0 70.5 14.5t22.5 43.5q0 16 -9 27.5t-26.5 20t-43 16t-58.5 15.5q-35 8 -61 21.5t-44.5 32.5t-27 44t-8.5 57q0 83 54 126t160 43q33 0 62 -3.5t55.5 -9t48.5 -13.5l-17 -100q-22 7 -44 12t-47.5 8t-57.5 3
q-43 0 -65 -13.5t-22 -40.5q0 -16 8 -26.5t23 -17.5t37 -13t49 -12q37 -9 67 -21.5t51.5 -30.5t34 -45.5t12.5 -66.5q0 -37 -11.5 -65.5t-32.5 -48.5t-49 -32.5t-62 -18.5t-71 -6q-36 0 -69 3.5t-64.5 10.5t-60.5 17zM145 -213q17 30 25.5 61t8.5 59q0 11 -1.5 20.5
t-4.5 16.5h125q2 -6 3 -13t1 -15q0 -24 -7 -47.5t-18.5 -44t-27.5 -37.5h-104z" />
    <glyph glyph-name="uni021A" unicode="&#x21a;" horiz-adv-x="583" 
d="M569 579h-209v-579h-137v579h-210v121h556v-121zM202 -213q17 30 25.5 61t8.5 59q0 11 -1.5 20.5t-4.5 16.5h125q2 -6 3 -13t1 -15q0 -24 -7 -47.5t-18.5 -44t-27.5 -37.5h-104z" />
    <glyph glyph-name="uni021B" unicode="&#x21b;" horiz-adv-x="403" 
d="M248 -10q-52 0 -87.5 20t-53 61t-17.5 105v268h-83v88l83 9l16 120h117v-120h153v-98h-153v-256q0 -46 17 -65t53 -19q20 0 41 3.5t44 9.5l18 -101q-40 -14 -77.5 -19.5t-70.5 -5.5zM142 -213q17 30 25.5 61t8.5 59q0 11 -1.5 20.5t-4.5 16.5h125q2 -6 3 -13t1 -15
q0 -24 -7 -47.5t-18.5 -44t-27.5 -37.5h-104z" />
    <glyph glyph-name="uni022A" unicode="&#x22a;" horiz-adv-x="697" 
d="M348 99q31 0 57.5 7t48 24.5t37 45.5t24 71.5t8.5 102.5q0 60 -8.5 103.5t-24.5 72t-37 45.5t-48 24t-57 7q-29 0 -55 -7t-47.5 -23.5t-37 -45.5t-24 -72.5t-8.5 -103.5t8.5 -102.5t24.5 -71.5t37.5 -46t47 -24t54.5 -7zM349 -10q-57 0 -105 11.5t-87 37t-65.5 67
t-41 102t-14.5 142.5t13.5 142t40 101.5t65.5 68t87 37.5t107 11q58 0 107 -11.5t87 -36.5t65 -66.5t41 -101.5t14 -141q0 -84 -14 -145t-41.5 -102.5t-65.5 -67t-86.5 -37t-106.5 -11.5zM446 764q-30 0 -44 14.5t-14 48.5q0 33 14 48.5t44 15.5t44.5 -15.5t14.5 -48.5
q0 -34 -14.5 -48.5t-44.5 -14.5zM252 764q-29 0 -43.5 14.5t-14.5 48.5q0 33 14.5 48.5t43.5 15.5q30 0 44.5 -15.5t14.5 -48.5q0 -34 -14.5 -48.5t-44.5 -14.5zM204 945v95h289v-95h-289z" />
    <glyph glyph-name="uni022B" unicode="&#x22b;" horiz-adv-x="567" 
d="M31 271q0 69 12.5 121t41.5 87t77.5 53.5t120.5 18.5q73 0 121.5 -18.5t77.5 -53.5t41.5 -87t12.5 -121t-13.5 -122t-43.5 -88t-78 -53t-118 -18q-69 0 -117 18t-78 53t-43.5 88t-13.5 122zM167 271q0 -67 12 -106.5t38 -56.5t66 -17q42 0 67.5 17t37 56.5t11.5 106.5
t-10.5 106t-36 56t-69.5 17q-43 0 -68.5 -17t-36.5 -56t-11 -106zM380 624q-30 0 -44 14.5t-14 48.5q0 33 14 48.5t44 15.5t44.5 -15.5t14.5 -48.5q0 -34 -14.5 -48.5t-44.5 -14.5zM186 624q-29 0 -43.5 14.5t-14.5 48.5q0 33 14.5 48.5t43.5 15.5q30 0 44.5 -15.5
t14.5 -48.5q0 -34 -14.5 -48.5t-44.5 -14.5zM139 805v94h288v-94h-288z" />
    <glyph glyph-name="uni022C" unicode="&#x22c;" horiz-adv-x="697" 
d="M348 99q31 0 57.5 7t48 24.5t37 45.5t24 71.5t8.5 102.5q0 60 -8.5 103.5t-24.5 72t-37 45.5t-48 24t-57 7q-29 0 -55 -7t-47.5 -23.5t-37 -45.5t-24 -72.5t-8.5 -103.5t8.5 -102.5t24.5 -71.5t37.5 -46t47 -24t54.5 -7zM349 -10q-57 0 -105 11.5t-87 37t-65.5 67
t-41 102t-14.5 142.5t13.5 142t40 101.5t65.5 68t87 37.5t107 11q58 0 107 -11.5t87 -36.5t65 -66.5t41 -101.5t14 -141q0 -84 -14 -145t-41.5 -102.5t-65.5 -67t-86.5 -37t-106.5 -11.5zM176 761q-2 12 -2.5 23.5t-0.5 21.5q0 44 24.5 76.5t72.5 32.5q26 0 47 -9.5
t39 -21.5t33 -21t30 -9q9 0 16 5t10.5 15.5t3.5 25.5q0 5 -0.5 10.5t-2.5 9.5h74q2 -12 2.5 -23t0.5 -22q0 -45 -24.5 -78t-73.5 -33q-25 0 -46.5 9.5t-39 21.5t-32.5 21.5t-30 9.5q-14 0 -22 -11.5t-8 -33.5q0 -5 1 -10l2 -10h-74zM204 974v95h289v-95h-289z" />
    <glyph glyph-name="uni022D" unicode="&#x22d;" horiz-adv-x="567" 
d="M31 271q0 69 12.5 121t41.5 87t77.5 53.5t120.5 18.5q73 0 121.5 -18.5t77.5 -53.5t41.5 -87t12.5 -121t-13.5 -122t-43.5 -88t-78 -53t-118 -18q-69 0 -117 18t-78 53t-43.5 88t-13.5 122zM167 271q0 -67 12 -106.5t38 -56.5t66 -17q42 0 67.5 17t37 56.5t11.5 106.5
t-10.5 106t-36 56t-69.5 17q-43 0 -68.5 -17t-36.5 -56t-11 -106zM111 600q-2 12 -3 23.5t-1 21.5q0 55 24 82t72 27q23 0 43.5 -8.5t39 -20.5t35 -20.5t33.5 -8.5q10 0 17 6t10.5 15.5t3.5 19.5q0 5 -0.5 11t-1.5 10h72q2 -11 2.5 -22.5t0.5 -22.5q0 -54 -23.5 -81.5
t-72.5 -27.5q-21 0 -42 8.5t-40 20t-36.5 20t-31.5 8.5q-15 0 -23 -10.5t-8 -28.5q0 -5 0.5 -11t1.5 -11h-72zM139 816v94h288v-94h-288z" />
    <glyph glyph-name="uni0230" unicode="&#x230;" horiz-adv-x="697" 
d="M348 99q31 0 57.5 7t48 24.5t37 45.5t24 71.5t8.5 102.5q0 60 -8.5 103.5t-24.5 72t-37 45.5t-48 24t-57 7q-29 0 -55 -7t-47.5 -23.5t-37 -45.5t-24 -72.5t-8.5 -103.5t8.5 -102.5t24.5 -71.5t37.5 -46t47 -24t54.5 -7zM349 -10q-57 0 -105 11.5t-87 37t-65.5 67
t-41 102t-14.5 142.5t13.5 142t40 101.5t65.5 68t87 37.5t107 11q58 0 107 -11.5t87 -36.5t65 -66.5t41 -101.5t14 -141q0 -84 -14 -145t-41.5 -102.5t-65.5 -67t-86.5 -37t-106.5 -11.5zM349 773q-28 0 -42 14t-14 46q0 33 14 46.5t42 13.5q29 0 42.5 -13.5t13.5 -46.5
q0 -32 -13.5 -46t-42.5 -14zM204 945v95h289v-95h-289z" />
    <glyph glyph-name="uni0231" unicode="&#x231;" horiz-adv-x="567" 
d="M31 271q0 69 12.5 121t41.5 87t77.5 53.5t120.5 18.5q73 0 121.5 -18.5t77.5 -53.5t41.5 -87t12.5 -121t-13.5 -122t-43.5 -88t-78 -53t-118 -18q-69 0 -117 18t-78 53t-43.5 88t-13.5 122zM167 271q0 -67 12 -106.5t38 -56.5t66 -17q42 0 67.5 17t37 56.5t11.5 106.5
t-10.5 106t-36 56t-69.5 17q-43 0 -68.5 -17t-36.5 -56t-11 -106zM283 628q-28 0 -42 14t-14 46q0 33 14 46.5t42 13.5q29 0 42.5 -13.5t13.5 -46.5q0 -32 -13.5 -46t-42.5 -14zM139 805v94h288v-94h-288z" />
    <glyph glyph-name="uni0232" unicode="&#x232;" horiz-adv-x="625" 
d="M245 0v260l-242 438l152 4l159 -354l156 354l151 -4l-239 -438v-260h-137zM168 782v95h289v-95h-289z" />
    <glyph glyph-name="uni0233" unicode="&#x233;" horiz-adv-x="535" 
d="M165 -209l67 209h-23l-201 540l146 3l133 -433l124 433l137 -3l-246 -752zM123 640v94h288v-94h-288z" />
    <glyph glyph-name="uni0237" unicode="&#x237;" horiz-adv-x="244" 
d="M192 25q0 -104 -36.5 -162t-118.5 -70q-10 -1 -22 -1.5t-24.5 -0.5t-23.5 2l7 111q7 0 13 1t12 3q31 10 45.5 39.5t14.5 84.5v509h133v-516z" />
    <glyph glyph-name="uni0259" unicode="&#x259;" horiz-adv-x="544" 
d="M31 279q21 2 56 4.5t80 6t97.5 6t110.5 3.5v7.5v7.5q0 49 -16 77t-46.5 40t-72.5 12q-26 0 -58 -3.5t-65.5 -8.5t-65.5 -13l-17 102q32 9 67.5 16t76 11t85.5 4q81 0 136.5 -28.5t84.5 -87t29 -150.5q0 -79 -18.5 -135t-53.5 -91.5t-81.5 -52t-102.5 -16.5
q-79 0 -129 26.5t-74 80.5t-24 136v23t1 23zM375 223q-35 0 -68 -1t-61 -2.5t-49 -3t-32 -2.5q2 -71 26.5 -100t70.5 -29q19 0 37.5 5.5t34 20.5t26.5 42t15 70z" />
    <glyph glyph-name="uni02B9" unicode="&#x2b9;" horiz-adv-x="207" 
d="M24 428l39 272h119l-54 -272h-104z" />
    <glyph glyph-name="uni02BA" unicode="&#x2ba;" horiz-adv-x="385" 
d="M24 428l39 272h119l-54 -272h-104zM202 428l39 272h119l-54 -272h-104z" />
    <glyph glyph-name="uni02BC" unicode="&#x2bc;" horiz-adv-x="206" 
d="M120 430l-99 12q21 52 30.5 99.5t9.5 101.5q0 15 -0.5 29t-1.5 28h119q1 -9 1 -18v-17q0 -75 -14.5 -130t-44.5 -105z" />
    <glyph glyph-name="uni02C6" unicode="&#x2c6;" horiz-adv-x="434" 
d="M39 596l106 194h146l104 -194h-108l-70 126l-70 -126h-108z" />
    <glyph glyph-name="uni02C7" unicode="&#x2c7;" horiz-adv-x="434" 
d="M395 789l-106 -194h-146l-104 194h108l70 -126l70 126h108z" />
    <glyph glyph-name="uni02D8" unicode="&#x2d8;" horiz-adv-x="434" 
d="M218 603q-55 0 -92 11t-57 40.5t-21 83.5q-1 6 -1 12.5v13.5l79 1v-6v-6q2 -20 10 -34.5t27.5 -22t54.5 -7.5q33 0 52.5 7.5t28 22t9.5 34.5v6v6l80 -1q0 -7 -0.5 -13.5t-0.5 -13.5q-1 -50 -19.5 -79.5t-55 -42t-94.5 -12.5z" />
    <glyph glyph-name="uni02D9" unicode="&#x2d9;" horiz-adv-x="434" 
d="M217 628q-28 0 -42 14t-14 46q0 33 14 46.5t42 13.5q29 0 42.5 -13.5t13.5 -46.5q0 -32 -13.5 -46t-42.5 -14z" />
    <glyph glyph-name="uni02DA" unicode="&#x2da;" horiz-adv-x="434" 
d="M217 600q-52 0 -80 24.5t-28 69.5q0 46 28 70t80 24q53 0 80.5 -24t27.5 -70q0 -45 -27.5 -69.5t-80.5 -24.5zM217 655q38 0 38 39t-38 39t-38 -39t38 -39z" />
    <glyph glyph-name="uni02DB" unicode="&#x2db;" horiz-adv-x="434" 
d="M-199 -220q-31 0 -55 10.5t-37 31t-13 51.5q0 29 12 54.5t33 47t47 36.5l72 -11q-20 -13 -34 -28t-21 -30.5t-7 -33.5q0 -22 11.5 -30.5t27.5 -8.5q7 0 12 1l10 2l6 -82q-13 -5 -28 -7.5t-36 -2.5z" />
    <glyph glyph-name="uni02DC" unicode="&#x2dc;" horiz-adv-x="434" 
d="M46 600q-2 12 -3 23.5t-1 21.5q0 55 24 82t72 27q23 0 43.5 -8.5t39 -20.5t35 -20.5t33.5 -8.5q10 0 17 6t10.5 15.5t3.5 19.5q0 5 -0.5 11t-1.5 10h72q2 -11 2.5 -22.5t0.5 -22.5q0 -54 -23.5 -81.5t-72.5 -27.5q-21 0 -42 8.5t-40 20t-36.5 20t-31.5 8.5
q-15 0 -23 -10.5t-8 -28.5q0 -5 0.5 -11t1.5 -11h-72z" />
    <glyph glyph-name="uni02DD" unicode="&#x2dd;" horiz-adv-x="434" 
d="M204 596l88 194h124l-116 -194h-96zM19 596l89 194h123l-115 -194h-97z" />
    <glyph glyph-name="uni0300" unicode="&#x300;" 
d="M-335 596l-131 194h137l101 -194h-107z" />
    <glyph glyph-name="uni0301" unicode="&#x301;" 
d="M-340 595l101 194h132l-131 -194h-102z" />
    <glyph glyph-name="uni0302" unicode="&#x302;" 
d="M-463 596l106 194h146l104 -194h-108l-70 126l-70 -126h-108z" />
    <glyph glyph-name="uni0303" unicode="&#x303;" 
d="M-457 600q-2 12 -3 23.5t-1 21.5q0 55 24 82t72 27q23 0 43.5 -8.5t39 -20.5t35 -20.5t33.5 -8.5q10 0 17 6t10.5 15.5t3.5 19.5q0 5 -0.5 11t-1.5 10h72q2 -11 2.5 -22.5t0.5 -22.5q0 -54 -23.5 -81.5t-72.5 -27.5q-21 0 -42 8.5t-40 20t-36.5 20t-31.5 8.5
q-15 0 -23 -10.5t-8 -28.5q0 -5 0.5 -11t1.5 -11h-72z" />
    <glyph glyph-name="uni0304" unicode="&#x304;" 
d="M-429 640v94h288v-94h-288z" />
    <glyph glyph-name="uni0306" unicode="&#x306;" 
d="M-284 603q-55 0 -92 11t-57 40.5t-21 83.5q-1 6 -1 12.5v13.5l79 1v-6v-6q2 -20 10 -34.5t27.5 -22t54.5 -7.5q33 0 52.5 7.5t28 22t9.5 34.5v6v6l80 -1q0 -7 -0.5 -13.5t-0.5 -13.5q-1 -50 -19.5 -79.5t-55 -42t-94.5 -12.5z" />
    <glyph glyph-name="uni0307" unicode="&#x307;" 
d="M-285 628q-28 0 -42 14t-14 46q0 33 14 46.5t42 13.5q29 0 42.5 -13.5t13.5 -46.5q0 -32 -13.5 -46t-42.5 -14z" />
    <glyph glyph-name="uni0308" unicode="&#x308;" 
d="M-188 624q-30 0 -44 14.5t-14 48.5q0 33 14 48.5t44 15.5t44.5 -15.5t14.5 -48.5q0 -34 -14.5 -48.5t-44.5 -14.5zM-382 624q-29 0 -43.5 14.5t-14.5 48.5q0 33 14.5 48.5t43.5 15.5q30 0 44.5 -15.5t14.5 -48.5q0 -34 -14.5 -48.5t-44.5 -14.5z" />
    <glyph glyph-name="uni0309" unicode="&#x309;" 
d="M-315 596l-9 60q30 4 40.5 14t10.5 23q0 17 -11 24t-28 7q-16 0 -29 -3t-27 -7l-15 73q10 4 25.5 8t32 6.5t31.5 2.5q50 0 80 -24t30 -68q0 -41 -27.5 -72.5t-103.5 -43.5z" />
    <glyph glyph-name="uni030A" unicode="&#x30a;" 
d="M-285 600q-52 0 -80 24.5t-28 69.5q0 46 28 70t80 24q53 0 80.5 -24t27.5 -70q0 -45 -27.5 -69.5t-80.5 -24.5zM-285 655q38 0 38 39t-38 39t-38 -39t38 -39z" />
    <glyph glyph-name="uni030B" unicode="&#x30b;" 
d="M-241 596l88 194h124l-116 -194h-96zM-426 596l89 194h123l-115 -194h-97z" />
    <glyph glyph-name="uni030C" unicode="&#x30c;" 
d="M-107 789l-106 -194h-146l-104 194h108l70 -126l70 126h108z" />
    <glyph glyph-name="uni030F" unicode="&#x30f;" 
d="M-416 596l-115 194h124l88 -194h-97zM-231 596l-116 194h124l88 -194h-96z" />
    <glyph glyph-name="uni0311" unicode="&#x311;" 
d="M-286 758q55 0 92 -11t57 -40.5t21 -83.5q1 -6 1 -12.5v-13.5l-79 -1v6v6q-2 20 -10 34.5t-27.5 22t-54.5 7.5q-33 0 -52.5 -7.5t-28 -22t-9.5 -34.5v-6v-6l-80 1q0 7 0.5 13.5t0.5 13.5q1 50 19.5 79.5t55 42t94.5 12.5z" />
    <glyph glyph-name="uni0312" unicode="&#x312;" 
d="M-223 594h-127q-5 9 -8.5 22.5t-3.5 30.5q0 38 14 68.5t40 57.5h107q-22 -31 -30 -59t-8 -56q0 -19 4 -36t12 -28z" />
    <glyph glyph-name="uni031B" unicode="&#x31b;" 
d="M-226 457v84h9q31 0 49 13.5t21.5 41.5t-8.5 69l111 4q13 -49 9.5 -88.5t-24 -67t-57.5 -42t-89 -14.5h-21z" />
    <glyph glyph-name="uni0323" unicode="&#x323;" 
d="M-285 -193q-28 0 -42 14t-14 46q0 33 14 46.5t42 13.5q29 0 42.5 -13.5t13.5 -46.5q0 -32 -13.5 -46t-42.5 -14z" />
    <glyph glyph-name="uni0324" unicode="&#x324;" 
d="M-188 -202q-30 0 -44 14.5t-14 48.5q0 33 14 48.5t44 15.5t44.5 -15.5t14.5 -48.5q0 -34 -14.5 -48.5t-44.5 -14.5zM-382 -202q-29 0 -43.5 14.5t-14.5 48.5q0 33 14.5 48.5t43.5 15.5q30 0 44.5 -15.5t14.5 -48.5q0 -34 -14.5 -48.5t-44.5 -14.5z" />
    <glyph glyph-name="uni0326" unicode="&#x326;" 
d="M-374 -213q17 30 25.5 61t8.5 59q0 11 -1.5 20.5t-4.5 16.5h125q2 -6 3 -13t1 -15q0 -24 -7 -47.5t-18.5 -44t-27.5 -37.5h-104z" />
    <glyph glyph-name="uni0327" unicode="&#x327;" 
d="M-394 -124q15 -5 28.5 -8t24.5 -3q25 0 39 13t14 37q0 14 -6 28.5t-16.5 30.5t-24.5 30h97q14 -14 24.5 -34t17 -40.5t6.5 -40.5q0 -30 -12 -54.5t-38 -39.5t-71 -15q-19 0 -41 3.5t-47 12.5z" />
    <glyph glyph-name="uni0328" unicode="&#x328;" 
d="M-273 -220q-31 0 -55 10.5t-37 31t-13 51.5q0 29 12 54.5t33 47t47 36.5l72 -11q-20 -13 -34 -28t-21 -30.5t-7 -33.5q0 -22 11.5 -30.5t27.5 -8.5q7 0 12 1l10 2l6 -82q-13 -5 -28 -7.5t-36 -2.5z" />
    <glyph glyph-name="uni032E" unicode="&#x32e;" 
d="M-284 -220q-55 0 -92 11t-57 40.5t-21 83.5q-1 6 -1 12.5v13.5l79 1v-6v-6q2 -20 10 -34.5t27.5 -22t54.5 -7.5q33 0 52.5 7.5t28 22t9.5 34.5v6v6l80 -1q0 -7 -0.5 -13.5t-0.5 -13.5q-1 -50 -19.5 -79.5t-55 -42t-94.5 -12.5z" />
    <glyph glyph-name="uni0331" unicode="&#x331;" 
d="M-429 -187v94h288v-94h-288z" />
    <glyph glyph-name="uni0335" unicode="&#x335;" 
d="M-302 299v102h348v-102h-348z" />
    <glyph glyph-name="uni03C0" unicode="&#x3c0;" horiz-adv-x="582" 
d="M470 -10q-56 0 -81 31.5t-25 95.5v302h-112q-4 -38 -10 -81t-12.5 -88t-13.5 -89.5t-14 -85t-12 -75.5h-129q6 33 13.5 73.5t15 85t15 90t14 88.5t10.5 79q-19 -2 -44.5 -7.5t-46.5 -18.5l-1 112q22 15 46 23.5t53 12t62 3.5h352v-122h-60v-259q0 -15 2.5 -27t9.5 -18.5
t17 -6.5q5 0 12 1t13 3l12 -99q-18 -11 -39.5 -17t-46.5 -6z" />
    <glyph glyph-name="uni1E80" unicode="&#x1e80;" horiz-adv-x="816" 
d="M662 0h-143l-113 483l-118 -483h-136l-149 699l147 2l79 -563l119 528h123l115 -527l79 562l147 -2zM357 745l-125 182h136l96 -182h-107z" />
    <glyph glyph-name="uni1E81" unicode="&#x1e81;" horiz-adv-x="772" 
d="M140 0l-130 539l132 3l81 -418l93 417h141l93 -417l82 418l131 -3l-135 -539h-151l-93 388l-89 -388h-155zM336 596l-131 194h137l101 -194h-107z" />
    <glyph glyph-name="uni1E82" unicode="&#x1e82;" horiz-adv-x="816" 
d="M662 0h-143l-113 483l-118 -483h-136l-149 699l147 2l79 -563l119 528h123l115 -527l79 562l147 -2zM358 745l96 181h129l-125 -181h-100z" />
    <glyph glyph-name="uni1E83" unicode="&#x1e83;" horiz-adv-x="772" 
d="M140 0l-130 539l132 3l81 -418l93 417h141l93 -417l82 418l131 -3l-135 -539h-151l-93 388l-89 -388h-155zM331 595l101 194h132l-131 -194h-102z" />
    <glyph glyph-name="uni1E84" unicode="&#x1e84;" horiz-adv-x="816" 
d="M662 0h-143l-113 483l-118 -483h-136l-149 699l147 2l79 -563l119 528h123l115 -527l79 562l147 -2zM505 764q-30 0 -44 14.5t-14 48.5q0 33 14 48.5t44 15.5t44.5 -15.5t14.5 -48.5q0 -34 -14.5 -48.5t-44.5 -14.5zM311 764q-29 0 -43.5 14.5t-14.5 48.5q0 33 14.5 48.5
t43.5 15.5q30 0 44.5 -15.5t14.5 -48.5q0 -34 -14.5 -48.5t-44.5 -14.5z" />
    <glyph glyph-name="uni1E85" unicode="&#x1e85;" horiz-adv-x="772" 
d="M140 0l-130 539l132 3l81 -418l93 417h141l93 -417l82 418l131 -3l-135 -539h-151l-93 388l-89 -388h-155zM483 624q-30 0 -44 14.5t-14 48.5q0 33 14 48.5t44 15.5t44.5 -15.5t14.5 -48.5q0 -34 -14.5 -48.5t-44.5 -14.5zM289 624q-29 0 -43.5 14.5t-14.5 48.5
q0 33 14.5 48.5t43.5 15.5q30 0 44.5 -15.5t14.5 -48.5q0 -34 -14.5 -48.5t-44.5 -14.5z" />
    <glyph glyph-name="uni1E9E" unicode="&#x1e9e;" horiz-adv-x="1188" 
d="M545 677l-26 -107q-20 7 -45 12.5t-51.5 9.5t-53.5 6t-51 2q-66 0 -103.5 -20.5t-37.5 -61.5q0 -20 10.5 -35.5t32.5 -29.5t58.5 -27t87.5 -27q54 -15 94 -34.5t66.5 -43.5t39 -55.5t12.5 -72.5q0 -65 -34.5 -110t-101 -69t-162.5 -24q-31 0 -66 3t-70.5 8.5t-68.5 13.5
t-59 18l27 106q27 -9 58 -16.5t63 -13t64 -8.5t60 -3q49 0 82 9.5t49.5 28.5t16.5 46q0 21 -13 37t-39 28.5t-66.5 26.5t-94.5 31q-48 17 -83.5 36t-58.5 43.5t-34.5 55.5t-11.5 70q0 44 17 80.5t51.5 63.5t88 41.5t125.5 14.5q43 0 85.5 -4.5t80 -12t62.5 -16.5zM1133 677
l-26 -107q-20 7 -45 12.5t-51.5 9.5t-53.5 6t-51 2q-66 0 -103.5 -20.5t-37.5 -61.5q0 -20 10.5 -35.5t32.5 -29.5t58.5 -27t87.5 -27q54 -15 94 -34.5t66.5 -43.5t39 -55.5t12.5 -72.5q0 -65 -34.5 -110t-101 -69t-162.5 -24q-31 0 -66 3t-70.5 8.5t-68.5 13.5t-59 18
l27 106q27 -9 58 -16.5t63 -13t64 -8.5t60 -3q49 0 82 9.5t49.5 28.5t16.5 46q0 21 -13 37t-39 28.5t-66.5 26.5t-94.5 31q-48 17 -83.5 36t-58.5 43.5t-34.5 55.5t-11.5 70q0 44 17 80.5t51.5 63.5t88 41.5t125.5 14.5q43 0 85.5 -4.5t80 -12t62.5 -16.5z" />
    <glyph glyph-name="uni1EA0" unicode="&#x1ea0;" horiz-adv-x="640" 
d="M9 0l229 705h163l231 -705h-151l-46 150h-236l-47 -150h-143zM224 263h185l-92 328zM317 -169q-28 0 -42 14t-14 46q0 33 14 46.5t42 13.5q29 0 42.5 -13.5t13.5 -46.5q0 -32 -13.5 -46t-42.5 -14z" />
    <glyph glyph-name="uni1EA1" unicode="&#x1ea1;" horiz-adv-x="541" 
d="M24 141q0 50 19.5 81.5t58.5 50t98.5 29t139.5 16.5v50q0 36 -27 53.5t-78 17.5q-21 0 -47 -2t-54 -7t-57 -14l-23 105q45 14 95.5 22t94.5 8q79 0 130 -20.5t75.5 -61t24.5 -100.5v-216q0 -28 8 -38t20 -10q5 0 12 1t13 4l11 -97q-17 -10 -39 -16.5t-47 -6.5
q-40 0 -64 16.5t-35 50.5q-25 -18 -53 -34t-60 -24.5t-71 -8.5q-33 0 -59 10t-45.5 29.5t-30 47.5t-10.5 64zM159 150q0 -35 16.5 -52.5t44.5 -17.5q21 0 42.5 7t42 18.5t35.5 27.5v111q-43 -2 -76.5 -8t-57 -16t-35.5 -27t-12 -43zM266 -193q-28 0 -42 14t-14 46
q0 33 14 46.5t42 13.5q29 0 42.5 -13.5t13.5 -46.5q0 -32 -13.5 -46t-42.5 -14z" />
    <glyph glyph-name="uni1EA2" unicode="&#x1ea2;" horiz-adv-x="640" 
d="M9 0l229 705h163l231 -705h-151l-46 150h-236l-47 -150h-143zM224 263h185l-92 328zM290 746l-9 60q30 4 40.5 14t10.5 23q0 17 -11 24t-28 7q-16 0 -29 -3t-27 -7l-15 73q10 4 25.5 8t32 6.5t31.5 2.5q50 0 80 -24t30 -68q0 -41 -27.5 -72.5t-103.5 -43.5z" />
    <glyph glyph-name="uni1EA3" unicode="&#x1ea3;" horiz-adv-x="541" 
d="M24 141q0 50 19.5 81.5t58.5 50t98.5 29t139.5 16.5v50q0 36 -27 53.5t-78 17.5q-21 0 -47 -2t-54 -7t-57 -14l-23 105q45 14 95.5 22t94.5 8q79 0 130 -20.5t75.5 -61t24.5 -100.5v-216q0 -28 8 -38t20 -10q5 0 12 1t13 4l11 -97q-17 -10 -39 -16.5t-47 -6.5
q-40 0 -64 16.5t-35 50.5q-25 -18 -53 -34t-60 -24.5t-71 -8.5q-33 0 -59 10t-45.5 29.5t-30 47.5t-10.5 64zM159 150q0 -35 16.5 -52.5t44.5 -17.5q21 0 42.5 7t42 18.5t35.5 27.5v111q-43 -2 -76.5 -8t-57 -16t-35.5 -27t-12 -43zM234 596l-9 60q30 4 40.5 14t10.5 23
q0 17 -11 24t-28 7q-16 0 -29 -3t-27 -7l-15 73q10 4 25.5 8t32 6.5t31.5 2.5q50 0 80 -24t30 -68q0 -41 -27.5 -72.5t-103.5 -43.5z" />
    <glyph glyph-name="uni1EA4" unicode="&#x1ea4;" horiz-adv-x="640" 
d="M9 0l229 705h163l231 -705h-151l-46 150h-236l-47 -150h-143zM224 263h185l-92 328zM145 745l100 181h153l99 -181h-107l-70 122l-70 -122h-105zM448 887l96 181h129l-125 -181h-100z" />
    <glyph glyph-name="uni1EA5" unicode="&#x1ea5;" horiz-adv-x="541" 
d="M24 141q0 50 19.5 81.5t58.5 50t98.5 29t139.5 16.5v50q0 36 -27 53.5t-78 17.5q-21 0 -47 -2t-54 -7t-57 -14l-23 105q45 14 95.5 22t94.5 8q79 0 130 -20.5t75.5 -61t24.5 -100.5v-216q0 -28 8 -38t20 -10q5 0 12 1t13 4l11 -97q-17 -10 -39 -16.5t-47 -6.5
q-40 0 -64 16.5t-35 50.5q-25 -18 -53 -34t-60 -24.5t-71 -8.5q-33 0 -59 10t-45.5 29.5t-30 47.5t-10.5 64zM159 150q0 -35 16.5 -52.5t44.5 -17.5q21 0 42.5 7t42 18.5t35.5 27.5v111q-43 -2 -76.5 -8t-57 -16t-35.5 -27t-12 -43zM86 596l106 194h146l104 -194h-108
l-70 126l-70 -126h-108zM395 744l96 181h129l-125 -181h-100z" />
    <glyph glyph-name="uni1EA6" unicode="&#x1ea6;" horiz-adv-x="640" 
d="M9 0l229 705h163l231 -705h-151l-46 150h-236l-47 -150h-143zM224 263h185l-92 328zM145 745l100 181h153l99 -181h-107l-70 122l-70 -122h-105zM480 888l-125 182h136l96 -182h-107z" />
    <glyph glyph-name="uni1EA7" unicode="&#x1ea7;" horiz-adv-x="541" 
d="M24 141q0 50 19.5 81.5t58.5 50t98.5 29t139.5 16.5v50q0 36 -27 53.5t-78 17.5q-21 0 -47 -2t-54 -7t-57 -14l-23 105q45 14 95.5 22t94.5 8q79 0 130 -20.5t75.5 -61t24.5 -100.5v-216q0 -28 8 -38t20 -10q5 0 12 1t13 4l11 -97q-17 -10 -39 -16.5t-47 -6.5
q-40 0 -64 16.5t-35 50.5q-25 -18 -53 -34t-60 -24.5t-71 -8.5q-33 0 -59 10t-45.5 29.5t-30 47.5t-10.5 64zM159 150q0 -35 16.5 -52.5t44.5 -17.5q21 0 42.5 7t42 18.5t35.5 27.5v111q-43 -2 -76.5 -8t-57 -16t-35.5 -27t-12 -43zM86 596l106 194h146l104 -194h-108
l-70 126l-70 -126h-108zM421 744l-125 182h136l96 -182h-107z" />
    <glyph glyph-name="uni1EA8" unicode="&#x1ea8;" horiz-adv-x="640" 
d="M9 0l229 705h163l231 -705h-151l-46 150h-236l-47 -150h-143zM224 263h185l-92 328zM145 745l100 181h153l99 -181h-107l-70 122l-70 -122h-105zM476 870l-9 60q30 4 40.5 14t10.5 23q0 17 -11 24t-28 7q-16 0 -29 -3t-27 -7l-15 73q10 4 25.5 8t32 6.5t31.5 2.5
q50 0 80 -24t30 -68q0 -41 -27.5 -72.5t-103.5 -43.5z" />
    <glyph glyph-name="uni1EA9" unicode="&#x1ea9;" horiz-adv-x="541" 
d="M24 141q0 50 19.5 81.5t58.5 50t98.5 29t139.5 16.5v50q0 36 -27 53.5t-78 17.5q-21 0 -47 -2t-54 -7t-57 -14l-23 105q45 14 95.5 22t94.5 8q79 0 130 -20.5t75.5 -61t24.5 -100.5v-216q0 -28 8 -38t20 -10q5 0 12 1t13 4l11 -97q-17 -10 -39 -16.5t-47 -6.5
q-40 0 -64 16.5t-35 50.5q-25 -18 -53 -34t-60 -24.5t-71 -8.5q-33 0 -59 10t-45.5 29.5t-30 47.5t-10.5 64zM159 150q0 -35 16.5 -52.5t44.5 -17.5q21 0 42.5 7t42 18.5t35.5 27.5v111q-43 -2 -76.5 -8t-57 -16t-35.5 -27t-12 -43zM86 596l106 194h146l104 -194h-108
l-70 126l-70 -126h-108zM421 728l-9 60q30 4 40.5 14t10.5 23q0 17 -11 24t-28 7q-16 0 -29 -3t-27 -7l-15 73q10 4 25.5 8t32 6.5t31.5 2.5q50 0 80 -24t30 -68q0 -41 -27.5 -72.5t-103.5 -43.5z" />
    <glyph glyph-name="uni1EAA" unicode="&#x1eaa;" horiz-adv-x="640" 
d="M9 0l229 705h163l231 -705h-151l-46 150h-236l-47 -150h-143zM224 263h185l-92 328zM145 745l100 181h153l99 -181h-107l-70 122l-70 -122h-105zM128 994q-2 12 -2.5 23.5t-0.5 21.5q0 44 24.5 76.5t72.5 32.5q26 0 47 -9.5t39 -21.5t33 -21t30 -9q9 0 16 5t10.5 15.5
t3.5 25.5q0 5 -0.5 10.5t-2.5 9.5h74q2 -12 2.5 -23t0.5 -22q0 -45 -24.5 -78t-73.5 -33q-25 0 -46.5 9.5t-39 21.5t-32.5 21.5t-30 9.5q-14 0 -22 -11.5t-8 -33.5q0 -5 1 -10l2 -10h-74z" />
    <glyph glyph-name="uni1EAB" unicode="&#x1eab;" horiz-adv-x="541" 
d="M24 141q0 50 19.5 81.5t58.5 50t98.5 29t139.5 16.5v50q0 36 -27 53.5t-78 17.5q-21 0 -47 -2t-54 -7t-57 -14l-23 105q45 14 95.5 22t94.5 8q79 0 130 -20.5t75.5 -61t24.5 -100.5v-216q0 -28 8 -38t20 -10q5 0 12 1t13 4l11 -97q-17 -10 -39 -16.5t-47 -6.5
q-40 0 -64 16.5t-35 50.5q-25 -18 -53 -34t-60 -24.5t-71 -8.5q-33 0 -59 10t-45.5 29.5t-30 47.5t-10.5 64zM159 150q0 -35 16.5 -52.5t44.5 -17.5q21 0 42.5 7t42 18.5t35.5 27.5v111q-43 -2 -76.5 -8t-57 -16t-35.5 -27t-12 -43zM86 596l106 194h146l104 -194h-108
l-70 126l-70 -126h-108zM71 861q-2 12 -2.5 23.5t-0.5 21.5q0 44 24.5 76.5t72.5 32.5q26 0 47 -9.5t39 -21.5t33 -21t30 -9q9 0 16 5t10.5 15.5t3.5 25.5q0 5 -0.5 10.5t-2.5 9.5h74q2 -12 2.5 -23t0.5 -22q0 -45 -24.5 -78t-73.5 -33q-25 0 -46.5 9.5t-39 21.5t-32.5 21.5
t-30 9.5q-14 0 -22 -11.5t-8 -33.5q0 -5 1 -10l2 -10h-74z" />
    <glyph glyph-name="uni1EAC" unicode="&#x1eac;" horiz-adv-x="640" 
d="M9 0l229 705h163l231 -705h-151l-46 150h-236l-47 -150h-143zM224 263h185l-92 328zM317 -169q-28 0 -42 14t-14 46q0 33 14 46.5t42 13.5q29 0 42.5 -13.5t13.5 -46.5q0 -32 -13.5 -46t-42.5 -14zM145 745l100 181h153l99 -181h-107l-70 122l-70 -122h-105z" />
    <glyph glyph-name="uni1EAD" unicode="&#x1ead;" horiz-adv-x="541" 
d="M24 141q0 50 19.5 81.5t58.5 50t98.5 29t139.5 16.5v50q0 36 -27 53.5t-78 17.5q-21 0 -47 -2t-54 -7t-57 -14l-23 105q45 14 95.5 22t94.5 8q79 0 130 -20.5t75.5 -61t24.5 -100.5v-216q0 -28 8 -38t20 -10q5 0 12 1t13 4l11 -97q-17 -10 -39 -16.5t-47 -6.5
q-40 0 -64 16.5t-35 50.5q-25 -18 -53 -34t-60 -24.5t-71 -8.5q-33 0 -59 10t-45.5 29.5t-30 47.5t-10.5 64zM159 150q0 -35 16.5 -52.5t44.5 -17.5q21 0 42.5 7t42 18.5t35.5 27.5v111q-43 -2 -76.5 -8t-57 -16t-35.5 -27t-12 -43zM266 -193q-28 0 -42 14t-14 46
q0 33 14 46.5t42 13.5q29 0 42.5 -13.5t13.5 -46.5q0 -32 -13.5 -46t-42.5 -14zM86 596l106 194h146l104 -194h-108l-70 126l-70 -126h-108z" />
    <glyph glyph-name="uni1EAE" unicode="&#x1eae;" horiz-adv-x="640" 
d="M9 0l229 705h163l231 -705h-151l-46 150h-236l-47 -150h-143zM224 263h185l-92 328zM321 754q-54 0 -91.5 11t-56.5 40.5t-22 83.5q-1 6 -1 12.5v13.5l79 1q1 -3 1 -6v-5q0 -22 9 -37.5t29 -23t53 -7.5q34 0 51 8t25.5 23t13.5 37q1 2 1 5v6l79 -1v-13.5t-1 -12.5
q-2 -51 -20 -81t-54.5 -42t-94.5 -12zM250 975l96 181h129l-125 -181h-100z" />
    <glyph glyph-name="uni1EAF" unicode="&#x1eaf;" horiz-adv-x="541" 
d="M24 141q0 50 19.5 81.5t58.5 50t98.5 29t139.5 16.5v50q0 36 -27 53.5t-78 17.5q-21 0 -47 -2t-54 -7t-57 -14l-23 105q45 14 95.5 22t94.5 8q79 0 130 -20.5t75.5 -61t24.5 -100.5v-216q0 -28 8 -38t20 -10q5 0 12 1t13 4l11 -97q-17 -10 -39 -16.5t-47 -6.5
q-40 0 -64 16.5t-35 50.5q-25 -18 -53 -34t-60 -24.5t-71 -8.5q-33 0 -59 10t-45.5 29.5t-30 47.5t-10.5 64zM159 150q0 -35 16.5 -52.5t44.5 -17.5q21 0 42.5 7t42 18.5t35.5 27.5v111q-43 -2 -76.5 -8t-57 -16t-35.5 -27t-12 -43zM265 603q-55 0 -92 11t-57 40.5t-21 83.5
q-1 6 -1 12.5v13.5l79 1v-6v-6q2 -20 10 -34.5t27.5 -22t54.5 -7.5q33 0 52.5 7.5t28 22t9.5 34.5v6v6l80 -1q0 -7 -0.5 -13.5t-0.5 -13.5q-1 -50 -19.5 -79.5t-55 -42t-94.5 -12.5zM193 824l96 181h129l-125 -181h-100z" />
    <glyph glyph-name="uni1EB0" unicode="&#x1eb0;" horiz-adv-x="640" 
d="M9 0l229 705h163l231 -705h-151l-46 150h-236l-47 -150h-143zM224 263h185l-92 328zM321 754q-54 0 -91.5 11t-56.5 40.5t-22 83.5q-1 6 -1 12.5v13.5l79 1q1 -3 1 -6v-5q0 -22 9 -37.5t29 -23t53 -7.5q34 0 51 8t25.5 23t13.5 37q1 2 1 5v6l79 -1v-13.5t-1 -12.5
q-2 -51 -20 -81t-54.5 -42t-94.5 -12zM249 975l-125 182h136l96 -182h-107z" />
    <glyph glyph-name="uni1EB1" unicode="&#x1eb1;" horiz-adv-x="541" 
d="M24 141q0 50 19.5 81.5t58.5 50t98.5 29t139.5 16.5v50q0 36 -27 53.5t-78 17.5q-21 0 -47 -2t-54 -7t-57 -14l-23 105q45 14 95.5 22t94.5 8q79 0 130 -20.5t75.5 -61t24.5 -100.5v-216q0 -28 8 -38t20 -10q5 0 12 1t13 4l11 -97q-17 -10 -39 -16.5t-47 -6.5
q-40 0 -64 16.5t-35 50.5q-25 -18 -53 -34t-60 -24.5t-71 -8.5q-33 0 -59 10t-45.5 29.5t-30 47.5t-10.5 64zM159 150q0 -35 16.5 -52.5t44.5 -17.5q21 0 42.5 7t42 18.5t35.5 27.5v111q-43 -2 -76.5 -8t-57 -16t-35.5 -27t-12 -43zM265 603q-55 0 -92 11t-57 40.5t-21 83.5
q-1 6 -1 12.5v13.5l79 1v-6v-6q2 -20 10 -34.5t27.5 -22t54.5 -7.5q33 0 52.5 7.5t28 22t9.5 34.5v6v6l80 -1q0 -7 -0.5 -13.5t-0.5 -13.5q-1 -50 -19.5 -79.5t-55 -42t-94.5 -12.5zM192 824l-125 182h136l96 -182h-107z" />
    <glyph glyph-name="uni1EB2" unicode="&#x1eb2;" horiz-adv-x="640" 
d="M9 0l229 705h163l231 -705h-151l-46 150h-236l-47 -150h-143zM224 263h185l-92 328zM321 754q-54 0 -91.5 11t-56.5 40.5t-22 83.5q-1 6 -1 12.5v13.5l79 1q1 -3 1 -6v-5q0 -22 9 -37.5t29 -23t53 -7.5q34 0 51 8t25.5 23t13.5 37q1 2 1 5v6l79 -1v-13.5t-1 -12.5
q-2 -51 -20 -81t-54.5 -42t-94.5 -12zM290 924l-9 60q30 4 40.5 14t10.5 23q0 17 -11 24t-28 7q-16 0 -29 -3t-27 -7l-15 73q10 4 25.5 8t32 6.5t31.5 2.5q50 0 80 -24t30 -68q0 -41 -27.5 -72.5t-103.5 -43.5z" />
    <glyph glyph-name="uni1EB3" unicode="&#x1eb3;" horiz-adv-x="541" 
d="M24 141q0 50 19.5 81.5t58.5 50t98.5 29t139.5 16.5v50q0 36 -27 53.5t-78 17.5q-21 0 -47 -2t-54 -7t-57 -14l-23 105q45 14 95.5 22t94.5 8q79 0 130 -20.5t75.5 -61t24.5 -100.5v-216q0 -28 8 -38t20 -10q5 0 12 1t13 4l11 -97q-17 -10 -39 -16.5t-47 -6.5
q-40 0 -64 16.5t-35 50.5q-25 -18 -53 -34t-60 -24.5t-71 -8.5q-33 0 -59 10t-45.5 29.5t-30 47.5t-10.5 64zM159 150q0 -35 16.5 -52.5t44.5 -17.5q21 0 42.5 7t42 18.5t35.5 27.5v111q-43 -2 -76.5 -8t-57 -16t-35.5 -27t-12 -43zM265 603q-55 0 -92 11t-57 40.5t-21 83.5
q-1 6 -1 12.5v13.5l79 1v-6v-6q2 -20 10 -34.5t27.5 -22t54.5 -7.5q33 0 52.5 7.5t28 22t9.5 34.5v6v6l80 -1q0 -7 -0.5 -13.5t-0.5 -13.5q-1 -50 -19.5 -79.5t-55 -42t-94.5 -12.5zM233 772l-9 60q30 4 40.5 14t10.5 23q0 17 -11 24t-28 7q-16 0 -29 -3t-27 -7l-15 73
q10 4 25.5 8t32 6.5t31.5 2.5q50 0 80 -24t30 -68q0 -41 -27.5 -72.5t-103.5 -43.5z" />
    <glyph glyph-name="uni1EB4" unicode="&#x1eb4;" horiz-adv-x="640" 
d="M9 0l229 705h163l231 -705h-151l-46 150h-236l-47 -150h-143zM224 263h185l-92 328zM321 754q-54 0 -91.5 11t-56.5 40.5t-22 83.5q-1 6 -1 12.5v13.5l79 1q1 -3 1 -6v-5q0 -22 9 -37.5t29 -23t53 -7.5q34 0 51 8t25.5 23t13.5 37q1 2 1 5v6l79 -1v-13.5t-1 -12.5
q-2 -51 -20 -81t-54.5 -42t-94.5 -12zM128 991q-2 12 -2.5 23.5t-0.5 21.5q0 44 24.5 76.5t72.5 32.5q26 0 47 -9.5t39 -21.5t33 -21t30 -9q9 0 16 5t10.5 15.5t3.5 25.5q0 5 -0.5 10.5t-2.5 9.5h74q2 -12 2.5 -23t0.5 -22q0 -45 -24.5 -78t-73.5 -33q-25 0 -46.5 9.5
t-39 21.5t-32.5 21.5t-30 9.5q-14 0 -22 -11.5t-8 -33.5q0 -5 1 -10l2 -10h-74z" />
    <glyph glyph-name="uni1EB5" unicode="&#x1eb5;" horiz-adv-x="541" 
d="M24 141q0 50 19.5 81.5t58.5 50t98.5 29t139.5 16.5v50q0 36 -27 53.5t-78 17.5q-21 0 -47 -2t-54 -7t-57 -14l-23 105q45 14 95.5 22t94.5 8q79 0 130 -20.5t75.5 -61t24.5 -100.5v-216q0 -28 8 -38t20 -10q5 0 12 1t13 4l11 -97q-17 -10 -39 -16.5t-47 -6.5
q-40 0 -64 16.5t-35 50.5q-25 -18 -53 -34t-60 -24.5t-71 -8.5q-33 0 -59 10t-45.5 29.5t-30 47.5t-10.5 64zM159 150q0 -35 16.5 -52.5t44.5 -17.5q21 0 42.5 7t42 18.5t35.5 27.5v111q-43 -2 -76.5 -8t-57 -16t-35.5 -27t-12 -43zM265 603q-55 0 -92 11t-57 40.5t-21 83.5
q-1 6 -1 12.5v13.5l79 1v-6v-6q2 -20 10 -34.5t27.5 -22t54.5 -7.5q33 0 52.5 7.5t28 22t9.5 34.5v6v6l80 -1q0 -7 -0.5 -13.5t-0.5 -13.5q-1 -50 -19.5 -79.5t-55 -42t-94.5 -12.5zM71 841q-2 12 -2.5 23.5t-0.5 21.5q0 44 24.5 76.5t72.5 32.5q26 0 47 -9.5t39 -21.5
t33 -21t30 -9q9 0 16 5t10.5 15.5t3.5 25.5q0 5 -0.5 10.5t-2.5 9.5h74q2 -12 2.5 -23t0.5 -22q0 -45 -24.5 -78t-73.5 -33q-25 0 -46.5 9.5t-39 21.5t-32.5 21.5t-30 9.5q-14 0 -22 -11.5t-8 -33.5q0 -5 1 -10l2 -10h-74z" />
    <glyph glyph-name="uni1EB6" unicode="&#x1eb6;" horiz-adv-x="640" 
d="M9 0l229 705h163l231 -705h-151l-46 150h-236l-47 -150h-143zM224 263h185l-92 328zM317 -169q-28 0 -42 14t-14 46q0 33 14 46.5t42 13.5q29 0 42.5 -13.5t13.5 -46.5q0 -32 -13.5 -46t-42.5 -14zM321 754q-54 0 -91.5 11t-56.5 40.5t-22 83.5q-1 6 -1 12.5v13.5l79 1
q1 -3 1 -6v-5q0 -22 9 -37.5t29 -23t53 -7.5q34 0 51 8t25.5 23t13.5 37q1 2 1 5v6l79 -1v-13.5t-1 -12.5q-2 -51 -20 -81t-54.5 -42t-94.5 -12z" />
    <glyph glyph-name="uni1EB7" unicode="&#x1eb7;" horiz-adv-x="541" 
d="M24 141q0 50 19.5 81.5t58.5 50t98.5 29t139.5 16.5v50q0 36 -27 53.5t-78 17.5q-21 0 -47 -2t-54 -7t-57 -14l-23 105q45 14 95.5 22t94.5 8q79 0 130 -20.5t75.5 -61t24.5 -100.5v-216q0 -28 8 -38t20 -10q5 0 12 1t13 4l11 -97q-17 -10 -39 -16.5t-47 -6.5
q-40 0 -64 16.5t-35 50.5q-25 -18 -53 -34t-60 -24.5t-71 -8.5q-33 0 -59 10t-45.5 29.5t-30 47.5t-10.5 64zM159 150q0 -35 16.5 -52.5t44.5 -17.5q21 0 42.5 7t42 18.5t35.5 27.5v111q-43 -2 -76.5 -8t-57 -16t-35.5 -27t-12 -43zM266 -193q-28 0 -42 14t-14 46
q0 33 14 46.5t42 13.5q29 0 42.5 -13.5t13.5 -46.5q0 -32 -13.5 -46t-42.5 -14zM265 603q-55 0 -92 11t-57 40.5t-21 83.5q-1 6 -1 12.5v13.5l79 1v-6v-6q2 -20 10 -34.5t27.5 -22t54.5 -7.5q33 0 52.5 7.5t28 22t9.5 34.5v6v6l80 -1q0 -7 -0.5 -13.5t-0.5 -13.5
q-1 -50 -19.5 -79.5t-55 -42t-94.5 -12.5z" />
    <glyph glyph-name="uni1EB8" unicode="&#x1eb8;" horiz-adv-x="583" 
d="M61 0v700h480v-120h-341v-162h317v-117h-317v-181h359v-120h-498zM309 -169q-28 0 -42 14t-14 46q0 33 14 46.5t42 13.5q29 0 42.5 -13.5t13.5 -46.5q0 -32 -13.5 -46t-42.5 -14z" />
    <glyph glyph-name="uni1EB9" unicode="&#x1eb9;" horiz-adv-x="544" 
d="M284 -10q-61 0 -108 15.5t-79.5 48t-49 83t-16.5 120.5q0 81 19.5 137.5t55.5 91t84 50t105 15.5q113 0 166.5 -57t53.5 -186v-23t-2 -27q-23 -2 -59 -5t-81 -6t-97 -5t-107 -4q-1 -3 -1 -7v-8q0 -46 15.5 -73.5t46.5 -41t78 -13.5q30 0 61.5 3.5t63 9t61.5 12.5l16 -98
q-32 -10 -68 -17.5t-75 -11t-83 -3.5zM170 324q35 0 67.5 1.5t61.5 3t50 3t33 2.5q-1 44 -11.5 71t-31.5 39t-54 12q-20 0 -39 -6t-35 -21t-26.5 -40t-14.5 -65zM281 -193q-28 0 -42 14t-14 46q0 33 14 46.5t42 13.5q29 0 42.5 -13.5t13.5 -46.5q0 -32 -13.5 -46t-42.5 -14z
" />
    <glyph glyph-name="uni1EBA" unicode="&#x1eba;" horiz-adv-x="583" 
d="M61 0v700h480v-120h-341v-162h317v-117h-317v-181h359v-120h-498zM279 746l-9 60q30 4 40.5 14t10.5 23q0 17 -11 24t-28 7q-16 0 -29 -3t-27 -7l-15 73q10 4 25.5 8t32 6.5t31.5 2.5q50 0 80 -24t30 -68q0 -41 -27.5 -72.5t-103.5 -43.5z" />
    <glyph glyph-name="uni1EBB" unicode="&#x1ebb;" horiz-adv-x="544" 
d="M284 -10q-61 0 -108 15.5t-79.5 48t-49 83t-16.5 120.5q0 81 19.5 137.5t55.5 91t84 50t105 15.5q113 0 166.5 -57t53.5 -186v-23t-2 -27q-23 -2 -59 -5t-81 -6t-97 -5t-107 -4q-1 -3 -1 -7v-8q0 -46 15.5 -73.5t46.5 -41t78 -13.5q30 0 61.5 3.5t63 9t61.5 12.5l16 -98
q-32 -10 -68 -17.5t-75 -11t-83 -3.5zM170 324q35 0 67.5 1.5t61.5 3t50 3t33 2.5q-1 44 -11.5 71t-31.5 39t-54 12q-20 0 -39 -6t-35 -21t-26.5 -40t-14.5 -65zM254 596l-9 60q30 4 40.5 14t10.5 23q0 17 -11 24t-28 7q-16 0 -29 -3t-27 -7l-15 73q10 4 25.5 8t32 6.5
t31.5 2.5q50 0 80 -24t30 -68q0 -41 -27.5 -72.5t-103.5 -43.5z" />
    <glyph glyph-name="uni1EBC" unicode="&#x1ebc;" horiz-adv-x="583" 
d="M61 0v700h480v-120h-341v-162h317v-117h-317v-181h359v-120h-498zM136 761q-2 12 -2.5 23.5t-0.5 21.5q0 44 24.5 76.5t72.5 32.5q26 0 47 -9.5t39 -21.5t33 -21t30 -9q9 0 16 5t10.5 15.5t3.5 25.5q0 5 -0.5 10.5t-2.5 9.5h74q2 -12 2.5 -23t0.5 -22q0 -45 -24.5 -78
t-73.5 -33q-25 0 -46.5 9.5t-39 21.5t-32.5 21.5t-30 9.5q-14 0 -22 -11.5t-8 -33.5q0 -5 1 -10l2 -10h-74z" />
    <glyph glyph-name="uni1EBD" unicode="&#x1ebd;" horiz-adv-x="544" 
d="M284 -10q-61 0 -108 15.5t-79.5 48t-49 83t-16.5 120.5q0 81 19.5 137.5t55.5 91t84 50t105 15.5q113 0 166.5 -57t53.5 -186v-23t-2 -27q-23 -2 -59 -5t-81 -6t-97 -5t-107 -4q-1 -3 -1 -7v-8q0 -46 15.5 -73.5t46.5 -41t78 -13.5q30 0 61.5 3.5t63 9t61.5 12.5l16 -98
q-32 -10 -68 -17.5t-75 -11t-83 -3.5zM170 324q35 0 67.5 1.5t61.5 3t50 3t33 2.5q-1 44 -11.5 71t-31.5 39t-54 12q-20 0 -39 -6t-35 -21t-26.5 -40t-14.5 -65zM112 600q-2 12 -3 23.5t-1 21.5q0 55 24 82t72 27q23 0 43.5 -8.5t39 -20.5t35 -20.5t33.5 -8.5q10 0 17 6
t10.5 15.5t3.5 19.5q0 5 -0.5 11t-1.5 10h72q2 -11 2.5 -22.5t0.5 -22.5q0 -54 -23.5 -81.5t-72.5 -27.5q-21 0 -42 8.5t-40 20t-36.5 20t-31.5 8.5q-15 0 -23 -10.5t-8 -28.5q0 -5 0.5 -11t1.5 -11h-72z" />
    <glyph glyph-name="uni1EBE" unicode="&#x1ebe;" horiz-adv-x="583" 
d="M61 0v700h480v-120h-341v-162h317v-117h-317v-181h359v-120h-498zM133 745l100 181h153l99 -181h-107l-70 122l-70 -122h-105zM436 887l96 181h129l-125 -181h-100z" />
    <glyph glyph-name="uni1EBF" unicode="&#x1ebf;" horiz-adv-x="544" 
d="M284 -10q-61 0 -108 15.5t-79.5 48t-49 83t-16.5 120.5q0 81 19.5 137.5t55.5 91t84 50t105 15.5q113 0 166.5 -57t53.5 -186v-23t-2 -27q-23 -2 -59 -5t-81 -6t-97 -5t-107 -4q-1 -3 -1 -7v-8q0 -46 15.5 -73.5t46.5 -41t78 -13.5q30 0 61.5 3.5t63 9t61.5 12.5l16 -98
q-32 -10 -68 -17.5t-75 -11t-83 -3.5zM170 324q35 0 67.5 1.5t61.5 3t50 3t33 2.5q-1 44 -11.5 71t-31.5 39t-54 12q-20 0 -39 -6t-35 -21t-26.5 -40t-14.5 -65zM106 596l106 194h146l104 -194h-108l-70 126l-70 -126h-108zM415 744l96 181h129l-125 -181h-100z" />
    <glyph glyph-name="uni1EC0" unicode="&#x1ec0;" horiz-adv-x="583" 
d="M61 0v700h480v-120h-341v-162h317v-117h-317v-181h359v-120h-498zM133 745l100 181h153l99 -181h-107l-70 122l-70 -122h-105zM469 888l-125 182h136l96 -182h-107z" />
    <glyph glyph-name="uni1EC1" unicode="&#x1ec1;" horiz-adv-x="544" 
d="M284 -10q-61 0 -108 15.5t-79.5 48t-49 83t-16.5 120.5q0 81 19.5 137.5t55.5 91t84 50t105 15.5q113 0 166.5 -57t53.5 -186v-23t-2 -27q-23 -2 -59 -5t-81 -6t-97 -5t-107 -4q-1 -3 -1 -7v-8q0 -46 15.5 -73.5t46.5 -41t78 -13.5q30 0 61.5 3.5t63 9t61.5 12.5l16 -98
q-32 -10 -68 -17.5t-75 -11t-83 -3.5zM170 324q35 0 67.5 1.5t61.5 3t50 3t33 2.5q-1 44 -11.5 71t-31.5 39t-54 12q-20 0 -39 -6t-35 -21t-26.5 -40t-14.5 -65zM106 596l106 194h146l104 -194h-108l-70 126l-70 -126h-108zM441 744l-125 182h136l96 -182h-107z" />
    <glyph glyph-name="uni1EC2" unicode="&#x1ec2;" horiz-adv-x="583" 
d="M61 0v700h480v-120h-341v-162h317v-117h-317v-181h359v-120h-498zM133 745l100 181h153l99 -181h-107l-70 122l-70 -122h-105zM464 870l-9 60q30 4 40.5 14t10.5 23q0 17 -11 24t-28 7q-16 0 -29 -3t-27 -7l-15 73q10 4 25.5 8t32 6.5t31.5 2.5q50 0 80 -24t30 -68
q0 -41 -27.5 -72.5t-103.5 -43.5z" />
    <glyph glyph-name="uni1EC3" unicode="&#x1ec3;" horiz-adv-x="544" 
d="M284 -10q-61 0 -108 15.5t-79.5 48t-49 83t-16.5 120.5q0 81 19.5 137.5t55.5 91t84 50t105 15.5q113 0 166.5 -57t53.5 -186v-23t-2 -27q-23 -2 -59 -5t-81 -6t-97 -5t-107 -4q-1 -3 -1 -7v-8q0 -46 15.5 -73.5t46.5 -41t78 -13.5q30 0 61.5 3.5t63 9t61.5 12.5l16 -98
q-32 -10 -68 -17.5t-75 -11t-83 -3.5zM170 324q35 0 67.5 1.5t61.5 3t50 3t33 2.5q-1 44 -11.5 71t-31.5 39t-54 12q-20 0 -39 -6t-35 -21t-26.5 -40t-14.5 -65zM106 596l106 194h146l104 -194h-108l-70 126l-70 -126h-108zM441 728l-9 60q30 4 40.5 14t10.5 23q0 17 -11 24
t-28 7q-16 0 -29 -3t-27 -7l-15 73q10 4 25.5 8t32 6.5t31.5 2.5q50 0 80 -24t30 -68q0 -41 -27.5 -72.5t-103.5 -43.5z" />
    <glyph glyph-name="uni1EC4" unicode="&#x1ec4;" horiz-adv-x="583" 
d="M61 0v700h480v-120h-341v-162h317v-117h-317v-181h359v-120h-498zM133 745l100 181h153l99 -181h-107l-70 122l-70 -122h-105zM117 994q-2 12 -2.5 23.5t-0.5 21.5q0 44 24.5 76.5t72.5 32.5q26 0 47 -9.5t39 -21.5t33 -21t30 -9q9 0 16 5t10.5 15.5t3.5 25.5
q0 5 -0.5 10.5t-2.5 9.5h74q2 -12 2.5 -23t0.5 -22q0 -45 -24.5 -78t-73.5 -33q-25 0 -46.5 9.5t-39 21.5t-32.5 21.5t-30 9.5q-14 0 -22 -11.5t-8 -33.5q0 -5 1 -10l2 -10h-74z" />
    <glyph glyph-name="uni1EC5" unicode="&#x1ec5;" horiz-adv-x="544" 
d="M284 -10q-61 0 -108 15.5t-79.5 48t-49 83t-16.5 120.5q0 81 19.5 137.5t55.5 91t84 50t105 15.5q113 0 166.5 -57t53.5 -186v-23t-2 -27q-23 -2 -59 -5t-81 -6t-97 -5t-107 -4q-1 -3 -1 -7v-8q0 -46 15.5 -73.5t46.5 -41t78 -13.5q30 0 61.5 3.5t63 9t61.5 12.5l16 -98
q-32 -10 -68 -17.5t-75 -11t-83 -3.5zM170 324q35 0 67.5 1.5t61.5 3t50 3t33 2.5q-1 44 -11.5 71t-31.5 39t-54 12q-20 0 -39 -6t-35 -21t-26.5 -40t-14.5 -65zM106 596l106 194h146l104 -194h-108l-70 126l-70 -126h-108zM91 861q-2 12 -2.5 23.5t-0.5 21.5
q0 44 24.5 76.5t72.5 32.5q26 0 47 -9.5t39 -21.5t33 -21t30 -9q9 0 16 5t10.5 15.5t3.5 25.5q0 5 -0.5 10.5t-2.5 9.5h74q2 -12 2.5 -23t0.5 -22q0 -45 -24.5 -78t-73.5 -33q-25 0 -46.5 9.5t-39 21.5t-32.5 21.5t-30 9.5q-14 0 -22 -11.5t-8 -33.5q0 -5 1 -10l2 -10h-74z
" />
    <glyph glyph-name="uni1EC6" unicode="&#x1ec6;" horiz-adv-x="583" 
d="M61 0v700h480v-120h-341v-162h317v-117h-317v-181h359v-120h-498zM309 -169q-28 0 -42 14t-14 46q0 33 14 46.5t42 13.5q29 0 42.5 -13.5t13.5 -46.5q0 -32 -13.5 -46t-42.5 -14zM133 745l100 181h153l99 -181h-107l-70 122l-70 -122h-105z" />
    <glyph glyph-name="uni1EC7" unicode="&#x1ec7;" horiz-adv-x="544" 
d="M284 -10q-61 0 -108 15.5t-79.5 48t-49 83t-16.5 120.5q0 81 19.5 137.5t55.5 91t84 50t105 15.5q113 0 166.5 -57t53.5 -186v-23t-2 -27q-23 -2 -59 -5t-81 -6t-97 -5t-107 -4q-1 -3 -1 -7v-8q0 -46 15.5 -73.5t46.5 -41t78 -13.5q30 0 61.5 3.5t63 9t61.5 12.5l16 -98
q-32 -10 -68 -17.5t-75 -11t-83 -3.5zM170 324q35 0 67.5 1.5t61.5 3t50 3t33 2.5q-1 44 -11.5 71t-31.5 39t-54 12q-20 0 -39 -6t-35 -21t-26.5 -40t-14.5 -65zM281 -193q-28 0 -42 14t-14 46q0 33 14 46.5t42 13.5q29 0 42.5 -13.5t13.5 -46.5q0 -32 -13.5 -46t-42.5 -14z
M106 596l106 194h146l104 -194h-108l-70 126l-70 -126h-108z" />
    <glyph glyph-name="uni1EC8" unicode="&#x1ec8;" horiz-adv-x="259" 
d="M61 0v700h137v-700h-137zM99 746l-9 60q30 4 40.5 14t10.5 23q0 17 -11 24t-28 7q-16 0 -29 -3t-27 -7l-15 73q10 4 25.5 8t32 6.5t31.5 2.5q50 0 80 -24t30 -68q0 -41 -27.5 -72.5t-103.5 -43.5z" />
    <glyph glyph-name="uni1EC9" unicode="&#x1ec9;" horiz-adv-x="238" 
d="M52 0v541h134v-541h-134zM89 596l-9 60q30 4 40.5 14t10.5 23q0 17 -11 24t-28 7q-16 0 -29 -3t-27 -7l-15 73q10 4 25.5 8t32 6.5t31.5 2.5q50 0 80 -24t30 -68q0 -41 -27.5 -72.5t-103.5 -43.5z" />
    <glyph glyph-name="uni1ECA" unicode="&#x1eca;" horiz-adv-x="259" 
d="M61 0v700h137v-700h-137zM130 -169q-28 0 -42 14t-14 46q0 33 14 46.5t42 13.5q29 0 42.5 -13.5t13.5 -46.5q0 -32 -13.5 -46t-42.5 -14z" />
    <glyph glyph-name="uni1ECB" unicode="&#x1ecb;" horiz-adv-x="237" 
d="M119 618q-42 0 -60.5 16.5t-18.5 51.5q0 36 18.5 52t60.5 16t60.5 -16t18.5 -52q0 -35 -18.5 -51.5t-60.5 -16.5zM52 0v541h133v-541h-133zM119 -193q-28 0 -42 14t-14 46q0 33 14 46.5t42 13.5q29 0 42.5 -13.5t13.5 -46.5q0 -32 -13.5 -46t-42.5 -14z" />
    <glyph glyph-name="uni1ECC" unicode="&#x1ecc;" horiz-adv-x="697" 
d="M348 99q31 0 57.5 7t48 24.5t37 45.5t24 71.5t8.5 102.5q0 60 -8.5 103.5t-24.5 72t-37 45.5t-48 24t-57 7q-29 0 -55 -7t-47.5 -23.5t-37 -45.5t-24 -72.5t-8.5 -103.5t8.5 -102.5t24.5 -71.5t37.5 -46t47 -24t54.5 -7zM349 -10q-57 0 -105 11.5t-87 37t-65.5 67
t-41 102t-14.5 142.5t13.5 142t40 101.5t65.5 68t87 37.5t107 11q58 0 107 -11.5t87 -36.5t65 -66.5t41 -101.5t14 -141q0 -84 -14 -145t-41.5 -102.5t-65.5 -67t-86.5 -37t-106.5 -11.5zM348 -169q-28 0 -42 14t-14 46q0 33 14 46.5t42 13.5q29 0 42.5 -13.5t13.5 -46.5
q0 -32 -13.5 -46t-42.5 -14z" />
    <glyph glyph-name="uni1ECD" unicode="&#x1ecd;" horiz-adv-x="567" 
d="M31 271q0 69 12.5 121t41.5 87t77.5 53.5t120.5 18.5q73 0 121.5 -18.5t77.5 -53.5t41.5 -87t12.5 -121t-13.5 -122t-43.5 -88t-78 -53t-118 -18q-69 0 -117 18t-78 53t-43.5 88t-13.5 122zM167 271q0 -67 12 -106.5t38 -56.5t66 -17q42 0 67.5 17t37 56.5t11.5 106.5
t-10.5 106t-36 56t-69.5 17q-43 0 -68.5 -17t-36.5 -56t-11 -106zM284 -193q-28 0 -42 14t-14 46q0 33 14 46.5t42 13.5q29 0 42.5 -13.5t13.5 -46.5q0 -32 -13.5 -46t-42.5 -14z" />
    <glyph glyph-name="uni1ECE" unicode="&#x1ece;" horiz-adv-x="697" 
d="M348 99q31 0 57.5 7t48 24.5t37 45.5t24 71.5t8.5 102.5q0 60 -8.5 103.5t-24.5 72t-37 45.5t-48 24t-57 7q-29 0 -55 -7t-47.5 -23.5t-37 -45.5t-24 -72.5t-8.5 -103.5t8.5 -102.5t24.5 -71.5t37.5 -46t47 -24t54.5 -7zM349 -10q-57 0 -105 11.5t-87 37t-65.5 67
t-41 102t-14.5 142.5t13.5 142t40 101.5t65.5 68t87 37.5t107 11q58 0 107 -11.5t87 -36.5t65 -66.5t41 -101.5t14 -141q0 -84 -14 -145t-41.5 -102.5t-65.5 -67t-86.5 -37t-106.5 -11.5zM318 746l-9 60q30 4 40.5 14t10.5 23q0 17 -11 24t-28 7q-16 0 -29 -3t-27 -7l-15 73
q10 4 25.5 8t32 6.5t31.5 2.5q50 0 80 -24t30 -68q0 -41 -27.5 -72.5t-103.5 -43.5z" />
    <glyph glyph-name="uni1ECF" unicode="&#x1ecf;" horiz-adv-x="567" 
d="M31 271q0 69 12.5 121t41.5 87t77.5 53.5t120.5 18.5q73 0 121.5 -18.5t77.5 -53.5t41.5 -87t12.5 -121t-13.5 -122t-43.5 -88t-78 -53t-118 -18q-69 0 -117 18t-78 53t-43.5 88t-13.5 122zM167 271q0 -67 12 -106.5t38 -56.5t66 -17q42 0 67.5 17t37 56.5t11.5 106.5
t-10.5 106t-36 56t-69.5 17q-43 0 -68.5 -17t-36.5 -56t-11 -106zM253 596l-9 60q30 4 40.5 14t10.5 23q0 17 -11 24t-28 7q-16 0 -29 -3t-27 -7l-15 73q10 4 25.5 8t32 6.5t31.5 2.5q50 0 80 -24t30 -68q0 -41 -27.5 -72.5t-103.5 -43.5z" />
    <glyph glyph-name="uni1ED0" unicode="&#x1ed0;" horiz-adv-x="697" 
d="M348 99q31 0 57.5 7t48 24.5t37 45.5t24 71.5t8.5 102.5q0 60 -8.5 103.5t-24.5 72t-37 45.5t-48 24t-57 7q-29 0 -55 -7t-47.5 -23.5t-37 -45.5t-24 -72.5t-8.5 -103.5t8.5 -102.5t24.5 -71.5t37.5 -46t47 -24t54.5 -7zM349 -10q-57 0 -105 11.5t-87 37t-65.5 67
t-41 102t-14.5 142.5t13.5 142t40 101.5t65.5 68t87 37.5t107 11q58 0 107 -11.5t87 -36.5t65 -66.5t41 -101.5t14 -141q0 -84 -14 -145t-41.5 -102.5t-65.5 -67t-86.5 -37t-106.5 -11.5zM173 745l100 181h153l99 -181h-107l-70 122l-70 -122h-105zM476 887l96 181h129
l-125 -181h-100z" />
    <glyph glyph-name="uni1ED1" unicode="&#x1ed1;" horiz-adv-x="567" 
d="M31 271q0 69 12.5 121t41.5 87t77.5 53.5t120.5 18.5q73 0 121.5 -18.5t77.5 -53.5t41.5 -87t12.5 -121t-13.5 -122t-43.5 -88t-78 -53t-118 -18q-69 0 -117 18t-78 53t-43.5 88t-13.5 122zM167 271q0 -67 12 -106.5t38 -56.5t66 -17q42 0 67.5 17t37 56.5t11.5 106.5
t-10.5 106t-36 56t-69.5 17q-43 0 -68.5 -17t-36.5 -56t-11 -106zM105 596l106 194h146l104 -194h-108l-70 126l-70 -126h-108zM414 744l96 181h129l-125 -181h-100z" />
    <glyph glyph-name="uni1ED2" unicode="&#x1ed2;" horiz-adv-x="697" 
d="M348 99q31 0 57.5 7t48 24.5t37 45.5t24 71.5t8.5 102.5q0 60 -8.5 103.5t-24.5 72t-37 45.5t-48 24t-57 7q-29 0 -55 -7t-47.5 -23.5t-37 -45.5t-24 -72.5t-8.5 -103.5t8.5 -102.5t24.5 -71.5t37.5 -46t47 -24t54.5 -7zM349 -10q-57 0 -105 11.5t-87 37t-65.5 67
t-41 102t-14.5 142.5t13.5 142t40 101.5t65.5 68t87 37.5t107 11q58 0 107 -11.5t87 -36.5t65 -66.5t41 -101.5t14 -141q0 -84 -14 -145t-41.5 -102.5t-65.5 -67t-86.5 -37t-106.5 -11.5zM173 745l100 181h153l99 -181h-107l-70 122l-70 -122h-105zM508 888l-125 182h136
l96 -182h-107z" />
    <glyph glyph-name="uni1ED3" unicode="&#x1ed3;" horiz-adv-x="567" 
d="M31 271q0 69 12.5 121t41.5 87t77.5 53.5t120.5 18.5q73 0 121.5 -18.5t77.5 -53.5t41.5 -87t12.5 -121t-13.5 -122t-43.5 -88t-78 -53t-118 -18q-69 0 -117 18t-78 53t-43.5 88t-13.5 122zM167 271q0 -67 12 -106.5t38 -56.5t66 -17q42 0 67.5 17t37 56.5t11.5 106.5
t-10.5 106t-36 56t-69.5 17q-43 0 -68.5 -17t-36.5 -56t-11 -106zM105 596l106 194h146l104 -194h-108l-70 126l-70 -126h-108zM441 744l-125 182h136l96 -182h-107z" />
    <glyph glyph-name="uni1ED4" unicode="&#x1ed4;" horiz-adv-x="697" 
d="M348 99q31 0 57.5 7t48 24.5t37 45.5t24 71.5t8.5 102.5q0 60 -8.5 103.5t-24.5 72t-37 45.5t-48 24t-57 7q-29 0 -55 -7t-47.5 -23.5t-37 -45.5t-24 -72.5t-8.5 -103.5t8.5 -102.5t24.5 -71.5t37.5 -46t47 -24t54.5 -7zM349 -10q-57 0 -105 11.5t-87 37t-65.5 67
t-41 102t-14.5 142.5t13.5 142t40 101.5t65.5 68t87 37.5t107 11q58 0 107 -11.5t87 -36.5t65 -66.5t41 -101.5t14 -141q0 -84 -14 -145t-41.5 -102.5t-65.5 -67t-86.5 -37t-106.5 -11.5zM173 745l100 181h153l99 -181h-107l-70 122l-70 -122h-105zM504 870l-9 60
q30 4 40.5 14t10.5 23q0 17 -11 24t-28 7q-16 0 -29 -3t-27 -7l-15 73q10 4 25.5 8t32 6.5t31.5 2.5q50 0 80 -24t30 -68q0 -41 -27.5 -72.5t-103.5 -43.5z" />
    <glyph glyph-name="uni1ED5" unicode="&#x1ed5;" horiz-adv-x="567" 
d="M31 271q0 69 12.5 121t41.5 87t77.5 53.5t120.5 18.5q73 0 121.5 -18.5t77.5 -53.5t41.5 -87t12.5 -121t-13.5 -122t-43.5 -88t-78 -53t-118 -18q-69 0 -117 18t-78 53t-43.5 88t-13.5 122zM167 271q0 -67 12 -106.5t38 -56.5t66 -17q42 0 67.5 17t37 56.5t11.5 106.5
t-10.5 106t-36 56t-69.5 17q-43 0 -68.5 -17t-36.5 -56t-11 -106zM105 596l106 194h146l104 -194h-108l-70 126l-70 -126h-108zM440 728l-9 60q30 4 40.5 14t10.5 23q0 17 -11 24t-28 7q-16 0 -29 -3t-27 -7l-15 73q10 4 25.5 8t32 6.5t31.5 2.5q50 0 80 -24t30 -68
q0 -41 -27.5 -72.5t-103.5 -43.5z" />
    <glyph glyph-name="uni1ED6" unicode="&#x1ed6;" horiz-adv-x="697" 
d="M348 99q31 0 57.5 7t48 24.5t37 45.5t24 71.5t8.5 102.5q0 60 -8.5 103.5t-24.5 72t-37 45.5t-48 24t-57 7q-29 0 -55 -7t-47.5 -23.5t-37 -45.5t-24 -72.5t-8.5 -103.5t8.5 -102.5t24.5 -71.5t37.5 -46t47 -24t54.5 -7zM349 -10q-57 0 -105 11.5t-87 37t-65.5 67
t-41 102t-14.5 142.5t13.5 142t40 101.5t65.5 68t87 37.5t107 11q58 0 107 -11.5t87 -36.5t65 -66.5t41 -101.5t14 -141q0 -84 -14 -145t-41.5 -102.5t-65.5 -67t-86.5 -37t-106.5 -11.5zM173 745l100 181h153l99 -181h-107l-70 122l-70 -122h-105zM156 994q-2 12 -2.5 23.5
t-0.5 21.5q0 44 24.5 76.5t72.5 32.5q26 0 47 -9.5t39 -21.5t33 -21t30 -9q9 0 16 5t10.5 15.5t3.5 25.5q0 5 -0.5 10.5t-2.5 9.5h74q2 -12 2.5 -23t0.5 -22q0 -45 -24.5 -78t-73.5 -33q-25 0 -46.5 9.5t-39 21.5t-32.5 21.5t-30 9.5q-14 0 -22 -11.5t-8 -33.5q0 -5 1 -10
l2 -10h-74z" />
    <glyph glyph-name="uni1ED7" unicode="&#x1ed7;" horiz-adv-x="567" 
d="M31 271q0 69 12.5 121t41.5 87t77.5 53.5t120.5 18.5q73 0 121.5 -18.5t77.5 -53.5t41.5 -87t12.5 -121t-13.5 -122t-43.5 -88t-78 -53t-118 -18q-69 0 -117 18t-78 53t-43.5 88t-13.5 122zM167 271q0 -67 12 -106.5t38 -56.5t66 -17q42 0 67.5 17t37 56.5t11.5 106.5
t-10.5 106t-36 56t-69.5 17q-43 0 -68.5 -17t-36.5 -56t-11 -106zM105 596l106 194h146l104 -194h-108l-70 126l-70 -126h-108zM91 861q-2 12 -2.5 23.5t-0.5 21.5q0 44 24.5 76.5t72.5 32.5q26 0 47 -9.5t39 -21.5t33 -21t30 -9q9 0 16 5t10.5 15.5t3.5 25.5q0 5 -0.5 10.5
t-2.5 9.5h74q2 -12 2.5 -23t0.5 -22q0 -45 -24.5 -78t-73.5 -33q-25 0 -46.5 9.5t-39 21.5t-32.5 21.5t-30 9.5q-14 0 -22 -11.5t-8 -33.5q0 -5 1 -10l2 -10h-74z" />
    <glyph glyph-name="uni1ED8" unicode="&#x1ed8;" horiz-adv-x="697" 
d="M348 99q31 0 57.5 7t48 24.5t37 45.5t24 71.5t8.5 102.5q0 60 -8.5 103.5t-24.5 72t-37 45.5t-48 24t-57 7q-29 0 -55 -7t-47.5 -23.5t-37 -45.5t-24 -72.5t-8.5 -103.5t8.5 -102.5t24.5 -71.5t37.5 -46t47 -24t54.5 -7zM349 -10q-57 0 -105 11.5t-87 37t-65.5 67
t-41 102t-14.5 142.5t13.5 142t40 101.5t65.5 68t87 37.5t107 11q58 0 107 -11.5t87 -36.5t65 -66.5t41 -101.5t14 -141q0 -84 -14 -145t-41.5 -102.5t-65.5 -67t-86.5 -37t-106.5 -11.5zM348 -169q-28 0 -42 14t-14 46q0 33 14 46.5t42 13.5q29 0 42.5 -13.5t13.5 -46.5
q0 -32 -13.5 -46t-42.5 -14zM173 745l100 181h153l99 -181h-107l-70 122l-70 -122h-105z" />
    <glyph glyph-name="uni1ED9" unicode="&#x1ed9;" horiz-adv-x="567" 
d="M31 271q0 69 12.5 121t41.5 87t77.5 53.5t120.5 18.5q73 0 121.5 -18.5t77.5 -53.5t41.5 -87t12.5 -121t-13.5 -122t-43.5 -88t-78 -53t-118 -18q-69 0 -117 18t-78 53t-43.5 88t-13.5 122zM167 271q0 -67 12 -106.5t38 -56.5t66 -17q42 0 67.5 17t37 56.5t11.5 106.5
t-10.5 106t-36 56t-69.5 17q-43 0 -68.5 -17t-36.5 -56t-11 -106zM284 -193q-28 0 -42 14t-14 46q0 33 14 46.5t42 13.5q29 0 42.5 -13.5t13.5 -46.5q0 -32 -13.5 -46t-42.5 -14zM105 596l106 194h146l104 -194h-108l-70 126l-70 -126h-108z" />
    <glyph glyph-name="uni1EDA" unicode="&#x1eda;" horiz-adv-x="697" 
d="M348 99q31 0 57.5 7t48 24.5t37 45.5t24 71.5t8.5 102.5q0 60 -8.5 103.5t-24.5 72t-37 45.5t-48 24t-57 7q-29 0 -55 -7t-47.5 -23.5t-37 -45.5t-24 -72.5t-8.5 -103.5t8.5 -102.5t24.5 -71.5t37.5 -46t47 -24t54.5 -7zM349 -10q-57 0 -105 11.5t-87 37t-65.5 67
t-41 102t-14.5 142.5t13.5 142t40 101.5t65.5 68t87 37.5t107 11q58 0 107 -11.5t87 -36.5t65 -66.5t41 -101.5t14 -141q0 -84 -14 -145t-41.5 -102.5t-65.5 -67t-86.5 -37t-106.5 -11.5zM482 603v84h9q31 0 49 13.5t21.5 41.5t-8.5 69l111 4q13 -49 9.5 -88.5t-24 -67
t-57.5 -42t-89 -14.5h-21zM294 745l96 181h129l-125 -181h-100z" />
    <glyph glyph-name="uni1EDB" unicode="&#x1edb;" horiz-adv-x="567" 
d="M31 271q0 69 12.5 121t41.5 87t77.5 53.5t120.5 18.5q73 0 121.5 -18.5t77.5 -53.5t41.5 -87t12.5 -121t-13.5 -122t-43.5 -88t-78 -53t-118 -18q-69 0 -117 18t-78 53t-43.5 88t-13.5 122zM167 271q0 -67 12 -106.5t38 -56.5t66 -17q42 0 67.5 17t37 56.5t11.5 106.5
t-10.5 106t-36 56t-69.5 17q-43 0 -68.5 -17t-36.5 -56t-11 -106zM358 449v84h9q31 0 49 13.5t21.5 41.5t-8.5 69l111 4q13 -49 9.5 -88.5t-24 -67t-57.5 -42t-89 -14.5h-21zM224 595l101 194h132l-131 -194h-102z" />
    <glyph glyph-name="uni1EDC" unicode="&#x1edc;" horiz-adv-x="697" 
d="M348 99q31 0 57.5 7t48 24.5t37 45.5t24 71.5t8.5 102.5q0 60 -8.5 103.5t-24.5 72t-37 45.5t-48 24t-57 7q-29 0 -55 -7t-47.5 -23.5t-37 -45.5t-24 -72.5t-8.5 -103.5t8.5 -102.5t24.5 -71.5t37.5 -46t47 -24t54.5 -7zM349 -10q-57 0 -105 11.5t-87 37t-65.5 67
t-41 102t-14.5 142.5t13.5 142t40 101.5t65.5 68t87 37.5t107 11q58 0 107 -11.5t87 -36.5t65 -66.5t41 -101.5t14 -141q0 -84 -14 -145t-41.5 -102.5t-65.5 -67t-86.5 -37t-106.5 -11.5zM482 603v84h9q31 0 49 13.5t21.5 41.5t-8.5 69l111 4q13 -49 9.5 -88.5t-24 -67
t-57.5 -42t-89 -14.5h-21zM297 745l-125 182h136l96 -182h-107z" />
    <glyph glyph-name="uni1EDD" unicode="&#x1edd;" horiz-adv-x="567" 
d="M31 271q0 69 12.5 121t41.5 87t77.5 53.5t120.5 18.5q73 0 121.5 -18.5t77.5 -53.5t41.5 -87t12.5 -121t-13.5 -122t-43.5 -88t-78 -53t-118 -18q-69 0 -117 18t-78 53t-43.5 88t-13.5 122zM167 271q0 -67 12 -106.5t38 -56.5t66 -17q42 0 67.5 17t37 56.5t11.5 106.5
t-10.5 106t-36 56t-69.5 17q-43 0 -68.5 -17t-36.5 -56t-11 -106zM358 449v84h9q31 0 49 13.5t21.5 41.5t-8.5 69l111 4q13 -49 9.5 -88.5t-24 -67t-57.5 -42t-89 -14.5h-21zM233 596l-131 194h137l101 -194h-107z" />
    <glyph glyph-name="uni1EDE" unicode="&#x1ede;" horiz-adv-x="698" 
d="M348 99q31 0 57.5 7t48 24.5t37 45.5t24 71.5t8.5 102.5q0 60 -8.5 103.5t-24.5 72t-37 45.5t-48 24t-57 7q-29 0 -55 -7t-47.5 -23.5t-37 -45.5t-24 -72.5t-8.5 -103.5t8.5 -102.5t24.5 -71.5t37.5 -46t47 -24t54.5 -7zM349 -10q-57 0 -105 11.5t-87 37t-65.5 67
t-41 102t-14.5 142.5t13.5 142t40 101.5t65.5 68t87 37.5t107 11q58 0 107 -11.5t87 -36.5t65 -66.5t41 -101.5t14 -141q0 -84 -14 -145t-41.5 -102.5t-65.5 -67t-86.5 -37t-106.5 -11.5zM482 603v84h9q31 0 49 13.5t21.5 41.5t-8.5 69l111 4q13 -49 9.5 -88.5t-24 -67
t-57.5 -42t-89 -14.5h-21zM310 746l-9 60q30 4 40.5 14t10.5 23q0 17 -11 24t-28 7q-16 0 -29 -3t-27 -7l-15 73q10 4 25.5 8t32 6.5t31.5 2.5q50 0 80 -24t30 -68q0 -41 -27.5 -72.5t-103.5 -43.5z" />
    <glyph glyph-name="uni1EDF" unicode="&#x1edf;" horiz-adv-x="567" 
d="M31 271q0 69 12.5 121t41.5 87t77.5 53.5t120.5 18.5q73 0 121.5 -18.5t77.5 -53.5t41.5 -87t12.5 -121t-13.5 -122t-43.5 -88t-78 -53t-118 -18q-69 0 -117 18t-78 53t-43.5 88t-13.5 122zM167 271q0 -67 12 -106.5t38 -56.5t66 -17q42 0 67.5 17t37 56.5t11.5 106.5
t-10.5 106t-36 56t-69.5 17q-43 0 -68.5 -17t-36.5 -56t-11 -106zM358 449v84h9q31 0 49 13.5t21.5 41.5t-8.5 69l111 4q13 -49 9.5 -88.5t-24 -67t-57.5 -42t-89 -14.5h-21zM253 596l-9 60q30 4 40.5 14t10.5 23q0 17 -11 24t-28 7q-16 0 -29 -3t-27 -7l-15 73q10 4 25.5 8
t32 6.5t31.5 2.5q50 0 80 -24t30 -68q0 -41 -27.5 -72.5t-103.5 -43.5z" />
    <glyph glyph-name="uni1EE0" unicode="&#x1ee0;" horiz-adv-x="698" 
d="M348 99q31 0 57.5 7t48 24.5t37 45.5t24 71.5t8.5 102.5q0 60 -8.5 103.5t-24.5 72t-37 45.5t-48 24t-57 7q-29 0 -55 -7t-47.5 -23.5t-37 -45.5t-24 -72.5t-8.5 -103.5t8.5 -102.5t24.5 -71.5t37.5 -46t47 -24t54.5 -7zM349 -10q-57 0 -105 11.5t-87 37t-65.5 67
t-41 102t-14.5 142.5t13.5 142t40 101.5t65.5 68t87 37.5t107 11q58 0 107 -11.5t87 -36.5t65 -66.5t41 -101.5t14 -141q0 -84 -14 -145t-41.5 -102.5t-65.5 -67t-86.5 -37t-106.5 -11.5zM482 603v84h9q31 0 49 13.5t21.5 41.5t-8.5 69l111 4q13 -49 9.5 -88.5t-24 -67
t-57.5 -42t-89 -14.5h-21zM177 761q-1 11 -2 22.5t-1 21.5q0 54 22 81.5t61 27.5q21 0 37 -8.5t31 -20t29.5 -20t30.5 -8.5q14 0 22 10.5t8 28.5v10.5t-1 10.5h62q2 -12 2.5 -23t0.5 -22q0 -53 -22 -80.5t-61 -27.5q-22 0 -38.5 8.5t-31.5 20.5t-28.5 20.5t-29.5 8.5
q-14 0 -22 -11.5t-8 -29.5q0 -4 1 -9.5t2 -10.5h-64z" />
    </font>
</defs>
</svg>
